<?xml version="1.0" encoding="utf-8"?>
<!-- Generator: Adobe Illustrator 15.1.0, SVG Export Plug-In . SVG Version: 6.00 Build 0)  -->
<!DOCTYPE svg PUBLIC "-//W3C//DTD SVG 1.1//EN" "http://www.w3.org/Graphics/SVG/1.1/DTD/svg11.dtd">
<svg version="1.1" id="Layer_1" xmlns="http://www.w3.org/2000/svg" xmlns:xlink="http://www.w3.org/1999/xlink" x="0px" y="0px"
	 width="276.489px" height="78.032px" viewBox="0 0 276.489 78.032" enable-background="new 0 0 276.489 78.032"
	 xml:space="preserve">
<g>
	<g>
		<path fill-rule="evenodd" clip-rule="evenodd" fill="#E7323E" d="M85.656,63.098l15.949-41.771h11.822L93.964,71.114
			c-0.912,2.348-2.04,4.107-3.416,5.234c-1.381,1.131-3.06,1.684-5.002,1.684c-1.946,0-3.612-0.553-4.958-1.693
			c-1.33-1.117-2.443-2.885-3.351-5.225L57.896,21.327h11.763L85.656,63.098z"/>
		<path fill-rule="evenodd" clip-rule="evenodd" fill="#E7323E" d="M178.145,21.327h10.624v7.607
			c1.679-2.392,3.815-4.204,6.408-5.401c3.18-1.474,7.421-2.189,12.681-2.189h0.598l-0.418,10.591h-0.556
			c-6.928,0-10.371,1.558-13.362,4.599c-2.981,3.023-4.533,8.01-4.533,15.131v25.23h-11.441V21.327z"/>
		<path fill-rule="evenodd" clip-rule="evenodd" fill="#E7323E" d="M214.867,1.881C216.187,0.631,217.814,0,219.702,0
			c1.886,0,3.509,0.617,4.815,1.854c1.303,1.244,1.958,2.787,1.958,4.609c0,1.854-0.655,3.435-1.958,4.715
			c-1.307,1.275-2.915,1.911-4.815,1.911c-1.86,0-3.478-0.644-4.812-1.938c-1.341-1.294-2.013-2.865-2.013-4.687
			C212.878,4.672,213.545,3.133,214.867,1.881z M213.948,21.354h11.45v55.568h-11.45V21.354z"/>
		<path fill-rule="evenodd" clip-rule="evenodd" fill="#E7323E" d="M256.79,66.417c2.431,0,4.261-0.449,5.553-1.287
			c1.263-0.826,1.871-1.92,1.871-3.338c0-1.201-0.46-2.213-1.415-3.07c-0.987-0.885-2.915-1.928-5.873-3.109l-9.806-3.771
			c-5.764-2.219-10.157-4.525-12.434-6.934c-2.295-2.434-3.436-5.532-3.436-9.246c0-4.58,1.501-8.123,4.945-10.673
			c3.725-2.738,7.566-3.661,15.161-3.661h21.787v10.245h-24.536c-1.868,0-3.245,0.399-4.205,1.115
			c-0.928,0.684-1.404,1.653-1.404,2.975c0,0.91,0.398,1.763,1.269,2.565c0.899,0.811,2.438,1.663,4.675,2.543l10.333,3.998
			c6.438,2.512,11.188,5.084,13.519,7.514c2.344,2.438,3.695,5.688,3.695,9.416c0,5.227-2.01,8.752-5.811,11.641
			c-2.356,1.785-4.484,2.686-7.064,3.131c-1.271,0.213-2.652,0.322-4.242,0.373c-1.566,0.059-3.333,0.053-5.386,0.053h-22.545
			V66.417H256.79z"/>
		<path fill-rule="evenodd" clip-rule="evenodd" fill="#E7323E" d="M47.905,49.217c0-5.562-1.679-10.024-5.002-13.425
			c-3.325-3.408-7.654-5.125-13.019-5.125c-5.331,0-9.67,1.702-13.05,5.072c-3.389,3.376-5.095,7.718-5.095,13.087
			c0,5.49,1.746,9.938,5.238,13.404c3.478,3.465,7.922,5.211,13.371,5.211c2.475,0,4.867-0.398,7.208-1.191
			c2.333-0.787,3.268-1.178,5.502-2.586l1.166-0.729v11.521c-2.722,1.445-3.961,1.787-6.636,2.416
			c-2.675,0.615-5.475,0.93-8.409,0.93c-2.827,0-5.633-0.406-8.414-1.213c-2.772-0.811-5.299-1.957-7.567-3.432
			c-4.265-2.756-7.538-6.195-9.805-10.34C1.132,58.674,0,54.077,0,49.024c0-8.281,2.804-15.162,8.418-20.594
			c5.621-5.42,12.75-8.123,21.346-8.123c5.669,0,10.867,1.338,15.59,4.024c4.717,2.68,8.351,6.366,10.895,11.051
			c1.178,2.135,2.018,4.451,2.519,6.966c0.509,2.525,0.752,6.238,0.752,11.135v23.412H47.905V49.217z"/>
		<path fill-rule="evenodd" clip-rule="evenodd" fill="#E7323E" d="M159.636,49.217c0-5.562-1.693-10.024-5.013-13.425
			c-3.323-3.408-7.649-5.125-13.019-5.125c-5.335,0-9.674,1.702-13.054,5.072c-3.39,3.376-5.087,7.718-5.087,13.087
			c0,5.49,1.753,9.938,5.23,13.404c3.485,3.465,7.932,5.211,13.375,5.211c2.471,0,4.873-0.398,7.21-1.191
			c2.336-0.787,3.277-1.178,5.507-2.586l1.159-0.729v11.521c-2.726,1.445-3.963,1.787-6.634,2.416
			c-2.671,0.615-5.475,0.93-8.41,0.93c-2.818,0-5.624-0.406-8.411-1.213c-2.776-0.811-5.308-1.957-7.569-3.432
			c-4.261-2.756-7.54-6.195-9.806-10.34c-2.263-4.145-3.388-8.742-3.388-13.795c0-8.281,2.804-15.162,8.417-20.594
			c5.614-5.42,12.744-8.123,21.336-8.123c5.68,0,10.878,1.338,15.592,4.024c4.715,2.68,8.359,6.366,10.899,11.051
			c1.183,2.135,2.021,4.451,2.527,6.966c0.5,2.525,0.749,6.238,0.749,11.135v23.412h-11.612V49.217z"/>
	</g>
</g>
</svg>
