<?xml version="1.0" encoding="UTF-8"?>
<svg width="87px" height="41px" viewBox="0 0 87 41" version="1.1" xmlns="http://www.w3.org/2000/svg" xmlns:xlink="http://www.w3.org/1999/xlink">
    <!-- Generator: Sketch 55.1 (78136) - https://sketchapp.com -->
    <title>avaris-logo-rot</title>
    <desc>Created with Sketch.</desc>
    <g id="Page-1" stroke="none" stroke-width="1" fill="none" fill-rule="evenodd">
        <g id="Expertise" transform="translate(-925.000000, -2074.000000)">
            <rect fill="#FFFFFF" x="0" y="0" width="1600" height="2530"></rect>
            <g id="Logo_Avaris_rot" transform="translate(928.000000, 2081.000000)" fill="#E7323E">
                <path d="M25.0474224,18.3703038 L29.7112094,6.20912658 L33.1681841,6.20912658 L27.4768375,20.7040759 C27.2101516,21.3876709 26.8803032,21.8997848 26.477935,22.2278987 C26.0741047,22.5571772 25.5831336,22.7181772 25.0152563,22.7181772 C24.4462094,22.7181772 23.9590397,22.5571772 23.565444,22.2252785 C23.1765271,21.9000759 22.851065,21.3853418 22.5855487,20.7040759 L16.9298773,6.20912658 L20.3695993,6.20912658 L25.0474224,18.3703038 Z" id="Shape"></path>
                <path d="M52.0929422,6.20912658 L55.1995993,6.20912658 L55.1995993,8.42382278 C55.6905704,7.72741772 56.3151769,7.19987342 57.0734188,6.85137975 C58.0033105,6.42224051 59.2434585,6.21407595 60.7815812,6.21407595 L60.9564477,6.21407595 L60.8342166,9.29753165 L60.6716318,9.29753165 C58.6457545,9.29753165 57.6389567,9.75112658 56.7643321,10.636481 C55.8926318,11.5165949 55.4387978,12.9685063 55.4387978,15.0417089 L55.4387978,22.3871519 L52.0932347,22.3871519 L52.0932347,6.20912658 L52.0929422,6.20912658 Z" id="Shape"></path>
                <path d="M62.8311444,0.547632911 C63.2171372,0.183708861 63.6929025,0 64.2449892,0 C64.796491,0 65.2710866,0.179632911 65.6529856,0.539772152 C66.0340072,0.901949367 66.2255415,1.35117722 66.2255415,1.88163291 C66.2255415,2.42140506 66.0340072,2.8816962 65.6529856,3.25435443 C65.2707942,3.62555696 64.8005848,3.81072152 64.2449892,3.81072152 C63.7010903,3.81072152 63.2279567,3.62322785 62.83787,3.24649367 C62.4457365,2.86975949 62.249231,2.41237975 62.249231,1.88192405 C62.2495235,1.36020253 62.4445668,0.912139241 62.8311444,0.547632911 Z M62.5624116,6.21698734 L65.9106065,6.21698734 L65.9106065,22.3950127 L62.5624116,22.3950127 L62.5624116,6.21698734 Z" id="Shape"></path>
                <path d="M75.0902166,19.3365949 C75.8010866,19.3365949 76.336213,19.2058734 76.7140181,18.9618987 C77.083343,18.7214177 77.2611336,18.4029114 77.2611336,17.9900759 C77.2611336,17.6404177 77.1266209,17.3457848 76.847361,17.0962785 C76.5587437,16.8386203 75.9949603,16.534962 75.1299856,16.1911266 L72.2625271,15.0932405 C70.5770253,14.4472025 69.2924296,13.7758354 68.6265921,13.074481 C67.955491,12.3658481 67.6218412,11.4638987 67.6218412,10.3826076 C67.6218412,9.04918987 68.0607617,8.01768354 69.067852,7.27527848 C70.1571119,6.47813924 71.2802924,6.20941772 73.501213,6.20941772 L79.8721408,6.20941772 L79.8721408,9.19213924 L72.6973538,9.19213924 C72.1511155,9.19213924 71.7484549,9.3083038 71.4677329,9.51675949 C71.1963682,9.71589873 71.0571769,9.99801266 71.0571769,10.3828987 C71.0571769,10.6478354 71.1735596,10.8961772 71.4282563,11.1296709 C71.6911408,11.3657848 72.1411733,11.6138354 72.7953141,11.870038 L75.8168773,13.0340127 C77.6994693,13.7653544 79.0884585,14.5141646 79.7700866,15.2216329 C80.4555162,15.9314304 80.850574,16.8776329 80.850574,17.963 C80.850574,19.4847848 80.2628123,20.5110506 79.1513285,21.3521519 C78.4623899,21.8718354 77.8401227,22.1341519 77.0856823,22.2637089 C76.7140181,22.3257215 76.3101877,22.3574557 75.8452419,22.3723038 C75.3873141,22.389481 74.8706101,22.3877342 74.2702744,22.3877342 L67.6776931,22.3877342 L67.6776931,19.3365949 L75.0902166,19.3365949 Z" id="Shape"></path>
                <path d="M14.0083213,14.329 C14.0083213,12.7096835 13.5173502,11.4106203 12.5456426,10.4204557 C11.5733502,9.42825316 10.3074693,8.92836709 8.7386426,8.92836709 C7.17975812,8.92836709 5.91095307,9.42388608 4.92257762,10.4050253 C3.9315704,11.3879114 3.43270397,12.652038 3.43270397,14.2151646 C3.43270397,15.813519 3.94326715,17.1085063 4.9643935,18.1175949 C5.98142599,19.1263924 7.28093502,19.6347215 8.87432491,19.6347215 C9.59806137,19.6347215 10.2975271,19.5188481 10.9820794,19.2879747 C11.6642924,19.0588481 11.937704,18.9450127 12.5909675,18.5350886 L12.9319278,18.3228481 L12.9319278,21.6770633 C12.1359639,22.0977595 11.773657,22.1973291 10.9914368,22.3804557 C10.2092166,22.5595063 9.39044404,22.6512152 8.53248736,22.6512152 C7.70581949,22.6512152 6.88529242,22.5330127 6.07207581,22.2980633 C5.26149097,22.0619494 4.52254874,21.7283038 3.85934296,21.2988734 C2.6121769,20.4964937 1.65509025,19.4952658 0.992176895,18.2884937 C0.331018051,17.0823038 0,15.7439367 0,14.2728101 C0,11.8618861 0.819942238,9.85855696 2.46158123,8.27708861 C4.10526715,6.69911392 6.18992058,5.91216456 8.70355235,5.91216456 C10.3612744,5.91216456 11.8812671,6.30170886 13.262361,7.08370886 C14.6417004,7.86396203 15.7043502,8.93710127 16.4482635,10.3010886 C16.7927329,10.9226709 17.0383646,11.5969494 17.1848664,12.3291646 C17.3337076,13.0642911 17.4047653,14.1452911 17.4047653,15.571 L17.4047653,22.3871519 L14.0083213,22.3871519 L14.0083213,14.329 Z" id="Shape"></path>
                <path d="M46.6805632,14.329 C46.6805632,12.7096835 46.1854982,11.4106203 45.2146679,10.4204557 C44.2429603,9.42825316 42.9779567,8.92836709 41.4076679,8.92836709 C39.8476137,8.92836709 38.5788087,9.42388608 37.5904332,10.4050253 C36.5991336,11.3879114 36.1028989,12.652038 36.1028989,14.2151646 C36.1028989,15.813519 36.615509,17.1085063 37.6322491,18.1175949 C38.6513285,19.1263924 39.9517148,19.6347215 41.5433502,19.6347215 C42.265917,19.6347215 42.9683069,19.5188481 43.6516895,19.2879747 C44.3347798,19.0588481 44.6099458,18.9450127 45.2620397,18.5350886 L45.6009531,18.3228481 L45.6009531,21.6770633 C44.8038195,22.0977595 44.4420975,22.1973291 43.6610469,22.3804557 C42.8799964,22.5595063 42.0600542,22.6512152 41.2018051,22.6512152 C40.377769,22.6512152 39.5572419,22.5330127 38.7422708,22.2980633 C37.9305162,22.0619494 37.1901119,21.7283038 36.5289531,21.2988734 C35.2829567,20.4964937 34.3241155,19.4952658 33.6614946,18.2884937 C32.9997509,17.0817215 32.6707798,15.7433544 32.6707798,14.2722278 C32.6707798,11.8613038 33.490722,9.85797468 35.1320686,8.27650633 C36.7737076,6.69853165 38.8586534,5.91158228 41.3711155,5.91158228 C43.0320542,5.91158228 44.5520469,6.30112658 45.930509,7.08312658 C47.3092635,7.86337975 48.3748375,8.93651899 49.1175812,10.3005063 C49.4635126,10.9220886 49.7085596,11.5963671 49.8565235,12.3285823 C50.0027329,13.0637089 50.0755451,14.1447089 50.0755451,15.5704177 L50.0755451,22.3865696 L46.6799783,22.3865696 L46.6799783,14.329 L46.6805632,14.329 Z" id="Shape"></path>
            </g>
        </g>
    </g>
</svg>