<?xml version="1.0" encoding="UTF-8"?>
<svg width="57px" height="41px" viewBox="0 0 57 41" version="1.1" xmlns="http://www.w3.org/2000/svg" xmlns:xlink="http://www.w3.org/1999/xlink">
    <!-- Generator: Sketch 55.1 (78136) - https://sketchapp.com -->
    <title>boldandfriendly-logo-rot</title>
    <desc>Created with Sketch.</desc>
    <g id="Page-1" stroke="none" stroke-width="1" fill="none" fill-rule="evenodd">
        <g id="Expertise" transform="translate(-689.000000, -2074.000000)">
            <rect fill="#FFFFFF" x="0" y="0" width="1600" height="2530"></rect>
            <g id="Logo_b&amp;f_Pfad" transform="translate(691.000000, 2077.000000)" fill="#E1353C">
                <path d="M0,11.4827885 L3.34630449,11.4827885 C4.80261538,11.4827885 5.80961538,11.3881154 6.61514744,10.6462212 C7.31230128,9.99908654 7.68415064,9.06775962 7.68415064,8.01017308 C7.68415064,6.65273077 7.06445833,5.81616346 5.79407212,5.42154808 C6.75461218,4.93225962 7.17292147,4.19036538 7.17292147,3.02226923 C7.17292147,1.25446154 6.0109984,0.259961538 3.76461378,0.259961538 L0,0.259961538 L0,11.4827885 Z M2.60269071,9.13093269 L2.60269071,6.76324038 L3.47022596,6.76324038 C4.53922917,6.76324038 5.01945673,7.01575962 5.01945673,7.96283654 C5.01945673,8.87832692 4.53922917,9.13093269 3.51677083,9.13093269 L2.60269071,9.13093269 Z M2.60269071,4.61656731 L2.60269071,2.61190385 L3.48576923,2.61190385 C4.32230288,2.61190385 4.72515385,2.92759615 4.72515385,3.66949038 C4.72515385,4.39554808 4.26038462,4.61656731 3.25338462,4.61656731 L2.60269071,4.61656731 L2.60269071,4.61656731 Z" id="Fill-1"></path>
                <path d="M8.31267628,5.75299038 C8.31267628,7.410375 8.83944872,8.79940385 9.87736538,9.92016346 C10.9618269,11.0881731 12.3561346,11.6879712 13.9828269,11.6879712 C15.5165994,11.6879712 16.9728253,11.0724231 18.0418285,9.93591346 C19.0797452,8.84682692 19.6375192,7.410375 19.6375192,5.80041346 C19.6375192,4.26928846 19.0488285,2.83292308 17.9333654,1.71216346 C16.8643622,0.638826923 15.4700545,0.0547788462 13.9982853,0.0547788462 C12.4335962,0.0547788462 11.0702901,0.607240385 9.98582853,1.69641346 C8.90136699,2.7855 8.31267628,4.20611538 8.31267628,5.75299038 Z M11.0857484,5.78457692 C11.0857484,4.14302885 12.3716779,2.83292308 14.0138285,2.83292308 C15.5630593,2.83292308 16.8489038,4.14302885 16.8489038,5.78457692 C16.8489038,7.61555769 15.5630593,8.90991346 13.9828269,8.90991346 C12.4645978,8.90991346 11.0857484,7.55247115 11.0857484,5.78457692 L11.0857484,5.78457692 Z" id="Fill-2"></path>
                <polyline id="Fill-3" points="26.4164231 11.4827885 26.4164231 9.00467308 23.2715016 9.00467308 23.2715016 0.259961538 20.5913494 0.259961538 20.5913494 11.4827885 26.4164231 11.4827885"></polyline>
                <path d="M31.5687196,11.4827885 C33.1179503,11.4827885 34.1559519,11.2618558 35.3333333,10.0937596 C36.3867933,9.03617308 36.929024,7.63139423 36.929024,5.92667308 C36.929024,4.07985577 36.3713349,2.61190385 35.317875,1.60165385 C34.1714103,0.496730769 32.947484,0.259961538 31.1968702,0.259961538 L27.4322564,0.259961538 L27.4322564,11.4827885 L31.5687196,11.4827885 Z M31.2124135,9.02042308 L30.1279519,9.02042308 L30.1279519,2.67507692 L31.1968702,2.67507692 C33.1798686,2.67507692 34.2488718,3.8115 34.2488718,5.83191346 C34.2488718,8.04175962 33.2728734,9.02042308 31.2124135,9.02042308 L31.2124135,9.02042308 Z" id="Fill-4"></path>
                <path d="M19.6618109,22.5992596 L20.9167388,23.9093654 L22.589891,22.1730577 L21.1645817,20.6577692 C21.6448093,19.8685385 22.2025833,18.6846923 22.7758157,17.0904808 L20.2815032,17.0904808 L19.4914295,18.8267885 L18.2675032,17.5797692 C19.2280433,16.7747885 19.7238141,15.8277115 19.7238141,14.8964712 C19.7238141,13.4600192 18.4998878,12.2130865 16.8112772,12.2130865 C15.0296619,12.2130865 13.8058205,13.4758558 13.8058205,15.1805769 C13.8058205,15.8908846 14.1156667,16.6958654 14.7662756,17.5482692 C13.4339712,18.5268462 12.7832772,19.4108365 12.7832772,20.5946827 C12.7832772,22.4414135 14.2085865,23.8778654 16.3775096,23.8778654 C17.6943558,23.8778654 18.7322724,23.48325 19.6618109,22.5992596 Z M16.8267356,16.30125 C16.4085112,15.9223846 16.1761266,15.4488462 16.1761266,15.0384808 C16.1761266,14.5965288 16.4549712,14.2965865 16.8577372,14.2965865 C17.2295865,14.2965865 17.4774295,14.5649423 17.4774295,14.9753942 C17.4774295,15.4330962 17.2605032,15.8434615 16.8267356,16.30125 Z M18.0196603,20.8156154 C17.5084311,21.2418173 17.0901218,21.4943365 16.594351,21.4943365 C15.8971971,21.4943365 15.4015112,21.0207981 15.4015112,20.40525 C15.4015112,19.915875 15.7113574,19.4423365 16.3310497,19.0951442 L18.0196603,20.8156154 L18.0196603,20.8156154 Z" id="Fill-5"></path>
                <polyline id="Fill-6" points="26.5426378 23.7696058 29.2382484 23.7696058 29.2382484 19.3499135 32.5226346 19.3499135 32.5226346 16.824375 29.2382484 16.824375 29.2382484 15.0249808 32.5226346 15.0249808 32.5226346 12.5467788 26.5426378 12.5467788 26.5426378 23.7696058"></polyline>
                <path d="M36.5439247,23.7696058 L36.5439247,20.1548942 L38.6508446,23.7696058 L41.9816907,23.7696058 L39.2860801,19.918125 C40.8507692,19.4761731 41.7803077,18.1187308 41.7803077,16.3035 C41.7803077,14.9144712 41.2690785,13.8568846 40.2930801,13.1624135 C39.5493814,12.6257019 38.6663878,12.5467788 37.5044647,12.5467788 L33.8483141,12.5467788 L33.8483141,23.7696058 L36.5439247,23.7696058 Z M36.5439247,17.7241154 L36.5439247,15.0565673 L37.2875385,15.0565673 C38.4804631,15.0565673 39.0536955,15.4353462 39.0536955,16.3666731 C39.0536955,17.3768365 38.4030016,17.7241154 37.0706971,17.7241154 L36.5439247,17.7241154 L36.5439247,17.7241154 Z" id="Fill-7"></path>
                <polygon id="Fill-8" points="42.8890609 23.7696058 45.5847564 23.7696058 45.5847564 12.5467788 42.8890609 12.5467788"></polygon>
                <polyline id="Fill-9" points="52.9678942 23.7696058 52.9678942 21.2914038 49.683508 21.2914038 49.683508 19.3341635 52.9678942 19.3341635 52.9678942 16.8402115 49.683508 16.8402115 49.683508 15.0249808 52.9678942 15.0249808 52.9678942 12.5467788 46.9878974 12.5467788 46.9878974 23.7696058 52.9678942 23.7696058"></polyline>
                <polyline id="Fill-10" points="15.547516 36 15.547516 29.7493269 19.6529776 36 22.0232837 36 22.0232837 24.7771731 19.3276731 24.7771731 19.3276731 31.0120962 15.2842147 24.7771731 12.8519054 24.7771731 12.8519054 36 15.547516 36"></polyline>
                <path d="M27.5783462,36 C29.1275769,36 30.1655785,35.7789808 31.3429599,34.6109712 C32.3964199,33.5533846 32.9386506,32.1486058 32.9386506,30.4438846 C32.9386506,28.5970673 32.3809615,27.1291154 31.3275016,26.1188654 C30.1810369,25.0139423 28.9571955,24.7771731 27.2065817,24.7771731 L23.4419679,24.7771731 L23.4419679,36 L27.5783462,36 Z M27.2220401,33.5376346 L26.1375785,33.5376346 L26.1375785,27.1922019 L27.2065817,27.1922019 C29.1895801,27.1922019 30.2584984,28.3287115 30.2584984,30.349125 C30.2584984,32.5589712 29.2825,33.5376346 27.2220401,33.5376346 L27.2220401,33.5376346 Z" id="Fill-11"></path>
                <polyline id="Fill-12" points="39.7176394 36 39.7176394 33.5217981 36.5727179 33.5217981 36.5727179 24.7771731 33.8925657 24.7771731 33.8925657 36 39.7176394 36"></polyline>
                <polyline id="Fill-13" points="44.7769311 36 44.7769311 31.8486635 47.9838558 24.7771731 45.1642388 24.7771731 43.4910865 28.8969231 41.8953958 24.7771731 38.936399 24.7771731 42.0657772 31.8486635 42.0657772 36 44.7769311 36"></polyline>
                <path d="M11.7981907,24.7771731 C11.7770417,24.8619808 11.754109,24.9464423 11.7293077,25.0303846 C11.2126426,26.778375 9.89554167,28.267875 8.23139263,28.9733365 C6.41104647,29.745 4.22708974,29.5442308 2.5671875,28.4379231 C1.30673878,27.5978077 0.383315705,26.2690962 0,24.7771731 L2.4358766,24.7771731 C2.45260897,24.8164615 2.47010577,24.8554904 2.48828205,24.8942596 C3.09701763,26.1912981 4.45854006,27.0851538 5.89557051,27.0851538 C6.85594071,27.0851538 7.81138462,26.6938269 8.50616026,26.0149327 C8.86450481,25.6647115 9.14717147,25.2405865 9.3433734,24.7771731 L11.7981907,24.7771731" id="Fill-14"></path>
            </g>
        </g>
    </g>
</svg>