<?xml version="1.0" encoding="UTF-8"?>
<svg width="122px" height="41px" viewBox="0 0 122 41" version="1.1" xmlns="http://www.w3.org/2000/svg" xmlns:xlink="http://www.w3.org/1999/xlink">
    <!-- Generator: Sketch 55.1 (78136) - https://sketchapp.com -->
    <title>bonninski-logo-rot</title>
    <desc>Created with Sketch.</desc>
    <g id="Page-1" stroke="none" stroke-width="1" fill="none" fill-rule="evenodd">
        <g id="Expertise" transform="translate(-772.000000, -2074.000000)">
            <rect fill="#FFFFFF" x="0" y="0" width="1600" height="2530"></rect>
            <g id="Bonninski_logo_rot" transform="translate(775.000000, 2088.000000)" fill="#E7323E" fill-rule="nonzero">
                <path d="M0,14.0257258 L0,0.892983871 L2.03024893,0.892983871 C2.93460086,0.892983871 3.65499571,0.960967742 4.19193133,1.09717742 C4.73459227,1.23314516 5.19261803,1.46298387 5.56600858,1.78620968 C5.94512446,2.12080645 6.2455794,2.53741935 6.46737339,3.03653226 C6.6948927,3.54120968 6.80865236,4.05145161 6.80865236,4.5675 C6.80865236,5.50887097 6.43824893,6.30556452 5.69719313,6.95758065 C6.41484979,7.19564516 6.98066094,7.6125 7.39487554,8.20790323 C7.81506438,8.79774194 8.02490987,9.48362903 8.02490987,10.2662903 C8.02490987,11.2925806 7.65151931,12.1601613 6.9047382,12.8690323 C6.45542489,13.3057258 5.95084979,13.6091129 5.39076395,13.7791935 C4.77815451,13.9437097 4.01096137,14.0259677 3.08918455,14.0259677 L0,14.0259677 L0,14.0257258 Z M2.03896137,6.53225806 L2.67770815,6.53225806 C3.43618884,6.53225806 3.99179399,6.36919355 4.34477253,6.04330645 C4.69775107,5.71741935 4.87424034,5.23669355 4.87424034,4.6016129 C4.87424034,3.98346774 4.69327039,3.51435484 4.3315794,3.19403226 C3.96988841,2.87370968 3.44490129,2.71354839 2.7563691,2.71354839 L2.03896137,2.71354839 L2.03896137,6.53225806 Z M2.03896137,12.1628226 L3.29903004,12.1628226 C4.22080687,12.1628226 4.89763948,11.9869355 5.32927897,11.6354032 C5.7843176,11.2555645 6.01183691,10.773629 6.01183691,10.1893548 C6.01183691,9.62225806 5.79303004,9.14612903 5.35541631,8.76048387 C4.92950215,8.38064516 4.16803433,8.19072581 3.0712618,8.19072581 L2.03896137,8.19072581 L2.03896137,12.1628226 Z" id="Shape"></path>
                <path d="M11.6114506,7.39983871 C11.6114506,5.55120968 12.3086953,3.96362903 13.7029356,2.6366129 C15.0914506,1.30983871 16.7600086,0.646209677 18.7086094,0.646209677 C20.6338112,0.646209677 22.2849442,1.31540323 23.6617597,2.65354839 C25.0445494,3.99169355 25.7358197,5.59935484 25.7358197,7.47629032 C25.7358197,9.36459677 25.0415622,10.9664516 23.6530472,12.2818548 C22.2585579,13.6030645 20.5755622,14.2635484 18.6035622,14.2635484 C16.8590815,14.2635484 15.2925837,13.6766129 13.9040687,12.5029839 C12.3756567,11.2045161 11.6114506,9.50346774 11.6114506,7.39983871 Z M13.6678369,7.42112903 C13.6678369,8.87153226 14.1696738,10.0640323 15.1730987,10.998871 C16.1707983,11.9337097 17.3230815,12.401129 18.6299485,12.401129 C20.047588,12.401129 21.2436824,11.9252419 22.2179828,10.9734677 C23.1922833,10.0105645 23.6794335,8.83766129 23.6794335,7.45524194 C23.6794335,6.0558871 23.1980086,4.88322581 22.2354077,3.93701613 C21.2785322,2.985 20.0941373,2.50935484 18.6824721,2.50935484 C17.2765322,2.50935484 16.0891502,2.98524194 15.1205751,3.93701613 C14.1522489,4.87741935 13.6678369,6.03870968 13.6678369,7.42112903 Z" id="Shape"></path>
                <polygon id="Shape" points="30.0925408 14.0257258 30.0925408 0 39.9465665 10.0195161 39.9465665 0.892983871 41.9855279 0.892983871 41.9855279 14.8250806 32.1315021 4.83120968 32.1315021 14.0257258"></polygon>
                <polygon id="Shape" points="47.0158455 14.0257258 47.0158455 0 56.8698712 10.0195161 56.8698712 0.892983871 58.9088326 0.892983871 58.9088326 14.8250806 49.0548069 4.83096774 49.0548069 14.0254839 47.0158455 14.0254839"></polygon>
                <polygon id="Shape" points="65.9781116 0.892983871 65.9781116 14.0254839 63.9391502 14.0254839 63.9391502 0.892983871"></polygon>
                <polygon id="Shape" points="71.0173906 14.0257258 71.0173906 0 80.8714163 10.0195161 80.8714163 0.892983871 82.9103777 0.892983871 82.9103777 14.8250806 73.0563519 4.83096774 73.0563519 14.0254839 71.0173906 14.0254839"></polygon>
                <path d="M95.580515,2.84080645 L93.9263948,3.79354839 C93.6172275,3.27193548 93.3224979,2.93177419 93.0424549,2.77282258 C92.7507124,2.59137097 92.3743348,2.50064516 91.9135708,2.50064516 C91.3477597,2.50064516 90.8780343,2.65693548 90.5046438,2.96903226 C90.1312532,3.27556452 89.9445579,3.66120968 89.9445579,4.12645161 C89.9445579,4.76758065 90.4346953,5.28387097 91.414721,5.67556452 L92.762412,6.21169355 C93.8591845,6.64306452 94.6614764,7.16951613 95.1690386,7.79056452 C95.6766009,8.41209677 95.9305064,9.17395161 95.9305064,10.0758871 C95.9305064,11.2845968 95.5162918,12.2833065 94.6878627,13.0722581 C93.8534592,13.8665323 92.8179227,14.2637903 91.5812532,14.2637903 C90.4085579,14.2637903 89.4399828,13.9250806 88.6757768,13.2469355 C87.9232704,12.5697581 87.4535451,11.6187097 87.2668498,10.3937903 L89.3321974,9.95153226 C89.4255451,10.7228226 89.5888412,11.2558065 89.8223348,11.5504839 C90.2425236,12.1175806 90.8548841,12.401129 91.6601631,12.401129 C92.2961717,12.401129 92.8241459,12.1945161 93.2440858,11.7808065 C93.6642747,11.3673387 93.8741202,10.8430645 93.8741202,10.2084677 C93.8741202,9.95346774 93.8377768,9.71951613 93.7648412,9.50733871 C93.6919056,9.29516129 93.5781459,9.09919355 93.4235622,8.9208871 C93.2689785,8.74233871 93.0690901,8.57516129 92.8241459,8.41935484 C92.5792017,8.26354839 92.2874592,8.11475806 91.9489185,7.97322581 L90.6450386,7.44604839 C88.7955107,6.68685484 87.8707468,5.57612903 87.8707468,4.11435484 C87.8707468,3.12870968 88.258824,2.30419355 89.0347296,1.64104839 C89.8106352,0.97233871 90.7762232,0.637983871 91.9314936,0.637983871 C93.4887811,0.637983871 94.7052876,1.37225806 95.580515,2.84080645 Z" id="Shape"></path>
                <polygon id="Shape" points="102.221142 6.13258065 107.480721 0.893225806 110.202489 0.893225806 104.094069 6.83854839 110.237588 14.0257258 107.507107 14.0257258 102.64133 8.18225806 102.221142 8.59064516 102.221142 14.0257258 100.18218 14.0257258 100.18218 0.892983871 102.221142 0.892983871"></polygon>
                <polygon id="Shape" points="115.888979 0.892983871 115.888979 14.0254839 113.850017 14.0254839 113.850017 0.892983871"></polygon>
            </g>
        </g>
    </g>
</svg>