<?xml version="1.0" encoding="utf-8"?>
<!-- Generator: Adobe Illustrator 15.1.0, SVG Export Plug-In . SVG Version: 6.00 Build 0)  -->
<!DOCTYPE svg PUBLIC "-//W3C//DTD SVG 1.1//EN" "http://www.w3.org/Graphics/SVG/1.1/DTD/svg11.dtd">
<svg version="1.1" id="Layer_1" xmlns="http://www.w3.org/2000/svg" xmlns:xlink="http://www.w3.org/1999/xlink" x="0px" y="0px"
	 width="363.166px" height="73.325px" viewBox="0 0 363.166 73.325" enable-background="new 0 0 363.166 73.325"
	 xml:space="preserve">
<g>
	<path fill="#E7323E" d="M88.788,11.273h-3.435c-1.003,0-1.413,0.41-1.413,1.413V26.66c0,0.878,0,0.878-0.879,0.878h-3.435
		c-0.883,0-0.883,0-0.883-0.878V12.687c0-1.003-0.408-1.413-1.409-1.413h-3.436c-1.003,0-1.413,0.41-1.413,1.413v37.797
		c0,1.003,0.41,1.411,1.413,1.411h3.436c1,0,1.409-0.408,1.409-1.411V34.335c0-0.883,0-0.883,0.883-0.883h3.435
		c0.879,0,0.879,0,0.879,0.883v16.148c0,1.003,0.41,1.411,1.413,1.411h3.435c1.001,0,1.409-0.408,1.409-1.411V12.687
		C90.197,11.684,89.789,11.273,88.788,11.273z"/>
	<path fill="#E7323E" d="M113.395,12.519c-0.199-1-0.497-1.245-1.519-1.245h-3.094c-1.021,0-1.32,0.245-1.521,1.248l-7.215,38.087
		c-0.079,0.439-0.027,0.758,0.155,0.976c0.259,0.311,0.694,0.311,1.078,0.311h3.438c0.758,0,1.305,0,1.521-1.081l0.514-3.083
		c0.187-0.933,0.187-0.933,1.057-0.933h5.097c0.814,0,0.814,0,0.999,0.924l0.516,3.1c0.215,1.073,0.762,1.073,1.521,1.073h3.437
		c0.383,0,0.816,0,1.078-0.311c0.182-0.218,0.234-0.536,0.157-0.978L113.395,12.519z M112.713,40.833
		c-0.066,0.051-0.429,0.051-0.781,0.051h-3.207c-0.351,0-0.713,0-0.775-0.047c-0.044-0.075,0.01-0.439,0.062-0.79l2.318-13.714
		l2.312,13.71C112.697,40.397,112.753,40.762,112.713,40.833z"/>
	<path fill="#E7323E" d="M139.316,11.273h-7.445c-1.003,0-1.411,0.41-1.411,1.413v37.797c0,1.003,0.408,1.411,1.411,1.411h3.438
		c1.001,0,1.409-0.408,1.409-1.411V35.994c0-0.88,0-0.88,0.881-0.88h1.088c0.224,0,0.36,0,0.427,0.3l2.921,15.407
		c0.213,1.073,0.763,1.073,1.521,1.073h3.607c0.342,0,0.627-0.126,0.808-0.356c0.215-0.277,0.261-0.673,0.137-1.164l-3.402-16.903
		c2.333-1.813,3.466-4.906,3.466-9.446v-1.832C148.171,12.693,142.623,11.273,139.316,11.273z M141.914,20.703v5.041
		c0,2.557-0.85,3.8-2.598,3.8h-1.718c-0.881,0-0.881,0-0.881-0.881V17.726c0-0.88,0-0.88,0.881-0.88h1.718
		C140.431,16.845,141.914,17.245,141.914,20.703z"/>
	<path fill="#E7323E" d="M172.882,11.273h-14.89c-1.003,0-1.411,0.41-1.411,1.413v3.091c0,1.003,0.408,1.411,1.411,1.411h3.494
		c0.822,0,0.822,0,0.822,0.88v32.414c0,1.003,0.408,1.411,1.411,1.411h3.436c1.002,0,1.411-0.408,1.411-1.411V18.069
		c0-0.88,0-0.88,0.881-0.88h3.436c1.002,0,1.413-0.408,1.413-1.411v-3.091C174.295,11.684,173.885,11.273,172.882,11.273z"/>
	<path fill="#E7323E" d="M200.093,27.539h-6.185c-1.027,0-1.411,0.383-1.411,1.413v3.091c0,1.067,0.342,1.409,1.411,1.409h0.458
		c0.881,0,0.881,0,0.881,0.883v8.13c0,2.416-1.186,3.858-3.173,3.858c-1.986,0-3.172-1.442-3.172-3.858V20.703
		c0-2.416,1.186-3.858,3.172-3.858c1.987,0,3.173,1.442,3.173,3.858v0.4c0,1.003,0.408,1.413,1.408,1.413h3.38
		c0.416,0,0.767-0.141,1.016-0.408c0.296-0.317,0.435-0.804,0.396-1.37c-0.46-6.069-3.964-9.693-9.372-9.693
		c-5.905,0-9.43,4.167-9.43,11.147v18.785c0,6.98,3.524,11.147,9.43,11.147s9.43-4.167,9.43-11.147V28.952
		C201.504,27.949,201.096,27.539,200.093,27.539z"/>
	<path fill="#E7323E" d="M225.357,11.273h-12.083c-1.003,0-1.411,0.41-1.411,1.413v37.797c0,1.003,0.408,1.411,1.411,1.411h12.083
		c1.003,0,1.411-0.408,1.411-1.411v-3.091c0-1.003-0.408-1.411-1.411-1.411H219c-0.881,0-0.881,0-0.881-0.881V34.335
		c0-0.883,0-0.883,0.881-0.883h6.356c1.003,0,1.411-0.408,1.411-1.409v-3.091c0-1.003-0.408-1.413-1.411-1.413H219
		c-0.881,0-0.881,0-0.881-0.878v-8.591c0-0.88,0-0.88,0.881-0.88h6.356c1.003,0,1.411-0.408,1.411-1.411v-3.091
		C226.768,11.684,226.36,11.273,225.357,11.273z"/>
	<path fill="#E7323E" d="M255.559,12.796c0.257-0.57,0.161-0.92,0.037-1.115c-0.174-0.271-0.5-0.408-0.968-0.408h-3.38
		c-0.976,0-1.41,0.197-1.906,1.308l-5.961,13.857V12.687c0-1.003-0.408-1.413-1.411-1.413h-3.435c-1.003,0-1.411,0.41-1.411,1.413
		v37.797c0,1.003,0.408,1.411,1.411,1.411h3.435c1.003,0,1.411-0.408,1.411-1.411V39.088c0-0.563,0.059-0.92,0.21-1.272l1.332-3.24
		l4.407,15.977c0.259,0.966,0.748,1.343,1.746,1.343h3.38c0.46,0,0.793-0.132,0.994-0.394c0.139-0.182,0.273-0.52,0.12-1.088
		l-6.187-22.506c-0.143-0.526-0.112-0.605-0.013-0.855L255.559,12.796z"/>
	<path fill="#E7323E" d="M273.536,11.045c-5.903,0-9.428,4.167-9.428,11.147v18.785c0,6.98,3.524,11.147,9.428,11.147
		c5.905,0,9.43-4.167,9.43-11.147V22.193C282.965,15.212,279.441,11.045,273.536,11.045z M276.708,20.703v21.762
		c0,2.416-1.186,3.858-3.172,3.858c-1.985,0-3.171-1.442-3.171-3.858V20.703c0-2.416,1.186-3.858,3.171-3.858
		C275.522,16.845,276.708,18.287,276.708,20.703z"/>
	<path fill="#E7323E" d="M306.759,22.516h3.38c0.416,0,0.767-0.141,1.016-0.408c0.296-0.317,0.435-0.804,0.396-1.37
		c-0.46-6.069-3.964-9.693-9.372-9.693c-5.902,0-9.427,4.167-9.427,11.147v18.785c0,6.98,3.524,11.147,9.427,11.147
		c5.408,0,8.912-3.624,9.372-9.697c0.039-0.562-0.1-1.048-0.396-1.365c-0.249-0.268-0.6-0.408-1.016-0.408h-3.38
		c-1,0-1.408,0.408-1.408,1.411v0.399c0,2.416-1.186,3.858-3.173,3.858c-1.984,0-3.17-1.442-3.17-3.858V20.703
		c0-2.416,1.186-3.858,3.17-3.858c1.987,0,3.173,1.442,3.173,3.858v0.4C305.351,22.106,305.759,22.516,306.759,22.516z"/>
	<path fill="#E7323E" d="M335.115,11.273h-3.436c-1.003,0-1.411,0.41-1.411,1.413V26.66c0,0.878,0,0.878-0.88,0.878h-3.436
		c-0.881,0-0.881,0-0.881-0.878V12.687c0-1.003-0.408-1.413-1.411-1.413h-3.435c-1.003,0-1.411,0.41-1.411,1.413v37.797
		c0,1.003,0.408,1.411,1.411,1.411h3.435c1.003,0,1.411-0.408,1.411-1.411V34.335c0-0.883,0-0.883,0.881-0.883h3.436
		c0.88,0,0.88,0,0.88,0.883v16.148c0,1.003,0.408,1.411,1.411,1.411h3.436c1.003,0,1.411-0.408,1.411-1.411V12.687
		C336.526,11.684,336.118,11.273,335.115,11.273z"/>
	<path fill="#E7323E" d="M361.754,11.273h-14.892c-1,0-1.408,0.41-1.408,1.413v3.091c0,1.003,0.408,1.411,1.408,1.411h3.496
		c0.822,0,0.822,0,0.822,0.88v32.414c0,1.003,0.408,1.411,1.409,1.411h3.438c1.003,0,1.411-0.408,1.411-1.411V18.069
		c0-0.88,0-0.88,0.88-0.88h3.436c1.003,0,1.411-0.408,1.411-1.411v-3.091C363.166,11.684,362.757,11.273,361.754,11.273z"/>
</g>
<g>
	<rect x="8.001" y="66.96" fill="#E7323E" width="32.099" height="6.365"/>
	<path fill="#E7323E" d="M47.891,30.224C46.026,13.532,35.355,0,24.051,0C12.75,0,2.075,13.532,0.21,30.224
		c-1.86,16.692,8.81,30.225,23.84,30.225S49.748,46.916,47.891,30.224z M35.793,47.807c-3.054,3.413-7.113,5.216-11.742,5.216
		s-8.69-1.805-11.744-5.218c-3.721-4.158-5.439-10.267-4.716-16.756c1.554-13.922,9.923-23.623,16.46-23.623
		s14.906,9.701,16.46,23.619C41.234,37.54,39.512,43.648,35.793,47.807z"/>
</g>
</svg>
