<svg xmlns="http://www.w3.org/2000/svg" width="48" height="48" viewBox="0 0 48 48">
  <g fill="#E2353C" fill-rule="evenodd" transform="translate(-1421)">
    <text font-family="SourceSansPro-Semibold, Source Sans Pro" font-size="18" font-weight="500">
          <tspan x="1374.682" y="121">Impressum // AGB</tspan>
    </text>
    <path d="M1462.11607,15.3392857 C1461.21875,16.6517923 1460.13393,17.7700847 1458.86161,18.6941964 C1458.875,18.8816974 1458.8817,19.1629446 1458.8817,19.5379464 C1458.8817,21.2790266 1458.62723,23.0167324 1458.1183,24.7511161 C1457.60937,26.4854997 1456.83594,28.1495456 1455.79799,29.7433036 C1454.76004,31.3370615 1453.52456,32.7466457 1452.09152,33.9720982 C1450.65847,35.1975508 1448.93081,36.1752196 1446.90848,36.9051339 C1444.88615,37.6350483 1442.72323,38 1440.41964,38 C1436.79016,38 1433.46877,37.0290276 1430.45536,35.0870536 C1430.92411,35.1406253 1431.44643,35.1674107 1432.02232,35.1674107 C1435.03573,35.1674107 1437.72097,34.2433128 1440.07813,32.3950893 C1438.67187,32.3683034 1437.41295,31.9363881 1436.30134,31.0993304 C1435.18973,30.2622726 1434.42634,29.1942029 1434.01116,27.8950893 C1434.45313,27.9620539 1434.86161,27.9955357 1435.23661,27.9955357 C1435.8125,27.9955357 1436.38169,27.9218757 1436.9442,27.7745536 C1435.44419,27.4665163 1434.20201,26.719872 1433.21763,25.5345982 C1432.23325,24.3493244 1431.74107,22.9732221 1431.74107,21.40625 L1431.74107,21.3258929 C1432.65179,21.834824 1433.62946,22.1093748 1434.67411,22.1495536 C1433.79017,21.5602649 1433.08706,20.7901833 1432.56473,19.8392857 C1432.04241,18.8883881 1431.78125,17.8571484 1431.78125,16.7455357 C1431.78125,15.5669584 1432.07589,14.4754515 1432.66518,13.4709821 C1434.28572,15.4665278 1436.2578,17.0636101 1438.58147,18.2622768 C1440.90515,19.4609435 1443.39284,20.1272315 1446.04464,20.2611607 C1445.9375,19.7522296 1445.88393,19.2566988 1445.88393,18.7745536 C1445.88393,16.9799017 1446.51673,15.4497831 1447.78237,14.1841518 C1449.048,12.9185205 1450.57812,12.2857143 1452.37277,12.2857143 C1454.24778,12.2857143 1455.82812,12.9687432 1457.11384,14.3348214 C1458.57367,14.05357 1459.94642,13.5312538 1461.23214,12.7678571 C1460.7366,14.3080434 1459.78572,15.4999958 1458.37946,16.34375 C1459.62501,16.2098208 1460.87053,15.8750027 1462.11607,15.3392857 L1462.11607,15.3392857 Z"/>
  </g>
</svg>
