<?xml version="1.0" encoding="UTF-8"?>
<svg width="48px" height="48px" viewBox="0 0 48 48" version="1.1" xmlns="http://www.w3.org/2000/svg" xmlns:xlink="http://www.w3.org/1999/xlink">
    <!-- Generator: Sketch 47 (45396) - http://www.bohemiancoding.com/sketch -->
    <title>icon-instagram</title>
    <desc>Created with Sketch.</desc>
    <defs></defs>
    <g id="Page-1" stroke="none" stroke-width="1" fill="none" fill-rule="evenodd">
        <g id="Startseite" transform="translate(-1405.000000, -6575.000000)">
            <g id="Footer" transform="translate(40.000000, 6575.000000)"></g>
            <path d="M1434.92857,6599.42857 C1434.92857,6597.93005 1434.39844,6596.65067 1433.33817,6595.5904 C1432.2779,6594.53013 1430.99852,6594 1429.5,6594 C1428.00148,6594 1426.7221,6594.53013 1425.66183,6595.5904 C1424.60156,6596.65067 1424.07143,6597.93005 1424.07143,6599.42857 C1424.07143,6600.92709 1424.60156,6602.20647 1425.66183,6603.26674 C1426.7221,6604.32701 1428.00148,6604.85714 1429.5,6604.85714 C1430.99852,6604.85714 1432.2779,6604.32701 1433.33817,6603.26674 C1434.39844,6602.20647 1434.92857,6600.92709 1434.92857,6599.42857 Z M1437.85491,6599.42857 C1437.85491,6601.74704 1437.04205,6603.71911 1435.41629,6605.34487 C1433.79054,6606.97062 1431.81846,6607.78348 1429.5,6607.78348 C1427.18154,6607.78348 1425.20946,6606.97062 1423.58371,6605.34487 C1421.95795,6603.71911 1421.14509,6601.74704 1421.14509,6599.42857 C1421.14509,6597.11011 1421.95795,6595.13803 1423.58371,6593.51228 C1425.20946,6591.88652 1427.18154,6591.07366 1429.5,6591.07366 C1431.81846,6591.07366 1433.79054,6591.88652 1435.41629,6593.51228 C1437.04205,6595.13803 1437.85491,6597.11011 1437.85491,6599.42857 Z M1440.14509,6590.73438 C1440.14509,6591.27158 1439.95424,6591.73102 1439.57254,6592.11272 C1439.19085,6592.49442 1438.7314,6592.68527 1438.1942,6592.68527 C1437.65699,6592.68527 1437.19755,6592.49442 1436.81585,6592.11272 C1436.43415,6591.73102 1436.2433,6591.27158 1436.2433,6590.73438 C1436.2433,6590.19717 1436.43415,6589.73773 1436.81585,6589.35603 C1437.19755,6588.97433 1437.65699,6588.78348 1438.1942,6588.78348 C1438.7314,6588.78348 1439.19085,6588.97433 1439.57254,6589.35603 C1439.95424,6589.73773 1440.14509,6590.19717 1440.14509,6590.73438 Z M1429.5,6586.0692 C1429.40104,6586.0692 1428.86031,6586.06566 1427.87779,6586.05859 C1426.89527,6586.05153 1426.14956,6586.05153 1425.64062,6586.05859 C1425.13169,6586.06566 1424.4496,6586.08687 1423.59431,6586.12221 C1422.73902,6586.15755 1422.01098,6586.22824 1421.41016,6586.33426 C1420.80933,6586.44029 1420.30395,6586.57106 1419.89397,6586.72656 C1419.18712,6587.0093 1418.56511,6587.41927 1418.0279,6587.95647 C1417.4907,6588.49368 1417.08073,6589.1157 1416.79799,6589.82254 C1416.64248,6590.23252 1416.51172,6590.73791 1416.40569,6591.33873 C1416.29966,6591.93955 1416.22898,6592.66759 1416.19364,6593.52288 C1416.1583,6594.37817 1416.13709,6595.06027 1416.13002,6595.5692 C1416.12295,6596.07813 1416.12295,6596.82384 1416.13002,6597.80636 C1416.13709,6598.78888 1416.14062,6599.32961 1416.14062,6599.42857 C1416.14062,6599.52753 1416.13709,6600.06826 1416.13002,6601.05078 C1416.12295,6602.0333 1416.12295,6602.77902 1416.13002,6603.28795 C1416.13709,6603.79688 1416.1583,6604.47898 1416.19364,6605.33426 C1416.22898,6606.18955 1416.29966,6606.91759 1416.40569,6607.51842 C1416.51172,6608.11924 1416.64248,6608.62463 1416.79799,6609.0346 C1417.08073,6609.74145 1417.4907,6610.36346 1418.0279,6610.90067 C1418.56511,6611.43787 1419.18712,6611.84784 1419.89397,6612.13058 C1420.30395,6612.28609 1420.80933,6612.41685 1421.41016,6612.52288 C1422.01098,6612.62891 1422.73902,6612.69959 1423.59431,6612.73493 C1424.4496,6612.77028 1425.13169,6612.79148 1425.64062,6612.79855 C1426.14956,6612.80562 1426.89527,6612.80562 1427.87779,6612.79855 C1428.86031,6612.79148 1429.40104,6612.78795 1429.5,6612.78795 C1429.59896,6612.78795 1430.13969,6612.79148 1431.12221,6612.79855 C1432.10473,6612.80562 1432.85044,6612.80562 1433.35938,6612.79855 C1433.86831,6612.79148 1434.5504,6612.77028 1435.40569,6612.73493 C1436.26098,6612.69959 1436.98902,6612.62891 1437.58984,6612.52288 C1438.19067,6612.41685 1438.69605,6612.28609 1439.10603,6612.13058 C1439.81288,6611.84784 1440.43489,6611.43787 1440.9721,6610.90067 C1441.5093,6610.36346 1441.91927,6609.74145 1442.20201,6609.0346 C1442.35752,6608.62463 1442.48828,6608.11924 1442.59431,6607.51842 C1442.70034,6606.91759 1442.77102,6606.18955 1442.80636,6605.33426 C1442.8417,6604.47898 1442.86291,6603.79688 1442.86998,6603.28795 C1442.87705,6602.77902 1442.87705,6602.0333 1442.86998,6601.05078 C1442.86291,6600.06826 1442.85938,6599.52753 1442.85938,6599.42857 C1442.85938,6599.32961 1442.86291,6598.78888 1442.86998,6597.80636 C1442.87705,6596.82384 1442.87705,6596.07813 1442.86998,6595.5692 C1442.86291,6595.06027 1442.8417,6594.37817 1442.80636,6593.52288 C1442.77102,6592.66759 1442.70034,6591.93955 1442.59431,6591.33873 C1442.48828,6590.73791 1442.35752,6590.23252 1442.20201,6589.82254 C1441.91927,6589.1157 1441.5093,6588.49368 1440.9721,6587.95647 C1440.43489,6587.41927 1439.81288,6587.0093 1439.10603,6586.72656 C1438.69605,6586.57106 1438.19067,6586.44029 1437.58984,6586.33426 C1436.98902,6586.22824 1436.26098,6586.15755 1435.40569,6586.12221 C1434.5504,6586.08687 1433.86831,6586.06566 1433.35938,6586.05859 C1432.85044,6586.05153 1432.10473,6586.05153 1431.12221,6586.05859 C1430.13969,6586.06566 1429.59896,6586.0692 1429.5,6586.0692 Z M1445.78571,6599.42857 C1445.78571,6602.66594 1445.75037,6604.90662 1445.67969,6606.15067 C1445.53832,6609.09116 1444.66184,6611.36718 1443.05022,6612.97879 C1441.43861,6614.59041 1439.16259,6615.46689 1436.2221,6615.60826 C1434.97804,6615.67894 1432.73737,6615.71429 1429.5,6615.71429 C1426.26263,6615.71429 1424.02196,6615.67894 1422.7779,6615.60826 C1419.83741,6615.46689 1417.56139,6614.59041 1415.94978,6612.97879 C1414.33816,6611.36718 1413.46168,6609.09116 1413.32031,6606.15067 C1413.24963,6604.90662 1413.21429,6602.66594 1413.21429,6599.42857 C1413.21429,6596.1912 1413.24963,6593.95053 1413.32031,6592.70647 C1413.46168,6589.76598 1414.33816,6587.48996 1415.94978,6585.87835 C1417.56139,6584.26673 1419.83741,6583.39025 1422.7779,6583.24888 C1424.02196,6583.1782 1426.26263,6583.14286 1429.5,6583.14286 C1432.73737,6583.14286 1434.97804,6583.1782 1436.2221,6583.24888 C1439.16259,6583.39025 1441.43861,6584.26673 1443.05022,6585.87835 C1444.66184,6587.48996 1445.53832,6589.76598 1445.67969,6592.70647 C1445.75037,6593.95053 1445.78571,6596.1912 1445.78571,6599.42857 Z" id="" fill="#E2353C"></path>
        </g>
    </g>
</svg>