<?xml version="1.0" encoding="UTF-8"?>
<svg width="41px" height="50px" viewBox="0 0 41 50" version="1.1" xmlns="http://www.w3.org/2000/svg" xmlns:xlink="http://www.w3.org/1999/xlink">
    <!-- Generator: Sketch 47.1 (45422) - http://www.bohemiancoding.com/sketch -->
    <title>map-marker</title>
    <desc>Created with Sketch.</desc>
    <defs>
        <linearGradient x1="100%" y1="41.7946142%" x2="0%" y2="41.794613%" id="linearGradient-1">
            <stop stop-color="#1E1964" offset="0%"></stop>
            <stop stop-color="#E2353C" offset="100%"></stop>
        </linearGradient>
    </defs>
    <g id="Page-1" stroke="none" stroke-width="1" fill="none" fill-rule="evenodd">
        <g id="Kontakt-alternativ" transform="translate(-875.000000, -1880.000000)">
            <g id="map-marker" transform="translate(875.000000, 1880.000000)">
                <path d="M28.9257768,41.1363951 L41,41.1363951 L41,0 L0,0 L0,41.1363951 L12.123669,41.1363951 L20.5247229,49.6829584 L28.9257768,41.1363951 Z" id="Combined-Shape" fill="url(#linearGradient-1)"></path>
                <path d="M21.4728609,13.5220207 C23.4551369,11.2152017 27.9572471,9.64680113 27.9572471,9.64680113 C27.9572471,9.64680113 28.3526123,8.95416471 29.19586,9.00240804 C30.0381167,9.05015909 30.1277923,10.4964745 30.1277923,10.4964745 L32.2235253,11.1585896 L32.4221988,11.8689481 L35,12.59949 C35,12.59949 34.6779606,13.6017699 34.4119066,14.0162687 C33.9902828,14.6286637 31.0052257,14.5469454 29.2667086,16.1483286 C28.2322192,17.1023652 28.04395,20.498105 27.8675715,23.1524729 C28.1286711,28.7811899 24.3513972,30.9925068 24.3513972,30.9925068 L21.0908727,30.9925068 C21.0908727,30.9925068 22.5900897,28.6758422 21.8578218,26.4763401 C21.2276155,26.8283195 19.0540976,26.9400668 19.0540976,26.9400668 C19.0540976,26.9400668 18.7018361,28.2761117 20.2605066,30.9925068 L15.5299962,30.9925068 C15.5299962,30.9925068 14.2413434,31.3272564 12.5563344,27.5219405 C12.1807869,28.0954454 11.8929333,28.2849728 10.5686084,28.9392114 C10.8093947,29.9478909 11.7938443,30.9925068 11.7938443,30.9925068 L6.07046182,30.9925068 C5.65676511,26.7520163 7.17332274,25.3283457 7.79560185,24.8557579 C9.95623819,14.9072935 20.5954275,14.6926599 20.5954275,14.6926599 C20.8322503,14.3195125 21.1201039,13.9325813 21.4728609,13.5220207 Z" id="Fill-3" fill="#FFFFFF"></path>
            </g>
        </g>
    </g>
</svg>