<?xml version="1.0" encoding="UTF-8"?>
<svg width="48px" height="37px" viewBox="0 0 48 37" version="1.1" xmlns="http://www.w3.org/2000/svg" xmlns:xlink="http://www.w3.org/1999/xlink">
    <!-- Generator: Sketch 48.1 (47250) - http://www.bohemiancoding.com/sketch -->
    <title>baer-solitaer</title>
    <desc>Created with Sketch.</desc>
    <defs></defs>
    <g id="Kontakt-alternativ" stroke="none" stroke-width="1" fill="none" fill-rule="evenodd" transform="translate(-1027.000000, -1427.000000)">
        <g id="Box" transform="translate(1005.000000, 1250.000000)" fill="#1E1964">
            <path d="M45.9120387,186.386764 C46.3002697,185.772217 46.772526,185.133663 47.3504141,184.456358 C50.598591,180.65213 57.973952,178.066367 57.973952,178.066367 C57.973952,178.066367 58.6214611,176.924721 60.003591,177.00394 C61.3833203,177.083159 61.5301073,179.467617 61.5301073,179.467617 L64.9638257,180.559537 L65.288952,181.729989 L69.5128509,182.935421 C69.5128509,182.935421 68.985378,184.587361 68.5494755,185.271182 C67.8577246,186.281825 62.9677968,186.146707 60.1198546,188.787684 C58.4239159,190.360404 58.1159376,195.959234 57.8264791,200.336513 C58.2548365,209.617485 52.0657751,213.263617 52.0657751,213.263617 L46.7241686,213.263617 C46.7241686,213.263617 49.1807932,209.443271 47.9811181,205.816686 C46.9488076,206.397626 43.3878509,206.581441 43.3878509,206.581441 C43.3878509,206.581441 42.8099629,208.784485 45.3633022,213.263617 L37.6141145,213.263617 C37.6141145,213.263617 35.502508,213.815407 32.7416777,207.540643 C32.1264069,208.48647 31.6544935,208.799574 29.4849268,209.877776 C29.8796741,211.541375 31.4922733,213.263617 31.4922733,213.263617 L22.1153961,213.263617 C21.4377065,206.271081 23.9227968,203.924346 24.9424177,203.144502 C28.4817679,186.740678 45.9120387,186.386764 45.9120387,186.386764" id="baer-solitaer"></path>
        </g>
    </g>
</svg>