<?xml version="1.0" encoding="UTF-8"?>
<svg width="564px" height="315px" viewBox="0 0 564 315" version="1.1" xmlns="http://www.w3.org/2000/svg" xmlns:xlink="http://www.w3.org/1999/xlink">
    <!-- Generator: Sketch 51.1 (57501) - http://www.bohemiancoding.com/sketch -->
    <title>hr-teaser</title>
    <desc>Created with Sketch.</desc>
    <defs>
        <rect id="path-1" x="0" y="0" width="564" height="315"></rect>
    </defs>
    <g id="Page-1" stroke="none" stroke-width="1" fill="none" fill-rule="evenodd">
        <g id="themen" transform="translate(-810.000000, -1146.000000)">
            <g id="hr-teaser" transform="translate(810.000000, 1146.000000)">
                <mask id="mask-2" fill="white">
                    <use xlink:href="#path-1"></use>
                </mask>
                <use id="Mask" fill="#EEEEEE" xlink:href="#path-1"></use>
                <g id="Group-3" mask="url(#mask-2)">
                    <g transform="translate(-11.000000, -153.000000)">
                        <path d="M165.739056,249.838222 C179.664907,226.77821 204.072215,215.248378 238.961712,215.248378 C263.369386,215.248378 280.664135,221.387639 290.846478,233.666347 C295.488428,239.206739 298.894969,246.656209 301.066204,256.014979 C303.237439,265.37375 304.32304,277.764577 304.32304,293.187831 L304.32304,417.846034 C304.32304,426.381233 305.1466,433.044578 306.793743,437.836268 C308.440887,442.627959 311.098738,445.997066 314.767376,447.94369 C318.436014,449.890315 323.489675,450.863612 329.928509,450.863612 L329.928509,460.521815 C296.985636,459.323893 275.573089,458.72494 265.690228,458.72494 C255.058664,458.72494 233.271772,459.323893 200.328899,460.521815 L200.328899,450.863612 C205.719551,450.863612 209.912218,449.890315 212.907024,447.94369 C215.901831,445.997066 218.073033,442.627959 219.420696,437.836268 C220.768359,433.044578 221.442181,426.381233 221.442181,417.846034 L221.442181,268.25619 C221.442181,258.373328 219.645324,251.073597 216.051556,246.356776 C212.457788,241.639956 206.76774,239.281581 198.981243,239.281581 C193.291111,239.281581 187.900539,240.704093 182.809368,243.549159 C177.718197,246.394225 173.6004,250.32485 170.455853,255.341151 C167.311306,260.357452 165.739056,266.010065 165.739056,272.299159 L165.739056,417.846034 C165.739056,426.381233 166.412877,433.044578 167.76054,437.836268 C169.108203,442.627959 171.279405,445.997066 174.274212,447.94369 C177.269019,449.890315 181.461685,450.863612 186.852337,450.863612 L186.852337,460.521815 C156.305309,459.323893 136.090668,458.72494 126.207806,458.72494 C115.576242,458.72494 92.5914459,459.323893 57.2527275,460.521815 L57.2527275,450.863612 C63.6915618,450.863612 68.7826567,449.890315 72.526165,447.94369 C76.2696733,445.997066 78.9649589,442.627959 80.6121025,437.836268 C82.2592462,433.044578 83.0828057,426.381233 83.0828057,417.846034 L83.0828057,155.951503 C83.0828057,141.726171 81.1362105,131.431678 77.2429619,125.067714 C73.3497133,118.70375 66.6863685,115.521815 57.2527275,115.521815 L57.2527275,105.863612 C66.8361088,106.762054 76.3444772,107.211268 85.7781182,107.211268 C117.97229,107.211268 144.625669,105.040066 165.739056,100.697597 L165.739056,249.838222 Z M453.239056,249.838222 C465.218282,226.77821 485.058579,215.248378 512.76054,215.248378 C527.734573,215.248378 538.515715,219.852824 545.10429,229.061854 C551.692865,238.270885 554.987103,249.164331 554.987103,261.742518 C554.987103,275.518629 551.131347,286.486944 543.41972,294.647792 C535.708093,302.80864 525.488468,306.889003 512.76054,306.889003 C499.43365,306.889003 489.251461,303.931676 482.213665,298.016932 C475.175869,292.102189 471.657024,284.053767 471.657024,273.871425 C471.657024,255.603104 479.518274,241.303117 495.241009,230.971034 C489.700616,230.971034 484.75926,232.019201 480.41679,234.115565 C472.630293,237.409853 466.154121,242.837858 460.988079,250.399745 C455.822038,257.961632 453.239056,266.234661 453.239056,275.219081 L453.239056,413.129237 C453.239056,422.862359 454.586698,430.461567 457.282024,435.927089 C459.97735,441.392611 464.170017,445.248367 469.860149,447.494472 C475.550282,449.740577 483.186924,450.863612 492.770306,450.863612 L492.770306,460.521815 C455.035742,459.323893 430.254089,458.72494 418.424603,458.72494 C407.044337,458.72494 382.487291,459.323893 344.752728,460.521815 L344.752728,450.863612 C351.191562,450.863612 356.282657,449.890315 360.026165,447.94369 C363.769673,445.997066 366.464959,442.627959 368.112103,437.836268 C369.759246,433.044578 370.582806,426.381233 370.582806,417.846034 L370.582806,271.84994 C370.582806,257.624609 368.636211,247.330115 364.742962,240.966151 C360.849713,234.602187 354.186368,231.420253 344.752728,231.420253 L344.752728,221.76205 C354.485849,222.660492 363.994218,223.109706 373.278118,223.109706 C405.172809,223.109706 431.826188,221.013373 453.239056,216.820643 L453.239056,249.838222 Z" id="hr" fill="#1E1964" transform="translate(306.119915, 280.609706) rotate(-30.000000) translate(-306.119915, -280.609706) "></path>
                        <path d="M66.5853417,313.948508 C66.5853417,311.388495 67.0120041,309.073852 67.8653417,307.004508 C68.7186793,304.935164 69.8386681,303.185849 71.2253417,301.756508 C72.6120153,300.327168 74.2013327,299.228512 75.9933417,298.460508 C77.7853507,297.692504 79.6413321,297.308508 81.5613417,297.308508 C83.8226863,297.308508 85.7959999,297.692504 87.4813417,298.460508 C89.1666835,299.228512 90.5746694,300.295168 91.7053417,301.660508 C92.836014,303.025848 93.6786723,304.636499 94.2333417,306.492508 C94.7880111,308.348517 95.0653417,310.364497 95.0653417,312.540508 C95.0653417,313.393846 95.0226755,314.172505 94.9373417,314.876508 C94.8520079,315.580512 94.7666755,316.124506 94.6813417,316.508508 L75.6733417,316.508508 C76.1000105,318.94052 77.0493343,320.700503 78.5213417,321.788508 C79.9933491,322.876514 81.7959977,323.420508 83.9293417,323.420508 C86.1906863,323.420508 88.4733302,322.716515 90.7773417,321.308508 L93.9133417,327.004508 C92.2920003,328.113847 90.4893516,328.988505 88.5053417,329.628508 C86.5213318,330.268511 84.5693513,330.588508 82.6493417,330.588508 C80.3879971,330.588508 78.2760182,330.215178 76.3133417,329.468508 C74.3506652,328.721838 72.6440156,327.633849 71.1933417,326.204508 C69.7426678,324.775168 68.6120124,323.036518 67.8013417,320.988508 C66.990671,318.940498 66.5853417,316.593855 66.5853417,313.948508 Z M87.0653417,310.684508 C87.0653417,308.849832 86.6600124,307.356514 85.8493417,306.204508 C85.038671,305.052502 83.6733513,304.476508 81.7533417,304.476508 C80.2600009,304.476508 78.948014,304.977836 77.8173417,305.980508 C76.6866694,306.98318 75.9506767,308.551164 75.6093417,310.684508 L87.0653417,310.684508 Z M101.593342,298.076508 L109.273342,298.076508 L109.913342,302.172508 L110.169342,302.172508 C111.492015,300.849835 112.900001,299.708513 114.393342,298.748508 C115.886682,297.788503 117.678665,297.308508 119.769342,297.308508 C122.030686,297.308508 123.854668,297.76717 125.241342,298.684508 C126.628015,299.601846 127.726671,300.913833 128.537342,302.620508 C129.945349,301.169834 131.428001,299.921847 132.985342,298.876508 C134.542683,297.83117 136.387998,297.308508 138.521342,297.308508 C141.934692,297.308508 144.441334,298.44983 146.041342,300.732508 C147.64135,303.015186 148.441342,306.140488 148.441342,310.108508 L148.441342,329.820508 L139.033342,329.820508 L139.033342,311.324508 C139.033342,309.020497 138.724011,307.441846 138.105342,306.588508 C137.486672,305.73517 136.494682,305.308508 135.129342,305.308508 C133.550667,305.308508 131.737352,306.332498 129.689342,308.380508 L129.689342,329.820508 L120.281342,329.820508 L120.281342,311.324508 C120.281342,309.020497 119.972011,307.441846 119.353342,306.588508 C118.734672,305.73517 117.742682,305.308508 116.377342,305.308508 C114.756,305.308508 112.964018,306.332498 111.001342,308.380508 L111.001342,329.820508 L101.593342,329.820508 L101.593342,298.076508 Z M165.849342,332.316508 L165.849342,341.596508 L156.441342,341.596508 L156.441342,298.076508 L164.121342,298.076508 L164.761342,301.212508 L165.017342,301.212508 C166.254681,300.103169 167.652001,299.175178 169.209342,298.428508 C170.766683,297.681838 172.377333,297.308508 174.041342,297.308508 C175.961351,297.308508 177.689334,297.692504 179.225342,298.460508 C180.761349,299.228512 182.06267,300.316501 183.129342,301.724508 C184.196014,303.132515 185.017339,304.828498 185.593342,306.812508 C186.169345,308.796518 186.457342,311.004496 186.457342,313.436508 C186.457342,316.167188 186.084012,318.588498 185.337342,320.700508 C184.590671,322.812519 183.588015,324.604501 182.329342,326.076508 C181.070669,327.548515 179.64135,328.668504 178.041342,329.436508 C176.441334,330.204512 174.788017,330.588508 173.081342,330.588508 C171.716002,330.588508 170.393348,330.300511 169.113342,329.724508 C167.833335,329.148505 166.638681,328.32718 165.529342,327.260508 L165.849342,332.316508 Z M165.849342,320.860508 C166.702679,321.628512 167.556004,322.16184 168.409342,322.460508 C169.262679,322.759176 170.094671,322.908508 170.905342,322.908508 C172.526683,322.908508 173.913336,322.172515 175.065342,320.700508 C176.217347,319.228501 176.793342,316.849858 176.793342,313.564508 C176.793342,307.847146 174.958693,304.988508 171.289342,304.988508 C169.454666,304.988508 167.641351,305.948498 165.849342,307.868508 L165.849342,320.860508 Z M193.113342,284.956508 L202.521342,284.956508 L202.521342,320.348508 C202.521342,321.329846 202.702673,322.012506 203.065342,322.396508 C203.42801,322.78051 203.80134,322.972508 204.185342,322.972508 L204.729342,322.972508 C204.878676,322.972508 205.08134,322.929842 205.337342,322.844508 L206.489342,329.820508 C205.977339,330.033842 205.326679,330.215174 204.537342,330.364508 C203.748004,330.513842 202.820014,330.588508 201.753342,330.588508 C200.132,330.588508 198.766681,330.332511 197.657342,329.820508 C196.548003,329.308506 195.662678,328.593846 195.001342,327.676508 C194.340005,326.75917 193.86001,325.649848 193.561342,324.348508 C193.262674,323.047168 193.113342,321.58585 193.113342,319.964508 L193.113342,284.956508 Z M209.561342,313.948508 C209.561342,311.303162 209.988004,308.945852 210.841342,306.876508 C211.694679,304.807164 212.836001,303.068515 214.265342,301.660508 C215.694682,300.252501 217.347999,299.175178 219.225342,298.428508 C221.102684,297.681838 223.043998,297.308508 225.049342,297.308508 C227.054685,297.308508 228.985332,297.681838 230.841342,298.428508 C232.697351,299.175178 234.340001,300.252501 235.769342,301.660508 C237.198682,303.068515 238.340004,304.807164 239.193342,306.876508 C240.046679,308.945852 240.473342,311.303162 240.473342,313.948508 C240.473342,316.593855 240.046679,318.951164 239.193342,321.020508 C238.340004,323.089852 237.198682,324.828501 235.769342,326.236508 C234.340001,327.644515 232.697351,328.721838 230.841342,329.468508 C228.985332,330.215178 227.054685,330.588508 225.049342,330.588508 C223.043998,330.588508 221.102684,330.215178 219.225342,329.468508 C217.347999,328.721838 215.694682,327.644515 214.265342,326.236508 C212.836001,324.828501 211.694679,323.089852 210.841342,321.020508 C209.988004,318.951164 209.561342,316.593855 209.561342,313.948508 Z M219.225342,313.948508 C219.225342,316.721855 219.705337,318.919167 220.665342,320.540508 C221.625346,322.16185 223.086665,322.972508 225.049342,322.972508 C226.969351,322.972508 228.420003,322.16185 229.401342,320.540508 C230.38268,318.919167 230.873342,316.721855 230.873342,313.948508 C230.873342,311.175161 230.38268,308.97785 229.401342,307.356508 C228.420003,305.735167 226.969351,304.924508 225.049342,304.924508 C223.086665,304.924508 221.625346,305.735167 220.665342,307.356508 C219.705337,308.97785 219.225342,311.175161 219.225342,313.948508 Z M247.129342,334.428508 C247.42801,334.513842 247.76934,334.599174 248.153342,334.684508 C248.537344,334.769842 248.900007,334.812508 249.241342,334.812508 C250.820016,334.812508 252.036004,334.428512 252.889342,333.660508 C253.742679,332.892504 254.382673,331.889848 254.809342,330.652508 L255.257342,328.988508 L243.033342,298.076508 L252.505342,298.076508 L257.049342,311.708508 C257.518677,313.159182 257.94534,314.631167 258.329342,316.124508 C258.713344,317.617849 259.118673,319.153834 259.545342,320.732508 L259.801342,320.732508 C260.142677,319.239167 260.494673,317.735182 260.857342,316.220508 C261.22001,314.705834 261.59334,313.201849 261.977342,311.708508 L265.817342,298.076508 L274.841342,298.076508 L263.833342,330.140508 C263.065338,332.145851 262.265346,333.905834 261.433342,335.420508 C260.601338,336.935182 259.641347,338.193836 258.553342,339.196508 C257.465336,340.19918 256.228015,340.956506 254.841342,341.468508 C253.454668,341.980511 251.822684,342.236508 249.945342,342.236508 C248.964003,342.236508 248.132012,342.183175 247.449342,342.076508 C246.766672,341.969841 246.105345,341.809842 245.465342,341.596508 L247.129342,334.428508 Z M277.401342,313.948508 C277.401342,311.388495 277.828004,309.073852 278.681342,307.004508 C279.534679,304.935164 280.654668,303.185849 282.041342,301.756508 C283.428015,300.327168 285.017333,299.228512 286.809342,298.460508 C288.601351,297.692504 290.457332,297.308508 292.377342,297.308508 C294.638686,297.308508 296.612,297.692504 298.297342,298.460508 C299.982683,299.228512 301.390669,300.295168 302.521342,301.660508 C303.652014,303.025848 304.494672,304.636499 305.049342,306.492508 C305.604011,308.348517 305.881342,310.364497 305.881342,312.540508 C305.881342,313.393846 305.838675,314.172505 305.753342,314.876508 C305.668008,315.580512 305.582675,316.124506 305.497342,316.508508 L286.489342,316.508508 C286.91601,318.94052 287.865334,320.700503 289.337342,321.788508 C290.809349,322.876514 292.611998,323.420508 294.745342,323.420508 C297.006686,323.420508 299.28933,322.716515 301.593342,321.308508 L304.729342,327.004508 C303.108,328.113847 301.305352,328.988505 299.321342,329.628508 C297.337332,330.268511 295.385351,330.588508 293.465342,330.588508 C291.203997,330.588508 289.092018,330.215178 287.129342,329.468508 C285.166665,328.721838 283.460016,327.633849 282.009342,326.204508 C280.558668,324.775168 279.428012,323.036518 278.617342,320.988508 C277.806671,318.940498 277.401342,316.593855 277.401342,313.948508 Z M297.881342,310.684508 C297.881342,308.849832 297.476012,307.356514 296.665342,306.204508 C295.854671,305.052502 294.489351,304.476508 292.569342,304.476508 C291.076001,304.476508 289.764014,304.977836 288.633342,305.980508 C287.502669,306.98318 286.766677,308.551164 286.425342,310.684508 L297.881342,310.684508 Z M312.409342,298.076508 L320.089342,298.076508 L320.729342,303.644508 L320.985342,303.644508 C322.137347,301.468497 323.524,299.868513 325.145342,298.844508 C326.766683,297.820503 328.388,297.308508 330.009342,297.308508 C330.905346,297.308508 331.641339,297.361841 332.217342,297.468508 C332.793345,297.575175 333.316006,297.735174 333.785342,297.948508 L332.249342,306.076508 C331.652005,305.905841 331.097344,305.777842 330.585342,305.692508 C330.073339,305.607174 329.476012,305.564508 328.793342,305.564508 C327.598669,305.564508 326.350682,305.99117 325.049342,306.844508 C323.748002,307.697846 322.670679,309.212497 321.817342,311.388508 L321.817342,329.820508 L312.409342,329.820508 L312.409342,298.076508 Z M351.193342,284.956508 L360.601342,284.956508 L360.601342,295.964508 L360.345342,300.828508 C361.582681,299.719169 362.916001,298.855178 364.345342,298.236508 C365.774682,297.617838 367.236001,297.308508 368.729342,297.308508 C370.649351,297.308508 372.377334,297.692504 373.913342,298.460508 C375.449349,299.228512 376.761336,300.305834 377.849342,301.692508 C378.937347,303.079182 379.769339,304.764498 380.345342,306.748508 C380.921345,308.732518 381.209342,310.940496 381.209342,313.372508 C381.209342,316.103188 380.836012,318.535164 380.089342,320.668508 C379.342671,322.801852 378.340015,324.604501 377.081342,326.076508 C375.822669,327.548515 374.39335,328.668504 372.793342,329.436508 C371.193334,330.204512 369.540017,330.588508 367.833342,330.588508 C366.425335,330.588508 365.006682,330.247178 363.577342,329.564508 C362.148001,328.881838 360.814681,327.857848 359.577342,326.492508 L359.321342,326.492508 L358.553342,329.820508 L351.193342,329.820508 L351.193342,284.956508 Z M360.601342,320.860508 C361.454679,321.628512 362.308004,322.16184 363.161342,322.460508 C364.014679,322.759176 364.846671,322.908508 365.657342,322.908508 C367.278683,322.908508 368.665336,322.172515 369.817342,320.700508 C370.969347,319.228501 371.545342,316.849858 371.545342,313.564508 C371.545342,307.847146 369.710693,304.988508 366.041342,304.988508 C364.163999,304.988508 362.350684,305.948498 360.601342,307.868508 L360.601342,320.860508 Z M387.865342,298.076508 L395.545342,298.076508 L396.185342,303.644508 L396.441342,303.644508 C397.593347,301.468497 398.98,299.868513 400.601342,298.844508 C402.222683,297.820503 403.844,297.308508 405.465342,297.308508 C406.361346,297.308508 407.097339,297.361841 407.673342,297.468508 C408.249345,297.575175 408.772006,297.735174 409.241342,297.948508 L407.705342,306.076508 C407.108005,305.905841 406.553344,305.777842 406.041342,305.692508 C405.529339,305.607174 404.932012,305.564508 404.249342,305.564508 C403.054669,305.564508 401.806682,305.99117 400.505342,306.844508 C399.204002,307.697846 398.126679,309.212497 397.273342,311.388508 L397.273342,329.820508 L387.865342,329.820508 L387.865342,298.076508 Z M410.329342,320.988508 C410.329342,317.660491 411.737328,315.057851 414.553342,313.180508 C417.369356,311.303165 421.91331,310.044511 428.185342,309.404508 C428.100008,307.996501 427.673346,306.876512 426.905342,306.044508 C426.137338,305.212504 424.900017,304.796508 423.193342,304.796508 C421.828002,304.796508 420.462682,305.052506 419.097342,305.564508 C417.732002,306.076511 416.281349,306.780504 414.745342,307.676508 L411.417342,301.468508 C413.465352,300.231169 415.60933,299.228512 417.849342,298.460508 C420.089353,297.692504 422.467996,297.308508 424.985342,297.308508 C429.081362,297.308508 432.206664,298.471163 434.361342,300.796508 C436.516019,303.121853 437.593342,306.737817 437.593342,311.644508 L437.593342,329.820508 L429.913342,329.820508 L429.209342,326.556508 L429.017342,326.556508 C427.652002,327.751181 426.212016,328.721838 424.697342,329.468508 C423.182667,330.215178 421.529351,330.588508 419.737342,330.588508 C418.286668,330.588508 416.985347,330.343177 415.833342,329.852508 C414.681336,329.361839 413.700012,328.679179 412.889342,327.804508 C412.078671,326.929837 411.449344,325.916514 411.001342,324.764508 C410.553339,323.612502 410.329342,322.353848 410.329342,320.988508 Z M419.289342,320.284508 C419.289342,321.308513 419.620005,322.065839 420.281342,322.556508 C420.942678,323.047177 421.828003,323.292508 422.937342,323.292508 C424.046681,323.292508 424.985338,323.057844 425.753342,322.588508 C426.521346,322.119172 427.332004,321.457846 428.185342,320.604508 L428.185342,315.036508 C424.814658,315.505844 422.489348,316.188504 421.209342,317.084508 C419.929335,317.980513 419.289342,319.047169 419.289342,320.284508 Z M445.657342,298.076508 L453.337342,298.076508 L453.977342,302.108508 L454.233342,302.108508 C455.598682,300.828502 457.092,299.708513 458.713342,298.748508 C460.334683,297.788503 462.233331,297.308508 464.409342,297.308508 C467.865359,297.308508 470.372001,298.439163 471.929342,300.700508 C473.486683,302.961853 474.265342,306.097821 474.265342,310.108508 L474.265342,329.820508 L464.857342,329.820508 L464.857342,311.324508 C464.857342,309.020497 464.548011,307.441846 463.929342,306.588508 C463.310672,305.73517 462.318682,305.308508 460.953342,305.308508 C459.758669,305.308508 458.734679,305.575172 457.881342,306.108508 C457.028004,306.641844 456.089347,307.39917 455.065342,308.380508 L455.065342,329.820508 L445.657342,329.820508 L445.657342,298.076508 Z M480.601342,313.948508 C480.601342,311.345828 480.974671,309.020518 481.721342,306.972508 C482.468012,304.924498 483.449336,303.185849 484.665342,301.756508 C485.881348,300.327168 487.289334,299.228512 488.889342,298.460508 C490.48935,297.692504 492.121333,297.308508 493.785342,297.308508 C495.577351,297.308508 497.049336,297.607172 498.201342,298.204508 C499.353347,298.801844 500.484003,299.612503 501.593342,300.636508 L501.209342,295.772508 L501.209342,284.956508 L510.617342,284.956508 L510.617342,329.820508 L502.937342,329.820508 L502.297342,326.684508 L502.041342,326.684508 C500.932003,327.793847 499.630682,328.721838 498.137342,329.468508 C496.644001,330.215178 495.129349,330.588508 493.593342,330.588508 C491.630665,330.588508 489.84935,330.204512 488.249342,329.436508 C486.649334,328.668504 485.284014,327.569849 484.153342,326.140508 C483.022669,324.711168 482.148011,322.972518 481.529342,320.924508 C480.910672,318.876498 480.601342,316.551188 480.601342,313.948508 Z M490.265342,313.820508 C490.265342,316.977857 490.76667,319.281834 491.769342,320.732508 C492.772013,322.183182 494.190666,322.908508 496.025342,322.908508 C497.049347,322.908508 497.977338,322.695177 498.809342,322.268508 C499.641346,321.841839 500.441338,321.09518 501.209342,320.028508 L501.209342,307.036508 C500.356004,306.268504 499.481346,305.735176 498.585342,305.436508 C497.689337,305.13784 496.814679,304.988508 495.961342,304.988508 C494.468001,304.988508 493.145347,305.703168 491.993342,307.132508 C490.841336,308.561849 490.265342,310.79116 490.265342,313.820508 Z M523.609342,293.404508 C522.030667,293.404508 520.729347,292.945846 519.705342,292.028508 C518.681337,291.11117 518.169342,289.927182 518.169342,288.476508 C518.169342,287.025834 518.681337,285.852513 519.705342,284.956508 C520.729347,284.060504 522.030667,283.612508 523.609342,283.612508 C525.230683,283.612508 526.54267,284.060504 527.545342,284.956508 C528.548013,285.852513 529.049342,287.025834 529.049342,288.476508 C529.049342,289.927182 528.548013,291.11117 527.545342,292.028508 C526.54267,292.945846 525.230683,293.404508 523.609342,293.404508 Z M518.937342,298.076508 L528.345342,298.076508 L528.345342,329.820508 L518.937342,329.820508 L518.937342,298.076508 Z M536.601342,298.076508 L544.281342,298.076508 L544.921342,302.108508 L545.177342,302.108508 C546.542682,300.828502 548.036,299.708513 549.657342,298.748508 C551.278683,297.788503 553.177331,297.308508 555.353342,297.308508 C558.809359,297.308508 561.316001,298.439163 562.873342,300.700508 C564.430683,302.961853 565.209342,306.097821 565.209342,310.108508 L565.209342,329.820508 L555.801342,329.820508 L555.801342,311.324508 C555.801342,309.020497 555.492011,307.441846 554.873342,306.588508 C554.254672,305.73517 553.262682,305.308508 551.897342,305.308508 C550.702669,305.308508 549.678679,305.575172 548.825342,306.108508 C547.972004,306.641844 547.033347,307.39917 546.009342,308.380508 L546.009342,329.820508 L536.601342,329.820508 L536.601342,298.076508 Z M578.969342,333.788508 C578.969342,334.983181 579.609335,335.889838 580.889342,336.508508 C582.169348,337.127178 583.875998,337.436508 586.009342,337.436508 C588.142686,337.436508 589.892002,337.063178 591.257342,336.316508 C592.622682,335.569838 593.305342,334.641847 593.305342,333.532508 C593.305342,332.55117 592.889346,331.889843 592.057342,331.548508 C591.225338,331.207173 590.020016,331.036508 588.441342,331.036508 L585.177342,331.036508 C584.068003,331.036508 583.172012,331.004508 582.489342,330.940508 C581.806672,330.876508 581.209344,330.780509 580.697342,330.652508 C579.545336,331.676513 578.969342,332.721836 578.969342,333.788508 Z M571.225342,335.260508 C571.225342,332.700495 572.739993,330.567183 575.769342,328.860508 L575.769342,328.604508 C574.916004,328.049839 574.212011,327.345846 573.657342,326.492508 C573.102672,325.63917 572.825342,324.551181 572.825342,323.228508 C572.825342,322.076502 573.166672,320.977847 573.849342,319.932508 C574.532012,318.88717 575.385337,318.001845 576.409342,317.276508 L576.409342,317.020508 C575.300003,316.252504 574.308013,315.153849 573.433342,313.724508 C572.558671,312.295168 572.121342,310.641851 572.121342,308.764508 C572.121342,306.844498 572.484005,305.169849 573.209342,303.740508 C573.934679,302.311168 574.905336,301.116513 576.121342,300.156508 C577.337348,299.196503 578.734667,298.481844 580.313342,298.012508 C581.892016,297.543172 583.534666,297.308508 585.241342,297.308508 C587.118684,297.308508 588.761335,297.564506 590.169342,298.076508 L601.753342,298.076508 L601.753342,304.924508 L596.697342,304.924508 C596.99601,305.393844 597.241341,305.991171 597.433342,306.716508 C597.625343,307.441845 597.721342,308.23117 597.721342,309.084508 C597.721342,310.919184 597.401345,312.508501 596.761342,313.852508 C596.121338,315.196515 595.236014,316.305837 594.105342,317.180508 C592.974669,318.055179 591.652016,318.705839 590.137342,319.132508 C588.622667,319.559177 586.990684,319.772508 585.241342,319.772508 C584.004002,319.772508 582.724015,319.559177 581.401342,319.132508 C580.974673,319.473843 580.676009,319.815173 580.505342,320.156508 C580.334674,320.497843 580.249342,320.945839 580.249342,321.500508 C580.249342,322.311179 580.601338,322.908506 581.305342,323.292508 C582.009345,323.67651 583.257333,323.868508 585.049342,323.868508 L590.169342,323.868508 C594.094695,323.868508 597.091998,324.497835 599.161342,325.756508 C601.230685,327.015181 602.265342,329.073827 602.265342,331.932508 C602.265342,333.596516 601.849346,335.121834 601.017342,336.508508 C600.185338,337.895182 599.001349,339.089836 597.465342,340.092508 C595.929334,341.09518 594.073353,341.884505 591.897342,342.460508 C589.721331,343.036511 587.268022,343.324508 584.537342,343.324508 C582.659999,343.324508 580.92135,343.16451 579.321342,342.844508 C577.721334,342.524506 576.313348,342.044511 575.097342,341.404508 C573.881336,340.764505 572.932012,339.932513 572.249342,338.908508 C571.566672,337.884503 571.225342,336.668515 571.225342,335.260508 Z M585.241342,314.076508 C586.478681,314.076508 587.513338,313.639179 588.345342,312.764508 C589.177346,311.889837 589.593342,310.556517 589.593342,308.764508 C589.593342,307.1005 589.177346,305.831179 588.345342,304.956508 C587.513338,304.081837 586.478681,303.644508 585.241342,303.644508 C584.004002,303.644508 582.969346,304.07117 582.137342,304.924508 C581.305338,305.777846 580.889342,307.057833 580.889342,308.764508 C580.889342,310.556517 581.305338,311.889837 582.137342,312.764508 C582.969346,313.639179 584.004002,314.076508 585.241342,314.076508 Z" id="employer-branding" fill="#E2353C" transform="translate(334.425342, 313.468508) rotate(-30.000000) translate(-334.425342, -313.468508) "></path>
                    </g>
                </g>
            </g>
        </g>
    </g>
</svg>