<svg xmlns="http://www.w3.org/2000/svg" width="198" height="116" viewBox="0 0 198 116">
  <g fill="none" fill-rule="evenodd">
    <rect width="198" height="116"/>
    <g transform="translate(18 34)">
      <polygon fill="#D7D7D7" points="28.882 37.635 30.236 37.635 30.236 56 26.986 56 26.986 37.635"/>
      <polygon fill="#BBBBBB" points="28.882 19.089 30.236 19.089 30.236 37.635 26.986 37.635 26.986 19.089"/>
      <polygon fill="#828889" points="30.236 .814 30.236 19.179 28.882 19.179 26.986 19.179 26.986 .814"/>
      <path fill="#828889" d="M8.49746176 19.5714129L8.49838989 19.5807071 8.49653363 19.5807071 8.49653363 19.5714129 17.012549 4.1188271C17.012549 3.05890065 16.2435873 2.22212516 15.9736721 1.98968L15.7788815 2.02687484C16.0664312 2.38018065 16.573813 2.97522581 16.573813 3.7562271 16.573813 5.29032903 14.9533488 6.61987742 13.1046993 6.64776903 13.1186123 6.80582452 13.1176842 6.94529161 13.1176842 7.06616129 13.1176842 7.28930323 13.1037712 7.50315097 13.0778015 7.70769548 15.1759563 7.67050968 17.012549 5.95974581 17.012549 4.1188271L8.49746176 19.5714129zM14.1194538 16.8379265C13.2243473 16.8379265 13.0304848 16.7449484 12.7930273 16.7449484 12.6418319 16.7449484 12.4980615 16.7635368 12.4980615 16.9773845 12.4980615 17.1261458 12.6659543 17.3492877 12.8171407 17.4608632 13.0277004 17.2470155 13.3170974 17.2005265 13.7836684 17.2005265 14.0025723 17.2005265 14.2993943 17.2470155 14.4301798 17.2656129 14.4125543 17.3957768 14.3865846 17.5631355 14.3865846 17.7955716 14.3865846 17.9164413 14.3912253 18.0652026 14.3912253 18.2139639 14.3912253 18.7439226 14.3133073 19.032151 14.1287262 19.2366955 14.1695369 19.2645871 14.2752809 19.2831845 14.3383578 19.2831845 14.6815593 19.2831845 14.7696778 19.1158348 14.7696778 18.2232581 14.7696778 17.9536271 14.7910158 17.7025935 14.7910158 17.6375161 15.2696435 18.0001161 15.7584716 18.6509535 15.7584716 19.125129 15.9152358 19.0507484 16.0998169 18.8090181 16.0998169 18.6323561 16.0998169 18.3069419 15.5618248 17.8327665 14.9923033 17.2563187 15.0720776 17.2284271 15.2835655 17.1726439 15.457018 17.1726439 15.9050354 17.1726439 16.2667815 17.2470245 16.4764132 17.4980581 16.5608191 17.40508 16.6294648 17.135449 16.6294648 16.9773935 16.6294648 16.7077626 16.4754851 16.7170658 16.3641813 16.7170658 15.8874099 16.7170658 15.2984066 16.7914465 14.877287 16.8658271 14.7242354 16.6612735 13.7475073 15.3317252 13.4942804 14.6251045 13.4210031 14.5972129 13.3644231 14.5786155 13.2447662 14.5786155 13.0091648 14.5786155 12.9488723 14.7459652 12.8885798 14.9691071 13.4265629 15.6292387 13.9432169 16.3358503 14.1194538 16.8379265L14.1194538 16.8379265zM8.77294571 14.9691071C8.71265319 14.7459652 8.65236066 14.5786155 8.41768747 14.5786155 8.29710242 14.5786155 8.24052242 14.5972129 8.16817319 14.6251045 7.91401824 15.3317252 6.93821824 16.6612735 6.78423846 16.8658271 6.36497516 16.7914465 5.7741156 16.7170658 5.29827231 16.7170658 5.18604044 16.7170658 5.03206066 16.7077716 5.03206066 16.9773935 5.03206066 17.135449 5.10069736 17.405089 5.18511231 17.4980581 5.39474396 17.2470245 5.75741824 17.1726439 6.20450747 17.1726439 6.37981626 17.1726439 6.58944791 17.2284271 6.66921319 17.2563187 6.09969165 17.8327665 5.56169956 18.306951 5.56169956 18.6323561 5.56169956 18.8090181 5.74720879 19.0507484 5.90397297 19.125129 5.90397297 18.6509535 6.3928011 18.0001252 6.87050066 17.6375161 6.87050066 17.7026026 6.89369495 17.9536361 6.89369495 18.2232581 6.89369495 19.1158258 6.98088527 19.2831845 7.32408681 19.2831845 7.3862356 19.2831845 7.49290769 19.2645961 7.53371846 19.2366955 7.34912835 19.032151 7.27029121 18.7439226 7.27029121 18.2139639 7.27029121 18.0652026 7.27678813 17.9164413 7.27678813 17.7955716 7.27678813 17.5631355 7.2489622 17.3957768 7.2313367 17.2656129 7.3621222 17.2470245 7.65987231 17.2005265 7.87877626 17.2005265 8.34441011 17.2005265 8.63381604 17.2470155 8.84530396 17.4608632 8.99649934 17.3492877 9.16438308 17.1261458 9.16438308 16.9773845 9.16438308 16.7635368 9.02061275 16.7449484 8.86848923 16.7449484 8.63195978 16.7449484 8.43902549 16.8379265 7.54206264 16.8379265 7.71830857 16.3358503 8.23496264 15.6292387 8.77294571 14.9691071L8.77294571 14.9691071zM5.08772154 3.7562271C5.08772154 2.97522581 5.59603143 2.38018065 5.88264396 2.02687484L5.68785341 1.98968C5.41792923 2.22212516 4.64990462 3.05890065 4.64990462 4.1188271 4.64990462 5.97834323 6.51246703 7.69839226 8.63010352 7.70769548 8.60691824 7.51244516 8.59393341 7.29859742 8.59393341 7.06616129 8.59393341 6.92669419 8.60042132 6.78723613 8.61248703 6.64776903 6.7406433 6.64776903 5.08772154 5.30891742 5.08772154 3.7562271L5.08772154 3.7562271zM10.7783593 2.32438839C10.874822 2.10124645 11.0046884 1.84091871 11.0046884 1.54339613 11.0046884.743806452 10.3396233.362609032 9.44915736.362609032 8.99186769.362609032 8.75996989.511370323 8.75996989.660131613 8.75996989.808892903 8.91209341 1.1343071 8.96960154 1.23657935 9.13470989 1.16219871 9.43153187 1.06922968 9.60405626 1.06922968 10.2153167 1.06922065 10.6716873 1.75723484 10.7783593 2.32438839L10.7783593 2.32438839zM11.2161673 1.29236258C11.7365338 1.39463484 12.0917921.734512258 11.5973952.613642581 11.6660319.836784516 11.3321116.985545806 11.3321116.985545806 11.3321116.985545806 11.2059578.697317419 11.370138.520664516 11.0677473.381206452 10.9898292.557859355 10.9842695.743806452 11.1039264.901861935 11.1809163 1.08781806 11.2161673 1.29236258L11.2161673 1.29236258zM12.9015556 5.86677677C12.9841143 5.86677677 13.0638796 5.87608 13.1464382 5.87608 14.6129226 5.87608 16.0664222 4.92772903 16.0664222 3.70973806 16.0664222 3.05890968 15.77516 2.60332258 15.4152701 2.10125548 15.2037822 2.13845032 15.0108569 2.15704774 14.8605897 2.15704774 14.1964437 2.15704774 13.8365538 1.79443871 13.809656 1.4504271 13.809656 1.1343071 14.0656673.892576774 14.4626644.892576774 15.0795026.892576774 16.2027855 1.46903355 17.3353497 1.46903355 17.2240369 1.56200258 17.0385277 1.64568645 16.8149831 1.72936129 17.47912 2.32440645 17.9225057 3.13329935 18.0922457 3.98867226L19.826798 6.77795097C20.1180602 7.24283226 20.7348895 8.15399742 21.6615255 8.86060903 20.541027 8.86060903 19.7952596 8.88850968 18.8463574 7.38229935L17.9577477 5.95976387C17.8918864 6.14571097 17.8102648 6.32236387 17.7156495 6.49902581L19.4845246 9.33478452C19.7785622 9.80896 20.3879754 10.7201252 21.3211084 11.43604 20.1978165 11.43604 19.4539143 11.4546374 18.5050121 9.95772129L16.9810105 7.51246323C16.8687787 7.6333329 16.7481936 7.75420258 16.6211116 7.86576903L18.7702866 11.3151703C19.0661804 11.7800516 19.6718811 12.6819135 20.6068703 13.4071226 19.4845156 13.4071226 18.7396763 13.42572 17.7898459 11.9288039L15.6963229 8.56307742C15.5581123 8.65605548 15.4171264 8.73973032 15.2705716 8.81411097L17.8278813 12.9143497C18.122847 13.3885252 18.7285567 14.2903961 19.6635369 15.0063019 18.5411822 15.0063019 17.7963429 15.0341935 16.8474316 13.5279832L14.2149884 9.30688387C14.0600895 9.37197032 13.901469 9.42775355 13.7410013 9.47424258L16.7166462 14.2532013C17.0060521 14.7087884 17.6265938 15.6292477 18.5513826 16.3358594 17.4290279 16.3358594 16.6841886 16.363751 15.7352864 14.8575406L12.5657791 9.77175613 12.4693075 9.79035355C12.3830453 10.0692787 12.3227527 10.3296065 12.3227527 10.580649 12.3227527 12.1798284 13.3690457 13.5930606 14.6259075 14.6808787 14.5452141 14.7180735 14.4051473 14.7273677 14.2752899 14.7273677 14.0174224 14.7273677 13.8495387 14.7087703 13.7308099 14.6901729 14.0229912 15.3595987 14.6472455 16.2149716 14.9626211 16.6519703 15.3744593 16.5775897 15.972744 16.5218065 16.3641813 16.5218065 16.7732352 16.5218065 16.8186866 16.7635458 16.8186866 16.9773845 16.8186866 17.3492877 16.6452341 17.6468103 16.4430185 17.814169 16.3678848 17.6189277 16.2148422 17.3678942 15.457018 17.3678942L15.3809473 17.3678942C15.6035637 17.6189277 16.2946075 18.1767871 16.2946075 18.6323652 16.2946075 18.9298877 15.9671752 19.3761806 15.534927 19.3761806 15.5618248 19.2832026 15.5571842 19.1902335 15.5571842 19.1251381 15.5571842 18.7625381 15.2343925 18.3348426 14.961684 18.03732 14.9681719 18.1210039 14.9644684 18.1117006 14.9644684 18.2232761 14.9644684 19.0879523 14.8874785 19.4784529 14.3383578 19.4784529 14.0702899 19.4784529 13.8838525 19.3389948 13.8207756 19.2924968 14.1760338 18.9577884 14.1945875 18.7067548 14.1945875 18.2139819L14.1918031 17.7955897C14.1908749 17.6840232 14.1927312 17.5352529 14.2103567 17.4329897 14.0137099 17.4050981 13.9348727 17.4050981 13.7836774 17.4050981 13.7836774 17.4050981 13.003596 17.3400116 12.8171497 17.7491006 12.6056618 17.5538594 12.2995675 17.2842194 12.2995675 16.9774026 12.2995675 16.7728581 12.3932547 16.5497161 12.7930363 16.5497161 12.9460879 16.5497161 13.4237875 16.6426942 13.82356 16.6426942 13.7159598 16.410249 13.2382692 15.7036374 12.8245747 15.1922671 12.7614978 15.3968206 12.6631789 15.6106594 12.4451941 15.778009 12.41644 15.4525948 12.2244338 14.420569 11.7142677 13.8162206 11.6549033 14.2253187 11.5742009 14.643711 11.5742009 15.5269755 11.5742009 17.67472 12.0908549 19.2646052 13.1863209 19.5714219 13.0434697 19.8224555 12.7429442 20.0455974 12.430353 20.0455974 12.0287152 20.0455974 11.8107393 19.5900194 11.5881229 19.1623239 11.4721785 19.4784439 11.1521622 20.2501419 10.8312268 20.2501419 10.5102914 20.2501419 10.1902752 19.4784348 10.0734026 19.1623239 9.85171429 19.5900194 9.63372945 20.0455974 9.23209165 20.0455974 8.91950044 20.0455974 8.6180378 19.8224555 8.47612374 19.5714219 9.57065253 19.2646052 10.0873156 17.67472 10.0873156 15.5269755 10.0873156 14.643711 10.0075413 14.2253187 9.94724879 13.8162206 9.43708264 14.420569 9.24507648 15.4525948 9.21632242 15.778009 8.99833758 15.6106594 8.90001868 15.3968116 8.83786989 15.1922671 8.42417538 15.7036374 7.94554769 16.410249 7.83794747 16.6426942 8.23865714 16.6426942 8.7163567 16.5497161 8.86847121 16.5497161 9.26825275 16.5497161 9.36379626 16.7728581 9.36379626 16.9774026 9.36379626 17.2842194 9.05584571 17.5538594 8.84528593 17.7491006 8.65791143 17.3400116 7.87875824 17.4050981 7.87875824 17.4050981 7.72756286 17.4050981 7.6487167 17.4050981 7.4520789 17.4329897 7.46877626 17.5352619 7.47248879 17.6840232 7.4697044 17.7955897L7.46692901 18.2139819C7.46692901 18.7067548 7.48547363 18.9577884 7.84166 19.2924968 7.77765495 19.3389858 7.59121758 19.4784529 7.3240778 19.4784529 6.77495714 19.4784529 6.69703912 19.0879613 6.69703912 18.2232761 6.69703912 18.1117097 6.69332659 18.1210039 6.70075165 18.03732 6.42712396 18.3348426 6.1043233 18.762529 6.1043233 19.1251381 6.1043233 19.1902245 6.10061077 19.2831935 6.12658044 19.3761806 5.69526044 19.3761806 5.3669 18.9298968 5.3669 18.6323652 5.3669 18.1767871 6.0598 17.6189368 6.28148835 17.3678942L6.20450747 17.3678942C5.44761143 17.3678942 5.29363165 17.6189277 5.21942615 17.814169 5.01629143 17.6468194 4.84282989 17.3492877 4.84282989 16.9773845 4.84282989 16.7635368 4.88920945 16.5218065 5.2982633 16.5218065 5.69062879 16.5218065 6.28798527 16.5775897 6.69982352 16.6519703 7.01427099 16.2149806 7.63852527 15.3596077 7.93070659 14.6901729 7.81290593 14.7087703 7.64594132 14.7273677 7.38714571 14.7273677 7.25728835 14.7273677 7.11629341 14.7180645 7.03745626 14.6808787 8.29246176 13.5930606 9.33875473 12.1798284 9.33875473 10.580649 9.33875473 10.3296065 9.27939033 10.0692787 9.1922 9.79035355L9.09573736 9.77175613 5.92623011 14.8575406C4.97732791 16.363751 4.2334167 16.3358594 3.11012484 16.3358594 4.03491363 15.6292387 4.65545538 14.7087794 4.94578945 14.2532013L7.92142527 9.47424258C7.76002945 9.42775355 7.60327429 9.37197032 7.44651011 9.30688387L4.81406681 13.5279832C3.86516462 15.0341935 3.12032527 15.0063019 1.99889868 15.0063019 2.93295978 14.2903871 3.53958857 13.3885252 3.83362615 12.9143497L6.39095385 8.81411097C6.24439912 8.73973032 6.10341319 8.65605548 5.96520264 8.56307742L3.87167956 11.9288039C2.92184923 13.42572 2.17793802 13.4071226 1.0555833 13.4071226 1.9896444 12.6819135 2.59627319 11.7800426 2.8912389 11.3151703L5.04042286 7.86576903C4.91426901 7.75420258 4.79368396 7.6333329 4.68052396 7.51246323L3.15745055 9.95770323C2.20762022 11.4546103 1.46370901 11.4360219.341354286 11.4360219 1.27355912 10.7201071 1.88390044 9.80894194 2.17793802 9.33476645L3.94588505 6.49900774C3.85126967 6.32234581 3.77057626 6.14570194 3.70471495 5.95974581L2.81517714 7.38228129C1.86627495 8.88849161 1.1214356 8.86059097 0 8.86059097.928492308 8.15397935 1.54347429 7.24281419 1.8356556 6.7779329L3.56927978 3.98865419C3.73901978 3.13327226 4.18240549 2.32438839 4.84654242 1.72934323 4.62300681 1.64566839 4.4384167 1.56198452 4.32618484 1.46901548 5.45967714 1.46901548 6.58203187.89255871 7.19887011.89255871 7.59679538.89255871 7.85187846 1.13429806 7.85187846 1.45040903 7.82589978 1.79442968 7.46508176 2.15703871 6.80093582 2.15703871 6.65066857 2.15703871 6.45866242 2.13844129 6.24624637 2.10124645 5.88728462 2.60332258 5.59603143 3.05890065 5.59603143 3.70972903 5.59603143 4.92771097 7.04860286 5.87607097 8.51601538 5.87607097 8.59856505 5.87607097 8.67741121 5.86676774 8.75996088 5.86676774 9.05121407 4.88122194 9.66898044 4.23039355 10.1633684 3.59816258 9.57066154 3.38431484 8.91115626 2.81716129 8.91115626 2.56612774 8.98443363 2.51963871 10.1207013 2.87295355 10.2375829 2.91014839 10.2616963 2.91014839 10.2867468 2.91944258 10.3136446 2.91014839 10.4518552 2.86365935 10.5668714 2.66840903 10.5668714 2.64051742 10.4453582 2.62192 9.73391363 2.52895097 9.24694176 2.35228903 8.87777055 2.22212516 8.69039604 1.97108258 8.69039604 1.87810452 8.80912484 1.85951613 9.25992659 2.10124645 9.92035099 2.10124645 10.1643055 2.10124645 10.2125413 2.08264903 10.4555587 2.05475742 10.2848815 1.65495355 9.96394615 1.30165677 9.60404725 1.30165677 9.45842066 1.30165677 9.14118879 1.39463484 8.87590527 1.52479871 8.69132418 1.24587355 8.52900022.864676129 8.52900022.660131613 8.52900022.409089032 8.77017033.130163871 9.44914835.130163871 9.63837011.130163871 9.81553516.14876129 9.98064352.176652903 10.1132853.204544516 10.224598.232436129 10.3442549.278925161 10.3349826.260327742 10.330342.223141935 10.330342.185947097 10.330342.0929780645 10.4147479 0 10.7347642 0 11.292229 0 11.8654631.176652903 12.5685635.176652903 12.7503692.176652903 12.8737387.176652903 12.9785545.130163871 12.9331031.269630968 12.7364563.474175484 12.5555787.641534194 12.6668914.799589677 12.9572165 1.16219871 12.9572165 1.76653806 12.9572165 2.72418323 12.3273934 3.51447871 12.3273934 4.4814271 12.3273934 5.05788387 12.7689138 5.55995097 12.9015556 5.86677677L12.9015556 5.86677677zM37.1759345 8.01841419L37.1759345.843766452 39.5056807.843766452C40.4969796.843766452 40.8340086 1.18159097 41.1015268 1.57939871 41.3492389 1.96662065 41.3892837 2.39398194 41.3892837 2.53334065 41.3892837 3.42774194 41.0817297 4.0235729 40.1599505 4.23262452L40.1599505 4.28202194C41.1807244 4.40153677 41.6268765 5.01765419 41.6268765 6.00114968 41.6268765 7.83935871 40.2888708 8.01841419 39.4757642 8.01841419L37.1759345 8.01841419 37.1759345 8.01841419zM38.0880358 3.86480387L39.4163637 3.86480387C40.1300251 3.85466065 40.4771824 3.41759871 40.4771824 2.72209677 40.4771824 2.12582323 40.1401534 1.63893032 39.3767695 1.63893032L38.0880358 1.63893032 38.0880358 3.86480387 38.0880358 3.86480387zM38.0880358 7.22367484L39.3767695 7.22367484C40.3482622 7.22367484 40.694978 6.52773032 40.694978 6.00114065 40.694978 4.85843355 39.991436 4.65953419 39.0595376 4.65953419L38.0880448 4.65953419 38.0880448 7.22367484 38.0880358 7.22367484zM45.6312158 3.00038968L46.4438809 3.00038968 46.4438809 6.97493548C46.4438809 7.32290323 46.463678 7.67043742 46.4936035 8.01840516L45.6312248 8.01840516 45.6312248 7.41243097 45.6013084 7.41243097C45.3337901 7.86933677 44.8577215 8.11763355 44.3323809 8.11763355 43.4598829 8.11763355 42.9842558 7.68057161 42.9842558 6.82585806L42.9842558 3.00038968 43.7969209 3.00038968 43.7969209 6.47834194C43.7969209 7.08431613 44.0745585 7.49182452 44.6496218 7.49182452 45.0856545 7.49182452 45.6312429 7.16370065 45.6312429 6.32927355L45.6312429 3.00038968 45.6312158 3.00038968zM50.5516213 8.01841419L50.5516213 4.54046194C50.5516213 4.00372903 50.3633097 3.56667613 49.6694455 3.56667613 48.7771503 3.56667613 48.6482301 4.36140645 48.6482301 5.04720774L48.6482301 8.01841419 47.8351325 8.01841419 47.8351325 4.04386839C47.8351325 3.69590065 47.8153354 3.34792387 47.7858514 3.00039871L48.6482301 3.00039871 48.6482301 3.64606065 48.6878334 3.64606065C49.0050653 3.07978323 49.3816976 2.90071871 50.0262807 2.90071871 51.0967771 2.90071871 51.3642864 3.54682323 51.3642864 4.54046194L51.3642864 8.01841419 50.5516213 8.01841419 50.5516213 8.01841419zM55.3818268.843766452L56.1949244.843766452 56.1949244 8.01841419 55.3818268 8.01841419 55.3818268 7.42214065 55.3620297 7.42214065C55.0843921 7.88918968 54.7376853 8.11764258 54.2118941 8.11764258 53.4089158 8.11764258 52.5962508 7.79966194 52.5962508 5.59364129 52.5962508 4.34156258 52.6358541 2.90071871 54.2519299 2.90071871 54.7275569 2.90071871 55.0747143 3.10977032 55.3519013 3.50713548L55.3818178 3.50713548 55.3818178.843766452 55.3818268.843766452zM54.4402505 3.56667613C53.5677525 3.56667613 53.4485101 4.26217806 53.4485101 5.60378452 53.4485101 6.3588271 53.4485101 7.45213677 54.4697255 7.45213677 55.3818268 7.45213677 55.3818268 6.31913935 55.3818268 5.30565677 55.3818268 4.63969032 55.3422325 3.56667613 54.4402505 3.56667613L54.4402505 3.56667613zM58.3601209 5.77269677C58.3601209 7.17384387 58.7367532 7.45213677 59.3712169 7.45213677 59.9264831 7.45213677 60.2137985 7.00493161 60.2437149 6.49819484L61.1360101 6.49819484C61.1258908 7.61090581 60.4417044 8.11765161 59.3910141 8.11765161 58.3301954 8.11765161 57.4876229 7.79967097 57.4876229 5.58394065 57.4876229 4.11310968 57.6561374 2.90072774 59.3910141 2.90072774 60.8183367 2.90072774 61.1756134 3.68575742 61.1756134 5.34534452L61.1756134 5.77269677 58.3601209 5.77269677 58.3601209 5.77269677zM60.3127932 5.15657935C60.3127932 3.69589161 59.9066859 3.51683613 59.3118165 3.51683613 58.7961446 3.51683613 58.3697987 3.76557548 58.3601209 5.15657935L60.3127932 5.15657935 60.3127932 5.15657935zM63.9523857 8.11764258C62.8722114 8.11764258 62.1977029 7.6408929 62.2276284 6.48804258L63.1494075 6.48804258C63.1494075 6.77647871 63.1595268 7.45212774 63.9823112 7.45212774 64.4680576 7.45212774 64.8446899 7.20338839 64.8446899 6.68694194 64.8446899 5.79254065 62.3464292 5.77268774 62.3464292 4.27231226 62.3464292 3.74572258 62.6636611 2.90071871 64.0716281 2.90071871 64.9639233 2.90071871 65.7268657 3.32807097 65.6577875 4.32170968L64.755373 4.32170968C64.7654923 3.79512 64.4878547 3.51683613 63.9721919 3.51683613 63.5361591 3.51683613 63.1991301 3.75543226 63.1991301 4.19249419 63.1991301 5.07719484 65.6973908 5.05735097 65.6973908 6.58772258 65.6973818 7.69029032 64.9441262 8.11764258 63.9523857 8.11764258L63.9523857 8.11764258zM69.303976 8.01841419L69.303976 4.54046194C69.303976 4.03371613 69.165378 3.56667613 68.5111171 3.56667613 68.2629635 3.56667613 67.9259345 3.71574452 67.8071336 3.90450065 67.6584163 4.15279742 67.618822 4.45093419 67.618822 4.63969032L67.618822 8.01840516 66.8057244 8.01840516 66.8057244 4.04386839C66.8057244 3.69590065 66.7859273 3.34792387 66.7560018 3.00039871L67.618822 3.00039871 67.618822 3.62621677 67.6386191 3.62621677C67.8766534 3.08948387 68.3025668 2.90072774 68.8877495 2.90072774 69.3435793 2.90072774 69.868929 3.08948387 70.0572407 3.54683226 70.3348782 3.01009935 70.7911407 2.90072774 71.2469705 2.90072774 71.7723202 2.90072774 72.6149018 3.02024258 72.6149018 4.20264645L72.6149018 8.01842323 71.8022367 8.01842323 71.8022367 4.54046194C71.8022367 4.03371613 71.6631971 3.56667613 71.0089363 3.56667613 70.7018237 3.56667613 70.6125068 3.57681935 70.3942697 3.75543226 70.1566769 3.95433161 70.1170736 4.45093419 70.1170736 4.63969032L70.1170736 8.01840516 69.303976 8.01840516 69.303976 8.01841419zM73.8948316.843766452L74.8064914.843766452 74.8064914 1.71832387 73.8948316 1.71832387 73.8948316.843766452 73.8948316.843766452zM74.7572103 8.01841419L73.9441127 8.01841419 73.9441127 3.00038968 74.7572103 3.00038968 74.7572103 8.01841419 74.7572103 8.01841419zM78.8253565 8.01841419L78.8253565 4.54046194C78.8253565 4.00372903 78.6370448 3.56667613 77.9431807 3.56667613 77.0508855 3.56667613 76.9219653 4.36140645 76.9219653 5.04720774L76.9219653 8.01841419 76.1088677 8.01841419 76.1088677 4.04386839C76.1088677 3.69590065 76.0890705 3.34792387 76.0595866 3.00039871L76.9219653 3.00039871 76.9219653 3.64606065 76.9615686 3.64606065C77.2788004 3.07978323 77.6554327 2.90071871 78.3000158 2.90071871 79.3705123 2.90071871 79.6380215 3.54682323 79.6380215 4.54046194L79.6380215 8.01841419 78.8253565 8.01841419 78.8253565 8.01841419zM80.9333512.843766452L81.845011.843766452 81.845011 1.71832387 80.9333512 1.71832387 80.9333512.843766452 80.9333512.843766452zM81.7957299 8.01841419L80.9826323 8.01841419 80.9826323 3.00038968 81.7957299 3.00038968 81.7957299 8.01841419 81.7957299 8.01841419zM84.6173859 8.11764258C83.5367701 8.11764258 82.8627031 7.6408929 82.8926286 6.48804258L83.8144077 6.48804258C83.8144077 6.77647871 83.824527 7.45212774 84.6473114 7.45212774 85.1330578 7.45212774 85.5096901 7.20338839 85.5096901 6.68694194 85.5096901 5.79254065 83.0114295 5.77268774 83.0114295 4.27231226 83.0114295 3.74572258 83.3286613 2.90071871 84.7366284 2.90071871 85.6289235 2.90071871 86.3923075 3.32807097 86.3227877 4.32170968L85.4203732 4.32170968C85.4304925 3.79512 85.1528549 3.51683613 84.6371921 3.51683613 84.2011593 3.51683613 83.8641303 3.75543226 83.8641303 4.19249419 83.8641303 5.07719484 86.362391 5.05735097 86.362391 6.58772258 86.362382 7.69029032 85.6091174 8.11764258 84.6173859 8.11764258L84.6173859 8.11764258zM87.8755073 3.00038968L87.8755073 2.03630452 88.6886048 1.66892645 88.6886048 3.00038968 89.7788985 3.00038968 89.7788985 3.6165071 88.6886048 3.6165071 88.6886048 6.68694194C88.6886048 7.00492258 88.6886048 7.41243097 89.4317501 7.41243097 89.4915921 7.41243097 89.6205033 7.3925871 89.7987046 7.37230065L89.7987046 7.99856129C89.5311864 8.01840516 89.2632356 8.07794581 88.9957264 8.07794581 88.2226646 8.07794581 87.8755163 7.75996516 87.8755163 7.18354452L87.8755163 3.6165071 87.0527319 3.6165071 87.0527319 3.00038968 87.8755073 3.00038968 87.8755073 3.00038968zM91.3844224 5.77269677C91.3844224 7.17384387 91.7610547 7.45213677 92.3955185 7.45213677 92.9507846 7.45213677 93.2381 7.00493161 93.2680165 6.49819484L94.1598791 6.49819484C94.1502013 7.61090581 93.4660149 8.11765161 92.4153156 8.11765161 91.3544969 8.11765161 90.5119244 7.79967097 90.5119244 5.58394065 90.5119244 4.11310968 90.6804389 2.90072774 92.4153156 2.90072774 93.8430798 2.90072774 94.1999149 3.68575742 94.1999149 5.34534452L94.1999149 5.77269677 91.3844224 5.77269677 91.3844224 5.77269677zM93.3370947 5.15657935C93.3370947 3.69589161 92.9309875 3.51683613 92.336118 3.51683613 91.8204462 3.51683613 91.3941002 3.76557548 91.3844224 5.15657935L93.3370947 5.15657935 93.3370947 5.15657935zM96.2907527 3.75543226L96.3105499 3.75543226C96.6480204 2.99024645 97.064256 2.90071871 97.8571149 2.90071871L97.8571149 3.74573161C97.7880367 3.73558839 97.7083976 3.72544516 97.6393193 3.71574452 97.5697996 3.70560129 97.5002798 3.69590065 97.4210822 3.69590065 96.5191002 3.69590065 96.2907527 4.38170194 96.2907527 5.05735097L96.2907527 8.01841419 95.4780877 8.01841419 95.4780877 3.00038968 96.2907527 3.00038968 96.2907527 3.75543226 96.2907527 3.75543226zM98.7577723.843766452L99.6694321.843766452 99.6694321 1.71832387 98.7577723 1.71832387 98.7577723.843766452 98.7577723.843766452zM99.620151 8.01841419L98.8070534 8.01841419 98.8070534 3.00038968 99.620151 3.00038968 99.620151 8.01841419 99.620151 8.01841419zM103.617894 3.00038968L104.430559 3.00038968 104.430559 6.97493548C104.430559 7.32290323 104.450356 7.67043742 104.480282 8.01840516L103.617903 8.01840516 103.617903 7.41243097 103.587987 7.41243097C103.320469 7.86933677 102.8444 8.11763355 102.319059 8.11763355 101.446561 8.11763355 100.970934 7.68057161 100.970934 6.82585806L100.970934 3.00038968 101.783599 3.00038968 101.783599 6.47834194C101.783599 7.08431613 102.061237 7.49182452 102.6363 7.49182452 103.072333 7.49182452 103.617921 7.16370065 103.617921 6.32927355L103.617921 3.00038968 103.617894 3.00038968zM108.300265 8.01841419L108.300265 4.54046194C108.300265 4.03371613 108.161667 3.56667613 107.507407 3.56667613 107.259253 3.56667613 106.922224 3.71574452 106.803423 3.90450065 106.654706 4.15279742 106.615111 4.45093419 106.615111 4.63969032L106.615111 8.01840516 105.802014 8.01840516 105.802014 4.04386839C105.802014 3.69590065 105.782217 3.34792387 105.752291 3.00039871L106.615111 3.00039871 106.615111 3.62621677 106.634909 3.62621677C106.872943 3.08948387 107.298856 2.90072774 107.884039 2.90072774 108.339869 2.90072774 108.865218 3.08948387 109.05353 3.54683226 109.331168 3.01009935 109.78743 2.90072774 110.24326 2.90072774 110.76861 2.90072774 111.611191 3.02024258 111.611191 4.20264645L111.611191 8.01842323 110.798526 8.01842323 110.798526 4.54046194C110.798526 4.03371613 110.659487 3.56667613 110.005226 3.56667613 109.698113 3.56667613 109.608796 3.57681935 109.390559 3.75543226 109.152966 3.95433161 109.113363 4.45093419 109.113363 4.63969032L109.113363 8.01840516 108.300265 8.01840516 108.300265 8.01841419zM115.148707 3.00038968L115.148707 2.02660387C115.148707 1.01267871 115.862378.814212903 116.586158.814212903 116.754673.814212903 116.854109.823913548 116.97291.843757419L116.97291 1.43032129C116.110531 1.37078065 115.961814 1.73815871 115.961814 2.1456671L115.961814 3.00038065 116.97291 3.00038065 116.97291 3.61649806 115.961814 3.61649806 115.961814 8.01840516 115.148707 8.01840516 115.148707 3.6165071 114.375645 3.6165071 114.375645 3.00038968 115.148707 3.00038968 115.148707 3.00038968zM120.535504 3.00038968L121.348169 3.00038968 121.348169 6.97493548C121.348169 7.32290323 121.367966 7.67043742 121.397891 8.01840516L120.535513 8.01840516 120.535513 7.41243097 120.505596 7.41243097C120.238078 7.86933677 119.762009 8.11763355 119.236669 8.11763355 118.364171 8.11763355 117.888544 7.68057161 117.888544 6.82585806L117.888544 3.00038968 118.701209 3.00038968 118.701209 6.47834194C118.701209 7.08431613 118.978846 7.49182452 119.553909 7.49182452 119.989942 7.49182452 120.535531 7.16370065 120.535531 6.32927355L120.535531 3.00038968 120.535504 3.00038968zM119.216862 2.15581935L118.284964 2.15581935 118.284964 1.12205032 119.216862 1.12205032 119.216862 2.15581935 119.216862 2.15581935zM120.961858 2.15581935L120.02996 2.15581935 120.02996 1.12205032 120.961858 1.12205032 120.961858 2.15581935 120.961858 2.15581935zM123.565277 3.75543226L123.585075 3.75543226C123.922545 2.99024645 124.338781 2.90071871 125.13164 2.90071871L125.13164 3.74573161C125.062561 3.73558839 124.982922 3.72544516 124.913844 3.71574452 124.844324 3.70560129 124.774804 3.69590065 124.695607 3.69590065 123.793625 3.69590065 123.565277 4.38170194 123.565277 5.05735097L123.565277 8.01841419 122.752612 8.01841419 122.752612 3.00038968 123.565277 3.00038968 123.565277 3.75543226 123.565277 3.75543226z"/>
      <polygon fill="#828889" points="36.373 14.065 37.275 14.065 38.177 18.387 38.197 18.387 39.307 14.065 40.457 14.065 41.478 18.387 41.498 18.387 42.49 14.065 43.352 14.065 42.014 19.083 40.923 19.083 39.852 14.81 39.833 14.81 38.712 19.083 37.622 19.083"/>
      <path fill="#828889" d="M44.2214916 11.9082826L45.1331514 11.9082826 45.1331514 12.78284 44.2214916 12.78284 44.2214916 11.9082826 44.2214916 11.9082826zM45.0838703 19.0829303L44.2707727 19.0829303 44.2707727 14.0649148 45.0838703 14.0649148 45.0838703 19.0829303 45.0838703 19.0829303zM47.2552213 14.8199484L47.2750185 14.8199484C47.612489 14.0547626 48.0287246 13.9652348 48.8215835 13.9652348L48.8215835 14.8102477C48.7525053 14.8001045 48.6728662 14.7899613 48.6037879 14.7802606 48.5342681 14.7701174 48.4647484 14.7604168 48.3855508 14.7604168 47.4835688 14.7604168 47.2552213 15.4462181 47.2552213 16.1218671L47.2552213 19.0829303 46.4425563 19.0829303 46.4425563 14.0649148 47.2552213 14.0649148 47.2552213 14.8199484 47.2552213 14.8199484zM50.2365881 14.0649058L50.2365881 13.1008206 51.0496857 12.7334426 51.0496857 14.0649058 52.1399793 14.0649058 52.1399793 14.6810232 51.0496857 14.6810232 51.0496857 17.7514581C51.0496857 18.0694387 51.0496857 18.4769471 51.792831 18.4769471 51.852673 18.4769471 51.9815842 18.4571032 52.1597855 18.4368168L52.1597855 19.0630774C51.8922673 19.0829213 51.6243165 19.1424619 51.3568073 19.1424619 50.5837455 19.1424619 50.2365971 18.8244813 50.2365971 18.2480606L50.2365971 14.6810232 49.4138127 14.6810232 49.4138127 14.0649058 50.2365881 14.0649058 50.2365881 14.0649058zM54.5850121 19.1821587C53.5048378 19.1821587 52.8303292 18.705409 52.8602547 17.5525587L53.7820338 17.5525587C53.7820338 17.8409948 53.7921532 18.5166439 54.6149376 18.5166439 55.100684 18.5166439 55.4773163 18.2679045 55.4773163 17.7514581 55.4773163 16.8570568 52.9790556 16.8372039 52.9790556 15.3368284 52.9790556 14.8102387 53.2962875 13.9652348 54.7042545 13.9652348 55.5965497 13.9652348 56.3594921 14.3925871 56.2904138 15.3862258L55.3879993 15.3862258C55.3981187 14.8596361 55.1204811 14.5813523 54.6048182 14.5813523 54.1687855 14.5813523 53.8317565 14.8199484 53.8317565 15.2570103 53.8317565 16.141711 56.3300171 16.1218671 56.3300171 17.6522387 56.3300081 18.7548065 55.5767435 19.1821587 54.5850121 19.1821587L54.5850121 19.1821587zM60.0272349 15.6746619C60.0470321 14.8499355 59.6404833 14.6311923 59.3329292 14.6311923 58.7085848 14.6311923 58.2822299 14.929329 58.2822299 16.30048 58.2822299 17.93008 58.4903477 18.5166439 59.3329292 18.5166439 59.5212409 18.5166439 60.0866354 18.3177445 60.0567099 17.4136335L60.9094108 17.4136335C60.9388857 18.8244813 59.8881954 19.1821587 59.3329292 19.1821587 58.2721105 19.1821587 57.429538 18.8641781 57.429538 16.6484477 57.429538 15.1776168 57.5980525 13.9652348 59.3329292 13.9652348 60.3343475 13.9652348 60.9190886 14.5517987 60.8698165 15.6746619L60.0272349 15.6746619 60.0272349 15.6746619zM64.8970437 19.0829303L64.8970437 15.6843626C64.8970437 15.0682452 64.6986127 14.6311832 64.0047486 14.6311832 63.191651 14.6311832 62.9835332 15.2869884 62.9835332 16.1315587L62.9835332 19.0829213 62.1708681 19.0829213 62.1708681 11.9082735 62.9835332 11.9082735 62.9835332 14.7105677 63.0231365 14.7105677C63.3504877 14.1244374 63.72712 13.9652258 64.3813809 13.9652258 65.2340818 13.9652258 65.7097088 14.3925781 65.7097088 15.5255845L65.7097088 19.0829213 64.8970437 19.0829213 64.8970437 19.0829303zM69.5882097 18.3574323L69.5684125 18.3574323C69.3207004 18.9338529 68.9339488 19.1821587 68.3096044 19.1821587 67.2487857 19.1821587 66.9416732 18.4968 66.9416732 17.5327148 66.9416732 16.0124865 68.4283963 15.9428116 69.5684125 15.9727987 69.5882097 15.3068503 69.598329 14.5813523 68.725831 14.5813523 68.1806842 14.5813523 67.8933688 14.9491729 67.9426499 15.4757535L67.0604741 15.4757535C67.1000774 14.3528994 67.6949378 13.9652348 68.7557565 13.9652348 70.0444901 13.9652348 70.3815191 14.6311832 70.3815191 15.4757535L70.3815191 17.8903832C70.3815191 18.288191 70.4211224 18.6952568 70.4805138 19.0829213L69.5882187 19.0829213 69.5882187 18.3574323 69.5882097 18.3574323zM67.7543382 17.5922555C67.7543382 18.0791484 67.9923725 18.5166529 68.5375193 18.5166529 69.0333851 18.5166529 69.6480516 18.2083729 69.5684125 16.5889161 68.7953508 16.5986168 67.7543382 16.5289329 67.7543382 17.5922555L67.7543382 17.5922555zM76.1695837 18.476929C75.4264385 18.476929 75.4264385 18.0694206 75.4264385 17.75144L75.4264385 14.6810052 76.5167321 14.6810052 76.5167321 14.0648877 75.4264385 14.0648877 75.4264385 12.7334245 74.6133409 13.1008026 74.6133409 14.0648877 72.8291831 14.0648877 72.8291831 13.2101742C72.8291831 12.8026658 72.9779004 12.4352877 73.8402791 12.4948284L73.8402791 11.9082645C73.7214782 11.8884206 73.622042 11.87872 73.4535275 11.87872 72.7297468 11.87872 72.0160855 12.0771858 72.0160855 13.091111L72.0160855 14.0648968 71.2430237 14.0648968 71.2430237 14.6810142 72.0160855 14.6810142 72.0160855 19.0829213 72.8291831 19.0829213 72.8291831 14.6810142 74.6133409 14.6810142 74.6133409 18.2480516C74.6133409 18.8244723 74.9604892 19.1424529 75.733551 19.1424529 76.0010692 19.1424529 76.26902 19.0829123 76.5365292 19.0630684L76.5365292 18.4368077C76.3583459 18.4570852 76.2294257 18.476929 76.1695837 18.476929L76.1695837 18.476929z"/>
      <polygon fill="#828889" points="77.974 19.083 77.16 19.083 77.16 11.908 77.974 11.908"/>
      <path fill="#828889" d="M79.2591905 11.9082826L80.1708503 11.9082826 80.1708503 12.78284 79.2591905 12.78284 79.2591905 11.9082826 79.2591905 11.9082826zM80.1215692 19.0829303L79.3084716 19.0829303 79.3084716 14.0649148 80.1215692 14.0649148 80.1215692 19.0829303 80.1215692 19.0829303zM84.0013947 15.6746619C84.0211919 14.8499355 83.6146431 14.6311923 83.307089 14.6311923 82.6827446 14.6311923 82.2563897 14.929329 82.2563897 16.30048 82.2563897 17.93008 82.4645075 18.5166439 83.307089 18.5166439 83.4954007 18.5166439 84.0607952 18.3177445 84.0308697 17.4136335L84.8835705 17.4136335C84.9130455 18.8244813 83.8623552 19.1821587 83.307089 19.1821587 82.2462703 19.1821587 81.4036978 18.8641781 81.4036978 16.6484477 81.4036978 15.1776168 81.5722123 13.9652348 83.307089 13.9652348 84.3085073 13.9652348 84.8932484 14.5517987 84.8439763 15.6746619L84.0013947 15.6746619 84.0013947 15.6746619zM88.870762 19.0829303L88.870762 15.6843626C88.870762 15.0682452 88.672331 14.6311832 87.9784668 14.6311832 87.1653692 14.6311832 86.9572514 15.2869884 86.9572514 16.1315587L86.9572514 19.0829213 86.1445864 19.0829213 86.1445864 11.9082735 86.9572514 11.9082735 86.9572514 14.7105677 86.9968547 14.7105677C87.3242059 14.1244374 87.7008382 13.9652258 88.3550991 13.9652258 89.2078 13.9652258 89.683427 14.3925781 89.683427 15.5255845L89.683427 19.0829213 88.870762 19.0829213 88.870762 19.0829303zM91.8046138 16.8372129C91.8046138 18.23836 92.1812462 18.5166529 92.8157099 18.5166529 93.370976 18.5166529 93.6582914 18.0694477 93.6882079 17.562711L94.5805031 17.562711C94.5703837 18.6754219 93.8861974 19.1821677 92.835507 19.1821677 91.7746884 19.1821677 90.9321158 18.8641871 90.9321158 16.6484568 90.9321158 15.1776258 91.1006303 13.9652439 92.835507 13.9652439 94.2628297 13.9652439 94.6201064 14.7502735 94.6201064 16.4098606L94.6201064 16.8372129 91.8046138 16.8372129 91.8046138 16.8372129zM93.7572862 16.2210955C93.7572862 14.7604077 93.3511789 14.5813523 92.7563095 14.5813523 92.2406376 14.5813523 91.8142916 14.8300916 91.8046138 16.2210955L93.7572862 16.2210955 93.7572862 16.2210955z"/>
      <polygon fill="#828889" points="101.886 12.823 98.337 18.288 101.965 18.288 101.965 19.083 97.494 19.083 97.494 18.05 100.964 12.723 100.964 12.703 97.613 12.703 97.613 11.908 101.886 11.908"/>
      <path fill="#828889" d="M105.725447 14.0649058L106.538113 14.0649058 106.538113 18.0394516C106.538113 18.3874194 106.55791 18.7349535 106.587835 19.0829213L105.725456 19.0829213 105.725456 18.4769471 105.69554 18.4769471C105.428022 18.9338529 104.951953 19.1821497 104.426613 19.1821497 103.554115 19.1821497 103.078487 18.7450877 103.078487 17.8903742L103.078487 14.0648968 103.891153 14.0648968 103.891153 17.542849C103.891153 18.1488232 104.16879 18.5563316 104.743853 18.5563316 105.179886 18.5563316 105.725475 18.2282077 105.725475 17.3937806L105.725475 14.0649058 105.725447 14.0649058zM109.399363 19.1821587C108.318747 19.1821587 107.64468 18.705409 107.674605 17.5525587L108.596385 17.5525587C108.596385 17.8409948 108.606504 18.5166439 109.429288 18.5166439 109.915035 18.5166439 110.291667 18.2679045 110.291667 17.7514581 110.291667 16.8570568 107.793406 16.8372039 107.793406 15.3368284 107.793406 14.8102387 108.110638 13.9652348 109.518605 13.9652348 110.4109 13.9652348 111.174284 14.3925871 111.104765 15.3862258L110.20235 15.3862258C110.212469 14.8596361 109.934832 14.5813523 109.419169 14.5813523 108.983136 14.5813523 108.646107 14.8199484 108.646107 15.2570103 108.646107 16.141711 111.144368 16.1218671 111.144368 17.6522387 111.144359 18.7548065 110.391094 19.1821587 109.399363 19.1821587L109.399363 19.1821587zM114.861833 18.3574323L114.842036 18.3574323C114.594324 18.9338529 114.207573 19.1821587 113.583228 19.1821587 112.522409 19.1821587 112.215297 18.4968 112.215297 17.5327148 112.215297 16.0124865 113.70202 15.9428116 114.842036 15.9727987 114.861833 15.3068503 114.871953 14.5813523 113.999455 14.5813523 113.454308 14.5813523 113.166993 14.9491729 113.216274 15.4757535L112.334098 15.4757535C112.373701 14.3528994 112.968562 13.9652348 114.02938 13.9652348 115.318114 13.9652348 115.655152 14.6311832 115.655152 15.4757535L115.655152 17.8903832C115.655152 18.288191 115.694755 18.6952568 115.754147 19.0829213L114.861842 19.0829213 114.861842 18.3574323 114.861833 18.3574323zM113.027953 17.5922555C113.027953 18.0791484 113.265987 18.5166529 113.811134 18.5166529 114.307 18.5166529 114.921666 18.2083729 114.842027 16.5889161 114.068975 16.5986168 113.027953 16.5289329 113.027953 17.5922555L113.027953 17.5922555zM119.561371 19.0829303L119.561371 15.6049781C119.561371 15.0982323 119.422773 14.6311923 118.768512 14.6311923 118.520358 14.6311923 118.183329 14.7802606 118.064528 14.9690168 117.915811 15.2173135 117.876216 15.5154503 117.876216 15.7042065L117.876216 19.0829213 117.063119 19.0829213 117.063119 15.1083755C117.063119 14.7604077 117.043322 14.412431 117.013396 14.0649058L117.876216 14.0649058 117.876216 14.6907239 117.896014 14.6907239C118.134048 14.153991 118.559961 13.9652348 119.145144 13.9652348 119.600974 13.9652348 120.126324 14.153991 120.314635 14.6113394 120.592273 14.0746065 121.048535 13.9652348 121.504365 13.9652348 122.029715 13.9652348 122.872296 14.0847497 122.872296 15.2671535L122.872296 19.0829303 122.059631 19.0829303 122.059631 15.6049781C122.059631 15.0982323 121.920592 14.6311923 121.266331 14.6311923 120.959218 14.6311923 120.869901 14.6413355 120.651664 14.8199484 120.414071 15.0188477 120.374468 15.5154503 120.374468 15.7042065L120.374468 19.0829213 119.561371 19.0829213 119.561371 19.0829303zM126.690081 19.0829303L126.690081 15.6049781C126.690081 15.0982323 126.551483 14.6311923 125.897222 14.6311923 125.649069 14.6311923 125.31204 14.7802606 125.193239 14.9690168 125.044521 15.2173135 125.004927 15.5154503 125.004927 15.7042065L125.004927 19.0829213 124.191829 19.0829213 124.191829 15.1083755C124.191829 14.7604077 124.172032 14.412431 124.142107 14.0649058L125.004927 14.0649058 125.004927 14.6907239 125.024724 14.6907239C125.262758 14.153991 125.688672 13.9652348 126.273855 13.9652348 126.729684 13.9652348 127.255034 14.153991 127.443346 14.6113394 127.720983 14.0746065 128.177246 13.9652348 128.633076 13.9652348 129.158425 13.9652348 130.001007 14.0847497 130.001007 15.2671535L130.001007 19.0829303 129.188342 19.0829303 129.188342 15.6049781C129.188342 15.0982323 129.049302 14.6311923 128.395041 14.6311923 128.087929 14.6311923 127.998612 14.6413355 127.780375 14.8199484 127.542782 15.0188477 127.503179 15.5154503 127.503179 15.7042065L127.503179 19.0829213 126.690081 19.0829213 126.690081 19.0829303zM132.109434 16.8372129C132.109434 18.23836 132.486066 18.5166529 133.12053 18.5166529 133.675796 18.5166529 133.963112 18.0694477 133.993028 17.562711L134.885323 17.562711C134.875204 18.6754219 134.191018 19.1821677 133.140327 19.1821677 132.079509 19.1821677 131.236936 18.8641871 131.236936 16.6484568 131.236936 15.1776258 131.405451 13.9652439 133.140327 13.9652439 134.56765 13.9652439 134.924927 14.7502735 134.924927 16.4098606L134.924927 16.8372129 132.109434 16.8372129 132.109434 16.8372129zM134.062115 16.2210955C134.062115 14.7604077 133.656008 14.5813523 133.061139 14.5813523 132.545467 14.5813523 132.119121 14.8300916 132.109443 16.2210955L134.062115 16.2210955 134.062115 16.2210955zM138.889681 19.0829303L138.889681 15.6049781C138.889681 15.0682452 138.701369 14.6311923 138.007505 14.6311923 137.11521 14.6311923 136.986289 15.4259226 136.986289 16.1117239L136.986289 19.0829303 136.173192 19.0829303 136.173192 15.1083845C136.173192 14.7604168 136.153395 14.41244 136.123911 14.0649148L136.986289 14.0649148 136.986289 14.7105768 137.025893 14.7105768C137.343125 14.1442994 137.719757 13.9652348 138.36434 13.9652348 139.434836 13.9652348 139.702346 14.6113394 139.702346 15.6049781L139.702346 19.0829303 138.889681 19.0829303 138.889681 19.0829303zM143.580847 18.3574323L143.561049 18.3574323C143.313337 18.9338529 142.926586 19.1821587 142.302241 19.1821587 141.241423 19.1821587 140.93431 18.4968 140.93431 17.5327148 140.93431 16.0124865 142.421033 15.9428116 143.561049 15.9727987 143.580847 15.3068503 143.590966 14.5813523 142.718468 14.5813523 142.173321 14.5813523 141.886006 14.9491729 141.935287 15.4757535L141.053111 15.4757535C141.092714 14.3528994 141.687575 13.9652348 142.748393 13.9652348 144.037127 13.9652348 144.374156 14.6311832 144.374156 15.4757535L144.374156 17.8903832C144.374156 18.288191 144.413759 18.6952568 144.473151 19.0829213L143.580856 19.0829213 143.580856 18.3574323 143.580847 18.3574323zM141.746975 17.5922555C141.746975 18.0791484 141.985009 18.5166529 142.530156 18.5166529 143.026022 18.5166529 143.640689 18.2083729 143.561049 16.5889161 142.787988 16.5986168 141.746975 16.5289329 141.746975 17.5922555L141.746975 17.5922555zM146.639654 14.8199484L146.659451 14.8199484C146.996922 14.0547626 147.413157 13.9652348 148.206016 13.9652348L148.206016 14.8102477C148.136938 14.8001045 148.057299 14.7899613 147.98822 14.7802606 147.918701 14.7701174 147.849181 14.7604168 147.769983 14.7604168 146.868001 14.7604168 146.639654 15.4462181 146.639654 16.1218671L146.639654 19.0829303 145.826989 19.0829303 145.826989 14.0649148 146.639654 14.0649148 146.639654 14.8199484 146.639654 14.8199484zM150.014819 19.0829303L149.201721 19.0829303 149.201721 11.9082826 150.014819 11.9082826 150.014819 14.5716516 150.044294 14.5716516C150.321931 14.1742865 150.66908 13.9652348 151.144707 13.9652348 152.760792 13.9652348 152.800386 15.4060697 152.800386 16.6581574 152.800386 18.8641781 151.987288 19.1821587 151.184301 19.1821587 150.658951 19.1821587 150.311803 18.9537058 150.034607 18.4866568L150.01481 18.4866568 150.01481 19.0829303 150.014819 19.0829303zM150.926479 18.5166439C151.947694 18.5166439 151.947694 17.4233342 151.947694 16.6682916 151.947694 15.3266852 151.828893 14.6311832 150.956395 14.6311832 150.054413 14.6311832 150.014819 15.7042065 150.014819 16.3701548 150.014819 17.1353497 149.925502 18.5166439 150.926479 18.5166439L150.926479 18.5166439zM154.799267 16.8372129C154.799267 18.23836 155.175899 18.5166529 155.810363 18.5166529 156.365629 18.5166529 156.652944 18.0694477 156.682861 17.562711L157.574723 17.562711C157.565045 18.6754219 156.880859 19.1821677 155.83016 19.1821677 154.769341 19.1821677 153.926769 18.8641871 153.926769 16.6484568 153.926769 15.1776258 154.095283 13.9652439 155.83016 13.9652439 157.257924 13.9652439 157.614759 14.7502735 157.614759 16.4098606L157.614759 16.8372129 154.799267 16.8372129 154.799267 16.8372129zM156.751939 16.2210955C156.751939 14.7604077 156.345832 14.5813523 155.750962 14.5813523 155.23529 14.5813523 154.808944 14.8300916 154.799267 16.2210955L156.751939 16.2210955 156.751939 16.2210955zM158.805814 11.9082826L159.717473 11.9082826 159.717473 12.78284 158.805814 12.78284 158.805814 11.9082826 158.805814 11.9082826zM159.668192 19.0829303L158.855095 19.0829303 158.855095 14.0649148 159.668192 14.0649148 159.668192 19.0829303 159.668192 19.0829303zM161.339713 14.0649058L161.339713 13.1008206 162.15281 12.7334426 162.15281 14.0649058 163.243104 14.0649058 163.243104 14.6810232 162.15281 14.6810232 162.15281 17.7514581C162.15281 18.0694387 162.15281 18.4769471 162.895956 18.4769471 162.955798 18.4769471 163.084709 18.4571032 163.26291 18.4368168L163.26291 19.0630774C162.995392 19.0829213 162.727441 19.1424619 162.459932 19.1424619 161.68687 19.1424619 161.339722 18.8244813 161.339722 18.2480606L161.339722 14.6810232 160.516937 14.6810232 160.516937 14.0649058 161.339713 14.0649058 161.339713 14.0649058zM39.6741952 25.1294219L40.4868602 25.1294219 40.4868602 29.1039677C40.4868602 29.4519355 40.5066574 29.7994697 40.5365829 30.1474374L39.6742042 30.1474374 39.6742042 29.5414632 39.6442877 29.5414632C39.3767695 29.998369 38.9007009 30.2466658 38.3753602 30.2466658 37.5028622 30.2466658 37.0272352 29.8096039 37.0272352 28.9548903L37.0272352 25.1294129 37.8399002 25.1294129 37.8399002 28.6073652C37.8399002 29.2133394 38.1175378 29.6208477 38.6926011 29.6208477 39.1286338 29.6208477 39.6742222 29.2927239 39.6742222 28.4582968L39.6742222 25.1294219 39.6741952 25.1294219zM44.6936044 30.1474465L44.6936044 26.6694942C44.6936044 26.1327613 44.5052927 25.6957084 43.8114286 25.6957084 42.9191334 25.6957084 42.7902132 26.4904387 42.7902132 27.17624L42.7902132 30.1474465 41.9771156 30.1474465 41.9771156 26.1729006C41.9771156 25.8249329 41.9573185 25.4769561 41.9278345 25.129431L42.7902132 25.129431 42.7902132 25.7750929 42.8298165 25.7750929C43.1470484 25.2088155 43.5236807 25.029751 44.1682637 25.029751 45.2387602 25.029751 45.5062695 25.6758555 45.5062695 26.6694942L45.5062695 30.1474465 44.6936044 30.1474465 44.6936044 30.1474465zM49.6228046 22.9727987L50.4359022 22.9727987 50.4359022 30.1474465 49.6228046 30.1474465 49.6228046 29.5511729 49.6030075 29.5511729C49.3253699 30.0182219 48.9786631 30.2466748 48.4528719 30.2466748 47.6498936 30.2466748 46.8372286 29.9286942 46.8372286 27.7226645 46.8372286 26.4705858 46.8768319 25.0297419 48.4929077 25.0297419 48.9685347 25.0297419 49.3156921 25.2387935 49.5933207 25.6361587L49.6227956 25.6361587 49.6227956 22.9727987 49.6228046 22.9727987zM48.6812284 25.6957084C47.8087303 25.6957084 47.6899295 26.3912103 47.6899295 27.7328168 47.6899295 28.4878594 47.6899295 29.581169 48.7107033 29.581169 49.6228046 29.581169 49.6228046 28.4481626 49.6228046 27.43468 49.6228046 26.7687226 49.5832013 25.6957084 48.6812284 25.6957084L48.6812284 25.6957084z"/>
      <polygon fill="#828889" points="54.222 30.147 54.222 22.973 57.91 22.973 57.91 23.768 55.134 23.768 55.134 26.073 57.711 26.073 57.711 26.868 55.134 26.868 55.134 29.353 57.969 29.353 57.969 30.147"/>
      <path fill="#828889" d="M61.869036 30.1474465L61.869036 26.6694942C61.869036 26.1327613 61.6807244 25.6957084 60.9868602 25.6957084 60.0945651 25.6957084 59.9656448 26.4904387 59.9656448 27.17624L59.9656448 30.1474465 59.1525473 30.1474465 59.1525473 26.1729006C59.1525473 25.8249329 59.1327501 25.4769561 59.1032662 25.129431L59.9656448 25.129431 59.9656448 25.7750929 60.0052481 25.7750929C60.32248 25.2088155 60.6991123 25.029751 61.3436954 25.029751 62.4141919 25.029751 62.6817011 25.6758555 62.6817011 26.6694942L62.6817011 30.1474465 61.869036 30.1474465 61.869036 30.1474465zM64.3299011 25.1294219L64.3299011 24.1653368 65.1429987 23.7979587 65.1429987 25.1294219 66.2332923 25.1294219 66.2332923 25.7455394 65.1429987 25.7455394 65.1429987 28.8159742C65.1429987 29.1339548 65.1429987 29.5414632 65.886144 29.5414632 65.9459859 29.5414632 66.0748971 29.5216194 66.2530985 29.5013329L66.2530985 30.1275935C65.9855802 30.1474374 65.7176295 30.2069781 65.4501202 30.2069781 64.6770585 30.2069781 64.3299101 29.8889974 64.3299101 29.3125768L64.3299101 25.7455394 63.5071257 25.7455394 63.5071257 25.1294219 64.3299011 25.1294219 64.3299011 25.1294219z"/>
      <polygon fill="#828889" points="66.806 25.129 67.708 25.129 68.61 29.452 68.63 29.452 69.74 25.129 70.89 25.129 71.911 29.452 71.931 29.452 72.922 25.129 73.785 25.129 72.446 30.147 71.356 30.147 70.285 25.875 70.265 25.875 69.145 30.147 68.055 30.147"/>
      <path fill="#828889" d="M74.6542508 22.9727987L75.5659105 22.9727987 75.5659105 23.8473561 74.6542508 23.8473561 74.6542508 22.9727987 74.6542508 22.9727987zM75.5166385 30.1474465L74.7035319 30.1474465 74.7035319 25.1294219 75.5166295 25.1294219 75.5166295 30.1474465 75.5166385 30.1474465zM79.396464 26.7391781C79.4162611 25.9144516 79.0097123 25.6957084 78.7021582 25.6957084 78.0778138 25.6957084 77.6514589 25.9938452 77.6514589 27.3649961 77.6514589 28.9945961 77.8595767 29.581169 78.7021582 29.581169 78.8904699 29.581169 79.4558644 29.3822697 79.4259389 28.4781587L80.2786398 28.4781587C80.3081147 29.8890065 79.2574244 30.2466839 78.7021582 30.2466839 77.6413396 30.2466839 76.798767 29.9287032 76.798767 27.7129729 76.798767 26.2421419 76.9672815 25.02976 78.7021582 25.02976 79.7035765 25.02976 80.2883176 25.6163239 80.2390455 26.7391871L79.396464 26.7391871 79.396464 26.7391781z"/>
      <polygon fill="#828889" points="82.359 30.147 81.546 30.147 81.546 22.973 82.359 22.973 82.359 27.296 82.379 27.296 83.905 25.129 84.897 25.129 83.231 27.286 85.194 30.147 84.163 30.147 82.379 27.335 82.359 27.335 82.359 30.147"/>
      <polygon fill="#828889" points="86.892 30.147 86.079 30.147 86.079 22.973 86.892 22.973"/>
      <path fill="#828889" d="M90.8911969 25.1294219L91.703862 25.1294219 91.703862 29.1039677C91.703862 29.4519355 91.7236591 29.7994697 91.7535846 30.1474374L90.8912059 30.1474374 90.8912059 29.5414632 90.8612895 29.5414632C90.5937712 29.998369 90.1177026 30.2466658 89.592362 30.2466658 88.719864 30.2466658 88.2442369 29.8096039 88.2442369 28.9548903L88.2442369 25.1294129 89.056902 25.1294129 89.056902 28.6073652C89.056902 29.2133394 89.3345396 29.6208477 89.9096029 29.6208477 90.3456356 29.6208477 90.891224 29.2927239 90.891224 28.4582968L90.891224 25.1294219 90.8911969 25.1294219zM95.8116024 30.1474465L95.8116024 26.6694942C95.8116024 26.1327613 95.6232908 25.6957084 94.9294266 25.6957084 94.0371314 25.6957084 93.9082112 26.4904387 93.9082112 27.17624L93.9082112 30.1474465 93.0951136 30.1474465 93.0951136 26.1729006C93.0951136 25.8249329 93.0753165 25.4769561 93.0458325 25.129431L93.9082112 25.129431 93.9082112 25.7750929 93.9478145 25.7750929C94.2650464 25.2088155 94.6416787 25.029751 95.2862618 25.029751 96.3567582 25.029751 96.6242675 25.6758555 96.6242675 26.6694942L96.6242675 30.1474465 95.8116024 30.1474465 95.8116024 30.1474465zM100.604845 25.1294219L101.417942 25.1294219 101.417942 30.6541832C101.417942 31.7770374 100.674356 32.0451871 99.5739426 32.0451871 98.7410389 32.0451871 97.9877833 31.6279781 98.0572941 30.7040232L98.9689538 30.7040232C98.9790732 31.1710723 99.2861857 31.4295123 99.7323378 31.4295123 100.297723 31.4295123 100.604836 31.0815445 100.604836 30.5646555L100.604836 29.5216194 100.574919 29.5216194C100.366802 29.9189845 99.9109716 30.1474374 99.4749479 30.1474374 98.1167035 30.1474374 97.8487437 28.9747432 97.8487437 27.484511 97.8487437 25.1788194 99.0089987 25.029751 99.4151059 25.029751 99.9404556 25.029751 100.357124 25.2586465 100.585039 25.7455394L100.604836 25.7455394 100.604836 25.1294219 100.604845 25.1294219zM99.6531492 25.7058516C98.7313701 25.7058516 98.7014536 26.8185626 98.7014536 27.48452 98.7014536 29.0942761 99.0684081 29.4717974 99.6729464 29.4717974 100.654567 29.4717974 100.624642 28.3092465 100.624642 27.6137445 100.624651 26.8684026 100.674365 25.7058516 99.6531492 25.7058516L99.6531492 25.7058516z"/>
    </g>
  </g>
</svg>
