<svg xmlns="http://www.w3.org/2000/svg" width="198" height="116" viewBox="0 0 198 116">
  <g fill="#828889" fill-rule="evenodd" transform="translate(17 37.5)">
    <path d="M8.3943128 9.1459854L8.77819905 9.1459854 9.41800948 9.1459854 10.6976303 9.1459854 11.9004739 9.1459854C12.1819905 9.1459854 12.4123223 8.89051095 12.5914692 8.40510949 12.642654 8.3540146 12.6938389 8.30291971 12.7450237 8.25182482 13.1800948 9.12043796 13.563981 9.88686131 13.9222749 10.6021898 14.2805687 11.3175182 14.7412322 12.2372263 15.3298578 13.4124088 15.3042654 13.6167883 15.2530806 13.7189781 15.1763033 13.7189781 14.3061611 12.6715328 13.3080569 11.7518248 12.1563981 10.9343066 11.0047393 10.1167883 9.7507109 9.7080292 8.3943128 9.7080292 6.78199052 9.7080292 5.68151659 10.5 5.04170616 12.0583942 4.40189573 13.6167883 4.09478673 15.5072993 4.09478673 17.7554745 4.09478673 19.620438 4.5042654 21.3576642 5.32322275 22.9927007 6.14218009 24.6021898 7.37061611 25.419708 9.00853081 25.419708 10.7744076 25.419708 12.2331754 24.8832117 13.3848341 23.810219 14.1781991 22.7116788 14.9971564 21.5875912 15.7905213 20.4890511 15.8417062 20.5145985 15.892891 20.5912409 15.892891 20.7445255 15.892891 21.6642336 15.278673 22.7883212 14.050237 24.1678832 12.8218009 25.5474453 11.1327014 26.2372263 9.03412322 26.2372263 6.62843602 26.2372263 4.52985782 25.3941606 2.73838863 23.7335766.895734597 22.0218978 0 20.0036496 0 17.6277372 0 15.3284672.818957346 13.3357664 2.45687204 11.649635 4.09478673 9.98905109 6.06540284 9.1459854 8.3943128 9.1459854L8.3943128 9.1459854 8.3943128 9.1459854zM22.7260664 20.9233577L19.1175355 20.9233577 17.9914692 23.9124088C17.8890995 24.1678832 17.8123223 24.3978102 17.8123223 24.6021898 17.8123223 25.0109489 18.0938389 25.2408759 18.6824645 25.2919708 19.27109 25.3430657 19.5526066 25.3941606 19.5526066 25.4963504 19.5526066 25.649635 19.5014218 25.7518248 19.4246445 25.7518248L15.1251185 25.7518248C14.9971564 25.7518248 14.9459716 25.6751825 14.9459716 25.5474453 14.9459716 25.419708 15.3042654 25.3430657 15.9952607 25.2919708 16.6862559 25.2408759 17.1981043 24.7810219 17.5052133 23.9124088L20.3203791 16.4270073C20.3459716 16.3248175 20.371564 16.2226277 20.371564 16.1459854 20.371564 15.9927007 20.3203791 15.8394161 20.2180095 15.7116788 20.1156398 15.5839416 19.9876777 15.5072993 19.8341232 15.4817518 19.6805687 15.4562044 19.5270142 15.4051095 19.3990521 15.379562 19.4246445 15.3284672 19.4758294 15.2773723 19.5014218 15.2262774 20.1412322 14.9708029 20.5507109 14.7919708 20.678673 14.689781 20.8066351 14.5875912 20.9601896 14.4087591 21.1649289 14.1788321 21.3440758 13.9489051 21.4720379 13.8211679 21.5232227 13.8211679 21.5744076 13.8211679 21.6255924 13.8722628 21.6767773 13.9744526L26.1042654 23.9635036C26.4625592 24.7810219 26.9744076 25.2408759 27.6654028 25.3430657 28.3563981 25.4452555 28.6890995 25.4963504 28.6890995 25.5474453 28.7146919 25.7007299 28.6635071 25.7773723 28.535545 25.7773723L22.8028436 25.7773723C22.6748815 25.7773723 22.6236967 25.7007299 22.6236967 25.5729927 22.6236967 25.4708029 22.9052133 25.3941606 23.4682464 25.3686131 24.0312796 25.3430657 24.3127962 25.1386861 24.3127962 24.7810219 24.3127962 24.6021898 24.2616114 24.3978102 24.1592417 24.1423358L22.7260664 20.9233577 22.7260664 20.9233577zM22.521327 20.5145985L20.7554502 16.5291971 19.2454976 20.5145985 22.521327 20.5145985 22.521327 20.5145985zM33.5516588 14.4087591C32.9374408 14.4087591 32.4 14.5875912 31.9393365 14.919708 31.478673 15.2518248 31.2483412 15.6605839 31.2483412 16.120438 31.2483412 16.6569343 31.6066351 17.1423358 32.2976303 17.6532847 32.9886256 18.1386861 33.9611374 18.5218978 35.163981 18.8029197 36.3924171 19.0839416 37.2881517 19.5693431 37.8255924 20.2591241 38.3630332 20.9489051 38.6445498 21.7153285 38.6445498 22.5583942 38.6445498 23.5547445 38.2606635 24.3722628 37.492891 25.0875912 36.7251185 25.7773723 35.5734597 26.1350365 34.0123223 26.1350365 33.628436 26.1350365 33.2189573 26.1094891 32.7838863 26.0328467 32.3488152 25.9562044 31.9649289 25.879562 31.6066351 25.8029197 31.4274882 25.8029197 31.2739336 26.0072993 31.1459716 26.3905109 31.0691943 26.5182482 31.0180095 26.6715328 30.9412322 26.7992701L28.6890995 22.2262774C28.6890995 22.0985401 28.7402844 22.0474453 28.8170616 22.0474453 29.5592417 22.9927007 30.3781991 23.8357664 31.2739336 24.5766423 32.1696682 25.3175182 33.0909953 25.7007299 34.0635071 25.7007299 34.6777251 25.7007299 35.2663507 25.4452555 35.8037915 24.8832117 36.3412322 24.3467153 36.6227488 23.7335766 36.6227488 23.0693431 36.6227488 22.4306569 36.3412322 21.8686131 35.7526066 21.3832117 35.163981 20.8978102 34.2682464 20.540146 33.0398104 20.310219 31.8113744 20.080292 30.864455 19.6459854 30.1990521 19.0072993 29.5336493 18.3686131 29.2265403 17.6788321 29.2265403 16.9379562 29.2265403 16.120438 29.5848341 15.4306569 30.3270142 14.8686131 31.0691943 14.3065693 32.1440758 14.0255474 33.5260664 14.0255474L35.957346 14.0255474C36.1620853 14.0255474 36.3156398 13.8467153 36.4436019 13.5145985 36.4691943 13.4890511 36.5203791 13.4379562 36.571564 13.4124088 36.878673 14.0255474 37.1345972 14.5875912 37.3905213 15.0729927 37.6464455 15.5839416 37.9791469 16.2481752 38.3886256 17.0912409 38.3886256 17.2445255 38.3374408 17.2956204 38.2606635 17.2956204 37.6720379 16.5547445 36.9810427 15.8649635 36.1876777 15.2773723 35.3943128 14.689781 34.4985782 14.4087591 33.5516588 14.4087591L33.5516588 14.4087591 33.5516588 14.4087591zM44.6587678 14.4087591C44.0445498 14.4087591 43.507109 14.5875912 43.0464455 14.919708 42.585782 15.2518248 42.3554502 15.6605839 42.3554502 16.120438 42.3554502 16.6569343 42.7137441 17.1423358 43.4047393 17.6532847 44.0957346 18.1386861 45.0682464 18.5218978 46.27109 18.8029197 47.4995261 19.0839416 48.3952607 19.5693431 48.9327014 20.2591241 49.4701422 20.9489051 49.7516588 21.7153285 49.7516588 22.5583942 49.7516588 23.5547445 49.3677725 24.3722628 48.6 25.0875912 47.8322275 25.7773723 46.6805687 26.1350365 45.1194313 26.1350365 44.735545 26.1350365 44.3260664 26.1094891 43.8909953 26.0328467 43.4559242 25.9562044 43.0720379 25.879562 42.7137441 25.8029197 42.5345972 25.8029197 42.3810427 26.0072993 42.2530806 26.3905109 42.1763033 26.5182482 42.1251185 26.6715328 42.0483412 26.7992701L39.7962085 22.2262774C39.7962085 22.0985401 39.8473934 22.0474453 39.9241706 22.0474453 40.6663507 22.9927007 41.4853081 23.8357664 42.3810427 24.5766423 43.2767773 25.3175182 44.1981043 25.7007299 45.1706161 25.7007299 45.7848341 25.7007299 46.3734597 25.4452555 46.9109005 24.8832117 47.4483412 24.3467153 47.7298578 23.7335766 47.7298578 23.0693431 47.7298578 22.4306569 47.4483412 21.8686131 46.8597156 21.3832117 46.27109 20.8978102 45.3753555 20.540146 44.1469194 20.310219 42.9184834 20.080292 41.971564 19.6459854 41.3061611 19.0072993 40.6407583 18.3686131 40.3336493 17.6788321 40.3336493 16.9379562 40.3336493 16.120438 40.6919431 15.4306569 41.4341232 14.8686131 42.1763033 14.3065693 43.2511848 14.0255474 44.6331754 14.0255474L47.064455 14.0255474C47.2691943 14.0255474 47.4227488 13.8467153 47.5507109 13.5145985 47.5763033 13.4890511 47.6274882 13.4379562 47.678673 13.4124088 47.985782 14.0255474 48.2417062 14.5875912 48.4976303 15.0729927 48.7535545 15.5839416 49.0862559 16.2481752 49.4957346 17.0912409 49.4957346 17.2445255 49.4445498 17.2956204 49.3677725 17.2956204 48.7791469 16.5547445 48.0881517 15.8649635 47.2947867 15.2773723 46.5014218 14.689781 45.6056872 14.4087591 44.6587678 14.4087591L44.6587678 14.4087591 44.6587678 14.4087591zM53.0018957 15.3540146C53.0018957 15.3029197 52.9507109 15.2518248 52.8227488 15.149635 52.6947867 15.0474453 52.5668246 14.9708029 52.4388626 14.8941606 52.2853081 14.8175182 52.1317536 14.7919708 51.9526066 14.7664234 51.7734597 14.7664234 51.5943128 14.7408759 51.4151659 14.7408759 51.3127962 14.7153285 51.2616114 14.6386861 51.2616114 14.5109489 51.2616114 14.3832117 51.3127962 14.3065693 51.4151659 14.3065693L56.8919431 14.3065693C56.9943128 14.3065693 57.0454976 14.3832117 57.0454976 14.5109489 57.0454976 14.6386861 56.9687204 14.7153285 56.8407583 14.7408759 56.7127962 14.7664234 56.5336493 14.7919708 56.3545024 14.7919708 56.1753555 14.8175182 55.9962085 14.8430657 55.8170616 14.8686131 55.535545 14.9452555 55.3563981 14.9963504 55.2796209 15.0474453 55.2028436 15.0985401 55.1516588 15.1751825 55.1516588 15.3284672L55.1516588 24.7043796C55.1516588 24.8321168 55.2028436 24.9343066 55.3052133 24.9854015 55.4075829 25.0364964 55.5611374 25.0875912 55.7658768 25.1386861 55.9706161 25.189781 56.149763 25.2153285 56.32891 25.2408759 56.5080569 25.2664234 56.6616114 25.2919708 56.8151659 25.2919708 56.9687204 25.2919708 57.0199052 25.3686131 57.0199052 25.5218978 57.0199052 25.649635 56.9687204 25.7262774 56.8663507 25.7262774L51.3895735 25.7262774C51.2872038 25.7262774 51.236019 25.649635 51.236019 25.5218978 51.236019 25.3686131 51.3127962 25.3175182 51.4407583 25.2919708 51.5687204 25.2919708 51.7478673 25.2664234 51.9270142 25.2664234 52.1061611 25.2664234 52.2597156 25.2153285 52.4132701 25.1386861 52.5412322 25.0620438 52.6947867 24.9854015 52.7971564 24.8832117 52.9251185 24.7810219 52.9763033 24.7043796 52.9763033 24.6788321L52.9763033 15.3540146 53.0018957 15.3540146 53.0018957 15.3540146zM64.1090047 25.8540146C63.1109005 25.8540146 62.1895735 25.6240876 61.3194313 25.189781 60.4492891 24.7554745 60.014218 24.2956204 60.014218 23.8357664L60.014218 15.3540146C60.014218 15.2262774 59.9630332 15.1240876 59.8606635 15.0729927 59.7582938 15.0218978 59.6047393 14.9708029 59.4 14.919708 59.1952607 14.8686131 58.9905213 14.8430657 58.8113744 14.8175182 58.6322275 14.7919708 58.4530806 14.7664234 58.2995261 14.7664234 58.1459716 14.7664234 58.0691943 14.6642336 58.0691943 14.5364964 58.0691943 14.4087591 58.1203791 14.3321168 58.2483412 14.3321168L63.6995261 14.3321168C63.8274882 14.3321168 63.878673 14.4087591 63.878673 14.5364964 63.878673 14.6642336 63.8274882 14.7408759 63.6995261 14.7664234L63.1876777 14.7664234C63.0085308 14.7664234 62.8549763 14.8175182 62.7014218 14.8941606 62.5734597 14.9708029 62.4199052 15.0474453 62.2919431 15.149635 62.163981 15.2518248 62.0872038 15.3284672 62.0872038 15.3540146L62.0872038 23.8613139C62.0872038 24.2445255 62.2919431 24.6021898 62.7014218 24.959854 63.1109005 25.3175182 63.5459716 25.4963504 64.0322275 25.4963504 65.1327014 25.4963504 66.0028436 25.3175182 66.642654 24.9343066 67.3080569 24.5766423 67.6407583 24.2189781 67.6407583 23.8613139L67.6407583 15.3540146C67.6407583 15.0985401 67.4872038 14.9452555 67.1545024 14.8941606 66.8473934 14.8430657 66.5658768 14.7919708 66.335545 14.7664234 66.1819905 14.7153285 66.1052133 14.6386861 66.1052133 14.5109489 66.1052133 14.4087591 66.1819905 14.3576642 66.3099526 14.3576642L69.3298578 14.3576642C69.4834123 14.3576642 69.5601896 14.4343066 69.5601896 14.5875912 69.5601896 14.7153285 69.4834123 14.7919708 69.3298578 14.7919708 69.0739336 14.7919708 68.7924171 14.8175182 68.4853081 14.8941606 68.2037915 14.9708029 68.050237 15.1240876 68.050237 15.379562L68.050237 23.8868613C68.050237 24.3467153 67.6407583 24.8065693 66.7962085 25.2408759 66.1052133 25.649635 65.1582938 25.8540146 64.1090047 25.8540146L64.1090047 25.8540146 64.1090047 25.8540146zM75.2672986 14.4087591C74.6530806 14.4087591 74.1156398 14.5875912 73.6549763 14.919708 73.1943128 15.2518248 72.963981 15.6605839 72.963981 16.120438 72.963981 16.6569343 73.3222749 17.1423358 74.0132701 17.6532847 74.7042654 18.1386861 75.6767773 18.5218978 76.8796209 18.8029197 78.1080569 19.0839416 79.0037915 19.5693431 79.5412322 20.2591241 80.078673 20.9489051 80.3601896 21.7153285 80.3601896 22.5583942 80.3601896 23.5547445 79.9763033 24.3722628 79.2085308 25.0875912 78.4407583 25.7773723 77.2890995 26.1350365 75.7279621 26.1350365 75.3440758 26.1350365 74.9345972 26.1094891 74.4995261 26.0328467 74.064455 25.9562044 73.6805687 25.879562 73.3222749 25.8029197 73.143128 25.8029197 72.9895735 26.0072993 72.8616114 26.3905109 72.7848341 26.5182482 72.7336493 26.6715328 72.656872 26.7992701L70.4303318 22.2262774C70.4303318 22.0985401 70.4815166 22.0474453 70.5582938 22.0474453 71.3004739 22.9927007 72.1194313 23.8357664 73.0151659 24.5766423 73.9109005 25.3175182 74.8322275 25.7007299 75.8047393 25.7007299 76.4189573 25.7007299 77.0075829 25.4452555 77.5450237 24.8832117 78.0824645 24.3467153 78.363981 23.7335766 78.363981 23.0693431 78.363981 22.4306569 78.0824645 21.8686131 77.4938389 21.3832117 76.9052133 20.8978102 76.0094787 20.540146 74.7810427 20.310219 73.5526066 20.080292 72.6056872 19.6459854 71.9402844 19.0072993 71.2748815 18.3686131 70.9677725 17.6788321 70.9677725 16.9379562 70.9677725 16.120438 71.3260664 15.4306569 72.0682464 14.8686131 72.8104265 14.3065693 73.8853081 14.0255474 75.2672986 14.0255474L77.6985782 14.0255474C77.9033175 14.0255474 78.056872 13.8467153 78.1848341 13.5145985 78.2104265 13.4890511 78.2616114 13.4379562 78.3127962 13.4124088 78.6199052 14.0255474 78.8758294 14.5875912 79.1317536 15.0729927 79.3876777 15.5839416 79.7203791 16.2481752 80.1298578 17.0912409 80.1298578 17.2445255 80.078673 17.2956204 80.0018957 17.2956204 79.4132701 16.5547445 78.7222749 15.8649635 77.92891 15.2773723 77.135545 14.689781 76.2398104 14.4087591 75.2672986 14.4087591L75.2672986 14.4087591 75.2672986 14.4087591zM96.0739336 24.5255474C95.5364929 25.0109489 94.8454976 25.419708 94.0009479 25.7262774 93.1819905 26.0583942 92.3118483 26.2116788 91.4417062 26.2116788 89.0104265 26.2116788 86.9118483 25.3686131 85.171564 23.7080292 83.4056872 22.0474453 82.535545 20.0036496 82.535545 17.6277372 82.535545 15.3029197 83.3545024 13.310219 84.9924171 11.649635 86.6303318 9.98905109 88.6009479 9.1459854 90.9042654 9.1459854L91.2881517 9.1459854 91.9279621 9.1459854 93.2075829 9.1459854 94.4104265 9.1459854C94.6663507 9.1459854 94.87109 8.89051095 95.0758294 8.40510949 95.1270142 8.3540146 95.2037915 8.30291971 95.2549763 8.25182482L97.8398104 13.5656934C97.814218 13.770073 97.7630332 13.8722628 97.6606635 13.8722628 96.7905213 12.7992701 95.7924171 11.8284672 94.6407583 10.959854 93.4890995 10.1167883 92.2350711 9.68248175 90.9042654 9.68248175 89.2919431 9.68248175 88.1914692 10.4744526 87.5516588 12.0328467 86.9118483 13.5912409 86.6047393 15.4817518 86.6047393 17.729927 86.6047393 19.620438 87.014218 21.3832117 87.8075829 22.9927007 88.6009479 24.6021898 89.8293839 25.3941606 91.492891 25.3941606 92.6957346 25.3941606 93.6170616 25.2153285 94.2824645 24.8576642 94.9478673 24.5 95.4853081 24.1423358 95.9203791 23.7591241L95.9203791 17.3211679C95.9203791 17.270073 95.8436019 17.1678832 95.664455 17.0145985 95.5109005 16.8868613 95.3061611 16.7591241 95.1014218 16.6569343 94.8966825 16.5547445 94.6663507 16.5036496 94.3848341 16.4781022 94.12891 16.4525547 93.8729858 16.4525547 93.642654 16.4525547 93.4890995 16.4270073 93.4123223 16.2992701 93.4123223 16.120438 93.4123223 15.9416058 93.4890995 15.8394161 93.642654 15.8394161L101.729858 15.8394161C101.883412 15.8394161 101.96019 15.9416058 101.96019 16.120438 101.96019 16.2992701 101.85782 16.4270073 101.653081 16.4525547 101.448341 16.4781022 101.218009 16.5036496 100.962085 16.5291971 100.706161 16.5547445 100.424645 16.580292 100.194313 16.6313869 99.8104265 16.7335766 99.5545024 16.8357664 99.4265403 16.8868613 99.2985782 16.9379562 99.2473934 17.0912409 99.2473934 17.2956204L99.2473934 25.6751825C99.2473934 25.879562 99.1962085 25.9817518 99.0938389 25.9817518 98.9914692 25.9817518 98.6075829 25.7007299 97.9677725 25.1386861 97.3279621 24.5766423 96.8417062 24.2956204 96.5090047 24.2956204 96.3298578 24.3467153 96.1763033 24.3978102 96.0739336 24.5255474L96.0739336 24.5255474 96.0739336 24.5255474zM108.127962 20.9233577L104.519431 20.9233577 103.393365 23.9124088C103.290995 24.1678832 103.214218 24.3978102 103.214218 24.6021898 103.214218 25.0109489 103.495735 25.2408759 104.08436 25.2919708 104.672986 25.3430657 104.954502 25.3941606 104.954502 25.4963504 104.954502 25.649635 104.903318 25.7518248 104.82654 25.7518248L100.501422 25.7518248C100.37346 25.7518248 100.322275 25.6751825 100.322275 25.5474453 100.322275 25.419708 100.680569 25.3430657 101.371564 25.2919708 102.062559 25.2408759 102.574408 24.7810219 102.881517 23.9124088L105.696682 16.4270073C105.722275 16.3248175 105.747867 16.2226277 105.747867 16.1459854 105.747867 15.9927007 105.696682 15.8394161 105.594313 15.7116788 105.491943 15.5839416 105.363981 15.5072993 105.210427 15.4817518 105.056872 15.4562044 104.903318 15.4051095 104.775355 15.379562 104.800948 15.3284672 104.852133 15.2773723 104.877725 15.2262774 105.517536 14.9708029 105.927014 14.7919708 106.054976 14.689781 106.182938 14.5875912 106.336493 14.4087591 106.541232 14.1788321 106.720379 13.9489051 106.848341 13.8211679 106.899526 13.8211679 106.950711 13.8211679 107.001896 13.8722628 107.053081 13.9744526L111.480569 23.9635036C111.838863 24.7810219 112.350711 25.2408759 113.041706 25.3430657 113.732701 25.4452555 114.065403 25.4963504 114.065403 25.5474453 114.090995 25.7007299 114.03981 25.7773723 113.911848 25.7773723L108.204739 25.7773723C108.076777 25.7773723 108.025592 25.7007299 108.025592 25.5729927 108.025592 25.4708029 108.307109 25.3941606 108.870142 25.3686131 109.433175 25.3430657 109.714692 25.1386861 109.714692 24.7810219 109.714692 24.6021898 109.663507 24.3978102 109.561137 24.1423358L108.127962 20.9233577 108.127962 20.9233577zM107.923223 20.5145985L106.157346 16.5291971 104.647393 20.5145985 107.923223 20.5145985 107.923223 20.5145985z"/>
    <path d="M121.02654 19.8759124C121.205687 20.1313869 121.512796 20.5912409 121.922275 21.2043796 122.357346 21.8175182 122.741232 22.379562 123.073934 22.8649635 123.406635 23.350365 123.764929 23.8357664 124.123223 24.3211679 124.481517 24.8065693 124.83981 25.1131387 125.172512 25.2153285 125.505213 25.3175182 125.8891 25.3686131 126.349763 25.3686131 126.503318 25.3686131 126.580095 25.419708 126.580095 25.5474453 126.580095 25.6751825 126.503318 25.7262774 126.324171 25.7262774L123.150711 25.7262774C123.048341 25.7262774 122.894787 25.5985401 122.71564 25.3430657 122.5109 25.0875912 122.203791 24.6277372 121.717536 23.9890511 121.256872 23.350365 120.770616 22.6861314 120.28436 21.9708029 119.798104 21.2554745 119.363033 20.5912409 118.979147 20.0036496L118.774408 20.0036496 118.569668 20.0036496 118.05782 20.0036496 117.673934 20.0036496 117.673934 24.729927C117.673934 24.959854 117.878673 25.1131387 118.313744 25.189781 118.748815 25.2664234 119.030332 25.3175182 119.235071 25.3430657 119.414218 25.3686131 119.54218 25.419708 119.567773 25.4708029 119.593365 25.5218978 119.618957 25.5729927 119.618957 25.649635 119.618957 25.7262774 119.54218 25.7773723 119.414218 25.7773723L113.911848 25.7773723C113.783886 25.7773723 113.707109 25.7262774 113.707109 25.6240876 113.707109 25.4963504 113.835071 25.3941606 114.065403 25.3686131 114.321327 25.3175182 114.602844 25.2664234 114.961137 25.1642336 115.319431 25.0875912 115.472986 24.9343066 115.472986 24.7554745L115.472986 15.3540146C115.472986 14.919708 114.935545 14.689781 113.886256 14.689781 113.758294 14.689781 113.707109 14.6131387 113.707109 14.5109489 113.707109 14.3832117 113.758294 14.3065693 113.886256 14.3065693L119.388626 14.3065693C120.668246 14.3065693 121.76872 14.4854015 122.690047 14.8430657 123.611374 15.2007299 124.072038 15.9927007 124.072038 17.270073 124.072038 18.2664234 123.585782 18.9817518 122.587678 19.4160584 121.640758 19.850365 121.103318 20.0036496 121.02654 19.8759124L121.02654 19.8759124 121.02654 19.8759124zM121.87109 17.2189781C121.87109 16.350365 121.666351 15.7116788 121.256872 15.3029197 120.847393 14.8941606 120.233175 14.689781 119.43981 14.689781 118.927962 14.689781 118.518483 14.7408759 118.211374 14.8430657 117.878673 14.9452555 117.725118 15.1240876 117.725118 15.3284672L117.725118 19.5693431C117.725118 19.5948905 117.853081 19.620438 118.134597 19.6459854 118.390521 19.6715328 118.672038 19.6970803 118.90237 19.6970803 119.183886 19.6970803 119.414218 19.6715328 119.618957 19.6459854 119.823697 19.620438 120.028436 19.3905109 120.28436 18.9817518 120.361137 18.9562044 120.412322 18.9306569 120.4891 18.9051095L120.719431 19.1861314C120.975355 19.0583942 121.256872 18.8540146 121.512796 18.5729927 121.76872 18.2919708 121.87109 17.8832117 121.87109 17.2189781L121.87109 17.2189781 121.87109 17.2189781zM130.418957 14.7919708C129.49763 14.7919708 128.601896 15.0985401 127.757346 15.7116788 127.066351 16.3759124 126.349763 17.0656934 125.658768 17.729927 125.581991 17.729927 125.556398 17.6532847 125.530806 17.5255474L127.347867 13.7956204C127.399052 13.8722628 127.450237 13.9489051 127.501422 14 127.603791 14.2554745 127.757346 14.4087591 127.936493 14.4087591L130.367773 14.4087591 135.793365 14.4087591C135.972512 14.4087591 136.151659 14.229927 136.279621 13.8978102 136.305213 13.8722628 136.356398 13.8211679 136.407583 13.7956204L138.224645 17.5255474C138.224645 17.6788321 138.17346 17.729927 138.096682 17.729927 137.482464 16.9635036 136.791469 16.2992701 135.972512 15.6861314 135.153555 15.0729927 134.283412 14.7919708 133.362085 14.7919708 133.182938 14.7919708 133.080569 14.8430657 133.029384 14.9452555 132.978199 15.0474453 132.952607 15.1751825 132.952607 15.3540146L132.952607 24.729927C132.952607 24.8832117 133.003791 24.959854 133.106161 25.0109489 133.208531 25.0620438 133.387678 25.1131387 133.592417 25.1642336 133.797156 25.2153285 134.001896 25.2408759 134.15545 25.2664234 134.334597 25.2919708 134.488152 25.3175182 134.641706 25.3175182 134.795261 25.3175182 134.872038 25.3941606 134.872038 25.5474453 134.872038 25.6751825 134.820853 25.7518248 134.692891 25.7518248L129.241706 25.7518248C129.113744 25.7518248 129.062559 25.6751825 129.062559 25.5474453 129.062559 25.3941606 129.139336 25.3430657 129.267299 25.3175182 129.395261 25.3175182 129.574408 25.2919708 129.753555 25.2919708 129.932701 25.2919708 130.086256 25.2408759 130.23981 25.1642336 130.393365 25.0875912 130.521327 25.0109489 130.649289 24.9087591 130.777251 24.8065693 130.828436 24.7554745 130.828436 24.7043796L130.828436 15.3540146C130.828436 15.1751825 130.802844 15.0474453 130.751659 14.9452555 130.726066 14.8430657 130.598104 14.7919708 130.418957 14.7919708L130.418957 14.7919708 130.418957 14.7919708zM146.516588 18.4452555C146.593365 18.3175182 146.670142 18.1386861 146.695735 17.9343066 146.721327 17.729927 146.746919 17.5255474 146.746919 17.2956204L146.746919 17.1167883 146.746919 17.0656934 147.105213 17.0656934 147.105213 22.1240876 146.746919 22.1240876 146.746919 21.8686131C146.746919 21.6386861 146.721327 21.3832117 146.695735 21.1277372 146.670142 20.8722628 146.593365 20.6167883 146.516588 20.3613139 146.414218 20.1058394 146.286256 19.9270073 146.132701 19.7737226 145.979147 19.6459854 145.723223 19.5693431 145.390521 19.5693431L142.882464 19.5693431 142.882464 24.6277372C142.882464 24.9343066 143.036019 25.1386861 143.343128 25.2153285 143.650237 25.2919708 144.059716 25.3430657 144.597156 25.3430657 145.467299 25.3430657 146.363033 24.9854015 147.28436 24.2956204 148.103318 23.5291971 148.947867 22.7883212 149.766825 22.0218978 149.843602 22.0218978 149.894787 22.0729927 149.894787 22.2007299 149.71564 22.5839416 149.485308 23.0437956 149.203791 23.6058394 148.922275 24.1678832 148.640758 24.7043796 148.359242 25.2664234 148.077725 25.8029197 147.847393 26.2883212 147.642654 26.6715328 147.565877 26.5437956 147.4891 26.4160584 147.437915 26.3138686 147.28436 25.9306569 147.105213 25.7518248 146.900474 25.7518248L144.571564 25.7518248 139.120379 25.7518248C138.966825 25.7518248 138.890047 25.6751825 138.890047 25.5474453 138.890047 25.419708 138.966825 25.3686131 139.120379 25.3686131 139.65782 25.3686131 140.041706 25.3175182 140.323223 25.2153285 140.604739 25.1131387 140.732701 24.959854 140.732701 24.729927L140.732701 15.6605839C140.732701 15.3284672 140.579147 15.0985401 140.246445 14.919708 139.913744 14.7664234 139.529858 14.689781 139.094787 14.689781 138.941232 14.689781 138.838863 14.6386861 138.838863 14.5109489 138.838863 14.3832117 138.91564 14.3065693 139.094787 14.3065693L144.545972 14.3065693 146.823697 14.3065693C147.028436 14.3065693 147.181991 14.1277372 147.309953 13.7956204 147.335545 13.770073 147.38673 13.7189781 147.437915 13.6934307 147.745024 14.3065693 148.000948 14.8941606 148.256872 15.4051095 148.512796 15.9160584 148.845498 16.6058394 149.254976 17.4744526 149.254976 17.6277372 149.203791 17.7043796 149.127014 17.7043796 148.512796 16.9379562 147.821801 16.2481752 147.002844 15.6350365 146.183886 15.0218978 145.313744 14.7153285 144.366825 14.7153285 143.957346 14.7153285 143.599052 14.7919708 143.291943 14.9452555 142.984834 15.0985401 142.856872 15.3540146 142.856872 15.7372263L142.856872 19.2627737 145.339336 19.2627737C145.595261 19.2627737 145.8 19.1861314 146.004739 19.0583942 146.183886 18.879562 146.363033 18.7007299 146.516588 18.4452555L146.516588 18.4452555 146.516588 18.4452555zM159.850237 15.3540146C159.850237 15.0985401 159.696682 14.9452555 159.363981 14.8941606 159.03128 14.8430657 158.749763 14.7919708 158.545024 14.7664234 158.391469 14.7153285 158.314692 14.6386861 158.314692 14.5109489 158.314692 14.4087591 158.391469 14.3576642 158.519431 14.3576642L161.539336 14.3576642C161.692891 14.3576642 161.769668 14.4343066 161.769668 14.5875912 161.769668 14.7153285 161.692891 14.7919708 161.539336 14.7919708 161.283412 14.7919708 161.001896 14.8175182 160.720379 14.8941606 160.438863 14.9708029 160.285308 15.1240876 160.285308 15.379562L160.285308 23.7591241C160.336493 23.8613139 160.41327 23.9890511 160.490047 24.0912409 160.566825 24.2189781 160.720379 24.2956204 160.950711 24.3722628 161.181043 24.4489051 161.309005 24.5255474 161.309005 24.6021898 161.309005 24.6532847 161.232227 24.7043796 161.078673 24.729927 160.925118 24.7554745 160.745972 24.8321168 160.592417 24.8832117 160.438863 24.9343066 160.234123 25.1131387 160.029384 25.419708 159.824645 25.7262774 159.67109 25.879562 159.619905 25.879562 159.543128 25.879562 159.491943 25.8540146 159.466351 25.7773723 159.415166 25.7262774 158.775355 24.7043796 157.521327 22.7372263 156.267299 20.770073 155.218009 19.1350365 154.347867 17.8065693 153.477725 16.4781022 153.017062 15.8138686 152.965877 15.8138686L152.965877 24.7043796C152.965877 24.959854 153.119431 25.1131387 153.452133 25.1642336 153.784834 25.2153285 154.040758 25.2664234 154.219905 25.2919708 154.399052 25.3175182 154.501422 25.419708 154.501422 25.5474453 154.501422 25.6751825 154.424645 25.7262774 154.296682 25.7262774L151.276777 25.7262774C151.123223 25.7262774 151.046445 25.649635 151.046445 25.4708029 151.046445 25.3430657 151.123223 25.2919708 151.276777 25.2919708 151.532701 25.2919708 151.814218 25.2664234 152.095735 25.189781 152.377251 25.1131387 152.505213 24.959854 152.505213 24.7043796L152.505213 15.2262774C152.505213 15.0474453 152.326066 14.919708 151.967773 14.8430657 151.609479 14.7664234 151.327962 14.7408759 151.123223 14.7408759 150.995261 14.7408759 150.918483 14.689781 150.918483 14.5875912 150.918483 14.5620438 150.944076 14.5109489 150.969668 14.4343066 151.020853 14.3576642 151.046445 14.3321168 151.09763 14.3321168L154.16872 14.3321168 159.850237 23.0437956 159.850237 15.3540146 159.850237 15.3540146zM52.5156398 30.7846715C52.5156398 29.5072993 52.5156398 29.2773723 52.4900474 28.9963504 52.464455 28.7153285 52.4132701 28.5620438 52.1317536 28.5109489 52.0549763 28.4854015 51.9270142 28.4854015 51.7990521 28.4854015 51.6966825 28.4854015 51.6454976 28.459854 51.6454976 28.4087591 51.6454976 28.3576642 51.6966825 28.3321168 51.8246445 28.3321168 52.2597156 28.3321168 52.7971564 28.3576642 52.9763033 28.3576642 53.2578199 28.3576642 53.8976303 28.3321168 54.1791469 28.3321168 54.7165877 28.3321168 55.2796209 28.3832117 55.7402844 28.689781 55.9706161 28.8430657 56.3033175 29.2773723 56.3033175 29.8394161 56.3033175 30.4525547 56.0473934 31.040146 55.1772512 31.729927 55.9194313 32.6751825 56.5080569 33.4160584 57.0199052 33.9525547 57.4805687 34.4379562 57.8388626 34.4890511 57.9668246 34.5145985 58.0691943 34.540146 58.1459716 34.540146 58.1971564 34.540146 58.2483412 34.540146 58.2995261 34.5656934 58.2995261 34.6167883 58.2995261 34.6934307 58.2483412 34.6934307 58.1459716 34.6934307L57.3526066 34.6934307C56.8919431 34.6934307 56.6616114 34.6423358 56.456872 34.540146 56.0985782 34.3357664 55.7658768 33.9525547 55.3052133 33.2883212 54.9725118 32.8284672 54.5886256 32.2408759 54.4606635 32.1131387 54.4094787 32.0620438 54.3582938 32.0620438 54.307109 32.0620438L53.5649289 32.0364964C53.5137441 32.0364964 53.4881517 32.0620438 53.4881517 32.1131387L53.4881517 32.2408759C53.4881517 33.0328467 53.4881517 33.6970803 53.5393365 34.0547445 53.5649289 34.310219 53.6161137 34.4890511 53.8720379 34.5145985 54 34.540146 54.1791469 34.540146 54.2815166 34.540146 54.3582938 34.540146 54.3838863 34.5656934 54.3838863 34.6167883 54.3838863 34.6678832 54.3327014 34.6934307 54.2047393 34.6934307 53.7184834 34.6934307 53.078673 34.6678832 52.9507109 34.6678832 52.7971564 34.6678832 52.2597156 34.6934307 51.9270142 34.6934307 51.8246445 34.6934307 51.7478673 34.6678832 51.7478673 34.6167883 51.7478673 34.5656934 51.7734597 34.540146 51.8758294 34.540146 52.0037915 34.540146 52.1061611 34.5145985 52.1829384 34.5145985 52.3620853 34.4890511 52.3876777 34.2846715 52.4388626 34.0547445 52.4900474 33.6970803 52.4900474 33.0328467 52.4900474 32.2664234L52.4900474 30.7846715 52.5156398 30.7846715 52.5156398 30.7846715zM53.4881517 31.4489051C53.4881517 31.5510949 53.5137441 31.5766423 53.5649289 31.6021898 53.7440758 31.6532847 54 31.6788321 54.2047393 31.6788321 54.5374408 31.6788321 54.6398104 31.6532847 54.7933649 31.5255474 55.0492891 31.3467153 55.2796209 30.9635036 55.2796209 30.2481752 55.2796209 29.0474453 54.4862559 28.7153285 54 28.7153285 53.7952607 28.7153285 53.6417062 28.7153285 53.5649289 28.7408759 53.5137441 28.7664234 53.4881517 28.7919708 53.4881517 28.8686131L53.4881517 31.4489051 53.4881517 31.4489051z"/>
    <path d="M58.8881517 31.3722628L58.8881517 29.8649635C58.8625592 29.6094891 58.8113744 29.5328467 58.5554502 29.4817518 58.5042654 29.4562044 58.3763033 29.4562044 58.2483412 29.4562044 58.171564 29.4562044 58.1203791 29.4306569 58.1203791 29.379562 58.1203791 29.3284672 58.171564 29.3029197 58.2995261 29.3029197 58.6834123 29.3029197 59.1696682 29.3284672 59.3744076 29.3284672L61.3962085 29.3284672C61.5241706 29.3284672 61.6521327 29.3029197 61.7033175 29.2773723 61.7545024 29.2773723 61.7800948 29.2518248 61.8312796 29.2518248 61.8824645 29.2518248 61.8824645 29.2773723 61.8824645 29.3284672 61.8824645 29.379562 61.8312796 29.4562044 61.8312796 29.7883212 61.8312796 29.8649635 61.8056872 30.1715328 61.7800948 30.2481752 61.7800948 30.2737226 61.7545024 30.3759124 61.7033175 30.3759124 61.6521327 30.3759124 61.6521327 30.350365 61.6521327 30.2737226 61.6521327 30.2226277 61.6521327 30.0948905 61.6009479 30.0182482 61.549763 29.8905109 61.4729858 29.7883212 61.1146919 29.7627737 60.9867299 29.7372263 60.0909953 29.7372263 59.9374408 29.7372263 59.9118483 29.7372263 59.8862559 29.7627737 59.8862559 29.8138686L59.8862559 31.5766423C59.8862559 31.6277372 59.8862559 31.6532847 59.9374408 31.6532847 60.1165877 31.6532847 61.0635071 31.6532847 61.242654 31.6277372 61.4218009 31.6021898 61.5241706 31.6021898 61.6009479 31.5255474 61.6521327 31.4744526 61.6777251 31.4233577 61.72891 31.4233577 61.7545024 31.4233577 61.7800948 31.4489051 61.7800948 31.5 61.7800948 31.5510949 61.7545024 31.6532847 61.72891 32.0109489 61.7033175 32.1642336 61.7033175 32.4452555 61.7033175 32.4963504 61.7033175 32.5474453 61.7033175 32.649635 61.6265403 32.649635 61.5753555 32.649635 61.549763 32.6240876 61.549763 32.5985401 61.549763 32.5218978 61.549763 32.419708 61.5241706 32.3430657 61.4729858 32.189781 61.3962085 32.0875912 61.1146919 32.0620438 60.9867299 32.0364964 60.1421801 32.0364964 59.9374408 32.0364964 59.9118483 32.0364964 59.8862559 32.0620438 59.8862559 32.1131387L59.8862559 32.6751825 59.8862559 33.7481752C59.9118483 34.2335766 60.1421801 34.3357664 60.8843602 34.3357664 61.0890995 34.3357664 61.3962085 34.3357664 61.5753555 34.2335766 61.7545024 34.1569343 61.856872 34.0036496 61.9080569 33.6970803 61.9336493 33.620438 61.9336493 33.5948905 61.9848341 33.5948905 62.036019 33.5948905 62.0616114 33.6970803 62.0616114 33.7737226 62.0616114 33.9270073 62.0104265 34.4124088 61.9592417 34.5656934 61.9080569 34.7445255 61.8312796 34.7445255 61.549763 34.7445255 60.9867299 34.7445255 60.5516588 34.7445255 60.1933649 34.7189781 59.8350711 34.7189781 59.5535545 34.6934307 59.3232227 34.6934307L58.8881517 34.6934307C58.7090047 34.6934307 58.5298578 34.7189781 58.3763033 34.7189781 58.2739336 34.7189781 58.2227488 34.6934307 58.2227488 34.6423358 58.2227488 34.6167883 58.2483412 34.5656934 58.3507109 34.5656934 58.4530806 34.5656934 58.5554502 34.5656934 58.6066351 34.540146 58.7601896 34.5145985 58.8113744 34.3613139 58.8369668 34.1569343 58.8625592 33.850365 58.8625592 33.2883212 58.8625592 32.6240876L58.8625592 31.3722628 58.8881517 31.3722628 58.8881517 31.3722628zM63.5203791 34.6167883C63.3924171 34.5656934 63.3668246 34.540146 63.3668246 34.3613139 63.3668246 33.9781022 63.3924171 33.5182482 63.4180095 33.4160584 63.4180095 33.3138686 63.4436019 33.2372263 63.5203791 33.2372263 63.5971564 33.2372263 63.5971564 33.3138686 63.5971564 33.3649635 63.5971564 33.4671533 63.6227488 33.620438 63.6739336 33.7481752 63.8274882 34.2846715 64.3905213 34.4635036 64.8511848 34.4635036 65.4909953 34.4635036 65.8748815 34.0547445 65.8748815 33.5437956 65.8748815 33.2372263 65.7981043 32.9306569 65.1327014 32.5218978L64.6976303 32.2664234C63.8274882 31.7554745 63.5203791 31.270073 63.5203791 30.6313869 63.5203791 29.7627737 64.3649289 29.2007299 65.3886256 29.2007299 65.8748815 29.2007299 66.2587678 29.2773723 66.4379147 29.3284672 66.5146919 29.3540146 66.5402844 29.379562 66.5402844 29.4306569 66.5402844 29.5328467 66.5146919 29.7372263 66.5146919 30.2992701 66.5146919 30.4525547 66.4890995 30.5291971 66.4123223 30.5291971 66.3611374 30.5291971 66.335545 30.4781022 66.335545 30.4014599 66.335545 30.3248175 66.3099526 30.120438 66.1308057 29.9416058 66.028436 29.8138686 65.7725118 29.6094891 65.3118483 29.6094891 64.7744076 29.6094891 64.2881517 29.8905109 64.2881517 30.3759124 64.2881517 30.7080292 64.4161137 30.9379562 65.0815166 31.3211679L65.3886256 31.5C66.3611374 32.0364964 66.6682464 32.5985401 66.6682464 33.2372263 66.6682464 33.7737226 66.4635071 34.2080292 65.9260664 34.5656934 65.5677725 34.8211679 65.0815166 34.8722628 64.6720379 34.8722628 64.2881517 34.7956204 63.8274882 34.770073 63.5203791 34.6167883L63.5203791 34.6167883 63.5203791 34.6167883zM69.6369668 29.7372263L68.5364929 29.7627737C68.1014218 29.7627737 67.9222749 29.8138686 67.8199052 29.9927007 67.743128 30.0948905 67.7175355 30.1970803 67.6919431 30.2481752 67.6663507 30.2992701 67.6663507 30.350365 67.6151659 30.350365 67.563981 30.350365 67.5383886 30.2992701 67.5383886 30.2226277 67.5383886 30.0948905 67.6919431 29.4051095 67.6919431 29.3540146 67.7175355 29.2518248 67.743128 29.2262774 67.7687204 29.2262774 67.8199052 29.2262774 67.8966825 29.2773723 68.1014218 29.3029197 68.3317536 29.3284672 68.5876777 29.3284672 68.8436019 29.3284672L71.8635071 29.3284672C72.0938389 29.3284672 72.2729858 29.3029197 72.3753555 29.3029197 72.5033175 29.2773723 72.5545024 29.2773723 72.5800948 29.2773723 72.6312796 29.2773723 72.6312796 29.3284672 72.6312796 29.4306569 72.6312796 29.5839416 72.6056872 30.120438 72.6056872 30.2992701 72.6056872 30.3759124 72.5800948 30.4270073 72.52891 30.4270073 72.4777251 30.4270073 72.4521327 30.4014599 72.4521327 30.2737226L72.4521327 30.1970803C72.4265403 30.0182482 72.2473934 29.7883212 71.5819905 29.7883212L70.6350711 29.7627737 70.6350711 32.6751825C70.6350711 33.3394161 70.6350711 33.9014599 70.6862559 34.2080292 70.7118483 34.4124088 70.7630332 34.540146 70.9677725 34.5912409 71.0701422 34.6167883 71.2492891 34.6167883 71.3516588 34.6167883 71.428436 34.6167883 71.4796209 34.6678832 71.4796209 34.6934307 71.4796209 34.7445255 71.428436 34.770073 71.3260664 34.770073 70.8398104 34.770073 70.3279621 34.7445255 70.1232227 34.7445255 69.9440758 34.7445255 69.4578199 34.770073 69.1507109 34.770073 69.0483412 34.770073 68.9971564 34.7445255 68.9971564 34.6934307 68.9971564 34.6678832 69.0227488 34.6167883 69.1251185 34.6167883 69.2274882 34.6167883 69.3298578 34.6167883 69.3810427 34.5912409 69.5345972 34.5656934 69.585782 34.4124088 69.6113744 34.2080292 69.6369668 33.9014599 69.6369668 33.3394161 69.6369668 32.6751825L69.6369668 29.7372263 69.6369668 29.7372263zM73.9620853 32.9051095C73.9109005 32.9051095 73.9109005 32.9051095 73.8853081 32.9562044L73.4758294 33.9270073C73.3990521 34.1058394 73.3734597 34.2846715 73.3734597 34.3613139 73.3734597 34.4890511 73.450237 34.5656934 73.6805687 34.5656934L73.7829384 34.5656934C73.8853081 34.5656934 73.8853081 34.5912409 73.8853081 34.6423358 73.8853081 34.6934307 73.8341232 34.7189781 73.757346 34.7189781 73.5014218 34.7189781 73.1687204 34.6934307 72.9383886 34.6934307 72.8616114 34.6934307 72.4777251 34.7189781 72.0682464 34.7189781 71.9658768 34.7189781 71.9402844 34.6934307 71.9402844 34.6423358 71.9402844 34.5912409 71.9658768 34.5656934 72.0170616 34.5656934L72.2473934 34.5656934C72.5800948 34.5145985 72.7080569 34.2846715 72.8616114 33.9270073L74.8066351 29.4051095C74.8834123 29.2007299 74.9601896 29.1240876 75.0369668 29.1240876 75.1393365 29.1240876 75.1905213 29.2007299 75.2672986 29.3540146 75.4464455 29.7627737 76.6748815 32.6751825 77.1611374 33.7737226 77.442654 34.4124088 77.6473934 34.5145985 77.8009479 34.540146 77.9033175 34.5656934 78.0056872 34.5656934 78.0824645 34.5656934 78.1592417 34.5656934 78.1848341 34.5912409 78.1848341 34.6423358 78.1848341 34.6934307 78.1336493 34.7189781 77.8521327 34.7189781 77.5962085 34.7189781 77.0587678 34.7189781 76.4189573 34.6934307 76.2909953 34.6934307 76.1886256 34.6934307 76.1886256 34.6423358 76.1886256 34.5912409 76.214218 34.5656934 76.2909953 34.5656934 76.3421801 34.5656934 76.3933649 34.4890511 76.3677725 34.4124088L75.8047393 32.9817518C75.7791469 32.9306569 75.7535545 32.9306569 75.7279621 32.9306569L73.9620853 32.9306569 73.9620853 32.9051095 73.9620853 32.9051095zM75.5488152 32.4963504C75.5744076 32.4963504 75.6 32.4708029 75.5744076 32.4452555L74.8834123 30.6313869C74.8834123 30.6058394 74.8578199 30.5547445 74.8578199 30.5547445 74.8322275 30.5547445 74.8322275 30.6058394 74.8066351 30.6313869L74.0900474 32.4452555C74.064455 32.4708029 74.0900474 32.4963504 74.1156398 32.4963504L75.5488152 32.4963504 75.5488152 32.4963504zM78.7990521 31.3722628L78.7990521 29.8649635C78.7734597 29.6094891 78.7222749 29.5328467 78.4663507 29.4817518 78.4151659 29.4562044 78.2872038 29.4562044 78.1848341 29.4562044 78.1080569 29.4562044 78.056872 29.4306569 78.056872 29.379562 78.056872 29.3284672 78.1080569 29.3029197 78.2104265 29.3029197 78.6199052 29.3029197 79.1061611 29.3284672 79.3364929 29.3284672 79.5156398 29.3284672 80.0274882 29.3029197 80.2834123 29.3029197 80.385782 29.3029197 80.4369668 29.3284672 80.4369668 29.379562 80.4369668 29.4306569 80.385782 29.4562044 80.3090047 29.4562044 80.2322275 29.4562044 80.1810427 29.4562044 80.078673 29.4817518 79.8739336 29.5072993 79.8227488 29.6094891 79.7971564 29.8649635 79.771564 30.0948905 79.771564 30.2992701 79.771564 31.3722628L79.771564 32.3686131C79.771564 33.4160584 79.9763033 33.8248175 80.3345972 34.1058394 80.6672986 34.3613139 81.0255924 34.3868613 81.2815166 34.3868613 81.614218 34.3868613 81.9725118 34.2846715 82.2796209 34.0036496 82.6890995 33.620438 82.7146919 32.9817518 82.7146919 32.2664234L82.7146919 31.3722628C82.7146919 30.2737226 82.7146919 30.0948905 82.6890995 29.8649635 82.6635071 29.6094891 82.6123223 29.5328467 82.3819905 29.4817518 82.3308057 29.4562044 82.2028436 29.4562044 82.1004739 29.4562044 81.9981043 29.4562044 81.9725118 29.4306569 81.9725118 29.379562 81.9725118 29.3284672 82.0236967 29.3029197 82.1260664 29.3029197 82.5099526 29.3029197 82.9962085 29.3284672 83.0218009 29.3284672 83.0985782 29.3284672 83.6104265 29.3029197 83.8919431 29.3029197 83.9943128 29.3029197 84.0454976 29.3284672 84.0454976 29.379562 84.0454976 29.4306569 83.9943128 29.4562044 83.9175355 29.4562044 83.8407583 29.4562044 83.7895735 29.4562044 83.6872038 29.4817518 83.4824645 29.5072993 83.4312796 29.6094891 83.4056872 29.8649635 83.4056872 30.0948905 83.3800948 30.2992701 83.3800948 31.3722628L83.3800948 32.1386861C83.3800948 32.9306569 83.3033175 33.7737226 82.6635071 34.2846715 82.1516588 34.7189781 81.5630332 34.7956204 81.1023697 34.7956204 80.7184834 34.7956204 79.9507109 34.770073 79.4132701 34.310219 79.0293839 33.9781022 78.7478673 33.4416058 78.7478673 32.419708L78.7478673 31.3722628 78.7990521 31.3722628 78.7990521 31.3722628zM85.5298578 31.3722628L85.5298578 29.8649635C85.5042654 29.6094891 85.4530806 29.5328467 85.1971564 29.4817518 85.1459716 29.4562044 85.0180095 29.4562044 84.8900474 29.4562044 84.8132701 29.4562044 84.7620853 29.4306569 84.7620853 29.379562 84.7620853 29.3284672 84.8132701 29.3029197 84.9412322 29.3029197 85.3251185 29.3029197 85.8113744 29.3284672 85.9649289 29.3284672 86.2208531 29.3284672 86.8862559 29.3029197 87.1165877 29.3029197 87.5772512 29.3029197 88.1402844 29.3540146 88.5241706 29.6094891 88.72891 29.7627737 89.036019 30.120438 89.036019 30.6058394 89.036019 31.1423358 88.72891 31.6021898 88.0123223 32.189781 88.6777251 33.0072993 89.1895735 33.6459854 89.650237 34.1058394 90.0597156 34.5145985 90.3156398 34.540146 90.4436019 34.5656934 90.5203791 34.5912409 90.571564 34.5912409 90.6227488 34.5912409 90.6739336 34.5912409 90.7251185 34.6423358 90.7251185 34.6678832 90.7251185 34.7189781 90.6739336 34.7445255 90.571564 34.7445255L89.8549763 34.7445255C89.4454976 34.7445255 89.2407583 34.6934307 89.036019 34.5912409 88.7033175 34.4379562 88.4473934 34.1058394 88.0123223 33.5437956 87.7052133 33.1605839 87.3981043 32.6751825 87.321327 32.5729927 87.2701422 32.5218978 87.2445498 32.5218978 87.1933649 32.5218978L86.5279621 32.4963504C86.5023697 32.4963504 86.4767773 32.5218978 86.4767773 32.5474453L86.4767773 32.649635C86.4767773 33.3138686 86.4767773 33.8759124 86.5279621 34.1824818 86.5535545 34.3868613 86.5791469 34.540146 86.8094787 34.5656934 86.9118483 34.5912409 87.0909953 34.5912409 87.1677725 34.5912409 87.2189573 34.5912409 87.2701422 34.6423358 87.2701422 34.6678832 87.2701422 34.7189781 87.2189573 34.7445255 87.1165877 34.7445255 86.6815166 34.7445255 86.0672986 34.7189781 85.9649289 34.7189781 85.8113744 34.7189781 85.3507109 34.7445255 85.0436019 34.7445255 84.9412322 34.7445255 84.8900474 34.7189781 84.8900474 34.6678832 84.8900474 34.6423358 84.9156398 34.5912409 85.0180095 34.5912409 85.1203791 34.5912409 85.2227488 34.5912409 85.2739336 34.5656934 85.4274882 34.540146 85.478673 34.3868613 85.5042654 34.1824818 85.5298578 33.8759124 85.5298578 33.3138686 85.5298578 32.649635L85.5298578 31.3722628 85.5298578 31.3722628zM86.4767773 31.9087591C86.4767773 31.9854015 86.5023697 32.0109489 86.5535545 32.0364964 86.707109 32.0875912 86.9374408 32.1131387 87.1165877 32.1131387 87.4236967 32.1131387 87.5260664 32.0875912 87.628436 31.9854015 87.8587678 31.8321168 88.1146919 31.5255474 88.1146919 30.9124088 88.1146919 29.8905109 87.4236967 29.6350365 86.9886256 29.6350365 86.8094787 29.6350365 86.6303318 29.6350365 86.5535545 29.6605839 86.5023697 29.6861314 86.4767773 29.7116788 86.4767773 29.7627737L86.4767773 31.9087591 86.4767773 31.9087591z"/>
    <path d="M91.8255924 32.9051095C91.7744076 32.9051095 91.7744076 32.9051095 91.7488152 32.9562044L91.3393365 33.9270073C91.2625592 34.1058394 91.2369668 34.2846715 91.2369668 34.3613139 91.2369668 34.4890511 91.3137441 34.5656934 91.5440758 34.5656934L91.6464455 34.5656934C91.7488152 34.5656934 91.7488152 34.5912409 91.7488152 34.6423358 91.7488152 34.6934307 91.6976303 34.7189781 91.6208531 34.7189781 91.3649289 34.7189781 91.0322275 34.6934307 90.8018957 34.6934307 90.7251185 34.6934307 90.3412322 34.7189781 89.9317536 34.7189781 89.8293839 34.7189781 89.8037915 34.6934307 89.8037915 34.6423358 89.8037915 34.5912409 89.8293839 34.5656934 89.8805687 34.5656934L90.1109005 34.5656934C90.4436019 34.5145985 90.571564 34.2846715 90.7251185 33.9270073L92.6701422 29.4051095C92.7469194 29.2007299 92.8236967 29.1240876 92.9004739 29.1240876 93.0028436 29.1240876 93.0540284 29.2007299 93.1308057 29.3540146 93.3099526 29.7627737 94.5383886 32.6751825 95.0246445 33.7737226 95.3061611 34.4124088 95.5109005 34.5145985 95.664455 34.540146 95.7668246 34.5656934 95.8691943 34.5656934 95.9459716 34.5656934 96.0227488 34.5656934 96.0483412 34.5912409 96.0483412 34.6423358 96.0483412 34.6934307 95.9971564 34.7189781 95.7156398 34.7189781 95.4597156 34.7189781 94.9222749 34.7189781 94.2824645 34.6934307 94.1545024 34.6934307 94.0521327 34.6934307 94.0521327 34.6423358 94.0521327 34.5912409 94.0777251 34.5656934 94.1545024 34.5656934 94.2056872 34.5656934 94.256872 34.4890511 94.2312796 34.4124088L93.6682464 32.9817518C93.642654 32.9306569 93.6170616 32.9306569 93.5914692 32.9306569L91.8255924 32.9306569 91.8255924 32.9051095 91.8255924 32.9051095zM93.4123223 32.4963504C93.4379147 32.4963504 93.4635071 32.4708029 93.4379147 32.4452555L92.7469194 30.6313869C92.7469194 30.6058394 92.721327 30.5547445 92.721327 30.5547445 92.6957346 30.5547445 92.6957346 30.6058394 92.6701422 30.6313869L91.9535545 32.4452555C91.9279621 32.4708029 91.9535545 32.4963504 91.9791469 32.4963504L93.4123223 32.4963504 93.4123223 32.4963504zM97.4559242 33.7226277C97.4815166 34.2846715 97.5582938 34.4379562 97.7118483 34.4890511 97.8398104 34.540146 97.9933649 34.540146 98.0957346 34.540146 98.1725118 34.540146 98.2236967 34.5656934 98.2236967 34.6167883 98.2236967 34.6678832 98.1469194 34.6934307 98.0445498 34.6934307 97.5582938 34.6934307 97.2255924 34.6678832 97.0720379 34.6678832 96.9952607 34.6678832 96.6369668 34.6934307 96.278673 34.6934307 96.1763033 34.6934307 96.0995261 34.6934307 96.0995261 34.6167883 96.0995261 34.5656934 96.1507109 34.540146 96.2274882 34.540146 96.3298578 34.540146 96.4578199 34.540146 96.5601896 34.5145985 96.7649289 34.4635036 96.7905213 34.2591241 96.7905213 33.6459854L96.8672986 29.4051095C96.8672986 29.2518248 96.9184834 29.149635 96.9952607 29.149635 97.0976303 29.149635 97.2 29.2518248 97.3279621 29.379562 97.4303318 29.4817518 98.5308057 30.6058394 99.6056872 31.6532847 100.117536 32.1386861 101.090047 33.1605839 101.218009 33.2627737L101.243602 33.2627737 101.166825 30.0693431C101.166825 29.6350365 101.090047 29.5072993 100.9109 29.4306569 100.808531 29.379562 100.629384 29.379562 100.527014 29.379562 100.424645 29.379562 100.399052 29.3540146 100.399052 29.3029197 100.399052 29.2518248 100.475829 29.2262774 100.578199 29.2262774 100.962085 29.2262774 101.371564 29.2518248 101.525118 29.2518248 101.601896 29.2518248 101.883412 29.2262774 102.241706 29.2262774 102.344076 29.2262774 102.420853 29.2262774 102.420853 29.3029197 102.420853 29.3540146 102.369668 29.379562 102.292891 29.379562 102.216114 29.379562 102.164929 29.379562 102.062559 29.4051095 101.85782 29.4562044 101.806635 29.5839416 101.781043 29.9927007L101.704265 34.5145985C101.704265 34.6678832 101.653081 34.7445255 101.576303 34.7445255 101.448341 34.7445255 101.345972 34.6678832 101.269194 34.5912409 100.808531 34.1569343 99.8872038 33.2883212 99.0938389 32.5218978 98.2748815 31.7554745 97.507109 30.8868613 97.3535545 30.7591241L97.3279621 30.7591241 97.4559242 33.7226277 97.4559242 33.7226277zM105.261611 29.7372263L104.161137 29.7627737C103.726066 29.7627737 103.546919 29.8138686 103.44455 29.9927007 103.367773 30.0948905 103.34218 30.1970803 103.316588 30.2481752 103.290995 30.2992701 103.290995 30.350365 103.23981 30.350365 103.188626 30.350365 103.163033 30.2992701 103.163033 30.2226277 103.163033 30.0948905 103.316588 29.4051095 103.316588 29.3540146 103.34218 29.2518248 103.367773 29.2262774 103.393365 29.2262774 103.44455 29.2262774 103.521327 29.2773723 103.726066 29.3029197 103.956398 29.3284672 104.212322 29.3284672 104.468246 29.3284672L107.488152 29.3284672C107.718483 29.3284672 107.89763 29.3029197 108 29.3029197 108.127962 29.2773723 108.179147 29.2773723 108.204739 29.2773723 108.255924 29.2773723 108.255924 29.3284672 108.255924 29.4306569 108.255924 29.5839416 108.230332 30.120438 108.230332 30.2992701 108.230332 30.3759124 108.204739 30.4270073 108.153555 30.4270073 108.10237 30.4270073 108.076777 30.4014599 108.076777 30.2737226L108.076777 30.1970803C108.051185 30.0182482 107.872038 29.7883212 107.206635 29.7883212L106.259716 29.7627737 106.259716 32.6751825C106.259716 33.3394161 106.259716 33.9014599 106.3109 34.2080292 106.336493 34.4124088 106.387678 34.540146 106.592417 34.5912409 106.694787 34.6167883 106.873934 34.6167883 106.976303 34.6167883 107.053081 34.6167883 107.104265 34.6678832 107.104265 34.6934307 107.104265 34.7445255 107.053081 34.770073 106.950711 34.770073 106.464455 34.770073 105.952607 34.7445255 105.747867 34.7445255 105.56872 34.7445255 105.082464 34.770073 104.775355 34.770073 104.672986 34.770073 104.621801 34.7445255 104.621801 34.6934307 104.621801 34.6678832 104.647393 34.6167883 104.749763 34.6167883 104.852133 34.6167883 104.954502 34.6167883 105.005687 34.5912409 105.159242 34.5656934 105.210427 34.4124088 105.236019 34.2080292 105.261611 33.9014599 105.261611 33.3394161 105.261611 32.6751825L105.261611 29.7372263 105.261611 29.7372263zM113.118483 31.5255474C112.811374 31.1167883 112.76019 30.8357664 112.76019 30.5036496 112.76019 29.9416058 113.246445 29.1751825 114.500474 29.1751825 114.858768 29.1751825 115.165877 29.2518248 115.370616 29.3284672 115.498578 29.379562 115.498578 29.4306569 115.498578 29.5072993 115.498578 29.7372263 115.447393 30.3248175 115.421801 30.4270073 115.396209 30.5291971 115.370616 30.5547445 115.345024 30.5547445 115.319431 30.5547445 115.293839 30.5291971 115.293839 30.4270073 115.293839 30.2481752 115.242654 30.0182482 115.0891 29.8138686 114.935545 29.6350365 114.705213 29.4817518 114.295735 29.4817518 113.988626 29.4817518 113.527962 29.6861314 113.527962 30.2992701 113.527962 30.9635036 114.14218 31.5510949 114.705213 32.189781 114.961137 32.4708029 115.83128 33.2627737 115.959242 33.3905109 116.112796 33.1861314 116.291943 32.7262774 116.291943 32.2919708 116.291943 32.189781 116.266351 32.0620438 116.163981 31.959854 116.061611 31.8832117 115.908057 31.8576642 115.805687 31.8576642 115.754502 31.8576642 115.72891 31.8321168 115.72891 31.8065693 115.72891 31.7554745 115.780095 31.729927 115.83128 31.729927 116.010427 31.729927 116.291943 31.729927 116.701422 31.7810219 116.829384 31.8065693 116.957346 31.8321168 116.957346 31.9343066 116.957346 32.4963504 116.675829 33.1605839 116.266351 33.620438 116.752607 34.0036496 117.059716 34.2080292 117.264455 34.310219 117.494787 34.4379562 117.878673 34.5656934 118.032227 34.5656934 118.109005 34.5656934 118.134597 34.5656934 118.134597 34.6423358 118.134597 34.6934307 118.083412 34.7189781 117.929858 34.7189781L117.366825 34.7189781C116.547867 34.7189781 116.291943 34.6423358 115.677725 34.1569343 115.447393 34.3613139 114.961137 34.7956204 113.988626 34.7956204 112.453081 34.7956204 111.992417 33.8248175 111.992417 33.2116788 111.941232 32.3941606 112.683412 31.729927 113.118483 31.5255474L113.118483 31.5255474 113.118483 31.5255474zM115.345024 33.9270073C114.935545 33.5693431 114.24455 32.9051095 114.065403 32.7007299 113.886256 32.4963504 113.425592 31.9854015 113.29763 31.8065693 113.041706 31.9854015 112.811374 32.3175182 112.811374 32.9051095 112.811374 33.7992701 113.451185 34.3613139 114.193365 34.3613139 114.730806 34.3613139 115.217062 34.080292 115.345024 33.9270073L115.345024 33.9270073 115.345024 33.9270073zM121.896682 33.9014599C121.077725 33.1861314 120.847393 32.2408759 120.847393 31.4233577 120.847393 30.8613139 121.02654 29.8649635 121.845498 29.1240876 122.459716 28.5620438 123.253081 28.229927 124.507109 28.229927 125.018957 28.229927 125.351659 28.2554745 125.735545 28.3065693 126.068246 28.3576642 126.324171 28.4343066 126.580095 28.459854 126.682464 28.459854 126.708057 28.5109489 126.708057 28.5620438 126.708057 28.6386861 126.682464 28.7408759 126.656872 29.0218978 126.63128 29.3029197 126.656872 29.7627737 126.63128 29.9416058 126.63128 30.0693431 126.605687 30.1459854 126.52891 30.1459854 126.452133 30.1459854 126.452133 30.0693431 126.452133 29.9671533 126.452133 29.7116788 126.324171 29.4051095 126.119431 29.2007299 125.837915 28.8941606 125.172512 28.689781 124.404739 28.689781 123.662559 28.689781 123.176303 28.8686131 122.818009 29.2007299 122.203791 29.7627737 122.050237 30.5547445 122.050237 31.3722628 122.050237 33.3905109 123.585782 34.3613139 124.711848 34.3613139 125.454028 34.3613139 125.914692 34.2846715 126.247393 33.9014599 126.400948 33.7481752 126.503318 33.4927007 126.52891 33.3394161 126.554502 33.2116788 126.580095 33.1605839 126.63128 33.1605839 126.682464 33.1605839 126.708057 33.2116788 126.708057 33.2883212 126.708057 33.3905109 126.605687 34.1313869 126.52891 34.4124088 126.477725 34.5656934 126.452133 34.5912409 126.298578 34.6678832 125.965877 34.7956204 125.326066 34.8722628 124.788626 34.8722628 123.636967 34.8211679 122.664455 34.5656934 121.896682 33.9014599L121.896682 33.9014599 121.896682 33.9014599zM129.088152 32.9051095C129.036967 32.9051095 129.036967 32.9051095 129.011374 32.9562044L128.601896 33.9270073C128.525118 34.1058394 128.499526 34.2846715 128.499526 34.3613139 128.499526 34.4890511 128.576303 34.5656934 128.806635 34.5656934L128.909005 34.5656934C129.011374 34.5656934 129.011374 34.5912409 129.011374 34.6423358 129.011374 34.6934307 128.96019 34.7189781 128.883412 34.7189781 128.627488 34.7189781 128.294787 34.6934307 128.064455 34.6934307 127.987678 34.6934307 127.603791 34.7189781 127.194313 34.7189781 127.091943 34.7189781 127.066351 34.6934307 127.066351 34.6423358 127.066351 34.5912409 127.091943 34.5656934 127.143128 34.5656934L127.37346 34.5656934C127.706161 34.5145985 127.834123 34.2846715 127.987678 33.9270073L129.932701 29.4051095C130.009479 29.2007299 130.086256 29.1240876 130.163033 29.1240876 130.265403 29.1240876 130.316588 29.2007299 130.393365 29.3540146 130.572512 29.7627737 131.800948 32.6751825 132.287204 33.7737226 132.56872 34.4124088 132.77346 34.5145985 132.927014 34.540146 133.029384 34.5656934 133.131754 34.5656934 133.208531 34.5656934 133.285308 34.5656934 133.3109 34.5912409 133.3109 34.6423358 133.3109 34.6934307 133.259716 34.7189781 132.978199 34.7189781 132.722275 34.7189781 132.184834 34.7189781 131.545024 34.6934307 131.417062 34.6934307 131.314692 34.6934307 131.314692 34.6423358 131.314692 34.5912409 131.340284 34.5656934 131.417062 34.5656934 131.468246 34.5656934 131.519431 34.4890511 131.493839 34.4124088L130.930806 32.9817518C130.905213 32.9306569 130.879621 32.9306569 130.854028 32.9306569L129.088152 32.9306569 129.088152 32.9051095 129.088152 32.9051095zM130.674882 32.4963504C130.700474 32.4963504 130.726066 32.4708029 130.700474 32.4452555L130.009479 30.6569343C130.009479 30.6313869 129.983886 30.580292 129.983886 30.580292 129.958294 30.580292 129.958294 30.6313869 129.932701 30.6569343L129.216114 32.4708029C129.190521 32.4963504 129.216114 32.5218978 129.241706 32.5218978L130.674882 32.5218978 130.674882 32.4963504 130.674882 32.4963504zM135.281517 32.649635C135.281517 33.3394161 135.281517 33.850365 135.332701 34.1569343 135.358294 34.3613139 135.409479 34.5145985 135.63981 34.540146 135.74218 34.5656934 135.895735 34.5656934 135.998104 34.5656934 136.100474 34.5656934 136.126066 34.6167883 136.126066 34.6423358 136.126066 34.6934307 136.074882 34.7189781 135.972512 34.7189781 135.511848 34.7189781 134.974408 34.6934307 134.769668 34.6934307 134.564929 34.6934307 134.104265 34.7189781 133.822749 34.7189781 133.720379 34.7189781 133.669194 34.6934307 133.669194 34.6423358 133.669194 34.6167883 133.694787 34.5656934 133.771564 34.5656934 133.873934 34.5656934 133.976303 34.5656934 134.027488 34.540146 134.181043 34.5145985 134.232227 34.3613139 134.25782 34.1569343 134.283412 33.850365 134.283412 33.3138686 134.283412 32.6240876L134.283412 31.3467153 134.283412 29.8394161C134.25782 29.5839416 134.206635 29.5072993 133.950711 29.4562044 133.899526 29.4306569 133.771564 29.4306569 133.643602 29.4306569 133.566825 29.4306569 133.51564 29.4051095 133.51564 29.3540146 133.51564 29.3029197 133.566825 29.2773723 133.694787 29.2773723 134.078673 29.2773723 134.539336 29.3029197 134.769668 29.3029197L136.893839 29.3029197C137.021801 29.3029197 137.124171 29.2773723 137.200948 29.2773723 137.252133 29.2773723 137.277725 29.2262774 137.32891 29.2262774 137.354502 29.2262774 137.380095 29.2518248 137.380095 29.3029197 137.380095 29.3540146 137.354502 29.4306569 137.32891 29.6350365 137.32891 29.7116788 137.303318 30.120438 137.303318 30.2226277 137.303318 30.2737226 137.277725 30.3759124 137.22654 30.3759124 137.175355 30.3759124 137.124171 30.350365 137.124171 30.2481752 137.124171 30.1970803 137.124171 30.0693431 137.072986 29.9671533 137.021801 29.8649635 136.868246 29.7627737 136.612322 29.7372263L135.383886 29.7116788C135.332701 29.7116788 135.307109 29.7372263 135.307109 29.8138686L135.307109 31.5510949C135.307109 31.6021898 135.307109 31.6277372 135.358294 31.6277372L136.407583 31.6277372 136.740284 31.6277372C136.868246 31.6277372 136.996209 31.6021898 137.047393 31.5 137.098578 31.4489051 137.098578 31.4233577 137.149763 31.4233577 137.175355 31.4233577 137.200948 31.4489051 137.200948 31.5 137.200948 31.5510949 137.175355 31.729927 137.149763 31.959854 137.124171 32.1131387 137.124171 32.419708 137.124171 32.4708029 137.124171 32.5218978 137.124171 32.6240876 137.047393 32.6240876 136.996209 32.6240876 136.970616 32.5729927 136.970616 32.5218978 136.970616 32.4708029 136.945024 32.3941606 136.919431 32.2919708 136.893839 32.189781 136.791469 32.0364964 136.561137 32.0364964 136.381991 32.0109489 135.486256 32.0109489 135.358294 32.0109489 135.332701 32.0109489 135.307109 32.0109489 135.307109 32.0620438L135.307109 32.649635 135.281517 32.649635 135.281517 32.649635zM139.069194 31.3722628L139.069194 29.8649635C139.043602 29.6094891 138.992417 29.5328467 138.736493 29.4817518 138.685308 29.4562044 138.557346 29.4562044 138.429384 29.4562044 138.352607 29.4562044 138.301422 29.4306569 138.301422 29.379562 138.301422 29.3284672 138.352607 29.3029197 138.480569 29.3029197 138.864455 29.3029197 139.350711 29.3284672 139.55545 29.3284672L141.577251 29.3284672C141.705213 29.3284672 141.833175 29.3029197 141.88436 29.2773723 141.935545 29.2773723 141.961137 29.2518248 142.012322 29.2518248 142.063507 29.2518248 142.063507 29.2773723 142.063507 29.3284672 142.063507 29.379562 142.012322 29.4562044 142.012322 29.7883212 142.012322 29.8649635 141.98673 30.1715328 141.961137 30.2481752 141.961137 30.2737226 141.935545 30.3759124 141.88436 30.3759124 141.833175 30.3759124 141.833175 30.350365 141.833175 30.2737226 141.833175 30.2226277 141.833175 30.0948905 141.781991 30.0182482 141.730806 29.8905109 141.654028 29.7883212 141.295735 29.7627737 141.167773 29.7372263 140.272038 29.7372263 140.118483 29.7372263 140.092891 29.7372263 140.067299 29.7627737 140.067299 29.8138686L140.067299 31.5766423C140.067299 31.6277372 140.067299 31.6532847 140.118483 31.6532847 140.29763 31.6532847 141.24455 31.6532847 141.423697 31.6277372 141.602844 31.6021898 141.705213 31.6021898 141.781991 31.5255474 141.833175 31.4744526 141.858768 31.4233577 141.909953 31.4233577 141.935545 31.4233577 141.961137 31.4489051 141.961137 31.5 141.961137 31.5510949 141.935545 31.6532847 141.909953 32.0109489 141.88436 32.1642336 141.88436 32.4452555 141.88436 32.4963504 141.88436 32.5474453 141.88436 32.649635 141.807583 32.649635 141.756398 32.649635 141.730806 32.6240876 141.730806 32.5985401 141.730806 32.5218978 141.730806 32.419708 141.705213 32.3430657 141.654028 32.189781 141.577251 32.0875912 141.295735 32.0620438 141.167773 32.0364964 140.323223 32.0364964 140.118483 32.0364964 140.092891 32.0364964 140.067299 32.0620438 140.067299 32.1131387L140.067299 32.6751825 140.067299 33.7481752C140.092891 34.2335766 140.323223 34.3357664 141.065403 34.3357664 141.270142 34.3357664 141.577251 34.3357664 141.756398 34.2335766 141.935545 34.1569343 142.037915 34.0036496 142.0891 33.6970803 142.114692 33.620438 142.114692 33.5948905 142.165877 33.5948905 142.217062 33.5948905 142.242654 33.6970803 142.242654 33.7737226 142.242654 33.9270073 142.191469 34.4124088 142.140284 34.5656934 142.0891 34.7445255 142.012322 34.7445255 141.730806 34.7445255 141.167773 34.7445255 140.732701 34.7445255 140.374408 34.7189781 140.016114 34.7189781 139.734597 34.6934307 139.504265 34.6934307L139.069194 34.6934307C138.890047 34.6934307 138.7109 34.7189781 138.557346 34.7189781 138.454976 34.7189781 138.403791 34.6934307 138.403791 34.6423358 138.403791 34.6167883 138.429384 34.5656934 138.531754 34.5656934 138.634123 34.5656934 138.736493 34.5656934 138.787678 34.540146 138.941232 34.5145985 138.992417 34.3613139 139.018009 34.1569343 139.043602 33.850365 139.043602 33.2883212 139.043602 32.6240876L139.043602 31.3722628 139.069194 31.3722628 139.069194 31.3722628zM141.679621 27.9489051C141.730806 28.0510949 141.679621 28.0766423 141.628436 28.0766423 141.577251 28.0766423 141.500474 28.0510949 141.346919 28.0766423 140.886256 28.1277372 140.220853 28.4087591 139.913744 28.5620438 139.836967 28.5875912 139.785782 28.6386861 139.76019 28.6386861 139.734597 28.6386861 139.709005 28.6131387 139.709005 28.5875912 139.709005 28.5620438 139.734597 28.5109489 139.785782 28.4854015 140.118483 28.1532847 141.014218 27.5145985 141.14218 27.4124088 141.218957 27.3613139 141.295735 27.3357664 141.321327 27.3357664 141.372512 27.3357664 141.398104 27.3613139 141.449289 27.4379562 141.500474 27.540146 141.577251 27.7189781 141.679621 27.9489051L141.679621 27.9489051 141.679621 27.9489051z"/>
    <ellipse cx="51.006" cy="3.321" rx="4.837" ry="3.321"/>
    <ellipse cx="50.878" cy="8.788" rx="5.246" ry="2.912"/>
    <ellipse cx="57.429" cy="8.354" rx="4.837" ry="3.5"/>
    <ellipse cx="57.839" cy="3.27" rx="3.276" ry="2.555"/>
    <ellipse cx="54.512" cy="6.004" rx="2.508" ry="2.044"/>
  </g>
</svg>
