<svg xmlns="http://www.w3.org/2000/svg" width="198" height="116" viewBox="0 0 198 116">
  <g fill="none" fill-rule="evenodd">
    <g fill="#828889" transform="translate(59 27)">
      <path d="M11.8746582,48.4779615 L11.8746582,21.1397308 C17.5932658,21.1397308 19.5004051,25.5148654 19.5004051,29.3406346 C19.5004051,34.1539423 17.3759494,37.2145577 13.6178734,37.5424808 L13.6178734,48.4779615 C24.9473671,48.4779615 31.5933165,39.1830385 31.5933165,30.3809423 C31.5933165,18.4616923 24.1296203,10.2051923 12.0367089,10.2051923 L0,10.2051923 L0,48.4779615 L11.8746582,48.4779615 L11.8746582,48.4779615 Z"/>
      <polygon points="45.734 48.478 45.734 10.206 33.858 10.206 33.858 48.478"/>
      <path d="M73.4913671 24.7497115L61.2907342 24.7497115C62.8175696 21.2499808 65.9752152 20.3745769 68.9174177 20.3745769L73.4923038 20.3745769 73.4923038 10.2061346 67.5020506 10.2061346C58.5686582 10.2061346 48.2161519 16.3301923 48.2161519 29.3406346 48.2161519 42.3548462 58.5686582 48.4789038 67.5020506 48.4789038L73.4923038 48.4789038 73.4923038 38.3076346 68.9174177 38.3076346C65.9752152 38.3076346 62.8175696 37.4331731 61.2907342 33.9325L73.4913671 33.9325 73.4913671 24.7497115 73.4913671 24.7497115 73.4913671 24.7497115zM35.6923544 4.70776923C35.6923544 2.40476923 37.5517215.537115385 39.8457215.537115385 42.1415949.537115385 44.0028354 2.40382692 44.0028354 4.70776923 44.0028354 7.01171154 42.1425316 8.87748077 39.8457215 8.87748077 37.5517215 8.87748077 35.6923544 7.01076923 35.6923544 4.70776923L35.6923544 4.70776923 35.6923544 4.70776923z"/>
    </g>
    <rect width="198" height="116"/>
  </g>
</svg>
