<svg xmlns="http://www.w3.org/2000/svg" width="198" height="116" viewBox="0 0 198 116">
  <g fill="#828889" transform="translate(4 31)">
    <path d="M36.6030592,13.3299184 L36.6030592,0 L22.9230045,13.3299184 L11.1835365,13.3299184 L0,24.212876 L13.7703583,24.2137913 L13.7703583,37.5789474 L27.5124968,24.2092149 L39.1494326,24.2092149 L50.3254438,13.3299184 L36.6030592,13.3299184 Z M33.7933003,6.61828069 L33.7933003,13.3376981 L26.8874266,13.3376981 L33.7933003,6.61828069 Z M6.79017226,21.466166 L12.3217381,16.0770861 L20.0784411,16.0770861 L14.5431126,21.466166 L6.79017226,21.466166 Z M16.5594227,31.02382 L16.5594227,24.2087573 L23.5476044,24.2087573 L16.5594227,31.02382 Z M26.3822908,21.466166 L18.5390469,21.466166 L24.0701424,16.0770861 L31.9152677,16.0770861 L26.3822908,21.466166 Z M38.0004134,21.466166 L30.3608229,21.466166 L35.8923887,16.0770861 L43.5357419,16.0770861 L38.0004134,21.466166 Z"/>
    <g transform="translate(26.84 17.684)">
      <g transform="translate(33.36)">
        <path d="M18.9257314,8.31447474 L18.9470441,8.31447474 L18.9470441,9.14076947 L20.4444972,9.14076947 L20.4444972,3.05357684 L18.8636464,3.05357684 L18.8636464,6.03520105 C18.8636464,6.81321789 18.6166963,8.05358842 17.4732204,8.05358842 C16.4594743,8.05358842 16.446038,7.04857263 16.446038,6.30490737 L16.446038,3.05357684 L14.8651872,3.05357684 L14.8651872,6.89584737 C14.8651872,8.26619684 15.491597,9.28188947 16.929745,9.28188947 C17.7563095,9.28188947 18.4406344,8.90495053 18.9257314,8.31447474 Z"/>
        <polygon points="64.182 7.843 60.193 7.843 64.098 2.238 64.098 .89 58.626 .89 58.626 2.192 62.343 2.192 58.469 7.794 58.469 9.141 64.182 9.141"/>
        <path d="M45.0005039 6.58807579L49.1972645 6.58807579C49.1972645 4.45920632 48.5625149 2.9106 46.3098487 2.9106 44.4232061 2.9106 43.4872979 4.36404316 43.4872979 6.12665053 43.4872979 8.12507684 44.6567198 9.28188947 46.6652158 9.28188947 47.5154097 9.28188947 48.1737886 9.11755895 48.7496965 8.79864632L48.7496965 7.50906947C48.1626689 7.84283684 47.5005834 8.12507684 46.7319341 8.12507684 45.7547903 8.12507684 45.0700021 7.56895263 45.0005039 6.58807579zM46.4048295 4.06973368C47.2916257 4.06973368 47.6432862 4.73076947 47.690545 5.50043053L45.0005039 5.50043053C45.0700021 4.68666947 45.5212766 4.06973368 46.4048295 4.06973368zM38.3930848 6.16193053C38.3930848 5.38252105 38.6432781 4.14122211 39.7839741 4.14122211 40.8005001 4.14122211 40.8106932 5.14623789 40.8106932 5.89176L40.8106932 9.14030526 42.3952506 9.14030526 42.3952506 5.30082C42.3952506 3.92722105 41.7688408 2.91013579 40.3279128 2.91013579 39.5059816 2.91013579 38.8198034 3.28986 38.4176408 3.87940737L38.3930848 3.87940737 38.3930848.274812632 36.8126973.274812632 36.8126973 9.14030526 38.3930848 9.14030526 38.3930848 6.16193053 38.3930848 6.16193053zM73.0406837 6.16193053C73.0406837 5.38252105 73.2885603 4.14122211 74.4329629 4.14122211 75.4476356 4.14122211 75.459682 5.14623789 75.459682 5.89176L75.459682 9.14030526 77.0400695 9.14030526 77.0400695 5.30082C77.0400695 3.92722105 76.4159763 2.91013579 74.9727317 2.91013579 74.1512638 2.91013579 73.4766686 3.18262737 72.9818419 3.87940737L72.9591392 3.87940737 72.9591392 3.05311263 71.4616861 3.05311263 71.4616861 9.14030526 73.0406837 9.14030526 73.0406837 6.16193053zM89.286567 9.28188947C90.1112782 9.28188947 90.7937499 8.90495053 91.2797735 8.31447474L91.3020129 8.31447474 91.3020129 9.14076947 92.799466 9.14076947 92.799466 3.05357684 91.2209317 3.05357684 91.2209317 6.03520105C91.2209317 6.81321789 90.9725917 8.05358842 89.8277258 8.05358842 88.8144431 8.05358842 88.8019334 7.04857263 88.8019334 6.30490737L88.8019334 3.05357684 87.2192293 3.05357684 87.2192293 6.89584737C87.2196926 8.26666105 87.8461024 9.28188947 89.286567 9.28188947zM34.3246642 9.28188947C34.9723868 9.28188947 35.4459007 9.22386316 35.9045884 9.08135053L35.8346269 7.77134842C35.5635842 7.88925789 35.0673675 8.05312421 34.6193363 8.05312421 33.5119993 8.05312421 32.9796437 7.19108526 32.9796437 6.06816 32.9796437 4.92063158 33.6069801 4.14168632 34.5836605 4.14168632 35.0673675 4.14168632 35.3754759 4.23592105 35.6576383 4.36404316L35.7980246 3.11346C35.3634296 2.98255263 34.901962 2.9106 34.2648958 2.9106 32.3657435 2.9106 31.3302213 4.30601684 31.3302213 6.06816 31.3306846 7.92268105 32.3337743 9.28188947 34.3246642 9.28188947zM84.4499604 6.90745263C84.4499604 6.03520105 84.4499604 4.42578316 85.7333592 4.42578316 86.0164483 4.42578316 86.3000006 4.47127579 86.4413135 4.55669053L86.4413135 2.95794947C86.2772979 2.9106 86.112819 2.9106 85.9594598 2.9106 85.0147485 2.9106 84.3647093 3.86826632 84.2952112 4.43646L84.2715818 4.43646 84.2715818 3.05357684 82.865403 3.05357684 82.865403 9.14076947 84.4499604 9.14076947 84.4499604 6.90745263zM78.9026195 7.30899474C78.9026195 8.51547789 79.5864811 9.28188947 80.8254011 9.28188947 81.2970618 9.28188947 81.6630853 9.23639684 81.9943597 9.14076947L81.9452477 7.88925789C81.7812321 7.99509789 81.5106527 8.05358842 81.2289536 8.05358842 80.6247832 8.05358842 80.4848603 7.56895263 80.4848603 7.04857263L80.4848603 4.21224632 81.8882592 4.21224632 81.8882592 3.05404105 80.4848603 3.05404105 80.4848603 1.32903474 78.9026195 1.83734526 78.9026195 3.05404105 77.7373674 3.05404105 77.7373674 4.21224632 78.9026195 4.21224632 78.9026195 7.30899474zM2.56123783.890355789L.307181744.890355789.307181744 9.14076947 2.56123783 9.14076947C5.08633664 9.14076947 7.31491007 8.2908 7.31491007 5.01579474 7.31491007 1.74264632 5.08633664.890355789 2.56123783.890355789zM2.87953928 7.84283684L1.96077397 7.84283684 1.96077397 2.19153789 2.87953928 2.19153789C4.25977218 2.19153789 5.59181972 3.21976421 5.59181972 5.01625895 5.59228304 6.81321789 4.25977218 7.84283684 2.87953928 7.84283684zM22.4511399 7.30899474C22.4511399 8.51547789 23.1354649 9.28188947 24.3720683 9.28188947 24.8432657 9.28188947 25.2106791 9.23639684 25.5424169 9.14076947L25.4928415 7.88925789C25.3302159 7.99509789 25.0587099 8.05358842 24.7751575 8.05358842 24.1746936 8.05358842 24.0319908 7.56895263 24.0319908 7.04857263L24.0319908 4.21224632 25.4349264 4.21224632 25.4349264 3.05404105 24.0319908 3.05404105 24.0319908 1.32903474 22.4516033 1.83734526 22.4516033 3.05404105 21.2840346 3.05404105 21.2840346 4.21224632 22.4516033 4.21224632 22.4516033 7.30899474 22.4511399 7.30899474zM29.0321497 7.38048316C29.0321497 7.97142316 28.3923036 8.12507684 27.992921 8.12507684 27.4503723 8.12507684 26.9328428 7.97188737 26.4384795 7.72260632L26.3430354 9.02378842C26.9203332 9.17744211 27.53377 9.28235368 28.1360872 9.28235368 29.420876 9.28235368 30.6820354 8.71648105 30.6820354 7.29878211 30.6820354 5.10028105 27.9345426 5.71350316 27.9345426 4.74376737 27.9345426 4.22524421 28.4423423 4.07019789 28.8658176 4.07019789 29.4449687 4.07019789 29.7970925 4.16536105 30.2812628 4.33062L30.3859734 3.13713474C29.8925366 3.03083053 29.407903 2.91199263 28.6656629 2.91199263 27.4281329 2.91199263 26.2846569 3.49272 26.2846569 4.80504316 26.2846569 7.00075895 29.0321497 6.18606947 29.0321497 7.38048316zM9.66255698 6.58807579L13.8634874 6.58807579C13.8634874 4.45920632 13.2264212 2.9106 10.9714385 2.9106 9.08479584 2.9106 8.15213091 4.36404316 8.15213091 6.12665053 8.15213091 8.12507684 9.31830957 9.28188947 11.3263423 9.28188947 12.1751461 9.28188947 12.8367683 9.11755895 13.4163828 8.79864632L13.4163828 7.50906947C12.824722 7.84283684 12.1649531 8.12507684 11.398157 8.12507684 10.4173067 8.12507684 9.73529836 7.56895263 9.66255698 6.58807579zM11.0668826 4.06973368C11.9504355 4.06973368 12.304876 4.73076947 12.352598 5.50043053L9.66255698 5.50043053C9.73529836 4.68666947 10.182403 4.06973368 11.0668826 4.06973368zM101.540478 9.14076947L103.120402 9.14076947 103.120402 5.30128421C103.120402 3.93929053 102.696 2.9106 101.19901 2.9106 100.45677 2.9106 99.6658814 3.25504421 99.2993946 3.98803263 98.9602437 3.23229789 98.3537567 2.9106 97.5081961 2.9106 96.916072 2.9106 96.1974613 3.16080947 95.7012446 3.90633158L95.6799319 3.90633158 95.6799319 3.05357684 94.2037916 3.05357684 94.2037916 9.14076947 95.7832524 9.14076947 95.7832524 6.18606947C95.7832524 5.39366211 95.9162255 4.14168632 96.965184 4.14168632 97.8742196 4.14168632 97.8742196 4.94523474 97.8742196 5.51296421L97.8742196 9.14076947 99.4527538 9.14076947 99.4527538 6.18606947C99.4527538 5.39366211 99.5852636 4.14168632 100.633295 4.14168632 101.540478 4.14168632 101.540478 4.94523474 101.540478 5.51296421L101.540478 9.14076947 101.540478 9.14076947zM51.5592743 4.74330316C51.5592743 4.22478 52.0693906 4.06973368 52.4919393 4.06973368 53.0692371 4.06973368 53.4236775 4.16489684 53.9055313 4.33015579L54.0139483 3.13667053C53.5191216 3.03036632 53.0307814 2.91152842 52.2936379 2.91152842 51.0537912 2.91152842 49.9089253 3.49225579 49.9089253 4.80457895 49.9089253 7.00122316 52.6564182 6.18699789 52.6564182 7.38141158 52.6564182 7.97235158 52.0184253 8.12600526 51.620896 8.12600526 51.0760306 8.12600526 50.5566479 7.97281579 50.0604313 7.72353474L49.9654505 9.02471684C50.5450649 9.17837053 51.1575751 9.28328211 51.7608189 9.28328211 53.0469977 9.28328211 54.3081571 8.71740947 54.3081571 7.29971053 54.3072305 5.09935263 51.5592743 5.71303895 51.5592743 4.74330316zM66.2219903 6.58807579L70.4210674 6.58807579C70.4210674 4.45920632 69.7858545 2.9106 67.5313351 2.9106 65.6442291 2.9106 64.7101742 4.36404316 64.7101742 6.12665053 64.7101742 8.12507684 65.8800594 9.28188947 67.8867022 9.28188947 68.7345794 9.28188947 69.3934217 9.11755895 69.9748894 8.79864632L69.9748894 7.50906947C69.3813753 7.84283684 68.7220697 8.12507684 67.957127 8.12507684 66.9781299 8.12507684 66.2933417 7.56895263 66.2219903 6.58807579zM67.6277058 4.06973368C68.5107954 4.06973368 68.8643092 4.73076947 68.9106413 5.50043053L66.2219903 5.50043053C66.2933417 4.68666947 66.741373 4.06973368 67.6277058 4.06973368z"/>
      </g>
      <g transform="translate(0 14.39)">
        <path d="M2.52834205,0.183827368 L0.277529208,0.183827368 L0.277529208,8.42774211 L2.52834205,8.42774211 C5.05019761,8.42774211 7.27877105,7.57730842 7.27877105,4.30601684 C7.27830773,1.03565368 5.04973429,0.183827368 2.52834205,0.183827368 Z M2.84618017,7.12841684 L1.92834151,7.12841684 L1.92834151,1.48361684 L2.84618017,1.48361684 C4.2245598,1.48361684 5.55753397,2.51137895 5.55753397,4.30601684 C5.55753397,6.10158316 4.2245598,7.12841684 2.84618017,7.12841684 Z"/>
        <polygon points="9.026 .184 10.677 .184 10.677 7.128 13.871 7.128 13.871 8.428 9.026 8.428"/>
        <path d="M20.1831842,5.20333579 C20.0187053,4.83846632 19.7587823,4.38864632 19.3102877,4.35336632 L19.3102877,4.32969158 C20.3592462,4.18810737 21.008822,3.38502316 21.008822,2.41668 C21.008822,0.125336842 18.8974688,0.183827368 17.128973,0.183827368 L15.3493575,0.183827368 L15.3493575,8.42774211 L17.0006331,8.42774211 L17.0006331,5.00372526 L17.5306722,5.00372526 C18.2256535,5.00372526 18.4373912,5.23908 18.6741481,5.85276632 L19.6642648,8.42774211 L21.5027221,8.42774211 L20.1831842,5.20333579 Z M17.5436452,3.70393579 L17.0006331,3.70393579 L17.0006331,1.48408105 L17.5436452,1.48408105 C18.3674297,1.48408105 19.287585,1.56763895 19.287585,2.55919263 C19.287585,3.58556211 18.3558467,3.70393579 17.5436452,3.70393579 Z"/>
      </g>
    </g>
    <g transform="translate(59.272 30.947)">
      <rect width="1.378" height="1.397" x="8.469" y=".779"/>
      <path d="M4.27541799 3.31152632L2.88574382 3.31152632 2.88574382 2.53894737C2.88574382 2.05578947 3.05187008 1.58684211 3.58524737 1.58684211 3.9314993 1.58684211 4.13029083 1.71710526 4.27541799 1.80378947L4.40607909.464684211C4.09855885.392684211 3.6463781.330631579 3.24132868.330631579 1.98138232.330631579 1.29354493 1.19984211 1.29354493 2.44373684L1.29354493 3.31152632.1166617 3.31152632.1166617 4.49289474 1.29354493 4.49289474 1.29354493 9.52342105 2.88574382 9.52342105 2.88574382 4.49289474 4.27541799 4.49289474 4.27541799 3.31152632zM9.14674394 6.34973684C9.14674394 7.14552632 8.89568797 8.41263158 7.74353701 8.41263158 6.72251381 8.41263158 6.7094477 7.38710526 6.7094477 6.62636842L6.7094477 3.31152632 5.1200487 3.31152632 5.1200487 7.23078947C5.1200487 8.62910526 5.74768865 9.66742105 7.19756026 9.66742105 8.03192474 9.66742105 8.71882883 9.28184211 9.20647474 8.68026316L9.23120702 8.68026316 9.23120702 9.52342105 10.7384762 9.52342105 10.7384762 3.31152632 9.14674394 3.31152632 9.14674394 6.34973684 9.14674394 6.34973684zM40.4256124 8.244C40.2557529 8.35389474 39.9850978 8.41263158 39.6995099 8.41263158 39.094269 8.41263158 38.9510085 7.91715789 38.9510085 7.38710526L38.9510085 4.49289474 40.364015 4.49289474 40.364015 3.31152632 38.9510085 3.31152632 38.9510085 1.54989474 37.3574096 2.06857895 37.3574096 3.31152632 36.182393 3.31152632 36.182393 4.49289474 37.3574096 4.49289474 37.3574096 7.65426316C37.3574096 8.883 38.0480469 9.66742105 39.2949272 9.66742105 39.7723068 9.66742105 40.1390912 9.61863158 40.4718104 9.52342105L40.4256124 8.244zM29.3786826 8.68026316L29.3786826 9.52342105 30.888285 9.52342105 30.888285 3.31152632 29.2942196 3.31152632 29.2942196 6.34973684C29.2942196 7.14552632 29.0440969 8.41263158 27.8933459 8.41263158 26.8741893 8.41263158 26.8597232 7.38710526 26.8597232 6.62636842L26.8597232 3.31152632 25.2689243 3.31152632 25.2689243 7.23078947C25.2689243 8.62910526 25.8993641 9.66742105 27.3478358 9.66742105 28.1784671 9.66742105 28.868171 9.28184211 29.355817 8.68026316L29.3786826 8.68026316zM35.9364701 3.31152632L34.5439961 3.31152632 34.5439961 2.53894737C34.5439961 2.05578947 34.7115223 1.58684211 35.2453662 1.58684211 35.5925514 1.58684211 35.7918096 1.71710526 35.9364701 1.80378947L36.0666646.464684211C35.7544779.392684211 35.3036971.330631579 34.9000476.330631579 33.6433678.330631579 32.9531971 1.19984211 32.9531971 2.44373684L32.9531971 3.31152632 31.7786471 3.31152632 31.7786471 4.49289474 32.9536638 4.49289474 32.9536638 9.52342105 34.5439961 9.52342105 34.5439961 4.49289474 35.9364701 4.49289474 35.9364701 3.31152632zM122.998764 7.24405263C122.998764 6.34973684 122.998764 4.70936842 124.295575 4.70936842 124.578363 4.70936842 124.863484 4.75768421 125.006745 4.84484211L125.006745 3.21252632C124.840619 3.168 124.675426 3.168 124.523299 3.168 123.571806 3.168 122.916634 4.14426316 122.842904 4.72026316L122.821905 4.72026316 122.821905 3.31105263 121.407032 3.31105263 121.407032 9.52294737 122.998297 9.52294737 122.998297 7.24405263 122.998764 7.24405263z"/>
      <rect width="1.379" height="1.397" x="6.022" y=".779"/>
      <polygon points="19.863 1.103 19.863 9.523 24.748 9.523 24.748 8.196 21.528 8.196 21.528 1.103"/>
      <path d="M13.6372861,4.72073684 L13.6144204,4.72073684 L13.6144204,3.31152632 L12.200014,3.31152632 L12.200014,9.52342105 L13.7945461,9.52342105 L13.7945461,7.24405263 C13.7945461,6.34973684 13.7945461,4.70936842 15.0871577,4.70936842 C15.3750788,4.70936842 15.6597333,4.75768421 15.800194,4.84484211 L15.800194,3.21252632 C15.6340678,3.168 15.4684082,3.168 15.3148814,3.168 C14.3619886,3.168 13.7077498,4.14426316 13.6372861,4.72073684 Z"/>
      <rect width="3.122" height="1.328" x="40.901" y="5.615"/>
      <path d="M112.876728 8.136C112.863662 7.67652632 112.853396 7.20663158 112.853396 6.58042105L112.853396 5.78368421C112.853396 3.951 112.078762 3.16847368 110.216841 3.16847368 109.536004 3.16847368 108.707239 3.348 108.088932 3.63836842L108.134663 5.02342105C108.669907 4.61273684 109.347945 4.34747368 110.025516 4.34747368 110.965343 4.34747368 111.403991 4.68663158 111.403991 5.68610526L110.524828 5.68610526C109.858457 5.68610526 109.072623 5.74957895 108.469249 6.05036842 107.863075 6.35021053 107.424893 6.89305263 107.424893 7.82289474 107.424893 9.00426316 108.483248 9.66789474 109.566802 9.66789474 110.289638 9.66789474 111.084338 9.28231579 111.448789 8.59452632L111.474921 8.59452632C111.484254 8.78589474 111.484254 9.19705263 111.546785 9.52389474L112.951858 9.52389474C112.910327 9.04073684 112.888394 8.60684211 112.876728 8.136zM111.072205 7.93184211C110.819749 8.26863158 110.440365 8.48557895 109.954586 8.48557895 109.38341 8.48557895 108.946629 8.25678947 108.946629 7.72531579 108.946629 6.77273684 110.003117 6.65336842 110.71522 6.65336842L111.403991 6.65336842C111.403991 7.13463158 111.33166 7.58084211 111.072205 7.93184211zM104.167232 9.52342105L105.762231 9.52342105 105.762231 4.49289474 107.151438 4.49289474 107.151438 3.31152632 105.762231 3.31152632 105.762231 2.53894737C105.762231 2.05578947 105.926491 1.58684211 106.461268 1.58684211 106.80752 1.58684211 107.008178 1.71710526 107.151438 1.80378947L107.280233.464684211C106.972246.392684211 106.520065.330631579 106.115949.330631579 104.857869.330631579 104.167232 1.19984211 104.167232 2.44373684L104.167232 3.31152632 102.992215 3.31152632 102.992215 4.49289474 104.167232 4.49289474 104.167232 9.52342105zM100.316929 3.168C99.5693612 3.168 98.7737284 3.51568421 98.4046108 4.26268421 98.0592922 3.49294737 97.4545179 3.168 96.6010209 3.168 96.0051129 3.168 95.2790105 3.41857895 94.782965 4.17836842L94.7605659 4.17836842 94.7605659 3.31152632 93.2738292 3.31152632 93.2738292 9.52342105 94.8632282 9.52342105 94.8632282 6.507C94.8632282 5.69794737 94.9934227 4.42136842 96.049911 4.42136842 96.9692052 4.42136842 96.9692052 5.23989474 96.9692052 5.81921053L96.9692052 9.52342105 98.5581376 9.52342105 98.5581376 6.507C98.5581376 5.69794737 98.6920652 4.42136842 99.7476203 4.42136842 100.661315 4.42136842 100.661315 5.23989474 100.661315 5.81921053L100.661315 9.52342105 102.254914 9.52342105 102.254914 5.60321053C102.25538 4.21626316 101.826532 3.168 100.316929 3.168zM118.294497 6.20715789L118.294497 9.52342105 119.888563 9.52342105 119.888563 5.60321053C119.888563 4.20347368 119.258123 3.168 117.807318 3.168 116.97762 3.168 116.288383 3.55263158 115.884267 4.15468421L115.860468 4.15468421 115.860468.475105263 114.267802.475105263 114.267802 9.52342105 115.860468 9.52342105 115.860468 6.48189474C115.860468 5.68563158 116.110124 4.42089474 117.262741 4.42089474 118.284698 4.42136842 118.294497 5.44689474 118.294497 6.20715789zM129.712878 9.52342105L129.663413 8.244C129.497754 8.35389474 129.226165 8.41263158 128.939644 8.41263158 128.334403 8.41263158 128.191609 7.91715789 128.191609 7.38710526L128.191609 4.49289474 129.605083 4.49289474 129.605083 3.31152632 128.191609 3.31152632 128.191609 1.54989474 126.600344 2.06857895 126.600344 3.31152632 125.423461 3.31152632 125.423461 4.49289474 126.600344 4.49289474 126.600344 7.65426316C126.600344 8.883 127.289114 9.66742105 128.534595 9.66742105 129.013841 9.66742105 129.379692 9.61910526 129.712878 9.52342105zM66.4883028.475578947L66.4883028 4.03294737 66.4673037 4.03294737C65.9936572 3.44226316 65.4327478 3.16847368 64.6380483 3.16847368 62.7602615 3.16847368 62.0728908 4.68663158 62.0728908 6.399 62.0728908 8.10047368 62.7602615 9.66742105 64.6380483 9.66742105 65.3870164 9.66742105 66.0407886 9.42678947 66.5149017 8.82284211L66.5387007 8.82284211 66.5387007 9.52342105 68.0851682 9.52342105 68.0851682.475578947 66.4883028.475578947zM65.0804294 8.41310526C64.0337407 8.41310526 63.7332201 7.25494737 63.7332201 6.399 63.7332201 5.56578947 64.0220745 4.42136842 65.0561638 4.42136842 66.0762537 4.42136842 66.4803698 5.53026316 66.4803698 6.399 66.4803698 7.27957895 66.1336513 8.41310526 65.0804294 8.41310526zM52.3661707 8.68026316L52.3661707 9.52342105 53.8739065 9.52342105 53.8739065 3.31152632 52.281241 3.31152632 52.281241 6.34973684C52.281241 7.14552632 52.0320516 8.41263158 50.8822339 8.41263158 49.8593441 8.41263158 49.8467446 7.38710526 49.8467446 6.62636842L49.8467446 3.31152632 48.255479 3.31152632 48.255479 7.23078947C48.255479 8.62910526 48.8845189 9.66742105 50.3320573 9.66742105 51.1650218 9.66742105 51.8519259 9.28184211 52.3419051 8.68026316L52.3661707 8.68026316zM56.9533088 6.48236842C56.9533088 5.68610526 57.2010982 4.42136842 58.3546491 4.42136842 59.3780055 4.42136842 59.3878051 5.44689474 59.3878051 6.20763158L59.3878051 9.52389474 60.9804706 9.52389474 60.9804706 5.60368421C60.9804706 4.20394737 60.3490975 3.16847368 58.8996926 3.16847368 58.066728 3.16847368 57.3896235 3.44226316 56.8907781 4.15515789L56.8679124 4.15515789 56.8679124 3.312 55.3611099 3.312 55.3611099 9.52389474 56.9528421 9.52389474 56.9528421 6.48236842 56.9533088 6.48236842zM90.2774901 8.68026316L90.3031557 8.68026316 90.3031557 9.52342105 91.8104248 9.52342105 91.8104248 3.31152632 90.2196259 3.31152632 90.2196259 6.34973684C90.2196259 7.14552632 89.9695032 8.41263158 88.8168856 8.41263158 87.7953958 8.41263158 87.7841962 7.38710526 87.7841962 6.62636842L87.7841962 3.31152632 86.1901308 3.31152632 86.1901308 7.23078947C86.1901308 8.62910526 86.8215039 9.66742105 88.2690423 9.66742105 89.1038734 9.66742105 89.7889109 9.28184211 90.2774901 8.68026316zM85.003448 8.136C84.9922484 7.67652632 84.978249 7.20663158 84.978249 6.58042105L84.978249 5.78368421C84.978249 3.951 84.2078152 3.16847368 82.341228 3.16847368 81.6655234 3.16847368 80.8330255 3.348 80.2161184 3.63836842L80.2632498 5.02294737C80.8003602 4.61226316 81.4755981 4.347 82.1536359 4.347 83.0901961 4.347 83.5293107 4.68615789 83.5293107 5.68563158L82.6510814 5.68563158C81.9865764 5.68563158 81.2021431 5.74910526 80.5936357 6.04989474 79.9911947 6.34973684 79.5492801 6.89257895 79.5492801 7.82242105 79.5492801 9.00378947 80.6085684 9.66742105 81.6874558 9.66742105 82.4102917 9.66742105 83.209191 9.28184211 83.5773753 8.59405263L83.6007077 8.59405263C83.6123738 8.78542105 83.6123738 9.19657895 83.670238 9.52342105L85.0762449 9.52342105C85.0393798 9.04073684 85.0151141 8.60684211 85.003448 8.136zM83.1993914 7.93184211C82.9488021 8.26863158 82.5689516 8.48557895 82.0827056 8.48557895 81.51013 8.48557895 81.0705487 8.25678947 81.0705487 7.72531579 81.0705487 6.77273684 82.129837 6.65336842 82.8424066 6.65336842L83.5293107 6.65336842C83.5293107 7.13463158 83.4583804 7.58084211 83.1993914 7.93184211zM77.7083585 6.23036842C77.5389657 5.85663158 77.2795101 5.39810526 76.8273294 5.36163158L76.8273294 5.33747368C77.8870842 5.19252632 78.5375899 4.37257895 78.5375899 3.38210526 78.5375899 1.04352632 76.4143469 1.10273684 74.6326895 1.10273684L72.8370326 1.10273684 72.8370326 9.52342105 74.4996951 9.52342105 74.4996951 6.02573684 75.0330724 6.02573684C75.7344426 6.02573684 75.9500334 6.26636842 76.1889565 6.89257895L77.1843142 9.52342105 79.0387685 9.52342105 77.7083585 6.23036842zM75.0484718 4.69847368L74.5001618 4.69847368 74.5001618 2.43094737 75.0484718 2.43094737C75.8800364 2.43094737 76.8081968 2.51526316 76.8081968 3.52894737 76.8077302 4.57768421 75.8641704 4.69847368 75.0484718 4.69847368z"/>
    </g>
  </g>
</svg>
