<svg xmlns="http://www.w3.org/2000/svg" width="198" height="116" viewBox="0 0 198 116">
  <g fill="#828889" transform="translate(10 33)">
    <path d="M33.8917215,12.4885823 L33.8917215,0 L21.2250041,12.4885823 L10.3551264,12.4885823 L0,22.6846471 L12.7503318,22.6855046 L12.7503318,35.2071006 L25.4745341,22.6812172 L36.2494746,22.6812172 L46.5976331,12.4885823 L33.8917215,12.4885823 Z M31.2900929,6.20055883 L31.2900929,12.495871 L24.8957654,12.495871 L31.2900929,6.20055883 Z M6.28719654,20.1112995 L11.4090168,15.0623587 L18.5911491,15.0623587 L13.465845,20.1112995 L6.28719654,20.1112995 Z M15.3327988,29.065709 L15.3327988,22.6807884 L21.8033374,22.6807884 L15.3327988,29.065709 Z M24.4280471,20.1112995 L17.1657842,20.1112995 L22.2871689,15.0623587 L29.5511738,15.0623587 L24.4280471,20.1112995 Z M35.1855679,20.1112995 L28.111873,20.1112995 L33.2336932,15.0623587 L40.3108721,15.0623587 L35.1855679,20.1112995 Z"/>
    <g transform="translate(24.852 16.568)">
      <g transform="translate(30.888)">
        <path d="M17.5238253,7.78969527 L17.5435594,7.78969527 L17.5435594,8.56383728 L18.93009,8.56383728 L18.93009,2.86084615 L17.4663392,2.86084615 L17.4663392,5.65428107 C17.4663392,6.38319231 17.2376818,7.54527515 16.1789078,7.54527515 C15.240254,7.54527515 15.227813,6.60369231 15.227813,5.9069645 L15.227813,2.86084615 L13.7640622,2.86084615 L13.7640622,6.46060651 C13.7640622,7.7444645 14.3440713,8.6960503 15.6756898,8.6960503 C16.4410273,8.6960503 17.0746615,8.34290237 17.5238253,7.78969527 Z"/>
        <polygon points="59.428 7.348 55.734 7.348 59.35 2.097 59.35 .834 54.284 .834 54.284 2.053 57.725 2.053 54.138 7.302 54.138 8.564 59.428 8.564"/>
        <path d="M41.6671333 6.17226036L45.5530227 6.17226036C45.5530227 4.1777574 44.9652915 2.72689349 42.8794896 2.72689349 41.1325982 2.72689349 40.2660166 4.08860059 40.2660166 5.73995858 40.2660166 7.61225148 41.3488147 8.6960503 43.2085332 8.6960503 43.9957497 8.6960503 44.6053599 8.54209172 45.1386079 8.24330769L45.1386079 7.03512426C44.5950638 7.34782544 43.9820217 7.61225148 43.2703093 7.61225148 42.3655466 7.61225148 41.7314834 7.09122781 41.6671333 6.17226036zM42.9674347 3.81286686C43.7885423 3.81286686 44.1141539 4.43218047 44.157912 5.15326331L41.6671333 5.15326331C41.7314834 4.39086391 42.1493302 3.81286686 42.9674347 3.81286686zM35.5491526 5.77301183C35.5491526 5.04279586 35.7808131 3.8798432 36.8370131 3.8798432 37.7782409 3.8798432 37.7876789 4.82142604 37.7876789 5.51989349L37.7876789 8.56340237 39.2548617 8.56340237 39.2548617 4.96625148C39.2548617 3.67934911 38.6748526 2.72645858 37.34066 2.72645858 36.5796126 2.72645858 35.9442624 3.08221598 35.5718897 3.63455325L35.5491526 3.63455325 35.5491526.257467456 34.0858308.257467456 34.0858308 8.56340237 35.5491526 8.56340237 35.5491526 5.77301183 35.5491526 5.77301183zM67.6302626 5.77301183C67.6302626 5.04279586 67.8597781 3.8798432 68.9194101 3.8798432 69.8589219 3.8798432 69.8700759 4.82142604 69.8700759 5.51989349L69.8700759 8.56340237 71.3333977 8.56340237 71.3333977 4.96625148C71.3333977 3.67934911 70.7555336 2.72645858 69.4191961 2.72645858 68.6585776 2.72645858 68.0339524 2.98175148 67.5757795 3.63455325L67.5547585 3.63455325 67.5547585 2.86041124 66.1682279 2.86041124 66.1682279 8.56340237 67.6302626 8.56340237 67.6302626 5.77301183zM82.6727473 8.6960503C83.4363687 8.6960503 84.0682869 8.34290237 84.5183088 7.78969527L84.5389008 7.78969527 84.5389008 8.56383728 85.9254315 8.56383728 85.9254315 2.86084615 84.4638257 2.86084615 84.4638257 5.65428107C84.4638257 6.38319231 84.2338812 7.54527515 83.1738202 7.54527515 82.2355954 7.54527515 82.2240124 6.60369231 82.2240124 5.9069645L82.2240124 2.86084615 80.7585456 2.86084615 80.7585456 6.46060651C80.7589746 7.74489941 81.3389837 8.6960503 82.6727473 8.6960503zM31.7820965 8.6960503C32.3818396 8.6960503 32.8202784 8.64168639 33.2449892 8.50816864L33.1802101 7.28084911C32.9292446 7.39131657 32.4697848 7.54484024 32.054941 7.54484024 31.029629 7.54484024 30.5367071 6.73721006 30.5367071 5.68515976 30.5367071 4.61005917 31.1175742 3.88027811 32.0219079 3.88027811 32.4697848 3.88027811 32.7550703 3.96856509 33.0163318 4.08860059L33.1463191 2.9169497C32.7439163 2.79430473 32.3166315 2.72689349 31.7267554 2.72689349 29.968281 2.72689349 29.0094642 4.03423669 29.0094642 5.68515976 29.0098932 7.42263018 29.93868 8.6960503 31.7820965 8.6960503zM78.1944077 6.47147929C78.1944077 5.65428107 78.1944077 4.14644379 79.38274 4.14644379 79.6448595 4.14644379 79.907408 4.18906509 80.0382533 4.26908876L80.0382533 2.77125444C79.886387 2.72689349 79.7340917 2.72689349 79.5920924 2.72689349 78.7173597 2.72689349 78.1154716 3.62411538 78.0511215 4.15644675L78.0292424 4.15644675 78.0292424 2.86084615 76.727225 2.86084615 76.727225 8.56383728 78.1944077 8.56383728 78.1944077 6.47147929zM73.057981 6.84767751C73.057981 7.97801183 73.6911862 8.6960503 74.8383344 8.6960503 75.2750572 8.6960503 75.6139678 8.65342899 75.9207034 8.56383728L75.8752293 7.39131657C75.723363 7.49047633 75.4728266 7.54527515 75.2119941 7.54527515 74.652577 7.54527515 74.5230188 7.09122781 74.5230188 6.60369231L74.5230188 3.94638462 75.8224622 3.94638462 75.8224622 2.86128107 74.5230188 2.86128107 74.5230188 1.24515089 73.057981 1.7213787 73.057981 2.86128107 71.9790439 2.86128107 71.9790439 3.94638462 73.057981 3.94638462 73.057981 6.84767751zM2.37151651.834159763L.284427541.834159763.284427541 8.56383728 2.37151651 8.56383728C4.70957096 8.56383728 6.77306488 7.76751479 6.77306488 4.69921598 6.77306488 1.6326568 4.70957096.834159763 2.37151651.834159763zM2.66624007 7.34782544L1.81553145 7.34782544 1.81553145 2.05321598 2.66624007 2.05321598C3.9442335 2.05321598 5.17761085 3.01654438 5.17761085 4.69965089 5.17803985 6.38319231 3.9442335 7.34782544 2.66624007 7.34782544zM20.7880925 6.84767751C20.7880925 7.97801183 21.4217267 8.6960503 22.5667299 8.6960503 23.0030238 8.6960503 23.3432214 8.65342899 23.650386 8.56383728L23.6044829 7.39131657C23.4539036 7.49047633 23.2025091 7.54527515 22.9399606 7.54527515 22.3839756 7.54527515 22.2518433 7.09122781 22.2518433 6.60369231L22.2518433 3.94638462 23.5508578 3.94638462 23.5508578 2.86128107 22.2518433 2.86128107 22.2518433 1.24515089 20.7885215 1.7213787 20.7885215 2.86128107 19.7074395 2.86128107 19.7074395 3.94638462 20.7885215 3.94638462 20.7885215 6.84767751 20.7880925 6.84767751zM26.8816201 6.91465385C26.8816201 7.46829586 26.28917 7.61225148 25.9193713 7.61225148 25.4170113 7.61225148 24.9378174 7.46873077 24.4800736 7.23518343L24.3916994 8.45423964C24.9262344 8.59819527 25.4942315 8.69648521 26.0519326 8.69648521 27.2415518 8.69648521 28.409292 8.1663284 28.409292 6.83810947 28.409292 4.77836982 25.8653172 5.35288757 25.8653172 4.44435799 25.8653172 3.95856213 26.3355021 3.81330178 26.7276088 3.81330178 27.2638599 3.81330178 27.5899005 3.90245858 28.0382063 4.05728698L28.1351605 2.93913018C27.6782747 2.8395355 27.2295398 2.72819822 26.5422805 2.72819822 25.3964193 2.72819822 24.3376453 3.27227219 24.3376453 4.50176627 24.3376453 6.55889645 26.8816201 5.79562722 26.8816201 6.91465385zM8.94681202 6.17226036L12.8365624 6.17226036C12.8365624 4.1777574 12.2466863 2.72689349 10.1587393 2.72689349 8.411848 2.72689349 7.54826936 4.08860059 7.54826936 5.73995858 7.54826936 7.61225148 8.62806441 8.6960503 10.4873539 8.6960503 11.2732834 8.6960503 11.8858966 8.54209172 12.4225766 8.24330769L12.4225766 7.03512426C11.8747426 7.34782544 11.2638454 7.61225148 10.5538491 7.61225148 9.64565435 7.61225148 9.01416515 7.09122781 8.94681202 6.17226036zM10.2471135 3.81286686C11.065218 3.81286686 11.3934037 4.43218047 11.4375908 5.15326331L8.94681202 5.15326331C9.01416515 4.39086391 9.42815093 3.81286686 10.2471135 3.81286686zM94.0189608 8.56383728L95.4818536 8.56383728 95.4818536 4.96668639C95.4818536 3.6906568 95.0888889 2.72689349 93.7027872 2.72689349 93.0155279 2.72689349 92.2832235 3.04959763 91.9438839 3.73632249 91.6298553 3.02828698 91.0682932 2.72689349 90.2853667 2.72689349 89.7371037 2.72689349 89.0717234 2.96131065 88.6122636 3.65977811L88.5925295 3.65977811 88.5925295 2.86084615 87.2257329 2.86084615 87.2257329 8.56383728 88.6881967 8.56383728 88.6881967 5.79562722C88.6881967 5.05323373 88.8113199 3.88027811 89.7825778 3.88027811 90.6242774 3.88027811 90.6242774 4.63310947 90.6242774 5.16500592L90.6242774 8.56383728 92.0858832 8.56383728 92.0858832 5.79562722C92.0858832 5.05323373 92.2085774 3.88027811 93.1789772 3.88027811 94.0189608 3.88027811 94.0189608 4.63310947 94.0189608 5.16500592L94.0189608 8.56383728 94.0189608 8.56383728zM47.7400688 4.44392308C47.7400688 3.95812722 48.2123987 3.81286686 48.6036475 3.81286686 49.1381825 3.81286686 49.4663681 3.90202367 49.9125289 4.05685207L50.0129151 2.93869527C49.5547423 2.83910059 49.1025754 2.72776331 48.4200351 2.72776331 47.2720289 2.72776331 46.2119679 3.27183728 46.2119679 4.50133136 46.2119679 6.55933136 48.7559427 5.79649704 48.7559427 6.91552367 48.7559427 7.46916568 48.1652086 7.6131213 47.7971259 7.6131213 47.292621 7.6131213 46.811711 7.46960059 46.3522512 7.23605325L46.264306 8.45510947C46.800986 8.59906509 47.3681251 8.69735503 47.9266842 8.69735503 49.1175904 8.69735503 50.2853307 8.16719822 50.2853307 6.83897929 50.2844727 4.7775 47.7400688 5.35245266 47.7400688 4.44392308zM61.3166576 6.17226036L65.204692 6.17226036C65.204692 4.1777574 64.6165319 2.72689349 62.5290139 2.72689349 60.7816936 2.72689349 59.916828 4.08860059 59.916828 5.73995858 59.916828 7.61225148 61.000055 8.6960503 62.8580576 8.6960503 63.6431291 8.6960503 64.2531682 8.54209172 64.7915642 8.24330769L64.7915642 7.03512426C64.2420142 7.34782544 63.631546 7.61225148 62.9232657 7.61225148 62.016787 7.61225148 61.3827238 7.09122781 61.3166576 6.17226036zM62.6182461 3.81286686C63.4359217 3.81286686 63.7632493 4.43218047 63.8061494 5.15326331L61.3166576 5.15326331C61.3827238 4.39086391 61.7975676 3.81286686 62.6182461 3.81286686z"/>
      </g>
      <g transform="translate(0 13.482)">
        <path d="M2.34105745,0.172224852 L0.256971489,0.172224852 L0.256971489,7.89581361 L2.34105745,7.89581361 C4.6761089,7.89581361 6.73960282,7.09905621 6.73960282,4.03423669 C6.73917382,0.970286982 4.67567989,0.172224852 2.34105745,0.172224852 Z M2.63535201,6.67849704 L1.7855014,6.67849704 L1.7855014,1.38997633 L2.63535201,1.38997633 C3.91162944,1.38997633 5.14586479,2.35286982 5.14586479,4.03423669 C5.14586479,5.71647337 3.91162944,6.67849704 2.63535201,6.67849704 Z"/>
        <polygon points="8.357 .172 9.886 .172 9.886 6.678 12.843 6.678 12.843 7.896 8.357 7.896"/>
        <path d="M18.6881335,4.87492012 C18.5358383,4.53307988 18.2951688,4.11165089 17.879896,4.07859763 L17.879896,4.05641716 C18.8511539,3.92376923 19.452613,3.17137278 19.452613,2.26414793 C19.452613,0.117426036 17.4976563,0.172224852 15.8601602,0.172224852 L14.212368,0.172224852 L14.212368,7.89581361 L15.7413269,7.89581361 L15.7413269,4.68790828 L16.2321039,4.68790828 C16.8756051,4.68790828 17.0716585,4.90840828 17.2908779,5.48336095 L18.2076526,7.89581361 L19.9099279,7.89581361 L18.6881335,4.87492012 Z M16.2441159,3.4701568 L15.7413269,3.4701568 L15.7413269,1.39041124 L16.2441159,1.39041124 C17.0068794,1.39041124 17.858875,1.46869527 17.858875,2.39766568 C17.858875,3.35925444 16.9961543,3.4701568 16.2441159,3.4701568 Z"/>
      </g>
    </g>
    <g transform="translate(54.882 28.994)">
      <rect width="1.276" height="1.309" x="7.841" y=".73"/>
      <path d="M3.95872036 3.10251479L2.67198502 3.10251479 2.67198502 2.37869822C2.67198502 1.9260355 2.82580563 1.48668639 3.31967349 1.48668639 3.64027713 1.48668639 3.82434337 1.60872781 3.95872036 1.68994083L4.07970286.43535503C3.7949619.367899408 3.37627602.309763314 3.00123026.309763314 1.83461326.309763314 1.19772679 1.12411243 1.19772679 2.28949704L1.19772679 3.10251479.108020093 3.10251479.108020093 4.20931953 1.19772679 4.20931953 1.19772679 8.92233728 2.67198502 8.92233728 2.67198502 4.20931953 3.95872036 4.20931953 3.95872036 3.10251479zM8.46920736 5.9489645C8.46920736 6.69452663 8.23674812 7.8816568 7.16994168 7.8816568 6.22454983 7.8816568 6.21245158 6.92085799 6.21245158 6.20813609L6.21245158 3.10251479 4.74078583 3.10251479 4.74078583 6.77440828C4.74078583 8.08446746 5.32193393 9.05724852 6.66440765 9.05724852 7.43696735 9.05724852 8.07298966 8.69600592 8.52451364 8.13239645L8.5474139 8.13239645 8.5474139 8.92233728 9.9430335 8.92233728 9.9430335 3.10251479 8.46920736 3.10251479 8.46920736 5.9489645 8.46920736 5.9489645zM37.4311226 7.72366864C37.2738453 7.82662722 37.0232387 7.8816568 36.7588055 7.8816568 36.1983973 7.8816568 36.0657486 7.41745562 36.0657486 6.92085799L36.0657486 4.20931953 37.3740879 4.20931953 37.3740879 3.10251479 36.0657486 3.10251479 36.0657486 1.45207101 34.5901941 1.93801775 34.5901941 3.10251479 33.5022157 3.10251479 33.5022157 4.20931953 34.5901941 4.20931953 34.5901941 7.17115385C34.5901941 8.32233728 35.2296731 9.05724852 36.3841918 9.05724852 36.82621 9.05724852 37.1658252 9.01153846 37.4738985 8.92233728L37.4311226 7.72366864zM27.2024839 8.13239645L27.2024839 8.92233728 28.6002639 8.92233728 28.6002639 3.10251479 27.1242774 3.10251479 27.1242774 5.9489645C27.1242774 6.69452663 26.8926823 7.8816568 25.8271721 7.8816568 24.8835086 7.8816568 24.8701141 6.92085799 24.8701141 6.20813609L24.8701141 3.10251479 23.3971521 3.10251479 23.3971521 6.77440828C23.3971521 8.08446746 23.9808927 9.05724852 25.3220702 9.05724852 26.0911732 9.05724852 26.729788 8.69600592 27.181312 8.13239645L27.2024839 8.13239645zM33.2745094 3.10251479L31.9851816 3.10251479 31.9851816 2.37869822C31.9851816 1.9260355 32.1402984 1.48668639 32.6345984 1.48668639 32.9560662 1.48668639 33.1405645 1.60872781 33.2745094 1.68994083L33.3950598.43535503C33.105998.367899408 32.6886084.309763314 32.3148589.309763314 31.1512664.309763314 30.5122196 1.12411243 30.5122196 2.28949704L30.5122196 3.10251479 29.4246733 3.10251479 29.4246733 4.20931953 30.5126517 4.20931953 30.5126517 8.92233728 31.9851816 8.92233728 31.9851816 4.20931953 33.2745094 4.20931953 33.2745094 3.10251479zM113.887744 6.78683432C113.887744 5.9489645 113.887744 4.41213018 115.088496 4.41213018 115.350336 4.41213018 115.614337 4.45739645 115.746986 4.53905325L115.746986 3.00976331C115.593165 2.96804734 115.440209 2.96804734 115.299351 2.96804734 114.418339 2.96804734 113.811698 3.88269231 113.743429 4.42233728L113.723986 4.42233728 113.723986 3.10207101 112.413918 3.10207101 112.413918 8.92189349 113.887312 8.92189349 113.887312 6.78683432 113.887744 6.78683432z"/>
      <rect width="1.277" height="1.309" x="5.576" y=".73"/>
      <polygon points="18.392 1.033 18.392 8.922 22.915 8.922 22.915 7.679 19.934 7.679 19.934 1.033"/>
      <path d="M12.6271168,4.42278107 L12.6059448,4.42278107 L12.6059448,3.10251479 L11.2963092,3.10251479 L11.2963092,8.92233728 L12.7727279,8.92233728 L12.7727279,6.78683432 C12.7727279,5.9489645 12.7727279,4.41213018 13.9695905,4.41213018 C14.2361841,4.41213018 14.4997531,4.45739645 14.6298093,4.53905325 L14.6298093,3.00976331 C14.4759887,2.96804734 14.3226001,2.96804734 14.1804457,2.96804734 C13.2981376,2.96804734 12.6923609,3.88269231 12.6271168,4.42278107 Z"/>
      <rect width="2.891" height="1.244" x="37.871" y="5.261"/>
      <path d="M104.515489 7.62248521C104.503391 7.19201183 104.493885 6.75177515 104.493885 6.16508876L104.493885 5.41863905C104.493885 3.70162722 103.776631 2.96849112 102.052631 2.96849112 101.422226 2.96849112 100.654851 3.13668639 100.082344 3.40872781L100.124688 4.70636095C100.620284 4.32159763 101.248097 4.07307692 101.875478 4.07307692 102.745688 4.07307692 103.151843 4.3908284 103.151843 5.32721893L102.337804 5.32721893C101.720793 5.32721893 100.99317 5.38668639 100.43449 5.66849112 99.8732174 5.94940828 99.4674939 6.45798817 99.4674939 7.32914201 99.4674939 8.43594675 100.447452 9.05769231 101.450743 9.05769231 102.120035 9.05769231 102.855868 8.6964497 103.193323 8.05207101L103.217519 8.05207101C103.226161 8.23136095 103.226161 8.61656805 103.28406 8.92278107L104.585054 8.92278107C104.546599 8.47011834 104.526291 8.06360947 104.515489 7.62248521zM102.844634 7.43121302C102.610879 7.74674556 102.259597 7.95 101.809802 7.95 101.280935 7.95 100.876508 7.73565089 100.876508 7.23772189 100.876508 6.34526627 101.854738 6.23343195 102.514093 6.23343195L103.151843 6.23343195C103.151843 6.68431953 103.084871 7.10236686 102.844634 7.43121302zM96.4511409 8.92233728L97.9279916 8.92233728 97.9279916 4.20931953 99.2142948 4.20931953 99.2142948 3.10251479 97.9279916 3.10251479 97.9279916 2.37869822C97.9279916 1.9260355 98.0800839 1.48668639 98.575248 1.48668639 98.8958516 1.48668639 99.0816462 1.60872781 99.2142948 1.68994083L99.333549.43535503C99.048376.367899408 98.6296901.309763314 98.2555085.309763314 97.0906198.309763314 96.4511409 1.12411243 96.4511409 2.28949704L96.4511409 3.10251479 95.3631625 3.10251479 95.3631625 4.20931953 96.4511409 4.20931953 96.4511409 8.92233728zM92.8860457 2.96804734C92.193853 2.96804734 91.4571559 3.29378698 91.1153804 3.99363905 90.7956409 3.27248521 90.2356647 2.96804734 89.4453897 2.96804734 88.8936231 2.96804734 88.221306 3.20281065 87.7620046 3.91464497L87.7412647 3.91464497 87.7412647 3.10251479 86.3646567 3.10251479 86.3646567 8.92233728 87.8363224 8.92233728 87.8363224 6.09630178C87.8363224 5.33831361 87.9568728 4.14230769 88.9351028 4.14230769 89.7863011 4.14230769 89.7863011 4.9091716 89.7863011 5.45192308L89.7863011 8.92233728 91.2575348 8.92233728 91.2575348 6.09630178C91.2575348 5.33831361 91.3815419 4.14230769 92.3589077 4.14230769 93.204921 4.14230769 93.204921 4.9091716 93.204921 5.45192308L93.204921 8.92233728 94.6804755 8.92233728 94.6804755 5.24955621C94.6809076 3.95014793 94.2838257 2.96804734 92.8860457 2.96804734zM109.531942 5.81538462L109.531942 8.92233728 111.007929 8.92233728 111.007929 5.24955621C111.007929 3.93816568 110.424188 2.96804734 109.08085 2.96804734 108.312611 2.96804734 107.674429 3.32840237 107.300247 3.89245562L107.278211 3.89245562 107.278211.445118343 105.80352.445118343 105.80352 8.92233728 107.278211 8.92233728 107.278211 6.07278107C107.278211 5.32677515 107.509374 4.14186391 108.576612 4.14186391 109.522868 4.14230769 109.531942 5.10310651 109.531942 5.81538462zM120.104517 8.92233728L120.058716 7.72366864C119.905328 7.82662722 119.653857 7.8816568 119.388559 7.8816568 118.828151 7.8816568 118.695935 7.41745562 118.695935 6.92085799L118.695935 4.20931953 120.004706 4.20931953 120.004706 3.10251479 118.695935 3.10251479 118.695935 1.45207101 117.222541 1.93801775 117.222541 3.10251479 116.132834 3.10251479 116.132834 4.20931953 117.222541 4.20931953 117.222541 7.17115385C117.222541 8.32233728 117.860291 9.05724852 119.013514 9.05724852 119.45726 9.05724852 119.796011 9.01198225 120.104517 8.92233728zM61.5632434.44556213L61.5632434 3.77840237 61.5437998 3.77840237C61.1052382 3.225 60.5858776 2.96849112 59.8500447 2.96849112 58.1113533 2.96849112 57.4748989 4.3908284 57.4748989 5.99511834 57.4748989 7.58920118 58.1113533 9.05724852 59.8500447 9.05724852 60.5435337 9.05724852 61.1488783 8.83180473 61.587872 8.26597633L61.609908 8.26597633 61.609908 8.92233728 63.0418224 8.92233728 63.0418224.44556213 61.5632434.44556213zM60.2596569 7.88210059C59.2905006 7.88210059 59.0122409 6.79704142 59.0122409 5.99511834 59.0122409 5.21449704 59.2796986 4.14230769 60.2371887 4.14230769 61.1817164 4.14230769 61.555898 5.18121302 61.555898 5.99511834 61.555898 6.82011834 61.2348623 7.88210059 60.2596569 7.88210059zM48.4871951 8.13239645L48.4871951 8.92233728 49.8832468 8.92233728 49.8832468 3.10251479 48.4085565 3.10251479 48.4085565 5.9489645C48.4085565 6.69452663 48.1778256 7.8816568 47.1131795 7.8816568 46.1660593 7.8816568 46.1543932 6.92085799 46.1543932 6.20813609L46.1543932 3.10251479 44.6809991 3.10251479 44.6809991 6.77440828C44.6809991 8.08446746 45.2634434 9.05724852 46.6037568 9.05724852 47.3750202 9.05724852 48.0110425 8.69600592 48.4647269 8.13239645L48.4871951 8.13239645zM52.7345451 6.07322485C52.7345451 5.32721893 52.9639798 4.14230769 54.0320825 4.14230769 54.9796348 4.14230769 54.9887084 5.10310651 54.9887084 5.8158284L54.9887084 8.92278107 56.4633987 8.92278107 56.4633987 5.25C56.4633987 3.93860947 55.878794 2.96849112 54.5367524 2.96849112 53.7654889 2.96849112 53.1385403 3.225 52.6766464 3.89289941L52.6554744 3.89289941 52.6554744 3.10295858 51.2602869 3.10295858 51.2602869 8.92278107 52.7341131 8.92278107 52.7341131 6.07322485 52.7345451 6.07322485zM83.5902686 8.13239645L83.614033 8.13239645 83.614033 8.92233728 85.0096526 8.92233728 85.0096526 3.10251479 83.5366906 3.10251479 83.5366906 5.9489645C83.5366906 6.69452663 83.3050956 7.8816568 82.2378571 7.8816568 81.2920331 7.8816568 81.2816632 6.92085799 81.2816632 6.20813609L81.2816632 3.10251479 79.8056766 3.10251479 79.8056766 6.77440828C79.8056766 8.08446746 80.3902814 9.05724852 81.7305947 9.05724852 82.5035865 9.05724852 83.1378805 8.69600592 83.5902686 8.13239645zM78.7068963 7.62248521C78.6965263 7.19201183 78.6835639 6.75177515 78.6835639 6.16508876L78.6835639 5.41863905C78.6835639 3.70162722 77.9701992 2.96849112 76.2418777 2.96849112 75.6162254 2.96849112 74.845394 3.13668639 74.2741837 3.40872781L74.3178238 4.70591716C74.8151484 4.32115385 75.4403687 4.07263314 76.0681814 4.07263314 76.9353667 4.07263314 77.3419544 4.39038462 77.3419544 5.32677515L76.5287791 5.32677515C75.9134967 5.32677515 75.1871696 5.3862426 74.6237368 5.66804734 74.065921 5.9489645 73.6567409 6.45754438 73.6567409 7.32869822 73.6567409 8.43550296 74.6375633 9.05724852 75.6365331 9.05724852 76.3058256 9.05724852 77.0455472 8.69600592 77.3864586 8.05162722L77.4080627 8.05162722C77.4188647 8.23091716 77.4188647 8.61612426 77.4724426 8.92233728L78.7743008 8.92233728C78.7401664 8.47011834 78.7176983 8.06360947 78.7068963 7.62248521zM77.0364735 7.43121302C76.8044464 7.74674556 76.452733 7.95 76.0025052 7.95 75.4723426 7.95 75.0653229 7.73565089 75.0653229 7.23772189 75.0653229 6.34526627 76.0461453 6.23343195 76.7059321 6.23343195L77.3419544 6.23343195C77.3419544 6.68431953 77.2762781 7.10236686 77.0364735 7.43121302zM71.9521838 5.83713018C71.7953386 5.48698225 71.555102 5.05739645 71.1364161 5.02322485L71.1364161 5.00059172C72.1176706 4.8647929 72.7199906 4.09659763 72.7199906 3.16863905 72.7199906.977662722 70.7540249 1.03313609 69.1043421 1.03313609L67.4416968 1.03313609 67.4416968 8.92233728 68.9811992 8.92233728 68.9811992 5.6454142 69.475067 5.6454142C70.1244838 5.6454142 70.324105 5.87085799 70.5453301 6.45754438L71.4669576 8.92233728 73.184045 8.92233728 71.9521838 5.83713018zM69.4893257 4.40192308L68.9816313 4.40192308 68.9816313 2.27751479 69.4893257 2.27751479C70.2592929 2.27751479 71.1187008 2.35650888 71.1187008 3.30621302 71.1182687 4.2887574 70.2446022 4.40192308 69.4893257 4.40192308z"/>
    </g>
  </g>
</svg>
