<svg xmlns="http://www.w3.org/2000/svg" width="198" height="116" viewBox="0 0 198 116">
  <g fill="none" fill-rule="evenodd">
    <g transform="translate(64 15)">
      <path fill="#828889" d="M0.0672061856,0.25850743 L68.6301959,0.25850743 L68.6301959,81.7982347 L0.0672061856,81.7982347 L0.0672061856,0.25850743 Z M57.0356495,53.3994673 C61.0367423,48.6802331 64.4084639,41.4849693 64.4084639,34.0261458 C64.4084639,18.1085718 51.6929691,5.2046724 36.0081443,5.2046724 C35.5461546,5.2046724 35.0871237,5.21561897 34.6306289,5.23793313 C34.6306289,5.23793313 18.0019588,4.89985256 17.7978041,19.8318143 C17.7978041,19.8318143 17.2876289,28.872417 27.0777526,32.528992 L39.2344639,35.8811681 C39.2344639,35.8811681 58.690866,39.3348106 57.0356495,53.3994673 Z M26.8313299,62.8476191 C33.7167938,47.6739908 16.9883711,35.0538602 16.9883711,35.0538602 L15.1526701,33.1238959 C8.4223299,24.7943991 13.346134,14.0448687 13.346134,14.0448687 C8.25875258,19.2701711 5.09752577,26.581216 5.09752577,34.6728354 C5.09752577,48.5766617 15.8429072,60.6869349 26.8313299,62.8476191 Z M4.50323711,68.6038302 L4.50323711,68.6038302 L4.50323711,76.9973223 L6.08913402,76.9973223 L6.08913402,73.4607385 L9.54496907,73.4607385 L9.54496907,72.0696823 L6.08913402,72.0696823 L6.08913402,70.0656181 L10.0420412,70.0656181 L10.0420412,68.6038302 L4.50323711,68.6038302 Z M12.4576598,68.6038302 L9.64091753,76.9973223 L11.2978247,76.9973223 L11.7830619,75.3704937 L14.9785258,75.3704937 L15.4637629,76.9973223 L17.1206701,76.9973223 L14.3039278,68.6038302 L12.4576598,68.6038302 Z M17.9609588,68.6038302 L17.9609588,76.9973223 L19.5468557,76.9973223 L19.5468557,68.6038302 L17.9609588,68.6038302 Z M30.2457423,70.0651971 L30.2457423,70.0651971 L30.2457423,76.9969012 L31.8316392,76.9969012 L31.8316392,70.0651971 L34.1394742,70.0651971 L34.1394742,68.6034092 L27.9379072,68.6034092 L27.9379072,70.0651971 L30.2457423,70.0651971 Z M58.2352165,68.6038302 L58.2352165,68.6038302 L58.2352165,76.9973223 L64.5077938,76.9973223 L64.5077938,75.5355343 L59.8211134,75.5355343 L59.8211134,73.3664296 L63.8450309,73.3664296 L63.8450309,71.9753734 L59.8211134,71.9753734 L59.8211134,70.0656181 L64.1996598,70.0656181 L64.1996598,68.6038302 L58.2352165,68.6038302 Z M44.4828866,68.6038302 L41.6661443,76.9973223 L43.3230515,76.9973223 L43.8082887,75.3704937 L47.0037526,75.3704937 L47.4889897,76.9973223 L49.1458969,76.9973223 L46.3291546,68.6038302 L44.4828866,68.6038302 Z M21.1682577,68.6038302 L21.1682577,68.6038302 L21.1682577,76.9973223 L22.7541546,76.9973223 L22.7541546,73.9087058 L24.2690412,73.9087058 L25.9022784,76.9973223 L27.7367113,76.9973223 L25.8549381,73.6139905 C26.2573299,73.4607385 27.5236804,73.0245599 27.5236804,71.1383819 C27.5236804,69.6648053 26.4703608,68.6038302 24.683268,68.6038302 L21.1682577,68.6038302 Z M34.9915979,68.6038302 L34.9915979,76.9973223 L36.5774948,76.9973223 L36.5774948,73.9087058 L38.0923814,73.9087058 L39.7251959,76.9973223 L41.5600515,76.9973223 L39.6782784,73.6139905 C40.0806701,73.4607385 41.3465979,73.0245599 41.3465979,71.1383819 C41.3465979,69.6648053 40.293701,68.6038302 38.5061856,68.6038302 L34.9915979,68.6038302 Z M49.9033402,68.6038302 L49.9033402,68.6038302 L49.9033402,76.9973223 L53.1575567,76.9973223 C55.6670103,76.9973223 57.0043711,75.5355343 57.0043711,72.8005762 C57.0043711,70.3956993 55.7735258,68.6038302 52.8621031,68.6038302 L49.9033402,68.6038302 Z"/>
      <ellipse cx="39.234" cy="24.287" fill="#828889" rx="7.547" ry="7.517"/>
      <ellipse cx="77.666" cy="4.409" stroke="#828889" rx="4.014" ry="3.998"/>
      <polygon fill="#828889" points="45.418 70.136 45.394 70.136 44.234 73.979 46.578 73.979"/>
      <path fill="#828889" d="M51.4892371 75.5355343L52.9331134 75.5355343C54.4949175 75.5355343 55.3474639 74.9692599 55.3474639 72.8005762 55.3474639 71.1501705 54.6255258 70.0656181 52.8976082 70.0656181L51.4892371 70.0656181 51.4892371 75.5355343 51.4892371 75.5355343zM36.5774948 72.5176495L38.3054124 72.5176495C39.1097732 72.5176495 39.6896907 72.046105 39.6896907 71.256268 39.6896907 70.4900082 39.1693711 69.9948865 38.0682887 69.9948865L36.5774948 69.9948865 36.5774948 72.5176495 36.5774948 72.5176495zM22.7541546 72.5176495L24.4820722 72.5176495C25.2868557 72.5176495 25.8667732 72.046105 25.8667732 71.256268 25.8667732 70.4900082 25.3460309 69.9948865 24.2453711 69.9948865L22.7541546 69.9948865 22.7541546 72.5176495 22.7541546 72.5176495z"/>
      <polygon fill="#828889" points="13.393 70.136 13.369 70.136 12.21 73.979 14.553 73.979"/>
      <path fill="#828889" d="M78.2140515,1.9497523 C78.6739278,1.9497523 79.0332062,2.06216514 79.2923093,2.28656979 C79.5514124,2.51139548 79.6815979,2.81874144 79.6815979,3.20944974 C79.6815979,3.50163892 79.6152371,3.75762022 79.4820928,3.97739364 C79.3489485,4.19716706 79.1359175,4.34789289 78.8425773,4.42872909 L78.8425773,4.44220179 C78.9824845,4.46914719 79.0966082,4.51419653 79.1841031,4.57692879 C79.2724433,4.63966105 79.3421856,4.71502396 79.3937526,4.80259651 C79.4457423,4.89016906 79.4842062,4.98784613 79.5087216,5.09562773 C79.5336598,5.20340933 79.5526804,5.31582217 79.5662062,5.43244523 C79.5750825,5.54906829 79.5818454,5.66821748 79.5869175,5.78947178 C79.5911443,5.91072608 79.6025567,6.02987527 79.620732,6.14649833 C79.6384845,6.26312139 79.6646907,6.37469219 79.6985052,6.47994765 C79.7323196,6.58562414 79.7826186,6.67866998 79.8502474,6.75950618 L79.1338041,6.75950618 C79.0885773,6.71024662 79.0577216,6.64288312 79.0420825,6.55741568 C79.0264433,6.47194824 79.016299,6.3767973 79.0120722,6.2711208 C79.0074227,6.16586534 79.0031959,6.05218943 78.9985464,5.93093513 C78.9938969,5.80968083 78.9803711,5.69053164 78.9579691,5.57390858 C78.9397938,5.45728552 78.9173918,5.34571473 78.8903402,5.24045926 C78.8632887,5.13520379 78.8201753,5.043 78.7614227,4.96426891 C78.7026701,4.88553782 78.6265876,4.82280556 78.5319072,4.77565111 C78.4368041,4.72849666 78.3108454,4.70491944 78.1531856,4.70491944 L76.5841959,4.70491944 L76.5841959,6.75950618 L75.941299,6.75950618 L75.941299,1.9497523 L78.2140515,1.9497523 L78.2140515,1.9497523 Z M78.3488866,4.13190867 C78.4841443,4.10959451 78.6029175,4.06580823 78.7043608,4.00054984 C78.8053814,3.93529145 78.8869588,3.8477189 78.9474021,3.73783219 C79.0078454,3.62794548 79.038701,3.48521907 79.038701,3.31007397 C79.038701,3.06756537 78.9710722,2.87010611 78.8362371,2.71727517 C78.7009794,2.56486525 78.4820309,2.48823927 78.1802371,2.48823927 L76.5841959,2.48823927 L76.5841959,4.16559042 L77.9232474,4.16559042 C78.0720309,4.16601144 78.2140515,4.15464385 78.3488866,4.13190867 L78.3488866,4.13190867 Z"/>
    </g>
    <rect width="198" height="116"/>
  </g>
</svg>
