<svg xmlns="http://www.w3.org/2000/svg" width="198" height="116" viewBox="0 0 198 116">
  <g fill="none" fill-rule="evenodd">
    <g transform="translate(13 32)">
      <path fill="#828889" d="M149.613706 35.9150871L155.091501 35.9150871 155.091501 37.2764349 151.222375 37.2764349 151.222375 39.8463262 154.52292 39.8463262 154.52292 41.207674 151.222375 41.207674 151.222375 45 149.613706 45 149.613706 35.9150871zM156.686302 35.9150871L158.294971 35.9150871 158.294971 45 156.686302 45 156.686302 35.9150871zM162.427587 37.2764349L159.806566 37.2764349 159.806566 35.9150871 166.657277 35.9150871 166.657277 37.2764349 164.036256 37.2764349 164.036256 45 162.427587 45 162.427587 37.2764349zM0 27.2477855C6.43046536 23.9285936 15.8474685 18.557781 27.0227351 10.7070779L27.0227351 8.07175249C17.1859348 14.5305381 7.18399473 19.7182935 0 23.151462L0 27.2477855M0 19.3832676C7.15651371 16.4543605 17.1618008 11.9366639 27.0227351 6.04431632L27.0227351 4.74219783C17.753615 9.36005629 8.12328165 12.2475194 0 14.0469953L0 19.3832676M27.0227351 27.2650521L27.0227351 14.0090031C20.8708567 19.2140252 14.7774706 23.721359 9.661253 27.2650521L27.0227351 27.2650521M6.20683333 27.2650521C11.0650677 24.3706923 16.9623027 20.5852172 22.838927 16.1711415 24.2082143 15.1418792 25.6051658 14.0815356 27.0227351 12.9831928L27.0227351 11.3391445C18.3316816 17.8842773 9.45478603 23.3379781 2.51847274 27.2650521L6.20683333 27.2650521M0 12.119721C7.90651987 10.7208926 17.5747206 8.21336554 27.0227351 3.70603174L27.0227351 2.2312189C17.5059335 6.51750336 7.96843671 8.3377049 0 8.98703819L0 12.119721M0 0L0 7.59512062C.58829097 7.56058033 1.19039996 7.51912916 1.8097797 7.47078125 8.37791789 6.96305393 17.3442184 5.79563759 27.0227351 1.5957003L27.0227351 0 0 0M36.1231711 27.2477855L39.7530464 27.2477855 39.7530464 19.2830987 45.8773451 19.2830987 45.8773451 16.4163683 39.7530464 16.4163683 39.7530464 11.9401158 46.187042 11.9401158 46.187042 9.07338537 36.1231711 9.07338537 36.1231711 27.2477855 36.1231711 27.2477855zM48.6780338 27.2477855L52.1530571 27.2477855 52.1530571 22.3259824C52.1530571 20.4021671 52.1530571 16.8619188 54.9812268 16.8619188 55.6006065 16.8619188 56.2233333 16.9586288 56.5364619 17.1451379L56.5364619 13.6325261C56.1717184 13.5289123 55.8104135 13.5289123 55.469811 13.5289123 53.3986023 13.5289123 51.9707312 15.6392437 51.8158862 16.8860963L51.7642713 16.8860963 51.7642713 13.8397607 48.6780338 13.8397607 48.6780338 27.2477855 48.6780338 27.2477855zM59.1306835 17.5388815C60.2970411 16.6477804 61.7765202 16.0813424 63.2560063 16.0813424 65.3031656 16.0813424 66.2664949 16.810112 66.2664949 18.9722503L64.3431763 18.9722503C62.8912628 18.9722503 61.1778428 19.0965896 59.8600719 19.7493748 58.5319991 20.4021671 57.5755401 21.5764873 57.5755401 23.579746 57.5755401 26.1321761 59.8841213 27.5620929 62.2409705 27.5620929 63.8236795 27.5620929 65.5612405 26.7297025 66.3697249 25.2445268L66.4213398 25.2445268C66.4454808 25.6589961 66.4454808 26.5466453 66.5761848 27.2477855L69.6349483 27.2477855C69.5557678 26.2081604 69.5041457 25.2721562 69.4801034 24.2567086 69.4525308 23.2688975 69.4284884 22.2499981 69.4284884 20.8926137L69.4284884 19.176033C69.4284884 15.2213225 67.7425424 13.5289123 63.6688346 13.5289123 62.1893555 13.5289123 60.3761371 13.919204 59.0274536 14.5409009L59.1306835 17.5388815 59.1306835 17.5388815zM60.8957185 23.3725113C60.8957185 21.3105419 63.2043914 21.0549523 64.7595348 21.0549523L66.2664949 21.0549523C66.2664949 22.0945703 66.1083029 23.058211 65.5405381 23.818069 64.9934757 24.5364758 64.164289 25.0131147 63.1011614 25.0131147 61.8556232 25.0131147 60.8957185 24.5157572 60.8957185 23.3725113L60.8957185 23.3725113zM84.6051384 13.8397607L81.1265918 13.8397607 81.1265918 20.4021671C81.1265918 22.1187478 80.582961 24.857687 78.0679198 24.857687 75.8349114 24.857687 75.810862 22.6437417 75.810862 20.9962345L75.810862 13.8397607 72.3358386 13.8397607 72.3358386 22.3052639C72.3358386 25.3239631 73.7120948 27.5620929 76.870558 27.5620929 78.687208 27.5620929 80.1941751 26.7297025 81.2608259 25.427584L81.3090023 25.427584 81.3090023 27.2477855 84.6051384 27.2477855 84.6051384 13.8397607 84.6051384 13.8397607zM88.1868303 27.2477855L91.6584221 27.2477855 91.6584221 20.6853861C91.6584221 18.9722503 92.2054916 16.2333111 94.7170941 16.2333111 96.9535411 16.2333111 96.9741519 18.4507153 96.9741519 20.0913116L96.9741519 27.2477855 100.452614 27.2477855 100.452614 18.7857412C100.452614 15.7704869 99.0763578 13.5289123 95.9178945 13.5289123 94.1012375 13.5289123 92.62519 14.1264387 91.5344968 15.6599622L91.4794432 15.6599622 91.4794432 13.8397607 88.1868303 13.8397607 88.1868303 27.2477855 88.1868303 27.2477855zM104.030867 27.2477855L107.512852 27.2477855 107.512852 20.6853861C107.512852 18.9722503 108.05296 16.2333111 110.574963 16.2333111 112.804533 16.2333111 112.832014 18.4507153 112.832014 20.0913116L112.832014 27.2477855 116.296735 27.2477855 116.296735 18.7857412C116.296735 15.7704869 114.934227 13.5289123 111.758584 13.5289123 109.945366 13.5289123 108.448708 14.3613027 107.567906 15.6599622L107.512852 15.6599622 107.512852 7.72291189 104.030867 7.72291189 104.030867 27.2477855 104.030867 27.2477855zM118.51248 20.6404831C118.51248 24.4881208 121.075789 27.5620929 125.479798 27.5620929 129.925119 27.5620929 132.495207 24.4881208 132.495207 20.6404831 132.495207 16.2091336 129.453714 13.5289123 125.479798 13.5289123 121.550633 13.5289123 118.51248 16.2091336 118.51248 20.6404831L118.51248 20.6404831zM122.142355 20.215651C122.142355 18.2123923 123.222747 16.2333111 125.479798 16.2333111 127.76786 16.2333111 128.858468 18.1605854 128.858468 20.215651 128.858468 22.4606846 128.156646 24.857687 125.479798 24.857687 122.837393 24.857687 122.142355 22.4365071 122.142355 20.215651L122.142355 20.215651zM135.959928 27.2477855L139.441914 27.2477855 139.441914 16.3921908 142.469673 16.3921908 142.469673 13.8397607 139.441914 13.8397607 139.441914 12.1715279C139.441914 11.1319099 139.806573 10.1164623 140.969492 10.1164623 141.719582 10.1164623 142.170285 10.4031333 142.469673 10.5827385L142.765531 7.69528249C142.080887 7.53985475 141.103726 7.40515259 140.222924 7.40515259 137.470419 7.40515259 135.959928 9.28407191 135.959928 11.9642933L135.959928 13.8397607 133.396711 13.8397607 133.396711 16.3921908 135.959928 16.3921908 135.959928 27.2477855 135.959928 27.2477855zM147.069748 19.2312918C147.224593 17.4318159 148.205186 16.0813424 150.152554 16.0813424 152.103445 16.0813424 152.884448 17.5388815 152.984247 19.2312918L147.069748 19.2312918 147.069748 19.2312918zM155.316955 23.6591893C154.019802 24.384507 152.56445 25.0131147 150.878511 25.0131147 148.734992 25.0131147 147.224593 23.7904325 147.069748 21.6213904L156.294116 21.6213904C156.294116 16.9344513 154.897165 13.5289123 149.942655 13.5289123 145.79329 13.5289123 143.746131 16.7306757 143.746131 20.6093947 143.746131 25.0131147 146.312787 27.5620929 150.727189 27.5620929 152.595454 27.5620929 154.040504 27.2028824 155.316955 26.4982903L155.316955 23.6591893 155.316955 23.6591893zM158.798855 27.2477855L162.263577 27.2477855 162.263577 22.3259824C162.263577 20.4021671 162.263577 16.8619188 165.09527 16.8619188 165.707688 16.8619188 166.337285 16.9586288 166.657277 17.1451379L166.657277 13.6325261C166.282231 13.5289123 165.921018 13.5289123 165.590717 13.5289123 163.505684 13.5289123 162.088121 15.6392437 161.933276 16.8860963L161.878223 16.8860963 161.878223 13.8397607 158.798855 13.8397607 158.798855 27.2477855 158.798855 27.2477855z"/>
      <path fill="#FFFFFF" d="M27.0185918,1.59155518 C17.3400765,5.7914924 8.37378165,6.96374007 1.80564346,7.47146739 C1.18626364,7.5198153 0.58829097,7.56955671 0,7.60409699 L0,8.99670778 C7.96843671,8.34737448 17.5017903,6.52233462 27.0185918,2.23259824 L27.0185918,1.59155518 L27.0185918,1.59155518 Z M27.0185918,3.71362876 C17.5705788,8.22441446 7.90651987,10.7215858 0,12.1135033 L0,14.0366325 C8.12328165,12.2406085 17.7494717,9.37041908 27.0185918,4.75256062 L27.0185918,3.71362876 L27.0185918,3.71362876 Z M27.0185918,6.03464674 C17.1576589,11.9269943 7.15651371,16.4571192 0,19.3860263 L0,23.143865 C7.18399473,19.7106979 17.1817915,14.5270862 27.0185918,8.06830059 L27.0185918,6.03464674 L27.0185918,6.03464674 Z M27.0185918,10.6987876 C15.8433266,18.5494908 6.43046536,23.9361907 0,27.2553825 L2.51028481,27.2553825 C9.4465981,23.3283071 18.3275383,17.8849634 27.0185918,11.3398307 L27.0185918,10.6987876 L27.0185918,10.6987876 Z M27.0185918,12.9755957 C25.6010239,14.0739386 24.204071,15.1515488 22.8347838,16.180811 C16.9581609,20.5948868 11.0678862,24.3610227 6.2096519,27.2553825 L9.66679852,27.2553825 C14.7830162,23.711688 20.8667134,19.2195497 27.0185918,14.0145276 L27.0185918,12.9755957 L27.0185918,12.9755957 Z"/>
    </g>
    <rect width="198" height="116"/>
  </g>
</svg>
