<svg xmlns="http://www.w3.org/2000/svg" width="198" height="116" viewBox="0 0 198 116">
  <g fill="none" fill-rule="evenodd">
    <g fill="#828889" transform="translate(4 37)">
      <path d="M56.6983237 23.997131C59.7543237 23.997131 61.973186 21.7021931 61.973186 18.897531L61.973186 18.8692276C61.973186 16.0648276 59.7822107 13.7981931 56.7272631 13.7981931 53.6712631 13.7981931 51.4524008 16.0933931 51.4524008 18.897531L51.4524008 18.9258345C51.4524008 21.7307586 53.6428499 23.997131 56.6983237 23.997131M56.7272631 21.998069C54.9727466 21.998069 53.7280895 20.5884 53.7280895 18.897531L53.7280895 18.8692276C53.7280895 17.1783586 54.9448595 15.7975172 56.6983237 15.7975172 58.4528402 15.7975172 59.6982865 17.2061379 59.6982865 18.897531L59.6982865 18.9258345C59.6982865 20.6169655 58.4807273 21.998069 56.7272631 21.998069M61.9718705.105613793C57.075062.105613793 53.8072782 1.62508966 50.9554325 3.80078621 49.5510826 4.87264828 43.5435275 9.98666207 43.5435275 9.98666207L56.6057176 9.98666207C56.6057176 9.98666207 63.1312879 2.4624 70.7933871 1.08811034 71.545022.936110345 71.4763567.105613793 70.6289587.105613793L61.9718705.105613793M20.3688609 37.6697931C25.2654063 37.6697931 28.5334532 36.1513655 31.3852989 33.9748828 32.7896488 32.9024966 38.7972039 27.789269 38.7972039 27.789269L25.7352769 27.789269C25.7352769 27.789269 19.2094435 35.313269 11.5473444 36.6872966 10.7957094 36.8400828 10.8643747 37.6697931 11.7117727 37.6697931L20.3688609 37.6697931M46.3598567 23.9693517C48.4961102 23.9693517 49.9935923 22.8707586 49.9935923 20.9131034L49.9935923 20.8850621C49.9935923 19.1658897 48.8633774 18.4470345 46.8549835 17.9252552 45.1425606 17.4886483 44.7182039 17.2771586 44.7182039 16.6280138L44.7182039 16.6002345C44.7182039 16.1214345 45.1575565 15.7409103 45.9918003 15.7409103 46.8270964 15.7409103 47.6900165 16.1070207 48.5666171 16.7129241L49.697095 15.0789241C48.6934242 14.2775172 47.4637631 13.8264966 46.0204766 13.8264966 43.9976129 13.8264966 42.5564311 15.0089517 42.5564311 16.7973103L42.5564311 16.8258759C42.5564311 18.7845793 43.8423926 19.3344 45.8363168 19.8420276 47.4919132 20.2642207 47.8320826 20.546731 47.8320826 21.0965517L47.8320826 21.124331C47.8320826 21.7021931 47.2938099 22.0549379 46.4027397 22.0549379 45.2704201 22.0549379 44.3369931 21.5897655 43.446449 20.8567586L42.1602245 22.3916966C43.3472658 23.4478345 44.8600069 23.9693517 46.3598567 23.9693517"/>
      <polyline points="63.05 23.828 71.294 23.828 71.294 21.927 65.849 21.927 71.294 15.614 71.294 13.967 63.22 13.967 63.22 15.868 68.494 15.868 63.05 22.181 63.05 23.828"/>
      <polygon points="73.459 13.967 75.636 13.967 75.636 23.828 73.459 23.828"/>
      <path d="M76.9808926,23.8278345 L79.2010702,23.8278345 L80.1063471,21.6162345 L84.2922989,21.6162345 L85.1967865,23.8278345 L87.4740537,23.8278345 L83.2312755,13.8977793 L81.2236708,13.8977793 L76.9808926,23.8278345 L76.9808926,23.8278345 Z M80.8842906,19.7012966 L82.1991915,16.503531 L83.5138292,19.7012966 L80.8842906,19.7012966 L80.8842906,19.7012966 Z"/>
      <polyline points="88.72 23.828 95.833 23.828 95.833 21.857 90.897 21.857 90.897 13.967 88.72 13.967 88.72 23.828"/>
      <polyline points="97.192 23.828 104.728 23.828 104.728 21.899 99.354 21.899 99.354 19.826 104.021 19.826 104.021 17.899 99.354 17.899 99.354 15.896 104.658 15.896 104.658 13.967 97.192 13.967 97.192 23.828"/>
      <polyline points="42.839 37.646 44.973 37.646 44.973 31.251 47.731 35.421 47.788 35.421 50.575 31.209 50.575 37.646 52.738 37.646 52.738 27.786 50.392 27.786 47.788 31.956 45.185 27.786 42.839 27.786 42.839 37.646"/>
      <path d="M53.7012548 37.6462069L55.9214325 37.6462069 56.8261832 35.4340828 61.0116088 35.4340828 61.9171488 37.6462069 64.1938898 37.6462069 59.9516377 27.7156276 57.9429807 27.7156276 53.7012548 37.6462069 53.7012548 37.6462069zM57.6036006 33.5201931L58.9190275 30.3226897 60.2341915 33.5201931 57.6036006 33.5201931 57.6036006 33.5201931zM65.7226791 37.6462069L67.8991846 37.6462069 67.8991846 34.4906345 69.6110813 34.4906345 71.7336543 37.6462069 74.2779532 37.6462069 71.8612507 34.1242621C73.1185358 33.6598759 73.9806667 32.661131 73.9806667 31.0674897L73.9806667 31.0399724C73.9806667 30.1091034 73.6841694 29.3349517 73.1324793 28.7859172 72.4829215 28.1383448 71.5074008 27.7856 70.248011 27.7856L65.7226791 27.7856 65.7226791 37.6462069 65.7226791 37.6462069zM67.8991846 32.5764828L67.8991846 29.742731 70.0638512 29.742731C71.1254008 29.742731 71.7762741 30.2217931 71.7762741 31.1521379L71.7762741 31.1809655C71.7762741 32.0125103 71.1680207 32.5764828 70.1067342 32.5764828L67.8991846 32.5764828 67.8991846 32.5764828z"/>
      <polyline points="75.666 37.646 77.841 37.646 77.841 34.633 78.987 33.449 82.057 37.646 84.673 37.646 80.459 31.97 84.49 27.786 81.858 27.786 77.841 32.097 77.841 27.786 75.666 27.786 75.666 37.646"/>
      <polyline points="88.154 37.646 90.331 37.646 90.331 29.785 93.343 29.785 93.343 27.786 85.142 27.786 85.142 29.785 88.154 29.785 88.154 37.646"/>
      <polyline points="97.63 37.717 99.525 37.717 101.759 31.265 103.994 37.717 105.888 37.717 109.269 27.786 106.992 27.786 104.941 34.463 102.72 27.758 100.855 27.758 98.634 34.463 96.583 27.786 94.25 27.786 97.63 37.717"/>
      <polygon points="110.841 27.786 113.017 27.786 113.017 37.646 110.841 37.646"/>
      <path d="M115.455028,37.6462069 L117.63127,37.6462069 L117.63127,34.4906345 L119.34343,34.4906345 L121.466003,37.6462069 L124.009775,37.6462069 L121.593862,34.1242621 C122.851147,33.6598759 123.713804,32.661131 123.713804,31.0674897 L123.713804,31.0399724 C123.713804,30.1091034 123.415729,29.3349517 122.864828,28.7859172 C122.215007,28.1383448 121.23896,27.7856 119.98036,27.7856 L115.455028,27.7856 L115.455028,37.6462069 L115.455028,37.6462069 Z M117.63127,32.5764828 L117.63127,29.742731 L119.796989,29.742731 C120.858275,29.742731 121.508623,30.2217931 121.508623,31.1521379 L121.508623,31.1809655 C121.508623,32.0125103 120.899843,32.5764828 119.839083,32.5764828 L117.63127,32.5764828 L117.63127,32.5764828 Z"/>
      <polyline points="127.79 37.646 129.966 37.646 129.966 29.785 132.979 29.785 132.979 27.786 124.778 27.786 124.778 29.785 127.79 29.785 127.79 37.646"/>
      <path d="M137.716788 37.7877241C139.853567 37.7877241 141.350787 36.6893931 141.350787 34.7317379L141.350787 34.7034345C141.350787 32.9837379 140.220309 32.2654069 138.212704 31.7436276 136.500807 31.3070207 136.075661 31.0957931 136.075661 30.4474345L136.075661 30.4196552C136.075661 29.9398069 136.514225 29.5595448 137.348994 29.5595448 138.183764 29.5595448 139.047211 29.9264414 139.923811 30.5320828L141.054289 28.8983448C140.050618 28.0953655 138.820694 27.6459172 137.377934 27.6459172 135.354018 27.6459172 133.913362 28.8273241 133.913362 30.616731L133.913362 30.6447724C133.913362 32.6037379 135.199061 33.1535586 137.193511 33.6604 138.849371 34.0833793 139.189014 34.3651034 139.189014 34.9144L139.189014 34.9427034C139.189014 35.5205655 138.650741 35.8727862 137.759934 35.8727862 136.627877 35.8727862 135.693661 35.4076138 134.803643 34.675131L133.517682 36.2111172C134.704986 37.266469 136.216938 37.7877241 137.716788 37.7877241M147.644315 37.8155034C149.554315 37.8155034 150.686372 37.1401517 151.703986 36.0562345L150.317789 34.6609793C149.539846 35.3659448 148.846616 35.8169655 147.715875 35.8169655 146.018711 35.8169655 144.845087 34.4072966 144.845087 32.7164276L144.845087 32.6883862C144.845087 30.9975172 146.046861 29.6158897 147.715875 29.6158897 148.705865 29.6158897 149.483809 30.038869 150.246493 30.7291586L151.633216 29.1378759C150.713733 28.2366207 149.597461 27.6173517 147.729292 27.6173517 144.688814 27.6173517 142.569135 29.9115034 142.569135 32.7164276L142.569135 32.744469C142.569135 35.5774345 144.73196 37.8155034 147.644315 37.8155034"/>
      <polyline points="153.067 37.646 155.243 37.646 155.243 33.688 159.261 33.688 159.261 37.646 161.438 37.646 161.438 27.786 159.261 27.786 159.261 31.688 155.243 31.688 155.243 27.786 153.067 27.786 153.067 37.646"/>
      <path d="M162.493645,37.6462069 L164.713822,37.6462069 L165.619099,35.4340828 L169.804788,35.4340828 L170.710065,37.6462069 L172.98628,37.6462069 L168.744554,27.7156276 L166.735897,27.7156276 L162.493645,37.6462069 L162.493645,37.6462069 Z M166.396253,33.5201931 L167.711944,30.3226897 L169.026844,33.5201931 L166.396253,33.5201931 L166.396253,33.5201931 Z"/>
      <polyline points="174.245 37.646 176.421 37.646 176.421 33.828 181.145 33.828 181.145 31.858 176.421 31.858 176.421 29.757 181.782 29.757 181.782 27.786 174.245 27.786 174.245 37.646"/>
      <polyline points="185.594 37.646 187.771 37.646 187.771 29.785 190.783 29.785 190.783 27.786 182.581 27.786 182.581 29.785 185.594 29.785 185.594 37.646"/>
      <polyline points=".188 23.834 1.277 23.834 1.277 15.734 7.683 23.834 8.574 23.834 8.574 13.956 7.485 13.956 7.485 21.873 1.235 13.956 .188 13.956 .188 23.834"/>
      <polyline points="11.381 23.834 18.619 23.834 18.619 22.819 12.498 22.819 12.498 19.36 17.911 19.36 17.911 18.346 12.498 18.346 12.498 14.971 18.548 14.971 18.548 13.956 11.381 13.956 11.381 23.834"/>
      <path d="M24.8399972,23.9890069 C27.3208926,23.9890069 28.976489,22.4949517 28.976489,19.6153379 L28.976489,13.9556966 L27.8596915,13.9556966 L27.8596915,19.6999862 C27.8596915,21.8602207 26.6971171,22.9614345 24.8689366,22.9614345 C22.9697231,22.9614345 21.8352989,21.7606345 21.8352989,19.6297517 L21.8352989,13.9556966 L20.7185014,13.9556966 L20.7185014,19.6999862 C20.7185014,22.4949517 22.3885675,23.9890069 24.8399972,23.9890069"/>
      <polyline points="31.628 23.834 38.866 23.834 38.866 22.819 32.745 22.819 32.745 19.36 38.158 19.36 38.158 18.346 32.745 18.346 32.745 14.971 38.795 14.971 38.795 13.956 31.628 13.956 31.628 23.834"/>
      <polygon points=".188 4.336 .826 4.336 .826 9.981 .188 9.981"/>
      <polyline points="6.495 4.336 6.495 8.86 2.923 4.336 2.325 4.336 2.325 9.981 2.948 9.981 2.948 5.352 6.609 9.981 7.118 9.981 7.118 4.336 6.495 4.336"/>
      <polygon points="8.617 4.336 9.255 4.336 9.255 9.981 8.617 9.981"/>
      <polyline points="10.187 4.336 10.187 4.924 12.09 4.924 12.09 9.981 12.737 9.981 12.737 4.924 14.64 4.924 14.64 4.336 10.187 4.336"/>
      <polygon points="15.572 4.336 16.21 4.336 16.21 9.981 15.572 9.981"/>
      <path d="M19.4827893,4.29557241 L16.8998168,9.98089655 L17.5554256,9.98089655 L18.2265565,8.48867586 L21.3112328,8.48867586 L21.9749972,9.98089655 L22.6637548,9.98089655 L20.0802562,4.29557241 L19.4827893,4.29557241 L19.4827893,4.29557241 Z M19.7732355,5.03617931 L21.0607755,7.91710345 L18.4775399,7.91710345 L19.7732355,5.03617931 L19.7732355,5.03617931 Z"/>
      <polyline points="22.082 4.336 22.082 4.924 23.984 4.924 23.984 9.981 24.631 9.981 24.631 4.924 26.534 4.924 26.534 4.336 22.082 4.336"/>
      <polygon points="27.305 4.336 27.943 4.336 27.943 9.981 27.305 9.981"/>
      <polyline points="33.546 4.336 31.521 9.199 29.506 4.336 28.793 4.336 31.23 10.022 31.797 10.022 34.234 4.336 33.546 4.336"/>
      <polyline points="34.705 4.336 34.705 9.981 38.841 9.981 38.841 9.401 35.343 9.401 35.343 7.424 38.436 7.424 38.436 6.844 35.343 6.844 35.343 4.916 38.8 4.916 38.8 4.336 34.705 4.336"/>
    </g>
    <rect width="198" height="116"/>
  </g>
</svg>
