<svg xmlns="http://www.w3.org/2000/svg" width="198" height="116" viewBox="0 0 198 116">
  <g fill="none" fill-rule="evenodd">
    <path fill="#828889" d="M175.051486,43.8987214 L175.051486,47.1041965 L174.939013,47.1880206 L167.267518,47.1880206 L167.267518,62.1012786 L167.155046,62.2126903 L162.304921,62.2126903 L162.190326,62.1012786 L162.190326,43.8987214 L162.304921,43.7862486 L174.939013,43.7862486 L175.051486,43.8987214 L175.051486,43.8987214 Z M160.386517,43.7862486 L160.49899,43.8987214 L154.180352,62.1012786 L154.067879,62.2126903 L148.879275,62.2126903 L148.765741,62.1012786 L142.786644,43.8987214 L142.900178,43.7862486 L146.653162,43.7862486 L147.405457,46.1821317 L154.459412,46.1821317 L155.19579,43.7862486 L160.386517,43.7862486 L160.386517,43.7862486 Z M153.419569,49.5170566 L148.452727,49.5170566 L150.713855,56.707889 C150.776458,56.9169187 150.831633,57.1683909 150.880442,57.4410844 L150.967449,57.4410844 L153.419569,49.5170566 L153.419569,49.5170566 Z M140.82898,43.7862486 L140.999812,43.9549578 L140.999812,62.1012786 L140.886278,62.2126903 L136.178336,62.2126903 L136.063741,62.1012786 L136.063741,43.9549578 L136.235633,43.7862486 L140.82898,43.7862486 L140.82898,43.7862486 Z M133.678469,43.7862486 L133.847178,43.9549578 L133.847178,47.046899 L133.678469,47.2166693 L126.120508,47.2166693 L126.120508,47.2718447 C126.289217,47.4119051 126.516285,47.7779723 126.628758,48.0018569 L133.396225,60.1913629 C133.622232,60.6401931 133.735766,60.9776115 133.735766,61.4264417 L133.735766,62.1012786 L133.622232,62.2126903 L120.31012,62.2126903 L120.196586,62.1012786 L120.196586,58.8958035 L120.31012,58.7843917 L127.473365,58.7843917 L127.473365,58.7270943 C127.276007,58.5307974 127.107298,58.2496154 126.907818,57.8856703 L120.422593,45.9221709 C120.14035,45.4149822 119.971641,45.1900366 119.971641,44.5735583 L119.971641,43.9549578 L120.14035,43.7862486 L133.678469,43.7862486 L133.678469,43.7862486 Z M117.940764,43.7862486 L117.940764,62.1012786 L117.828291,62.2126903 L114.271603,62.2126903 L114.159131,62.1012786 L114.159131,52.2164041 L114.103955,52.2164041 C114.018009,52.4127009 113.877949,52.5538225 113.595706,52.8912409 L106.434583,61.3139689 C105.897684,61.9315083 105.531617,62.2126903 104.403706,62.2126903 L103.162261,62.2126903 L103.049788,62.1012786 L103.049788,43.8987214 L103.162261,43.7862486 L106.718948,43.7862486 L106.83036,43.8987214 L106.83036,53.7825349 L106.887657,53.7825349 C107.085015,53.4461775 107.253725,53.3337047 107.537029,52.9973473 L114.950685,44.5735583 C115.542758,43.8987214 115.71359,43.7862486 116.078596,43.7862486 L117.940764,43.7862486 L117.940764,43.7862486 Z M99.6936417,43.7862486 L99.862351,43.9549578 L99.862351,62.1012786 L99.7498782,62.2126903 L95.0419361,62.2126903 L94.9294633,62.1012786 L94.9294633,43.9549578 L95.0981725,43.7862486 L99.6936417,43.7862486 L99.6936417,43.7862486 Z M87.4542657,43.7862486 L93.3208899,62.0450422 L93.2084171,62.2126903 L89.2294261,62.2126903 L85.8170435,50.6396626 C85.6302962,50.0380392 85.4859915,49.4820415 85.3915568,49.0512494 L85.3183433,49.0512494 L81.4751686,62.2126903 L76.2865644,62.2126903 L76.1740916,62.1012786 L82.0396548,43.7862486 L87.4542657,43.7862486 L87.4542657,43.7862486 Z M76.2865644,53.2530638 C76.2865644,59.3478169 72.4794659,63 66.8091386,63 C61.1409334,63 57.3338349,59.3478169 57.3338349,53.2530638 L57.3338349,52.7755849 C57.3338349,46.6797708 61.1409334,43 66.8091386,43 C72.4794659,43 76.2865644,46.6797708 76.2865644,52.7755849 L76.2865644,53.2530638 L76.2865644,53.2530638 Z M70.9844264,52.7755849 C70.9844264,48.3371532 69.574272,46.1736432 66.8091386,46.1736432 C64.0461273,46.1736432 62.6349118,48.449626 62.6349118,52.7755849 L62.6349118,53.2530638 C62.6349118,57.5790228 64.0461273,59.8539445 66.8091386,59.8539445 C69.574272,59.8539445 70.9844264,57.5790228 70.9844264,53.2530638 L70.9844264,52.7755849 L70.9844264,52.7755849 Z M51.1287311,43.7862486 L56.2048625,43.7862486 L56.2048625,43.8987214 L53.2720809,49.4035227 C52.9060138,50.0783596 52.5664732,50.5558385 52.2290548,50.8359595 C54.7671204,51.819566 55.7539102,53.9554884 55.7539102,55.9205793 L55.7539102,56.4829434 C55.7539102,61.4264417 51.35686,62.3665446 46.9545044,62.3665446 C42.9595975,62.3665446 41.4263597,62.2126903 41.4263597,62.2126903 L41.3128258,62.1012786 L41.3128258,43.8987214 L41.4263597,43.7862486 L46.2775454,43.7862486 L46.3910793,43.8987214 L46.3910793,49.4671866 L47.7439362,49.4671866 C48.0824157,49.4671866 48.2797736,49.2411799 48.5344291,48.7923497 L51.1287311,43.7862486 L51.1287311,43.7862486 Z M50.6777788,55.4717492 C50.6777788,53.2817126 49.8607594,52.3256937 47.7439362,52.3256937 L46.3910793,52.3256937 L46.3910793,59.4613507 L47.7439362,59.4613507 C49.887286,59.4613507 50.6777788,58.2814473 50.6777788,56.146586 L50.6777788,55.4717492 L50.6777788,55.4717492 Z M39.5090166,55.6966948 L39.5090166,56.3704706 C39.5090166,61.3139689 35.2297445,62.3612393 30.8220836,62.3612393 C26.4154838,62.3612393 25.0679322,62.2126903 25.0679322,62.2126903 L24.9565204,62.1012786 L24.9565204,43.8987214 L25.0679322,43.7862486 L29.9191179,43.7862486 L30.0326518,43.8987214 L30.0326518,49.6295294 L31.6115154,49.6295294 C37.054775,49.6295294 39.5090166,51.8758024 39.5090166,55.6966948 L39.5090166,55.6966948 Z M34.3193513,55.584222 C34.3193513,53.3931243 33.6148047,52.3256937 31.4990426,52.3256937 L30.0326518,52.3256937 L30.0326518,59.4613507 L31.3855087,59.4613507 C33.5299195,59.4613507 34.3193513,58.2814473 34.3193513,56.146586 L34.3193513,55.584222 L34.3193513,55.584222 Z" transform="matrix(1 0 0 -1 0 106)"/>
    <rect width="198" height="116"/>
  </g>
</svg>
