<svg xmlns="http://www.w3.org/2000/svg" width="198" height="116" viewBox="0 0 198 116">
  <g fill="none" fill-rule="evenodd">
    <g fill="#828889" transform="translate(23 20)">
      <path d="M8.55851431 54.71225L8.55851431 42.3605 7.16443877 42.3605 7.16443877 48.275475C7.16443877 51.3822187 5.70392785 53.6686312 3.62395333 53.6686312 1.87593849 53.6686312 1.38905393 52.450675 1.38905393 50.387925L1.38905393 42.3604875.0000186215239 42.3604875.0100293043 50.9596125C.0100293043 53.1715875.76958263 54.9358937 3.3141083 54.9358937 5.26149758 54.9358937 6.67769549 53.7182187 7.29723358 51.8295L7.34147652 51.8543117C7.20874788 52.6246742 7.14231311 53.8674429 7.14231311 54.7122367L8.55851102 54.7122367 8.55851431 54.71225zM21.1274841 54.71225L21.1274841 46.113125C21.1274841 43.9014313 20.3529528 42.1368438 17.8083527 42.1368438 15.8609634 42.1368438 14.4447655 43.3545188 13.8252957 45.2435188L13.7809827 45.2184251C13.9137114 44.4480626 13.9802163 43.2055814 13.9802163 42.3605001L12.5640184 42.3605001 12.5640184 54.7122501 13.9580194 54.7122501 13.9580194 48.7972751C13.9580194 45.6908814 15.4185303 43.4044064 17.4985049 43.4044064 19.2245401 43.4044064 19.7334043 44.6221501 19.7334043 46.6849001L19.7334043 54.7122751 21.1274798 54.7122751 21.1274841 54.71225zM26.8368432 38.8811875C26.8368432 38.2349563 26.3942735 37.7627625 25.8410945 37.7627625 25.2879173 37.7627625 24.8453457 38.2597713 24.8453457 38.8811875 24.8453457 39.5022544 25.2879154 39.9995438 25.8410945 39.9995438 26.3942717 39.9995438 26.8368432 39.5022531 26.8368432 38.8811875L26.8368432 38.8811875zM26.5270022 54.71225L26.5270022 42.3605 25.1330011 42.3605 25.1330011 54.71225 26.5270022 54.71225 26.5270022 54.71225zM38.5885764 42.3605L37.0396505 42.3605 34.2293832 51.0589375C34.0081682 51.7051 33.8090048 52.401025 33.631893 53.0471812L33.6099116 53.0471812C33.4328699 52.351325 33.2558276 51.7299062 33.0124214 50.9844312L30.268515 42.3604937 28.6754189 42.3604937 32.8574965 54.7122437 34.3180074 54.7122437 38.5885745 42.3604937 38.5885764 42.3605zM48.2570576 47.13225C48.2570576 44.4728937 47.017907 42.1616687 44.0305925 42.1616687 41.0434953 42.1616687 39.2731408 44.8954625 39.2731408 48.5736687 39.2731408 52.9228312 41.0212984 54.9111687 44.2961168 54.9111687 45.6681383 54.9111687 46.8629759 54.6378881 47.8587246 54.1905L47.725996 52.7987937C46.9294107 53.2461794 45.6901917 53.5938937 44.5396609 53.5938937 41.9727273 53.5938937 40.6230393 51.9537187 40.7557673 47.9525562L48.2128806 47.9525562C48.2570535 47.6044881 48.2570535 47.3063937 48.2570535 47.1322937L48.2570576 47.13225zM46.7745671 46.7345587L40.8442574 46.7345587C41.1540283 44.6718087 42.3047683 43.3545337 43.9421775 43.3545337 45.7344371 43.3545337 46.8188119 44.74624 46.7745671 46.7345587L46.7745671 46.7345587zM56.4256993 42.161625C54.0136906 41.8386506 52.8630232 43.7769938 52.442574 45.6160875L52.3983311 45.5912758C52.5974945 44.4977321 52.6861205 43.2303633 52.6861205 42.3604758L51.2699226 42.3604758 51.2699226 54.7122258 52.6639982 54.7122258 52.6639982 49.7915508C52.6639982 45.4920133 53.8587675 43.2303633 56.3591974 43.6777321L56.4257017 42.1616133 56.4256993 42.161625zM64.9829101 51.08375C64.9829101 46.8089563 59.406757 48.698025 59.406757 45.5168437 59.406757 44.2243813 60.2917573 43.4044 61.9956019 43.4044 62.7701331 43.4044 63.5888408 43.5781519 64.3191273 43.8266919L64.3854218 42.4349106C63.6773259 42.2608763 62.8807406 42.16163 62.1948354 42.16163 59.4730514 42.16163 57.9905609 43.6777487 57.9905609 45.69088 57.9905609 50.139355 63.5445234 48.1510425 63.5445234 51.3074113 63.5445234 52.7242862 62.3497541 53.5690113 60.6458412 53.5690113 59.7828205 53.5690113 58.8755612 53.3949769 58.1674654 53.1716019L58.1232924 54.6626269C58.7870752 54.8366612 59.6279736 54.9110962 60.4687974 54.9110962 63.301187 54.9110962 64.9829092 53.196415 64.9829092 51.0837588L64.9829101 51.08375zM69.8487142 38.8811875C69.8487142 38.2349563 69.4061445 37.7627625 68.8528972 37.7627625 68.29972 37.7627625 67.8571485 38.2597713 67.8571485 38.8811875 67.8571485 39.5022544 68.2997182 39.9995438 68.8528972 39.9995438 69.4061445 39.9995438 69.8487142 39.5022531 69.8487142 38.8811875L69.8487142 38.8811875zM69.5388732 54.71225L69.5388732 42.3605 68.1447976 42.3605 68.1447976 54.71225 69.5388732 54.71225 69.5388732 54.71225zM78.7243531 54.662625L78.7243531 53.2709187C78.2376107 53.4201412 77.6623117 53.4945762 77.0869439 53.4945762 75.7149225 53.4945762 75.3387863 52.8979687 75.3387863 50.5371262L75.3387863 43.6030012 78.7243531 43.6030012 78.7243531 42.3605137 75.3387863 42.3605137 75.3387863 37.7628137 73.9447852 38.1853875 73.9447852 42.3605125 71.4443553 42.3605125 71.4443553 43.603 73.9669014 43.603 73.9669014 51.3074375C73.9669014 53.7927625 74.5643916 54.8863062 76.710665 54.8863062 77.3967812 54.8863062 78.1490535 54.7870594 78.7243531 54.6626487L78.7243531 54.662625zM87.8861427 38.3590625C87.8861427 37.7379956 87.4656948 37.2906125 86.9344959 37.2906125 86.4034405 37.2906125 85.9830602 37.7379981 85.9830602 38.3590625 85.9830602 38.95567 86.4034386 39.4278688 86.9344959 39.4278688 87.4656916 39.4278688 87.8861427 38.9556719 87.8861427 38.3590625L87.8861427 38.3590625zM83.8146024 38.3590625C83.8146024 37.7379956 83.3940142 37.2906125 82.8629557 37.2906125 82.3097785 37.2906125 81.91152 37.7379981 81.91152 38.3590625 81.91152 38.95567 82.3097766 39.4278688 82.8629557 39.4278688 83.3940111 39.4278688 83.8146024 38.9556719 83.8146024 38.3590625L83.8146024 38.3590625zM88.7269728 54.71225C88.7048513 53.593825 88.6826598 52.1524875 88.6826598 50.8848375L88.6826598 46.1379125C88.6826598 43.8517875 87.8639521 42.1616313 84.9431475 42.1616313 83.4604459 42.1616313 82.1991729 42.5593225 81.1591111 43.1059563L81.3140317 44.52255C82.287658 43.8018125 83.6153665 43.4292875 84.6774761 43.4292875 86.6468512 43.4292875 87.2886482 44.5476438 87.2886482 46.5604938L87.2886482 47.6540375C82.8629514 47.6540375 80.5174277 49.4683188 80.5174277 51.9784563 80.5174277 53.9419625 81.8008914 54.9110938 83.504736 54.9110938 85.4298663 54.9110938 86.8681804 53.5938188 87.3992352 51.9784563L87.4434782 52.0032679C87.3329408 52.7242867 87.3107495 53.7182304 87.3107495 54.7122492L88.7269474 54.7122492 88.7269728 54.71225zM87.2886587 49.0209312C87.2886587 51.2826 85.9167738 53.6187 83.8365882 53.6187 82.6860636 53.6187 81.9336485 52.87315 81.9336485 51.655475 81.9336485 50.4375187 82.8851525 48.8468937 87.2886587 48.8468937L87.2886587 49.0209281 87.2886587 49.0209312zM97.5954051 54.662625L97.5954051 53.2709187C97.1086627 53.4201412 96.5333637 53.4945762 95.9579959 53.4945762 94.586111 53.4945762 94.2098383 52.8979687 94.2098383 50.5371262L94.2098383 43.6030012 97.5954051 43.6030012 97.5954051 42.3605137 94.2098383 42.3605137 94.2098383 37.7628137 92.8157628 38.1853875 92.8157628 42.3605125 90.3154073 42.3605125 90.3154073 43.603 92.8379534 43.603 92.8379534 51.3074375C92.8379534 53.7927625 93.4354436 54.8863062 95.581717 54.8863062 96.2678332 54.8863062 97.0201055 54.7870594 97.5954051 54.6626487L97.5954051 54.662625zM109.696292 47.901625C109.696292 44.2483188 108.279957 42.1107813 105.646588 42.1107813 104.119785 42.1107813 102.880491 42.9558563 102.327314 44.2979438L102.305193 44.2979438C102.4158 43.6517125 102.482234 42.6326 102.482234 41.8870563L102.482234 36.4725437 99.6219125 36.4725437 99.6219125 54.3632312C100.883186 54.7609931 102.150275 54.9598387 103.743507 54.9598387 107.52768 54.9598387 109.696287 52.07682 109.696287 47.9016512L109.696292 47.901625zM106.730963 48.2245994C106.730963 51.2816494 105.558173 52.4246056 103.964866 52.4246056 103.345255 52.4246056 102.880491 52.3501 102.482239 52.20123L102.482239 48.721605C102.482239 46.658855 103.367376 44.7453238 104.850078 44.7453238 106.133473 44.7453238 106.730963 45.913305 106.730963 48.2245988L106.730963 48.2245994zM121.477509 48.299C121.477509 44.0493687 119.463821 42.1107437 116.343642 42.1107437 113.002177 42.1107437 110.722822 44.8941625 110.722822 48.7463687 110.722822 53.1455062 112.736647 54.9597875 115.856757 54.9597875 119.154046 54.9597875 121.477503 52.1760187 121.477503 48.298975L121.477509 48.299zM118.556562 48.4731044C118.556562 50.9831731 117.494309 52.2508231 116.100308 52.2508231 114.462688 52.2508231 113.643987 50.9583606 113.643987 48.4234106 113.643987 45.8884606 114.883137 44.7949169 116.144553 44.7949169 117.804153 44.7949169 118.556562 46.0873794 118.556562 48.4731044L118.556562 48.4731044zM132.774567 54.7113125L132.774567 46.037375C132.774567 43.8753062 131.977845 42.0859062 129.499469 42.0859062 127.706998 42.0859062 126.423392 43.1050187 125.759609 44.5711625L125.737418 44.5463508C125.848025 43.9001883 125.892338 42.9309821 125.892338 42.3591883L123.214731 42.3591883 123.214731 54.7113133 126.047263 54.7113133 126.047263 48.7463633C126.047263 46.5843633 127.175808 44.7452696 128.614333 44.7452696 129.654395 44.7452696 129.964164 45.5155571 129.964164 46.8080196L129.964164 54.7113321 132.774574 54.7113321 132.774567 54.7113125zM144.910834 54.7113125L144.910834 46.037375C144.910834 43.8753062 144.114112 42.0859062 141.635737 42.0859062 139.843266 42.0859062 138.559802 43.1050187 137.895877 44.5711625L137.873685 44.5463508C137.984432 43.9001883 138.028606 42.9309821 138.028606 42.3591883L135.350998 42.3591883 135.350998 54.7113133 138.183531 54.7113133 138.183531 48.7463633C138.183531 46.5843633 139.312076 44.7452696 140.750532 44.7452696 141.790663 44.7452696 142.100432 45.5155571 142.100432 46.8080196L142.100432 54.7113321 144.910842 54.7113321 144.910834 54.7113125z"/>
      <path d="M136.078025,3.2056375 C136.078025,3.2056375 136.037352,3.74063875 136.15979,3.9750125 C136.548736,4.71830625 138.305927,4.37115312 138.571594,5.98405 C138.751646,7.07795 138.424654,7.619575 139.747674,8.1747375 L139.061626,9.12815625 L138.743174,9.12124844 L138.744784,15.0742859 L138.928057,15.0742859 C138.951788,15.4663384 139.066596,15.7188984 139.459392,15.8844734 L139.139961,16.1820022 L139.139961,18.2365772 L141.184939,18.2365772 L141.184939,18.8645522 L141.010068,18.9305284 L141.010698,19.0637503 C141.117105,20.4906316 141.65607,22.2201191 142.230948,23.4974941 C143.650783,26.6522378 145.972701,28.9324441 149.233137,30.2189316 L148.84139,30.9185191 L148.444814,30.9132325 L148.461545,54.7107325 L153.972666,54.7107325 L153.966295,0.0012949875 L99.622172,2.620625e-05 L99.622172,31.9084637 L123.248416,31.9100144 L123.246036,30.9185332 L122.873191,30.9185332 L122.481444,30.2189457 C125.741775,28.9327582 128.063898,26.6519894 129.483634,23.4975082 C130.041221,22.2587582 130.610149,20.4485644 130.704026,19.0577707 L130.704516,18.9305407 L130.529645,18.8645644 L130.529645,18.2365894 L132.574692,18.2365894 L132.574692,16.1820144 L132.25519,15.8844857 C132.647987,15.7189101 132.762794,15.4663526 132.786526,15.0742982 L132.969798,15.0742982 L132.969378,9.12816694 L132.663948,9.12816694 L131.966913,8.17474819 C133.289792,7.61958694 132.962941,7.07796069 133.142993,5.98406069 C133.40866,4.37116069 135.165917,4.71831069 135.554654,3.97502319 C135.677232,3.74065194 135.64328,3.20437944 135.64328,3.20437944 C135.49004,3.12494006 135.380062,2.96472131 135.380062,2.77933881 C135.380062,2.56822819 135.50642,2.39264319 135.695083,2.32913381 L135.695083,1.59845881 C135.695083,1.38389444 136.014514,1.38389444 136.014514,1.59845881 L136.014514,2.32857131 C136.212977,2.38256487 136.330936,2.57168319 136.330936,2.77934006 C136.330936,2.96535694 136.231669,3.12649194 136.078009,3.20564944 L136.078025,3.2056375 Z"/>
      <path d="M134.702515,14.7425 L134.702515,11.6552812 C134.702515,11.00715 135.22405,10.49005 135.86816,10.49005 C136.511993,10.49005 137.029746,11.0071475 137.029746,11.6552812 L137.029746,14.7425 C136.877346,14.7425 136.78921,14.8311031 136.78921,14.9322531 L136.78921,15.0711137 L134.943047,15.0711137 L134.943047,14.9322531 C134.943047,14.8311031 134.854912,14.7425 134.754595,14.7425 L134.702511,14.7425 L134.702515,14.7425 Z"/>
    </g>
    <rect width="198" height="116"/>
  </g>
</svg>
