<svg xmlns="http://www.w3.org/2000/svg" width="198" height="116" viewBox="0 0 198 116">
  <g fill="#828889" fill-rule="evenodd" transform="translate(11 49)">
    <g fill-rule="nonzero" transform="translate(0 1.3)">
      <path d="M15.461434 13.6378584C15.202774 14.9946442 14.9835576 16.1468065 14.8985189 16.5943477L24.9596158 16.5943477 24.9596158 13.6378584 15.461434 13.6378584zM.0418706506 13.6647723L.0418706506 16.6212615 10.0315929 16.6212615 9.36498297 13.6647723.0418706506 13.6647723zM4.9501102 6.88584914L4.22302819 3.8274166 10.4266117 3.8274166 12.4356551 12.6068679 12.5214022 12.6068679 13.7870636 6.98286397C14.4248549 4.42933057 14.6657985 3.8274166 18.2601072 3.8274166L20.8452878 3.8274166C20.8452878 3.8274166 20.3230082 6.1812555 19.6731691 8.73549684 19.4258476 9.70988981 17.2672785 9.59446373 17.374994 8.6845112 17.3863329 8.58962105 17.4883794 7.90485498 17.5691664 7.41765828 17.6868035 6.71660522 16.8683045 6.62879665 16.7209037 7.32276813 16.6160225 7.81987861 16.141931 10.2870193 15.6990201 12.6068679L24.9597507 12.6068679 24.9597507.000657511972.0412430299.000657511972.0412430299 12.6068679 9.08441533 12.6068679 7.79607693 6.89009809 4.9501102 6.88584785 4.9501102 6.88584914z"/>
    </g>
    <path d="M34.4580754,17.5 L38.4552122,17.5 L43.9164164,1.3064 L40.6861722,1.3064 L36.5728396,14.02 L36.5263613,14.02 L32.3665504,1.3064 L28.8806753,1.3064 L34.4580754,17.5 Z M49.005794,3.8584 L49.005794,8.22 L50.0747957,8.22 C51.6782983,8.22 53.5141925,7.988 53.5141925,5.9696 C53.5141925,4.0208 51.7015374,3.8584 50.0747957,3.8584 L49.005794,3.8584 Z M45.7523106,17.5 L45.7523106,1.3064 L49.2614249,1.3064 C52.7472999,1.3064 56.9071109,1.1904 56.9071109,5.6912 C56.9071109,7.5936 55.6289567,9.1712 53.5606708,9.4496 L53.5606708,9.496 C54.4437591,9.5656 54.9550208,10.4472 55.2803692,11.1664 L57.8831559,17.5 L54.2578458,17.5 L52.3057558,12.4424 C51.8409724,11.236 51.4226674,10.772 50.0515566,10.772 L49.005794,10.772 L49.005794,17.5 L45.7523106,17.5 Z M65.273211,12.5352 L65.273211,9.9832 L59.1613101,9.9832 L59.1613101,12.5352 L65.273211,12.5352 Z M67.8062802,17.5 L70.9203286,17.5 L70.9203286,5.3896 L70.966807,5.3896 L77.1716646,17.5 L81.1455622,17.5 L81.1455622,1.3064 L78.0315138,1.3064 L78.0315138,13.4168 L77.9850355,13.4168 L71.803417,1.3064 L67.8062802,1.3064 L67.8062802,17.5 Z M86.676484,10.3544 L91.9750141,10.3544 C91.8820574,8.8464 91.1848824,7.5472 89.4419449,7.5472 C87.6990073,7.5472 86.815919,8.7536 86.676484,10.3544 Z M94.0665391,14.2984 L94.0665391,16.8272 C92.9278199,17.4536 91.6264266,17.7784 89.9532065,17.7784 C86.0025481,17.7784 83.7018706,15.5048 83.7018706,11.584 C83.7018706,8.1272 85.5377648,5.2736 89.2560315,5.2736 C93.6947124,5.2736 94.9496275,8.3128 94.9496275,12.4888 L86.676484,12.4888 C86.815919,14.4144 88.1637907,15.5048 90.0926415,15.5048 C91.6031874,15.5048 92.9045808,14.948 94.0665391,14.2984 Z M98.4122634,13.904 C98.4122634,16.2704 99.7601351,17.7784 102.200248,17.7784 C103.129814,17.7784 103.850228,17.6856 104.500925,17.5 L104.407968,15.0408 C104.08262,15.2496 103.548119,15.3656 102.990379,15.3656 C101.805182,15.3656 101.526312,14.4144 101.526312,13.3936 L101.526312,7.8256 L104.291773,7.8256 L104.291773,5.552 L101.526312,5.552 L101.526312,2.1648 L98.4122634,3.1624 L98.4122634,5.552 L96.1115858,5.552 L96.1115858,7.8256 L98.4122634,7.8256 L98.4122634,13.904 Z M109.357911,17.5 L113.5642,17.5 L116.445857,4.5544 L116.492335,4.5544 L119.42047,17.5 L123.603521,17.5 L127.833049,1.3064 L124.672522,1.3064 L121.628191,14.252 L121.581713,14.252 L118.723295,1.3064 L114.307854,1.3064 L111.542393,14.252 L111.495914,14.252 L108.474823,1.3064 L105.058665,1.3064 L109.357911,17.5 Z M128.902051,11.6072 C128.902051,7.6632 131.621033,5.2736 135.153387,5.2736 C138.708979,5.2736 141.427962,7.6632 141.427962,11.6072 C141.427962,15.0408 139.127284,17.7784 135.153387,17.7784 C131.202728,17.7784 128.902051,15.0408 128.902051,11.6072 Z M132.155534,11.236 C132.155534,13.208 132.782992,15.3656 135.153387,15.3656 C137.547021,15.3656 138.174478,13.2312 138.174478,11.236 C138.174478,9.4032 137.198433,7.6864 135.153387,7.6864 C133.131579,7.6864 132.155534,9.4496 132.155534,11.236 Z M143.937792,17.5 L147.05184,17.5 L147.05184,13.1152 C147.05184,11.3984 147.05184,8.2432 149.584909,8.2432 C150.142649,8.2432 150.700389,8.336 150.979259,8.4984 L150.979259,5.3664 C150.653911,5.2736 150.328563,5.2736 150.026454,5.2736 C148.16732,5.2736 146.889166,7.1528 146.749731,8.2664 L146.703253,8.2664 L146.703253,5.552 L143.937792,5.552 L143.937792,17.5 Z M152.977828,17.5 L156.091876,17.5 L156.091876,0.1 L152.977828,0.1 L152.977828,17.5 Z M161.85519,11.4912 C161.85519,13.1384 162.436169,15.3656 164.481216,15.3656 C166.549501,15.3656 167.223437,13.1848 167.223437,11.4912 C167.223437,9.8208 166.433306,7.6864 164.434737,7.6864 C162.41293,7.6864 161.85519,9.8904 161.85519,11.4912 Z M167.339633,17.5 L167.339633,16.1544 L167.293155,16.1544 C166.363588,17.3144 165.085434,17.7784 163.621366,17.7784 C159.949578,17.7784 158.601706,14.7624 158.601706,11.4912 C158.601706,8.1968 159.949578,5.2736 163.621366,5.2736 C165.178391,5.2736 166.270631,5.8072 167.200198,6.944 L167.246676,6.944 L167.246676,0.1 L170.360725,0.1 L170.360725,17.5 L167.339633,17.5 Z"/>
    <path d="M170.57897,6.72559055 C170.211874,6.61456693 169.820305,6.54671916 169.324725,6.54671916 C167.874696,6.54671916 166.981429,7.37322835 166.981429,8.84737533 C166.981429,10.3030184 167.941997,11 169.324725,11 C169.783595,11 170.254702,10.9013123 170.707454,10.7779528 L170.707454,8.45879265 L168.982102,8.45879265 L168.982102,9.13727034 L169.887606,9.13727034 L169.887606,10.2598425 C169.740767,10.2968504 169.557219,10.3215223 169.324725,10.3215223 C168.413104,10.3215223 167.874696,9.66154856 167.874696,8.78569554 C167.874696,7.90367454 168.42534,7.22519685 169.422618,7.22519685 C169.765241,7.22519685 170.193519,7.2992126 170.523906,7.45341207 L170.57897,6.72559055 Z M171.521183,10.9259843 L172.341031,10.9259843 L172.341031,9.3839895 C172.341031,8.97073491 172.408332,8.31692913 172.952857,8.31692913 C173.423964,8.31692913 173.423964,8.73635171 173.423964,9.0324147 L173.423964,10.9259843 L174.243811,10.9259843 L174.243811,9.3839895 C174.243811,8.97073491 174.311112,8.31692913 174.855638,8.31692913 C175.326745,8.31692913 175.326745,8.73635171 175.326745,9.0324147 L175.326745,10.9259843 L176.146592,10.9259843 L176.146592,8.92139108 C176.146592,8.21207349 175.926335,7.67545932 175.149315,7.67545932 C174.763864,7.67545932 174.35394,7.85433071 174.164274,8.23674541 C173.986844,7.84199475 173.674813,7.67545932 173.234297,7.67545932 C172.928384,7.67545932 172.55517,7.80498688 172.298203,8.19356955 L172.285966,8.19356955 L172.285966,7.74947507 L171.521183,7.74947507 L171.521183,10.9259843 Z M177.798524,9.32847769 C177.798524,9.77874016 177.975954,10.3585302 178.520479,10.3585302 C179.058887,10.3585302 179.211844,9.7664042 179.211844,9.32847769 C179.211844,8.90288714 179.065005,8.31692913 178.532716,8.31692913 C178.006545,8.31692913 177.798524,8.8843832 177.798524,9.32847769 Z M176.972558,10.9259843 L176.972558,6.3 L177.792406,6.3 L177.792406,8.15656168 L177.804642,8.15656168 C178.031018,7.85433071 178.318577,7.67545932 178.746855,7.67545932 C179.713541,7.67545932 180.068401,8.45262467 180.068401,9.32847769 C180.068401,10.1981627 179.713541,11 178.746855,11 C178.398114,11 178.018782,10.8766404 177.780169,10.5374016 L177.767933,10.5374016 L177.767933,10.9259843 L176.972558,10.9259843 Z M180.784238,10.9259843 L181.640795,10.9259843 L181.640795,9.03858268 L183.35391,9.03858268 L183.35391,10.9259843 L184.210467,10.9259843 L184.210467,6.62073491 L183.35391,6.62073491 L183.35391,8.36010499 L181.640795,8.36010499 L181.640795,6.62073491 L180.784238,6.62073491 L180.784238,10.9259843 Z" transform="rotate(-90 175.596 8.65)"/>
  </g>
</svg>
