<svg xmlns="http://www.w3.org/2000/svg" width="198" height="116" viewBox="0 0 198 116">
  <g fill="#828889" fill-rule="evenodd" transform="translate(29 21)">
    <path d="M5.50190311 57.4861008L5.58460915 57.4861008C5.60644354 57.2310387 5.87672686 55.8568872 6.39479745 53.362983L7.22185779 49.6222925 10.6627596 49.6222925 11.7048557 54.2107578C11.9142673 55.1978384 12.0796794 56.28973 12.2010919 57.4861008L12.2837979 57.4861008C12.3717971 56.5116241 12.5372092 55.4416234 12.7800341 54.2764305L13.4281186 51.8279665 12.5183522 51.8279665 12.5183522 49.6222925 17.2448366 49.6222925 17.2448366 51.8279665 16.3350702 51.8279665 13.8747312 61.2145192 9.86845087 61.2145192 8.87597847 57.2880877C8.73273162 56.7603843 8.59510878 56.0784496 8.4624483 55.2426153L8.3966143 55.2426153C8.31920145 55.7928729 8.18720262 56.4638621 7.99995616 57.255583L6.99061172 61.2145192 3.15305175 61.2145192.969612458 51.8279665.0433048793 51.8279665.0433048793 49.6222925 5.50190311 49.6222925 5.50190311 51.8279665 4.54251312 51.8279665 4.9725845 54.2366289C5.12674854 54.8960093 5.30340863 55.9799406 5.50190311 57.4861008M20.9711404 54.9292105C20.529821 54.9292105 20.2128915 55.0731598 20.020021 55.3603949 19.8268197 55.6479618 19.7196327 55.9461424 19.6974675 56.2559318L22.1951897 56.2559318C22.1839417 55.8579154 22.0959425 55.5375122 21.9305304 55.2940589 21.7651184 55.0509372 21.4452114 54.9292105 20.9711404 54.9292105M23.6673571 58.4825017L25.0568185 60.1020966C23.9426028 61.0427419 22.5203899 61.5130646 20.7891872 61.5130646 19.6313027 61.5130646 18.6140185 61.1316323 17.7373345 60.3687675 16.8606506 59.6059028 16.4223086 58.4894669 16.4223086 57.0187965 16.4223086 55.702689 16.8414628 54.6578961 17.6794403 53.8844176 18.5174178 53.1109391 19.5816791 52.7235365 20.8718932 52.7235365 21.8422004 52.7235365 22.6831553 52.946094 23.3944272 53.391209 24.1056991 53.8359923 24.5824167 54.4104625 24.8252416 55.1132931 24.9466541 55.4645426 25.0207587 55.8821281 25.0485479 56.3653863 25.0760063 56.8489761 25.0128189 57.3597638 24.858324 57.8977493L19.6478439 57.8977493C19.6809263 58.0698914 19.7196327 58.2128456 19.7636323 58.327607 19.8073011 58.4423683 19.8876914 58.5883077 20.0034798 58.7660883 20.1192683 58.943869 20.292951 59.0785312 20.5245279 59.1700749 20.7561047 59.2619504 21.0316813 59.3073906 21.3515882 59.3073906 22.2557306 59.3073906 23.0278741 59.0324276 23.6673571 58.4825017M32.219161 57.0767078C32.219161 56.5354056 32.1096582 56.0531424 31.8906527 55.63025 31.6716471 55.2073576 31.3868075 54.9960773 31.0367956 54.9960773 30.6960467 54.9960773 30.4078989 55.1960805 30.1720213 55.5964186 29.9358129 55.9967568 29.8352423 56.5181582 29.8703097 57.1609546 29.8703097 57.7251428 29.9880831 58.2044209 30.223299 58.5991204 30.4588458 58.9941517 30.7354148 59.1911698 31.053006 59.1911698 31.4030179 59.1911698 31.6852109 58.9994586 31.8985924 58.6160361 32.1123048 58.232282 32.219161 57.7195043 32.219161 57.0767078L32.219161 57.0767078zM29.6122668 61.215083L25.9004201 61.215083 25.9004201 59.0050971 26.4793623 59.0050971 26.4793623 50.9489142 25.9004201 50.9489142 25.9004201 48.7770716 29.9033921 48.7770716 29.9033921 53.5250751C30.0783981 53.327062 30.379448 53.1549199 30.806542 53.0089806 31.2336359 52.8630412 31.6498127 52.7900716 32.0550723 52.7900716 33.1888066 52.7900716 34.0754153 53.2186025 34.7158908 54.0753328 35.3560355 54.932063 35.6650252 55.9519799 35.6431908 57.1350836 35.6223489 58.4286368 35.289209 59.4624843 34.6444328 60.2359628 33.9993257 61.0101046 33.1309124 61.3968438 32.0385311 61.3968438 31.6441887 61.3968438 31.3017857 61.3573739 31.0116529 61.2787656 30.7208585 61.2001574 30.5044995 61.1152472 30.3622452 61.0250302 30.21966 60.9351448 30.0552404 60.8054578 29.8689864 60.6363009L29.6122668 61.215083 29.6122668 61.215083zM41.5151869 59.0091105L41.5151869 61.2144528 36.800943 61.2144528 36.800943 59.0091105 37.2971792 59.0091105 37.2971792 54.9460267 36.800943 54.9460267 36.800943 52.9390292 39.8785999 52.9390292 40.2650025 53.834566C40.943192 53.0829785 41.6385843 52.7071847 42.350187 52.7071847 42.7518075 52.7071847 43.1100901 52.7430061 43.4253655 52.8153124 43.7409717 52.8872871 43.9990145 52.9927614 44.1998248 53.1317355 44.400635 53.2713729 44.5438819 53.3867976 44.6298961 53.4799998 44.7162412 53.5722069 44.8105261 53.6859733 44.9137433 53.8196404 45.623361 53.0783349 46.4375192 52.7071847 47.3572103 52.7071847 48.0026482 52.7071847 48.542884 52.8139857 48.9772561 53.0289146 49.4112974 53.2435117 49.7315351 53.551311 49.9376386 53.9523125 50.143742 54.3539774 50.2856656 54.7639342 50.3634092 55.1811881 50.4414837 55.5994369 50.4808518 56.0939723 50.4808518 56.6664525L50.4808518 58.9424427 51.2579577 58.9424427 51.2579577 61.2144528 47.0564912 61.2144528 47.0564912 57.0402562C47.0564912 56.9722617 47.0591378 56.850535 47.0647618 56.6744128 47.0703858 56.4982906 47.0733632 56.3583215 47.0733632 56.2551689 47.0733632 56.152348 47.0674084 56.0233244 47.0564912 55.8677663 47.0459048 55.7128716 47.026717 55.5871648 46.9995894 55.4896508 46.972131 55.3921367 46.9367328 55.2946227 46.8930641 55.196777 46.8493953 55.0989314 46.7891853 55.0276201 46.7130957 54.9815165 46.6363445 54.9357446 46.5440446 54.912527 46.4348726 54.912527 46.1080184 54.912527 45.8814038 55.0189964 45.7560215 55.2312718 45.6303083 55.4435472 45.5677826 55.7563217 45.5677826 56.1695954L45.5677826 58.9593584 46.4282561 58.9593584 46.4282561 61.2144528 42.1437528 61.2144528 42.1437528 56.8598221C42.1437528 56.0969574 42.105708 55.5815262 42.0296184 55.3138602 41.9528672 55.0468575 41.7619817 54.912527 41.4569619 54.912527 40.9666805 54.912527 40.7215398 55.2568112 40.7215398 55.9453795L40.7215398 59.0091105 41.5151869 59.0091105 41.5151869 59.0091105zM55.8976339 59.2245037C56.2367286 59.2245037 56.5080044 59.0235054 56.7104688 58.6211772 56.9129331 58.2191807 57.0144961 57.7070663 57.0144961 57.084834 57.0144961 56.4629334 56.9076399 55.950819 56.6942584 55.5484908 56.4808768 55.1464943 56.1877666 54.9401892 55.8155895 54.9292437 55.4976675 54.9292437 55.2293691 55.1332271 55.0103635 55.5408622 54.791358 55.9481656 54.682186 56.4470128 54.682186 57.0364087 54.682186 57.6908139 54.796982 58.2191807 55.0269047 58.6211772 55.2568275 59.0235054 55.5469603 59.2245037 55.8976339 59.2245037M55.8976339 61.429846C54.6113896 61.429846 53.514046 61.0460919 52.6052721 60.2775886 51.6958365 59.5090854 51.2469082 58.4288026 51.2581562 57.035082 51.2690734 55.7203012 51.7266032 54.6718598 52.6300839 53.8927428 53.5335646 53.113294 54.5951792 52.723238 55.8149278 52.723238 57.1676677 52.7457923 58.2709662 53.1438086 59.1244925 53.9176188 59.9780187 54.6914289 60.4160299 55.7531376 60.4385259 57.1020814 60.4494431 58.4397481 60.0223492 59.4954865 59.1575749 60.2689649 58.2928006 61.0431068 57.2060433 61.429846 55.8976339 61.429846M66.1783909 59.0091105L66.1783909 61.2144528 61.2987349 61.2144528 61.2987349 59.0091105 61.778099 59.0091105 61.778099 55.0783672 61.2987349 55.0783672 61.2987349 52.9224452 64.7962076 52.9224452 65.2024597 53.9509858C65.8386345 53.0660628 66.6226877 52.6242646 67.5549501 52.6242646 68.0561487 52.6242646 68.4928365 52.6955759 68.866337 52.8385301 69.2391758 52.981816 69.5316243 53.1658985 69.7430209 53.3911095 69.9544175 53.6166521 70.1244611 53.8972536 70.2521593 54.2329141 70.380519 54.5682429 70.4668641 54.8929579 70.5115254 55.2063958 70.5551942 55.519502 70.5783519 55.8687613 70.5783519 56.2535105L70.5783519 59.0091105 71.3227062 59.0091105 71.3227062 61.2144528 67.1539912 61.2144528 67.1539912 56.6873483 67.1539912 56.305916C67.1539912 56.2392482 67.1404274 56.1095612 67.112969 55.9158599 67.0855106 55.722822 67.041511 55.5874964 66.9822935 55.5095516 66.9217527 55.4326017 66.8287911 55.3523351 66.7030779 55.269415 66.5773648 55.186495 66.4212158 55.1450349 66.2356234 55.1450349 65.5465168 55.1450349 65.2024597 55.6548275 65.2024597 56.6737494L65.2024597 59.0091105 66.1783909 59.0091105 66.1783909 59.0091105zM71.5045271 55.1280861L71.5045271 52.9227437 72.3977523 52.9227437 72.3977523 51.3966826 75.4413343 50.4185574 75.4413343 52.9227437 77.012749 52.9227437 77.012749 55.1280861 75.4413343 55.1280861 75.4413343 57.9821951C75.4413343 58.0249818 75.4386877 58.1022634 75.4330637 58.2150347 75.4271089 58.3274743 75.4271089 58.4150379 75.4330637 58.4793839 75.4386877 58.5433982 75.4439809 58.6210113 75.4496049 58.7118918 75.4548981 58.8024405 75.4684619 58.8777319 75.4909579 58.9361076 75.5127923 58.9954784 75.5432282 59.0571709 75.5819346 59.1218486 75.6203102 59.1865263 75.6729112 59.2339566 75.739076 59.2631444 75.8052409 59.2929956 75.8819921 59.3075896 75.9706529 59.3075896 76.224395 59.3075896 76.5714296 59.2024469 77.012749 58.9921616L77.012749 61.1981673C76.7917584 61.2860626 76.4639117 61.361354 76.0285472 61.4220515 75.5925209 61.4824173 75.253757 61.5129319 75.0112629 61.5129319 74.5259439 61.5129319 74.1206844 61.4552196 73.7954842 61.3401265 73.4699533 61.2247017 73.216542 61.085396 73.0345887 60.9208826 72.8526355 60.7563692 72.7146818 60.5036288 72.6210586 60.1639881 72.5274353 59.8236841 72.4692103 59.5162165 72.4473759 59.2422486 72.4252107 58.9682806 72.4083386 58.5732494 72.3977523 58.0574865L72.3977523 55.1280861 71.5045271 55.1280861 71.5045271 55.1280861zM81.7526648 59.3239746C81.981926 59.3239746 82.1926609 59.2669256 82.3838773 59.1528276 82.5750936 59.0390612 82.7143706 58.9080475 82.8023698 58.7597864L82.8023698 58.167737C82.6161158 57.8662396 82.2935623 57.7153251 81.8343784 57.7153251 81.2001885 57.7153251 80.883259 57.9906198 80.883259 58.5415407 80.883259 58.774712 80.9653034 58.9634381 81.1293922 59.107719 81.2931501 59.252 81.5009077 59.3239746 81.7526648 59.3239746M78.5946176 55.3793007L77.837692 53.6850777C79.2264917 52.945099 80.5097586 52.5742804 81.6871617 52.5742804 82.234014 52.5742804 82.7560544 52.6280126 83.2532831 52.7351453 83.7498501 52.8419464 84.2302068 53.0130934 84.6936914 53.2482548 85.1568452 53.4840794 85.5283607 53.8286953 85.8075763 54.283429 86.0867918 54.7381627 86.2260688 55.2701779 86.2260688 55.880138L86.2260688 59.0088783 87.2185412 59.0088783 87.2185412 61.2145523 83.6287685 61.2145523 83.2238398 60.4480391C82.9489249 60.8311299 82.6028829 61.1074196 82.1853828 61.2765765 81.7675519 61.4450701 81.3718863 61.5296486 80.9983858 61.5296486 80.051898 61.5296486 79.2254993 61.286527 78.5191897 60.8006153 77.8125494 60.314372 77.4592292 59.6131998 77.4592292 58.6967671 77.4592292 57.7388744 77.8198275 56.9677177 78.5410241 56.3849554 79.2622208 55.8015297 80.1415513 55.5096511 81.178685 55.5096511 81.4737801 55.5096511 81.7496874 55.5580764 82.0067378 55.6552587 82.2634573 55.7524411 82.4493805 55.8439848 82.5645073 55.928895 82.6793032 56.0141368 82.7583702 56.0871065 82.8023698 56.147804L82.8023698 55.621759C82.8023698 55.0605559 82.2829759 54.7799544 81.2441881 54.7799544 80.4617891 54.7799544 79.5784886 54.9796259 78.5946176 55.3793007M90.725277 57.0028426C90.725277 57.5288876 90.836434 57.9978836 91.0587478 58.4088355 91.2807308 58.820119 91.5692094 59.0254291 91.9245145 59.0254291 92.2689025 59.0254291 92.5603585 58.8317278 92.7992135 58.4443252 93.0374069 58.0562593 93.1406241 57.5507785 93.1072108 56.9282146 93.1072108 56.3822688 92.9881141 55.918248 92.7489283 55.5358207 92.5104041 55.1537249 92.230196 54.9623454 91.9079733 54.9623454 91.5523374 54.9623454 91.2668362 55.147423 91.0494847 55.5172466 90.8334565 55.8874018 90.725277 56.3822688 90.725277 57.0028426M87.5265385 63.1764082L88.3784106 61.3140233C88.6367843 61.5538281 89.0357582 61.7959547 89.5743399 62.0407348 90.1135832 62.2865099 90.6524957 62.4085683 91.1917391 62.4085683 91.8689361 62.4085683 92.3598791 62.2543369 92.6655606 61.9448792 92.9712421 61.6367482 93.123752 61.2725632 93.123752 60.8533193L93.123752 60.2907895C92.6463728 60.9183286 91.996965 61.2311032 91.174867 61.2311032 89.8839913 61.2311032 88.9153382 60.8254582 88.2699003 60.0144998 87.6241316 59.2035415 87.3012472 58.2104906 87.3012472 57.0360107 87.3012472 55.714928 87.65159 54.6721251 88.3519447 53.9056119 89.0522994 53.1400938 90.0546965 52.7566714 91.3584744 52.7566714 91.7025315 52.7566714 92.038318 52.8273193 92.3661648 52.9679517 92.6933498 53.1089159 92.9460995 53.2694491 93.123752 53.4495515L93.4697941 52.9225115 97.3913834 52.9225115 97.3913834 55.1281856 96.5481126 55.1281856 96.5481126 60.0695587C96.5481126 61.4798634 96.0985226 62.5870123 95.2000043 63.3916687 94.3014859 64.1956617 92.9765353 64.6032968 91.2251523 64.6142423 90.428197 64.6036285 89.7119627 64.453709 89.0771112 64.1651472 88.4419289 63.8762536 87.9248507 63.5465634 87.5265385 63.1764082M103.842586 59.0091105C104.206493 59.0091105 104.520776 58.8814136 104.785435 58.6260197 105.050094 58.3709576 105.182424 58.0309853 105.182424 57.6070978 105.182424 57.1835421 105.061012 56.8389262 104.818518 56.5722553 104.576023 56.3065793 104.233951 56.1729122 103.792963 56.1729122L102.51929 56.1729122 102.51929 59.0091105 103.842586 59.0091105 103.842586 59.0091105zM103.561386 51.8779839L102.51929 51.8779839 102.51929 54.2989185 103.528303 54.2989185C103.947127 54.2989185 104.239575 54.1941075 104.404987 53.9848172 104.570399 53.7748636 104.653105 53.4650742 104.653105 53.0557807 104.653105 52.6899373 104.551212 52.4027021 104.347093 52.1924168 104.142975 51.9824632 103.880962 51.8779839 103.561386 51.8779839L103.561386 51.8779839zM104.238252 61.2144528L98.13587 61.2144528 98.13587 59.0091105 99.09526 59.0091105 99.09526 51.8282319 98.13587 51.8282319 98.13587 49.6222261 104.136027 49.6222261C106.763433 49.6222261 108.077135 50.5837674 108.077135 52.5065181 108.077135 53.200725 107.969287 53.7353936 107.752928 54.109529 107.536899 54.4833327 107.152482 54.7898053 106.599675 55.0289468 107.197805 55.2037423 107.68147 55.5244772 108.051662 55.9891613 108.421523 56.4541771 108.606454 57.0644688 108.606454 57.8190415 108.606454 59.0014818 108.26372 59.8625239 107.578583 60.4038262 106.893447 60.9441334 105.779562 61.2144528 104.238252 61.2144528L104.238252 61.2144528zM113.791858 59.2245037C114.130952 59.2245037 114.402228 59.0235054 114.604692 58.6211772 114.807157 58.2191807 114.90872 57.7070663 114.90872 57.084834 114.90872 56.4629334 114.801864 55.950819 114.588482 55.5484908 114.3751 55.1464943 114.08199 54.9401892 113.709813 54.9292437 113.391891 54.9292437 113.123593 55.1332271 112.904587 55.5408622 112.685582 55.9481656 112.57641 56.4470128 112.57641 57.0364087 112.57641 57.6908139 112.691206 58.2191807 112.921128 58.6211772 113.15072 59.0235054 113.441184 59.2245037 113.791858 59.2245037M113.791858 61.429846C112.505613 61.429846 111.40827 61.0460919 110.499496 60.2775886 109.59006 59.5090854 109.141132 58.4288026 109.15238 57.035082 109.163297 55.7203012 109.620827 54.6718598 110.524308 53.8927428 111.427788 53.113294 112.489072 52.723238 113.709152 52.723238 115.061891 52.7457923 116.16519 53.1438086 117.018716 53.9176188 117.872242 54.6914289 118.310254 55.7531376 118.33275 57.1020814 118.343667 58.4397481 117.916573 59.4954865 117.051799 60.2689649 116.187024 61.0431068 115.100267 61.429846 113.791858 61.429846M124.072615 59.0091105L124.072615 61.2144528 119.192959 61.2144528 119.192959 59.0091105 119.672323 59.0091105 119.672323 55.0783672 119.192959 55.0783672 119.192959 52.9224452 122.690431 52.9224452 123.096683 53.9509858C123.732858 53.0660628 124.516911 52.6242646 125.449174 52.6242646 125.950372 52.6242646 126.38706 52.6955759 126.760561 52.8385301 127.133399 52.981816 127.425848 53.1658985 127.637245 53.3911095 127.848641 53.6166521 128.018685 53.8972536 128.146714 54.2329141 128.274743 54.5682429 128.361088 54.8929579 128.405749 55.2063958 128.449418 55.519502 128.472576 55.8687613 128.472576 56.2535105L128.472576 59.0091105 129.21693 59.0091105 129.21693 61.2144528 125.048215 61.2144528 125.048215 56.6873483 125.048215 56.305916C125.048215 56.2392482 125.034651 56.1095612 125.007193 55.9158599 124.979734 55.722822 124.936066 55.5874964 124.876517 55.5095516 124.815976 55.4326017 124.723015 55.3523351 124.597302 55.269415 124.471588 55.186495 124.315439 55.1450349 124.129847 55.1450349 123.44074 55.1450349 123.096683 55.6548275 123.096683 56.6737494L123.096683 59.0091105 124.072615 59.0091105 124.072615 59.0091105zM134.658987 59.0091105L134.658987 61.2144528 129.779331 61.2144528 129.779331 59.0091105 130.258695 59.0091105 130.258695 55.0783672 129.779331 55.0783672 129.779331 52.9224452 133.276804 52.9224452 133.683056 53.9509858C134.31923 53.0660628 135.103284 52.6242646 136.035546 52.6242646 136.536745 52.6242646 136.973433 52.6955759 137.346933 52.8385301 137.719772 52.981816 138.01222 53.1658985 138.223617 53.3911095 138.435014 53.6166521 138.605057 53.8972536 138.733086 54.2329141 138.861115 54.5682429 138.94746 54.8929579 138.992121 55.2063958 139.03579 55.519502 139.058948 55.8687613 139.058948 56.2535105L139.058948 59.0091105 139.803302 59.0091105 139.803302 61.2144528 135.634587 61.2144528 135.634587 56.6873483 135.634587 56.305916C135.634587 56.2392482 135.621023 56.1095612 135.593565 55.9158599 135.566107 55.722822 135.522438 55.5874964 135.46289 55.5095516 135.402349 55.4326017 135.309387 55.3523351 135.183674 55.269415 135.057961 55.186495 134.901812 55.1450349 134.716219 55.1450349 134.027113 55.1450349 133.683056 55.6548275 133.683056 56.6737494L133.683056 59.0091105 134.658987 59.0091105 134.658987 59.0091105zM81.5642776 21.0784367C81.4273522 22.1433849 81.1493711 23.1645771 80.7506647 24.1234071L82.8752173 24.1234071C82.8768714 24.1184319 82.8781947 24.1137884 82.8798488 24.1091449L82.8798488 24.1234071 85.7533873 22.4397979 85.7533873 16.880836 82.9079689 15.0642229 82.9079689 15.0768268C82.9063148 15.0718516 82.9049915 15.0672081 82.9033374 15.0625645L80.7827546 15.0625645C81.317345 16.3742571 81.6271795 17.8008451 81.6590277 19.2954208 81.652504 19.289463 81.6460466 19.2835971 81.6396553 19.2778232 80.8340985 20.0227772 80.1224958 20.6158216 79.5031931 21.0566247 78.8838903 21.4974278 78.2649183 21.7176635 77.6456155 21.7176635 77.1129887 21.7176635 76.7355183 21.5813429 76.5125429 21.3080384 76.895968 20.8237851 77.2522656 20.3395319 77.5804432 19.8552786 77.9082899 19.3710254 78.1937911 18.9053462 78.4349619 18.4585729 78.6767944 18.0114678 78.8653641 17.5955407 79.0016637 17.2104599 79.1379632 16.8260424 79.2057822 16.4966838 79.2057822 16.2233793 79.1809703 16.0996625 79.0853622 15.9318323 78.9179652 15.7205519 78.750899 15.5096033 78.5371866 15.2953378 78.2774896 15.0780872 78.017131 14.8608366 77.7352689 14.6561898 77.4319031 14.4634836 77.1285374 14.271109 76.8344348 14.1255013 76.5495952 14.0256656 76.3266197 14.261822 76.0887572 14.61871 75.8343534 15.0966613 75.5802805 15.5749443 75.3483727 16.0930289 75.1376378 16.6519102 74.9272336 17.2104599 74.7538818 17.772658 74.6175822 18.3375095 74.4812827 18.9023611 74.4134637 19.3836292 74.4134637 19.7806506 74.4134637 20.2775077 74.4690422 20.7186425 74.5805299 21.1030599 74.3082617 21.4509926 74.0293769 21.7859897 73.7448682 22.1087146 73.4593669 22.4321029 73.1781664 22.7140312 72.8992817 22.9564895 72.6207277 23.1982844 72.3514369 23.3909907 72.0910783 23.5336132 71.8310505 23.6765674 71.6017894 23.7478787 71.4036257 23.7478787 71.3047093 23.7478787 71.2365596 23.7077454 71.1995073 23.6268154 71.162455 23.5462171 71.1439288 23.4563317 71.1439288 23.3568276 71.1439288 23.2075715 71.1743646 22.9720785 71.2365596 22.6490218 71.2984237 22.3262969 71.3821222 21.9505031 71.4873243 21.5219722 71.5925263 21.0937729 71.7195628 20.6347273 71.8684337 20.1438405 72.0169737 19.653617 72.1747768 19.1570916 72.341843 18.6539326 72.50924 18.1511052 72.6855693 17.6641985 72.8714924 17.1918858 73.0570848 16.7202364 73.2430079 16.2980073 73.4286003 15.9255304 72.9085447 15.4664848 72.3448204 15.0595131 71.7384198 14.7056102 71.1313575 14.3517073 70.5120547 14.0322992 69.8805114 13.7463908 69.6578668 14.3424203 69.4286057 14.9477368 69.1933897 15.5623404 68.9578429 16.176944 68.7348674 16.8008347 68.5244633 17.4340124 68.3140591 18.0671901 68.1218503 18.7070014 67.9488293 19.3524513 67.7751466 19.9982328 67.6451327 20.6499846 67.5584568 21.3080384 67.2984291 21.631095 67.035093 21.9382309 66.7691104 22.2297779 66.5024662 22.5219883 66.2424384 22.7793722 65.9886963 23.0029247 65.7349542 23.2264772 65.4934526 23.4065797 65.2645223 23.5429003 65.0349303 23.6798842 64.8278344 23.7478787 64.6419112 23.7478787 64.542664 23.7478787 64.4715368 23.7077454 64.4281989 23.6268154 64.3848609 23.5462171 64.3633573 23.4563317 64.3633573 23.3568276 64.3633573 23.2075715 64.4004096 22.9535044 64.4748451 22.5929679 64.5492805 22.2330947 64.6481969 21.8174993 64.7719251 21.3451866 64.8956534 20.8735372 65.0415468 20.358106 65.208613 19.7995563 65.37601 19.240675 65.5523393 18.6884273 65.7379316 18.1418182 65.9238548 17.5955407 66.1157328 17.068169 66.3138964 16.5587081 66.5117293 16.0495788 66.7036073 15.6087757 66.8898612 15.2362987 66.3698057 14.7772531 65.8057506 14.3702814 65.1993499 14.0163785 64.5922876 13.6624756 63.9733157 13.3430675 63.3417724 13.0571591 63.0817446 13.7901726 62.7965742 14.5629877 62.4872537 15.3759361 62.1779331 16.1895479 61.8897853 17.0243872 61.6234718 17.8811174 61.3571584 18.7378477 61.1341829 19.5978947 60.9545454 20.4605952 60.7752388 21.3236273 60.6852546 22.1647686 60.6852546 22.9843506 60.6852546 23.3193477 60.8122911 23.6516914 61.0660332 23.9807183 61.3201061 24.3097451 61.6171862 24.6016238 61.957935 24.8560226 62.2983531 25.1104214 62.6450568 25.3183849 62.9980461 25.4799132 63.3510355 25.6411099 63.6203263 25.7220399 63.8062495 25.7220399 64.3633573 25.6848917 64.964134 25.4547055 65.6079177 25.0328082 66.2517015 24.6109108 66.8954853 24.0954796 67.5399307 23.487178 67.6517492 23.7850269 67.8436272 24.0676185 68.1158955 24.3346211 68.3881638 24.6016238 68.6759808 24.8374485 68.9796773 25.0424269 69.283043 25.2470737 69.5804539 25.4115871 69.87191 25.5356355 70.1617119 25.659684 70.3946121 25.7220399 70.567964 25.7220399 70.9269082 25.6968322 71.3076867 25.5976598 71.7102997 25.424191 72.1125819 25.2500588 72.5247887 25.020536 72.9459279 24.7349593 73.3667362 24.4493825 73.7908527 24.1173705 74.2182775 23.7385916 74.6453714 23.3598127 75.0635332 22.9535044 75.472101 22.5186715 75.9551042 22.9282967 76.5684521 23.1332751 77.3114832 23.1332751 78.0912356 23.1332751 78.8931533 22.9004355 79.7169054 22.4347564 80.2816118 22.1153913 80.8975093 21.6634274 81.5642776 21.0784367zM88.8779882 19.44635C88.8779882 23.7966689 86.9932831 28.3270902 84.9587146 31.234268 81.8115846 36.4552477 72.5359375 45.2560529 72.5359375 45.2560529L72.5359375 38.447983C71.6155848 38.5846353 70.6757134 38.6562782 69.7183084 38.6562782 59.1531088 38.6562782 50.5579669 30.0388922 50.5579669 19.44635 50.5579669 8.85413942 59.1531088.237085082 69.7183084.237085082 80.2835079.237085082 88.8779882 8.85413942 88.8779882 19.44635zM80.2032169 25.2459128C78.1851897 28.9418264 74.2765025 31.4579532 69.7865574 31.4579532 63.2378936 31.4579532 57.9103017 26.1169053 57.9103017 19.5516253 57.9103017 12.9860137 63.2378936 7.6449657 69.7865574 7.6449657 74.3122315 7.6449657 78.2470538 10.2012258 80.2508556 13.9452331L82.4696931 13.9452331C80.3199978 9.06323068 75.451259 5.65488386 69.7865574 5.65488386 62.1309561 5.65488386 55.9253569 11.876543 55.9253569 19.5516253 55.9253569 27.2267076 62.1309561 33.4480351 69.7865574 33.4480351 75.4165225 33.4480351 80.2597878 30.0804849 82.4293325 25.2459128L80.2032169 25.2459128z"/>
  </g>
</svg>
