<svg xmlns="http://www.w3.org/2000/svg" width="198" height="116" viewBox="0 0 198 116">
  <g fill="#828889" fill-rule="evenodd" transform="translate(32.207 44.28)">
    <path d="M15.1151933 12.6631537C17.5224318 12.6631537 19.4742525 10.8002157 19.4742525 8.50196424 19.4742525 6.20371282 17.5224318 4.34035151 15.1151933 4.34035151 12.7079548 4.34035151 10.756769 6.20328957 10.756769 8.50196424 10.756769 10.7997924 12.7075316 12.6631537 15.1151933 12.6631537M22.0435537 5.62559466C23.4580576 5.62559466 24.6054903 4.41869522 24.6054903 2.92969918 24.6054903 1.44070314 23.4580576.232533947 22.0435537.232533947 20.6290498.232533947 19.4816171 1.44070314 19.4816171 2.92969918 19.4816171 4.41869522 20.6290498 5.62559466 22.0435537 5.62559466M31.3734598 6.50328968C31.4528193 4.55887586 32.8757883 3.30372584 34.836074 3.30372584 36.7965713 3.30372584 38.3981521 4.3163532 38.3981521 6.50646406 38.3981521 9.12046053 36.21439 9.12215353 33.6892762 9.25082175L33.6892762 12.2635204C34.2701878 12.2635204 33.5305571 12.2575949 34.0862853 12.2575949 36.8962469 12.2575949 38.8222493 13.4340203 38.8222493 15.6554517 38.8222493 18.3684888 37.3194976 19.8388618 34.6075186 19.8388618 32.4504213 19.8388618 31.082475 18.7115335 31.1142188 16.6835277L26.9964125 16.6835277C27.0086867 21.2641586 30.1955531 23.1061458 34.8354391 23.1061458 39.47596 23.1061458 42.9392091 21.3416135 42.9392091 16.4719023 42.9392091 13.2380552 41.5344399 11.211954 38.6267075 10.5582432L38.6267075 10.4924277C41.1431446 10.1007092 42.5151119 8.07439636 42.5151119 5.85275332 42.5151119 1.99715086 38.7894474.0355953858 34.836074.0355953858 31.1760134.0355953858 27.95698 1.40777423 27.4012518 6.50625244L31.3734598 6.50328968zM63.5915165 8.00985063C63.228579 3.10903051 59.2802846.521487216 54.6964793.521487216 47.8889147.521487216 44.7572826 5.78630296 44.7572826 11.8220699 44.7572826 17.8584717 47.8889147 23.1228642 54.6964793 23.1228642 60.0969469 23.1228642 62.7746426 20.7621833 63.8636667 15.4074268L60.6869584 15.4074268C59.9604485 18.4935594 58.417488 20.6722425 54.6964793 20.6722425 49.9761756 20.6722425 48.0245665 16.5863917 48.0245665 11.8220699 48.0245665 7.05626675 49.9761756 2.97232053 54.6964793 2.97232053 57.872976 2.97232053 60.142658 4.78764288 60.3242325 8.00985063L63.5915165 8.00985063 63.5915165 8.00985063zM75.9963603 20.6722425C71.3219793 20.6722425 68.4178445 17.2674021 68.4178445 11.8220699 68.4178445 6.37610284 71.3219793 2.97232053 75.9963603 2.97232053 80.6707413 2.97232053 83.5759342 6.37610284 83.5759342 11.8220699 83.5750877 17.2674021 80.6707413 20.6722425 75.9963603 20.6722425L75.9963603 20.6722425zM75.9963603 23.1228642C81.8507643 23.1228642 86.8432182 19.3102217 86.8432182 11.8220699 86.8432182 4.33412973 81.8507643.521487216 75.9963603.521487216 70.1421679.521487216 65.149714 4.3339181 65.149714 11.8220699 65.149714 19.3106449 70.1413214 23.1228642 75.9963603 23.1228642L75.9963603 23.1228642zM106.093084 22.3064135L106.093084 8.14634899C106.093084 3.09083073 103.392533.52127559 99.413553.52127559 96.0556934.52127559 93.8323574 2.15544663 92.288762 4.92392961L92.1979747 4.92392961 92.1979747 1.33899599 88.9840203 1.33899599 88.9840203 22.3064135 92.1979747 22.3064135 92.1979747 11.0506954C92.1979747 5.69615055 95.2836841 2.97232053 98.7784653 2.97232053 101.728523 2.97232053 103.089697 5.2417909 103.089697 7.78341149L103.089697 22.3064135 106.093084 22.3064135 106.093084 22.3064135zM111.624527 4.31366555C111.459247 4.37122765 111.242755 4.37799966 111.134614 4.37799966 110.131298 4.37799966 109.934698 3.57064891 109.934698 2.99248842 109.934698 2.53537764 110.106538 1.9383825 110.652743 1.9383825 111.059064 1.9383825 111.191541 2.24269977 111.191541 2.56690982L111.706426 2.56690982C111.706426 2.084404 111.47787 1.57586825 110.67052 1.57586825 109.799893 1.57586825 109.438225 2.18027029 109.438225 3.08835471 109.438225 4.1813997 110.029506 4.74030228 110.99473 4.74030228 111.275133 4.74030228 111.433641 4.71490724 111.62368 4.65734514L111.62368 4.31366555 111.624527 4.31366555 111.624527 4.31366555zM113.250233 4.74009066C114.146466 4.74009066 114.495648 4.0470176 114.495648 3.16432822 114.495648 2.28142721 114.14562 1.57523338 113.250233 1.57523338 112.360983 1.57523338 112.017727 2.28100396 112.017727 3.16432822 112.017727 4.0470176 112.360983 4.74009066 113.250233 4.74009066L113.250233 4.74009066zM112.513565 3.15819108C112.513565 2.40184204 112.761802 1.93795925 113.250233 1.93795925 113.745648 1.93795925 114.000233 2.40184204 114.000233 3.15819108 114.000233 3.92025401 113.745648 4.37799966 113.250233 4.37799966 112.760955 4.37799966 112.513565 3.92088888 112.513565 3.15819108L112.513565 3.15819108zM115.16248 4.67004266L115.594619 4.67004266 115.594619 3.42483904C115.594619 2.87757585 115.880313 2.00779562 116.452336 2.00779562 116.896326 2.00779562 116.896326 2.47189003 116.896326 2.99248842L116.896326 4.67004266 117.329312 4.67004266 117.329312 2.50934772C117.329312 2.00779562 117.068589 1.57523338 116.55434 1.57523338 115.880313 1.57523338 115.690485 2.09646664 115.607316 2.34427994L115.594619 2.34427994 115.594619 1.64570462 115.16248 1.64570462 115.16248 4.67004266 115.16248 4.67004266zM118.212213 4.67004266L118.644987 4.67004266 118.644987 3.42483904C118.644987 2.87757585 118.930046 2.00779562 119.502281 2.00779562 119.947117 2.00779562 119.947117 2.47189003 119.947117 2.99248842L119.947117 4.67004266 120.379045 4.67004266 120.379045 2.50934772C120.379045 2.00779562 120.118746 1.57523338 119.603015 1.57523338 118.930046 1.57523338 118.739795 2.09646664 118.656203 2.34427994L118.644987 2.34427994 118.644987 1.64570462 118.212213 1.64570462 118.212213 4.67004266 118.212213 4.67004266zM123.225406 4.2948309C123.085522 4.32699795 122.964683 4.37799966 122.628622 4.37799966 121.758207 4.37799966 121.553777 3.50694968 121.553777 3.04941565L121.553777 2.87186197 123.294819 2.87186197 123.294819 2.72541722C123.294819 2.06535771 122.953256 1.57523338 122.240925 1.57523338 121.434632 1.57523338 121.05942 2.15466362 121.05942 3.05703416 121.05942 4.17462769 121.599065 4.74009066 122.533391 4.74009066 122.812736 4.74009066 123.041503 4.70771198 123.226252 4.65120801L123.226252 4.2948309 123.225406 4.2948309 123.225406 4.2948309zM121.587002 2.50934772C121.624672 2.30682225 121.770058 1.93795925 122.220397 1.93795925 122.659308 1.93795925 122.799827 2.306399 122.799827 2.50934772L121.587002 2.50934772 121.587002 2.50934772zM125.925534 4.31366555C125.760043 4.37122765 125.544608 4.37799966 125.436468 4.37799966 124.432305 4.37799966 124.235917 3.57064891 124.235917 2.99248842 124.235917 2.53537764 124.407334 1.9383825 124.954385 1.9383825 125.360283 1.9383825 125.493818 2.24269977 125.493818 2.56690982L126.009126 2.56690982C126.009126 2.084404 125.780359 1.57586825 124.973008 1.57586825 124.102593 1.57586825 123.740714 2.18027029 123.740714 3.08835471 123.740714 4.1813997 124.332418 4.74030228 125.297007 4.74030228 125.576987 4.74030228 125.735706 4.71490724 125.925534 4.65734514L125.925534 4.31366555 125.925534 4.31366555zM127.965602 4.32022594C127.870159 4.35196974 127.81302 4.37799966 127.673559 4.37799966 127.228511 4.37799966 127.177721 4.06669876 127.177721 3.86946392L127.177721 2.00779562 127.991632 2.00779562 127.991632 1.64570462 127.177721 1.64570462 127.177721.667148952 126.745794.940357293 126.745794 1.64570462 126.250802 1.64570462 126.250802 2.00779562 126.745794 2.00779562 126.745794 3.95792332C126.745794 4.49862612 126.974561 4.73945578 127.584253 4.73945578 127.711229 4.73945578 127.837781 4.72654663 127.965602 4.70728873L127.965602 4.32022594 127.965602 4.32022594zM128.562386 4.67004266L128.995583 4.67004266 128.995583 1.645493 128.562386 1.645493 128.562386 4.67004266 128.562386 4.67004266zM128.491703.858458279L129.064573.858458279 129.064573.286434927 128.491703.286434927 128.491703.858458279 128.491703.858458279zM130.945499 4.74009066C131.840886 4.74009066 132.190068 4.0470176 132.190068 3.16432822 132.190068 2.28142721 131.840886 1.57523338 130.945499 1.57523338 130.055614 1.57523338 129.712781 2.28100396 129.712781 3.16432822 129.712781 4.0470176 130.055614 4.74009066 130.945499 4.74009066L130.945499 4.74009066zM130.207985 3.15819108C130.207985 2.40184204 130.456221 1.93795925 130.945499 1.93795925 131.440279 1.93795925 131.694864 2.40184204 131.694864 3.15819108 131.694864 3.92025401 131.440279 4.37799966 130.945499 4.37799966 130.456221 4.37799966 130.207985 3.92088888 130.207985 3.15819108L130.207985 3.15819108zM132.857957 4.67004266L133.289885 4.67004266 133.289885 3.42483904C133.289885 2.87757585 133.575367 2.00779562 134.147814 2.00779562 134.591592 2.00779562 134.591592 2.47189003 134.591592 2.99248842L134.591592 4.67004266 135.024578 4.67004266 135.024578 2.50934772C135.024578 2.00779562 134.762797 1.57523338 134.248971 1.57523338 133.575367 1.57523338 133.383847 2.09646664 133.301947 2.34427994L133.289885 2.34427994 133.289885 1.64570462 132.857957 1.64570462 132.857957 4.67004266 132.857957 4.67004266zM111.836152 13.2992784C111.670873 13.3574754 111.45438 13.3634009 111.346239 13.3634009 110.342924 13.3634009 110.146324 12.5556269 110.146324 11.9783129 110.146324 11.5216254 110.318163 10.9237837 110.864369 10.9237837 111.270689 10.9237837 111.403167 11.2285242 111.403167 11.5525227L111.918051 11.5525227C111.918051 11.069382 111.689496 10.5616927 110.882145 10.5616927 110.011518 10.5616927 109.649851 11.1644018 109.649851 12.0737559 109.649851 13.166166 110.241132 13.7259151 111.206355 13.7259151 111.486759 13.7259151 111.645266 13.7003085 111.835306 13.6427464L111.835306 13.2992784 111.836152 13.2992784 111.836152 13.2992784zM113.461858 13.7259151C114.358092 13.7259151 114.707273 13.0330537 114.707273 12.1497294 114.707273 11.2668284 114.357245 10.5616927 113.461858 10.5616927 112.572608 10.5616927 112.229352 11.2666168 112.229352 12.1497294 112.229352 13.0330537 112.572608 13.7259151 113.461858 13.7259151L113.461858 13.7259151zM112.72519 12.1435923C112.72519 11.3872433 112.973427 10.9237837 113.461858 10.9237837 113.957273 10.9237837 114.211859 11.3872433 114.211859 12.1435923 114.211859 12.9054436 113.957273 13.3634009 113.461858 13.3634009 112.97258 13.3634009 112.72519 12.9054436 112.72519 12.1435923L112.72519 12.1435923zM115.374105 13.6556555L115.806244 13.6556555 115.806244 12.409817C115.806244 11.8638236 116.091938 10.9936201 116.663962 10.9936201 117.107952 10.9936201 117.107952 11.4570796 117.107952 11.9791594L117.107952 13.6556555 117.540937 13.6556555 117.540937 11.4960187C117.540937 10.9936201 117.280215 10.5616927 116.765965 10.5616927 116.091938 10.5616927 115.90211 11.082926 115.818942 11.3309509L115.806244 11.3309509 115.806244 10.6319523 115.374105 10.6319523 115.374105 13.6556555 115.374105 13.6556555zM120.393012 13.2992784C120.228368 13.3574754 120.012298 13.3634009 119.904792 13.3634009 118.901477 13.3634009 118.703818 12.5556269 118.703818 11.9783129 118.703818 11.5216254 118.875235 10.9237837 119.421228 10.9237837 119.828607 10.9237837 119.96172 11.2285242 119.96172 11.5525227L120.475546 11.5525227C120.475546 11.069382 120.247625 10.5616927 119.440698 10.5616927 118.570706 10.5616927 118.206922 11.1644018 118.206922 12.0737559 118.206922 13.166166 118.798627 13.7259151 119.764273 13.7259151 120.044253 13.7259151 120.202761 13.7003085 120.393012 13.6427464L120.393012 13.2992784 120.393012 13.2992784zM122.967223 13.2806554C122.826704 13.3121875 122.706077 13.3634009 122.369381 13.3634009 121.499178 13.3634009 121.296017 12.4927741 121.296017 12.0356634L121.296017 11.8568399 123.036213 11.8568399 123.036213 11.7116649C123.036213 11.0507589 122.693168 10.5616927 121.982319 10.5616927 121.175179 10.5616927 120.800391 11.1387951 120.800391 12.0415889 120.800391 13.1596057 121.340247 13.7259151 122.274362 13.7259151 122.55413 13.7259151 122.782686 13.6935364 122.968493 13.6370325L122.968493 13.2806554 122.967223 13.2806554 122.967223 13.2806554zM121.328396 11.4955954C121.366065 11.2926467 121.511875 10.9237837 121.963272 10.9237837 122.401337 10.9237837 122.541856 11.2922235 122.541856 11.4955954L121.328396 11.4955954 121.328396 11.4955954zM123.697754 15.0153485L124.129469 15.0153485 124.129469 13.1596057 124.141955 13.1596057C124.212215 13.3752519 124.409027 13.7259151 124.93555 13.7259151 125.68026 13.7259151 125.966378 12.9314735 125.966378 12.1179856 125.966378 11.1586879 125.661214 10.5616927 124.930048 10.5616927 124.447542 10.5616927 124.205655 10.9305557 124.141955 11.1453555L124.129469 11.1453555 124.129469 10.6313175 123.697754 10.6313175 123.697754 15.0153485 123.697754 15.0153485zM124.129469 12.1304715C124.129469 11.6096615 124.339825 10.9237837 124.840742 10.9237837 125.406205 10.9237837 125.470539 11.6475425 125.470539 12.0356634 125.470539 12.6768882 125.343141 13.3634009 124.828468 13.3634009 124.371357 13.3634009 124.129469 12.8044983 124.129469 12.1304715L124.129469 12.1304715zM128.05639 13.306262C127.961158 13.337371 127.903808 13.3634009 127.763712 13.3634009 127.319722 13.3634009 127.267874 13.0525232 127.267874 12.8557116L127.267874 10.9940433 128.081785 10.9940433 128.081785 10.6319523 127.267874 10.6319523 127.267874 9.65318505 126.836158 9.92723989 126.836158 10.6319523 126.34032 10.6319523 126.34032 10.9940433 126.836158 10.9940433 126.836158 12.9445943C126.836158 13.4844506 127.064925 13.7259151 127.674406 13.7259151 127.802439 13.7259151 127.928145 13.7138525 128.05639 13.6935364L128.05639 13.306262 128.05639 13.306262zM128.652538 13.6556555L129.085735 13.6556555 129.085735 10.6313175 128.652538 10.6313175 128.652538 13.6556555 128.652538 13.6556555zM128.582914 9.8438595L129.15536 9.8438595 129.15536 9.27183615 128.582914 9.27183615 128.582914 9.8438595 128.582914 9.8438595zM131.035651 13.7259151C131.932097 13.7259151 132.281067 13.0330537 132.281067 12.1497294 132.281067 11.2668284 131.931038 10.5616927 131.035651 10.5616927 130.146613 10.5616927 129.803569 11.2666168 129.803569 12.1497294 129.802934 13.0330537 130.146613 13.7259151 131.035651 13.7259151L131.035651 13.7259151zM130.29856 12.1435923C130.29856 11.3872433 130.546374 10.9237837 131.035651 10.9237837 131.531278 10.9237837 131.785229 11.3872433 131.785229 12.1435923 131.785229 12.9054436 131.531278 13.3634009 131.035651 13.3634009 130.546374 13.3634009 130.29856 12.9054436 130.29856 12.1435923L130.29856 12.1435923zM132.948322 13.6556555L133.380037 13.6556555 133.380037 12.409817C133.380037 11.8638236 133.665308 10.9936201 134.237966 10.9936201 134.683015 10.9936201 134.683015 11.4570796 134.683015 11.9791594L134.683015 13.6556555 135.115788 13.6556555 135.115788 11.4960187C135.115788 10.9936201 134.854008 10.5616927 134.339123 10.5616927 133.665308 10.5616927 133.475904 11.082926 133.392523 11.3305277L133.380037 11.3305277 133.380037 10.6319523 132.948322 10.6319523 132.948322 13.6556555 132.948322 13.6556555zM111.733641 22.2474759C111.56032 22.3037682 111.332611 22.3109635 111.218968 22.3109635 110.165074 22.3109635 109.957892 21.5099615 109.957892 20.9353986 109.957892 20.4816739 110.138832 19.8889112 110.712972 19.8889112 111.139397 19.8889112 111.27907 20.1913239 111.27907 20.513206L111.819561 20.513206C111.819561 20.0345095 111.580212 19.5295714 110.732865 19.5295714 109.818008 19.5295714 109.438141 20.1280479 109.438141 21.0295719 109.438141 22.1147868 110.059261 22.6692452 111.072735 22.6692452 111.366683 22.6692452 111.53302 22.6436386 111.733641 22.5873462L111.733641 22.2474759 111.733641 22.2474759zM113.441246 22.6696685C114.382556 22.6696685 114.748879 21.9823093 114.748879 21.1055454 114.748879 20.2294164 114.382556 19.5295714 113.441246 19.5295714 112.50692 19.5295714 112.147368 20.2294164 112.147368 21.1055454 112.146522 21.9823093 112.50692 22.6696685 113.441246 22.6696685L113.441246 22.6696685zM112.667967 21.0991967C112.667967 20.3487731 112.928266 19.8889112 113.441246 19.8889112 113.962479 19.8889112 114.228281 20.3487731 114.228281 21.0991967 114.228281 21.8557573 113.962479 22.3109635 113.441246 22.3109635 112.928266 22.3113867 112.667967 21.8557573 112.667967 21.0991967L112.667967 21.0991967zM115.448936 22.6011019L115.903084 22.6011019 115.903084 21.3645749C115.903084 20.8228139 116.20338 19.9579011 116.803126 19.9579011 117.270607 19.9579011 117.270607 20.4190328 117.270607 20.9360335L117.270607 22.6011019 117.724966 22.6011019 117.724966 20.4567021C117.724966 19.9579011 117.451335 19.5295714 116.911055 19.5295714 116.20338 19.5295714 116.003606 20.0465721 115.916628 20.292904L115.903084 20.292904 115.903084 19.598138 115.448936 19.598138 115.448936 22.6011019 115.448936 22.6011019zM119.372682 22.6011019L119.833813 22.6011019 120.9076 19.5985612 120.419381 19.5985612 119.606316 21.9706699 119.592984 21.9706699 118.658658 19.5985612 118.171919 19.5985612 119.372682 22.6011019 119.372682 22.6011019zM123.422768 22.2290645C123.276746 22.2610199 123.149771 22.3113867 122.796145 22.3113867 121.881712 22.3113867 121.668817 21.4462623 121.668817 20.9929607L121.668817 20.8160419 123.496837 20.8160419 123.496837 20.6712902C123.496837 20.0152516 123.137497 19.5295714 122.389401 19.5295714 121.541418 19.5295714 121.148642 20.1034993 121.148642 20.9986746 121.148642 22.1092845 121.715798 22.6692452 122.696258 22.6692452 122.989571 22.6692452 123.2304 22.6385595 123.423826 22.5814207L123.423826 22.2290645 123.422768 22.2290645 123.422768 22.2290645zM121.702042 20.4567021C121.741616 20.255658 121.895467 19.8889112 122.368239 19.8889112 122.828524 19.8889112 122.975392 20.255658 122.975392 20.4567021L121.702042 20.4567021 121.702042 20.4567021zM124.190121 22.6011019L124.644058 22.6011019 124.644058 21.3592842C124.644058 20.5519335 124.997472 19.9902798 125.717633 19.9902798L125.717633 19.5302062C124.990912 19.5302062 124.750717 19.9769474 124.657602 20.1794728L124.644058 20.1794728 124.644058 19.5991961 124.190121 19.5991961 124.190121 22.6011019 124.190121 22.6011019zM126.912682 20.7534008C126.658731 20.6270605 126.338542 20.5263268 126.338542 20.2806298 126.338542 20.0660417 126.592281 19.8895461 126.979555 19.8895461 127.299321 19.8895461 127.61295 19.9902798 127.719821 20.0281607L127.719821 19.6309399C127.574011 19.5991961 127.313288 19.5302062 126.97363 19.5302062 126.26532 19.5302062 125.885452 19.838756 125.885452 20.3242246 125.885452 20.8164652 126.312935 20.9806865 126.605825 21.1381357L126.892366 21.2833107C127.079866 21.384256 127.46714 21.5160986 127.46714 21.8254949 127.46714 22.1725605 127.13383 22.3113867 126.692591 22.3113867 126.33304 22.3113867 125.952326 22.1791209 125.871696 22.1535142L125.871696 22.543963C125.99846 22.5820556 126.326479 22.6707266 126.73936 22.6707266 127.480684 22.6707266 127.920865 22.3619652 127.920865 21.7628538 127.920865 21.2454298 127.513063 21.0689342 127.17933 20.904713L126.912682 20.7534008 126.912682 20.7534008zM128.534155 22.6011019L128.988515 22.6011019 128.988515 19.599831 128.534155 19.599831 128.534155 22.6011019 128.534155 22.6011019zM128.460509 18.8176636L129.061314 18.8176636 129.061314 18.2490263 128.460509 18.2490263 128.460509 18.8176636 128.460509 18.8176636zM131.036413 22.6696685C131.977511 22.6696685 132.344893 21.9823093 132.344893 21.1055454 132.344893 20.2294164 131.977511 19.5295714 131.036413 19.5295714 130.102299 19.5295714 129.741901 20.2294164 129.741901 21.1055454 129.741901 21.9823093 130.101241 22.6696685 131.036413 22.6696685L131.036413 22.6696685zM130.262923 21.0991967C130.262923 20.3487731 130.522164 19.8889112 131.036413 19.8889112 131.557858 19.8889112 131.824295 20.3487731 131.824295 21.0991967 131.824295 21.8557573 131.557858 22.3109635 131.036413 22.3109635 130.522164 22.3113867 130.262923 21.8557573 130.262923 21.0991967L130.262923 21.0991967zM133.044738 22.6011019L133.497828 22.6011019 133.497828 21.3645749C133.497828 20.8228139 133.798548 19.9579011 134.398505 19.9579011 134.865774 19.9579011 134.865774 20.4190328 134.865774 20.9360335L134.865774 22.6011019 135.320346 22.6011019 135.320346 20.4567021C135.320346 19.9579011 135.045233 19.5295714 134.506223 19.5295714 133.798548 19.5295714 133.597927 20.0465721 133.511584 20.292904L133.499098 20.292904 133.499098 19.598138 133.044738 19.598138 133.044738 22.6011019 133.044738 22.6011019zM12.3797662 17.1812917C12.3797662 20.5416908 9.65572455 23.2655208 6.29553706 23.2655208 2.93534958 23.2655208.211307923 20.5416908.211307923 17.1812917.211307923 13.8208926 2.93534958 11.0970626 6.29553706 11.0970626 9.65572455 11.0970626 12.3797662 13.8208926 12.3797662 17.1812917"/>
  </g>
</svg>
