<svg xmlns="http://www.w3.org/2000/svg" width="173" height="42" viewBox="0 0 173 42">
  <g fill="none" fill-rule="evenodd">
    <polyline fill="#D6D6D6" points="71.793 28.207 72.827 28.207 72.827 41.978 70.414 41.978 70.414 28.207 71.793 28.207"/>
    <polyline fill="#BBBBBB" points="71.793 14.368 72.827 14.368 72.827 28.207 70.414 28.207 70.414 14.368 71.793 14.368"/>
    <path fill="#828889" d="M59.8504183,5.71957377 C59.8697171,5.56603279 59.8800558,5.40629508 59.8800558,5.24380328 C59.8800558,5.15498361 59.880745,5.05170492 59.8697171,4.93465574 C61.2433785,4.91537705 62.4481753,3.92665574 62.4481753,2.79059016 C62.4481753,2.21154098 62.0711594,1.77501639 61.857494,1.51406557 C61.9050518,1.50442623 61.9532988,1.49272131 62.0022351,1.48101639 C62.203494,1.65590164 62.7748765,2.27695082 62.7748765,3.06118033 C62.7748765,4.42583607 61.4094861,5.69134426 59.8504183,5.71957377 L59.8504183,5.71957377 Z M58.4671076,0.968754098 C58.4409163,0.817278689 58.3837092,0.67957377 58.2947968,0.561147541 C58.2989323,0.422065574 58.3561394,0.289180328 58.5808327,0.398655738 C58.4595259,0.522590164 58.5532629,0.742229508 58.5532629,0.742229508 C58.5532629,0.742229508 58.8013904,0.626557377 58.7496972,0.463377049 C59.117753,0.551508197 58.8537729,1.04518033 58.4671076,0.968754098 L58.4671076,0.968754098 Z M58.1472988,1.66898361 C58.0976733,1.46586885 57.9942869,1.25586885 57.8605737,1.09888525 C57.7392669,0.956360656 57.5386972,0.786295082 57.2685139,0.786295082 C57.1451394,0.786295082 56.9383665,0.843442623 56.8074104,0.899213115 C56.7577849,0.809704918 56.6619801,0.594196721 56.6619801,0.49642623 C56.6619801,0.397278689 56.8308446,0.296065574 57.1540996,0.296065574 C57.8653984,0.296065574 58.2899721,0.616918033 58.2899721,1.15534426 C58.2899721,1.34468852 58.2155339,1.51681967 58.1472988,1.66898361 L58.1472988,1.66898361 Z M59.9737928,10.8270492 C60.056502,10.8270492 60.0964781,10.8408197 60.1447251,10.8573443 C60.3501195,11.4143607 61.1386135,12.4636721 61.1716972,12.5091148 L61.1792789,12.5187541 L61.1903068,12.516 C61.3839841,12.4850164 61.8781713,12.4099672 62.2917171,12.4099672 L62.3013665,12.4099672 C62.3468566,12.4099672 62.3971713,12.4099672 62.430255,12.4416393 C62.4564462,12.4684918 62.4695418,12.516 62.4695418,12.5820984 C62.4695418,12.685377 62.4261195,12.8609508 62.3737371,12.9366885 C62.228996,12.7783279 61.9939641,12.7074098 61.6176375,12.7074098 C61.5046016,12.7074098 61.3715777,12.7418361 61.2985179,12.7597377 L61.2688805,12.766623 L61.2351076,12.7755738 L61.4529084,12.9931475 C61.7878805,13.3263934 62.0773625,13.6148852 62.0773625,13.8076721 C62.0773625,13.9233443 61.9643267,14.0741311 61.860251,14.1416066 C61.837506,13.789082 61.4818566,13.3181311 61.1351673,13.0544262 L61.1055299,13.0323934 L61.1000159,13.1563279 C61.0951912,13.2403279 61.0876096,13.3670164 61.0876096,13.5012787 C61.0876096,14.1712131 61.0193745,14.2731148 60.7870996,14.2731148 C60.7519482,14.2731148 60.6968088,14.2627869 60.6630359,14.2497049 C60.793992,14.0885902 60.8456853,13.8751475 60.8456853,13.5005902 L60.8436175,13.3277705 L60.8415498,13.1886885 C60.8415498,13.0351475 60.8574024,12.921541 60.870498,12.8299672 L60.8767012,12.7783279 L60.8401713,12.7741967 C60.7312709,12.7583607 60.5293227,12.7308197 60.3749323,12.7308197 C60.0434064,12.7308197 59.8187131,12.7611148 59.6560518,12.9139672 C59.5485299,12.8279016 59.438251,12.6784918 59.438251,12.5834754 C59.438251,12.4437049 59.5250956,12.4326885 59.63951,12.4326885 C59.6974064,12.4326885 59.7511673,12.4409508 59.8256056,12.4499016 C59.9682789,12.4712459 60.1826335,12.502918 60.6244382,12.502918 L60.652008,12.502918 L60.6430478,12.4760656 C60.5313904,12.1559016 60.223988,11.690459 59.7311793,11.0914426 C59.7752908,10.9317049 59.8187131,10.8270492 59.9737928,10.8270492 L59.9737928,10.8270492 Z M55.7184064,12.4760656 L55.7101355,12.502918 L55.7370159,12.502918 C56.1781315,12.502918 56.3938645,12.4712459 56.5358486,12.4499016 C56.6109761,12.4409508 56.6640478,12.4326885 56.7219442,12.4326885 C56.8363586,12.4326885 56.9232032,12.4437049 56.9232032,12.5834754 C56.9232032,12.6784918 56.8129243,12.8279016 56.7060916,12.9139672 C56.542741,12.7611148 56.3173586,12.7308197 55.9872112,12.7308197 C55.8321315,12.7308197 55.6301833,12.7583607 55.5212829,12.7741967 L55.5040518,12.7755738 L55.484753,12.7783279 L55.4909562,12.8299672 C55.5040518,12.921541 55.5199044,13.0351475 55.5199044,13.1886885 L55.5178367,13.3277705 L55.5157689,13.5005902 C55.5157689,13.8751475 55.5674622,14.0885902 55.6991076,14.2497049 C55.6653347,14.2627869 55.6101952,14.2731148 55.5743546,14.2731148 C55.3420797,14.2731148 55.2738446,14.1712131 55.2738446,13.5012787 C55.2738446,13.3670164 55.2669522,13.2403279 55.2621275,13.1563279 L55.2559243,13.0323934 L55.2262869,13.0544262 C54.8802869,13.3181311 54.523259,13.789082 54.5018924,14.1416066 C54.3978167,14.0741311 54.2847809,13.9233443 54.2847809,13.8076721 C54.2847809,13.6148852 54.5742629,13.3263934 54.9092351,12.9931475 L55.1015339,12.8010492 L55.1256574,12.7755738 L55.0629363,12.7597377 C54.991255,12.7418361 54.8575418,12.7074098 54.7431275,12.7074098 C54.36749,12.7074098 54.1331474,12.7783279 53.9877171,12.9366885 C53.9353347,12.8609508 53.8919124,12.685377 53.8919124,12.5820984 C53.8919124,12.516 53.905008,12.4684918 53.9318884,12.4416393 C53.9642829,12.4099672 54.0159761,12.4099672 54.0607769,12.4099672 L54.0697371,12.4099672 C54.4832829,12.4099672 54.9781594,12.4850164 55.1711474,12.516 L55.1828645,12.5187541 L55.1904462,12.5091148 C55.2235299,12.4636721 56.0127131,11.4143607 56.2167291,10.8573443 C56.2642869,10.8408197 56.3049522,10.8270492 56.3876614,10.8270492 C56.542741,10.8270492 56.5861633,10.9317049 56.6309641,11.0914426 C56.1374661,11.690459 55.8300637,12.1559016 55.7184064,12.4760656 L55.7184064,12.4760656 Z M53.5872669,3.06118033 C53.5872669,2.27695082 54.1586494,1.65590164 54.3599084,1.48101639 C54.4081554,1.49272131 54.4564024,1.50442623 54.5046494,1.51406557 C54.2909841,1.77501639 53.9132789,2.21154098 53.9132789,2.79059016 C53.9132789,3.93836066 55.14151,4.93534426 56.5324024,4.93534426 C56.5241315,5.03380328 56.5186175,5.13708197 56.5186175,5.24380328 C56.5186175,5.41318033 56.5282669,5.57154098 56.5448088,5.71957377 C54.9719562,5.70993443 53.5872669,4.43478689 53.5872669,3.06118033 L53.5872669,3.06118033 Z M64.1368207,5.47996721 C64.8426056,6.59468852 65.3953785,6.57609836 66.2286733,6.57609836 C65.538741,6.048 65.0824622,5.37118033 64.8646614,5.02554098 L63.5757769,2.96547541 C63.4503347,2.32927869 63.1208765,1.73439344 62.6273785,1.29167213 C62.7934861,1.22901639 62.9313347,1.16291803 63.0140438,1.1002623 C62.1724781,1.1002623 61.3391833,0.672688525 60.8794582,0.672688525 C60.5844622,0.672688525 60.3949203,0.849639344 60.3949203,1.08236066 C60.4135299,1.34193443 60.6809562,1.60563934 61.1751434,1.60563934 C61.28749,1.60563934 61.4301633,1.59118033 61.5873108,1.56501639 C61.8547371,1.9375082 62.0711594,2.27419672 62.0711594,2.75478689 C62.0711594,3.6567541 60.9911155,4.3597377 59.9014223,4.3597377 C59.8400797,4.3597377 59.7808048,4.35698361 59.7201514,4.35216393 C59.6209004,4.12977049 59.2928207,3.75383607 59.2928207,3.32695082 C59.2928207,2.61019672 59.7601275,2.02495082 59.7601275,1.31508197 C59.7601275,0.873737705 59.5450837,0.601081967 59.4616853,0.486786885 C59.5960876,0.362852459 59.7422072,0.210688525 59.7766693,0.106032787 C59.6987849,0.139770492 59.6064263,0.143901639 59.4720239,0.143901639 C58.9495777,0.143901639 58.5236255,0.00826229508 58.1087012,0.00826229508 C57.8716016,0.00826229508 57.8081912,0.0812459016 57.8081912,0.150786885 C57.8081912,0.176262295 57.8116375,0.20242623 57.8192191,0.215508197 C57.7303068,0.180393443 57.6475976,0.157672131 57.5490359,0.139770492 C57.4263506,0.116360656 57.2947052,0.104655738 57.1540996,0.104655738 C56.6495737,0.104655738 56.4703705,0.316032787 56.4703705,0.49642623 C56.4703705,0.649967213 56.590988,0.929508197 56.7281474,1.14295082 C56.9252709,1.0444918 57.160992,0.977016393 57.2685139,0.977016393 C57.5366295,0.977016393 57.7751076,1.23177049 57.9005498,1.53334426 C57.7213466,1.55537705 57.6861952,1.56295082 57.5042351,1.56295082 C57.0128048,1.56295082 56.6792112,1.38737705 56.6102869,1.38737705 C56.6033944,1.38737705 56.5902988,1.39081967 56.5902988,1.40114754 C56.5902988,1.47 56.7295259,1.65177049 57.0045339,1.75229508 C57.3656972,1.8844918 57.9081315,1.93957377 57.9977331,1.95403279 C57.9977331,1.97055738 57.9060637,2.14131148 57.8033665,2.17367213 C57.782,2.1812459 57.7654582,2.18193443 57.7399562,2.17711475 C57.362251,2.10206557 57.2561076,2.07039344 56.7770837,1.88793443 C56.7626096,1.88242623 56.7536494,1.89206557 56.7536494,1.90721311 C56.7536494,2.09655738 57.2443904,2.5144918 57.6841275,2.67491803 C57.3174502,3.14311475 56.8584143,3.62163934 56.6426813,4.35216393 C56.5813386,4.35698361 56.5220637,4.3597377 56.4607211,4.3597377 C55.3703386,4.3597377 54.2909841,3.6567541 54.2909841,2.75478689 C54.2909841,2.27419672 54.5067171,1.9375082 54.7748327,1.56501639 C54.9319801,1.59118033 55.0746534,1.60563934 55.1863108,1.60563934 C55.680498,1.60563934 55.9479243,1.34193443 55.9672231,1.08236066 C55.9672231,0.849639344 55.7776813,0.672688525 55.481996,0.672688525 C55.0229602,0.672688525 54.1896653,1.1002623 53.3467211,1.1002623 C53.4308088,1.16291803 53.5686574,1.22901639 53.7333865,1.29167213 C53.2412669,1.73439344 52.9118088,2.32927869 52.784988,2.96547541 L51.4967928,5.02554098 C51.2796813,5.37118033 50.8220239,6.048 50.1320916,6.57609836 C50.9660757,6.57609836 51.5188486,6.59468852 52.2246335,5.47996721 L52.8856175,4.42377049 C52.9345538,4.56078689 52.9952072,4.69436066 53.06551,4.82518033 L51.7511235,6.92586885 C51.5326335,7.2742623 51.0791116,7.94488525 50.3864223,8.47642623 C51.2204064,8.47642623 51.7738685,8.49570492 52.4789641,7.38167213 L53.610012,5.57222951 C53.6947888,5.66311475 53.7843904,5.75055738 53.8781275,5.8352459 L52.2818406,8.38760656 C52.0619721,8.736 51.6112072,9.4052459 50.9171394,9.93678689 C51.7511235,9.93678689 52.3038964,9.9567541 53.0096813,8.84203279 L54.5653028,6.35301639 C54.668,6.41704918 54.7727649,6.48108197 54.8816653,6.53960656 L52.9821116,9.57668852 C52.7629323,9.92577049 52.3114781,10.5929508 51.6174104,11.1258689 C52.4513944,11.1258689 53.0041673,11.1451475 53.7099522,10.0311148 L55.6660239,6.90314754 C55.7818167,6.94721311 55.8996773,6.98990164 56.0189163,7.02777049 L53.8078247,10.5619672 C53.5920916,10.9062295 53.130988,11.5858033 52.444502,12.1111475 C53.2777968,12.1111475 53.831259,12.1297377 54.5363546,11.0163934 L56.8921873,7.25016393 C56.9163108,7.25360656 56.9404343,7.2577377 56.9631793,7.26255738 C57.0272789,7.46636066 57.0720797,7.65639344 57.0720797,7.8457377 C57.0720797,9.02862295 56.2953028,10.0744918 55.3620677,10.8814426 C55.4213426,10.9076066 55.5254183,10.9165574 55.6212231,10.9165574 C55.8142112,10.9165574 55.9389641,10.9062295 56.0258088,10.891082 C55.8093865,11.382 55.3455259,12.0161311 55.110494,12.3438689 C54.8051594,12.2887869 54.3612869,12.2454098 54.0697371,12.2454098 C53.7650916,12.2454098 53.7313187,12.4244262 53.7313187,12.5820984 C53.7313187,12.8588852 53.8602072,13.0792131 54.0111514,13.201082 C54.0669801,13.0599344 54.1807052,12.8712787 54.7431275,12.8712787 C54.7541554,12.8712787 54.7741434,12.8719672 54.7996454,12.8747213 C54.6356056,13.0571803 54.1200518,13.4730492 54.1200518,13.8076721 C54.1200518,14.029377 54.3640438,14.3619344 54.6852311,14.3619344 C54.6659323,14.2910164 54.668,14.224918 54.668,14.1753443 C54.668,13.9040656 54.9085458,13.5866557 55.1118725,13.3656393 C55.1056693,13.4310492 55.1091155,13.4248525 55.1091155,13.5012787 C55.1091155,14.1422951 55.167012,14.4369836 55.5743546,14.4369836 C55.7742351,14.4369836 55.9120837,14.3275082 55.9596414,14.294459 C55.6949721,14.0507213 55.6811873,13.8606885 55.6811873,13.5005902 C55.6818765,13.4069508 55.6825657,13.315377 55.6839442,13.189377 C55.6853227,13.1074426 55.683255,12.9979672 55.6701594,12.9194754 C55.8155896,12.8988197 55.8748645,12.8988197 55.9872112,12.8988197 C55.9872112,12.8988197 56.5661753,12.853377 56.7047131,13.1542623 C56.8625498,13.0103607 57.0906892,12.8072459 57.0906892,12.5834754 C57.0906892,12.4354426 57.0203865,12.2681311 56.7219442,12.2681311 C56.6089084,12.2681311 56.2539482,12.3369836 55.9568845,12.3369836 C56.0368367,12.1593443 56.3917968,11.6401967 56.6998884,11.2635738 C56.746757,11.409541 56.8191275,11.5679016 56.9804104,11.6966557 C57.0031554,11.4549836 57.1451394,10.6879672 57.5242231,10.2404262 C57.5683347,10.543377 57.6276096,10.8539016 57.6276096,11.5086885 C57.6276096,13.1019344 57.2443904,14.278623 56.4303944,14.5023934 C56.5365378,14.686918 56.7605418,14.8521639 56.9928167,14.8521639 C57.2905697,14.8521639 57.4525418,14.5168525 57.6179602,14.1994426 C57.7041155,14.4328525 57.9419044,15.007082 58.1803825,15.007082 C58.4188606,15.007082 58.6573386,14.4328525 58.743494,14.1994426 C58.9082231,14.5168525 59.0708845,14.8521639 59.3686375,14.8521639 C59.6016016,14.8521639 59.8256056,14.686918 59.931749,14.5023934 C59.1170637,14.278623 58.7331554,13.1019344 58.7331554,11.5086885 C58.7331554,10.8539016 58.7924303,10.543377 58.8365418,10.2404262 C59.2163147,10.6879672 59.358988,11.4549836 59.3803546,11.6966557 C59.5423267,11.5679016 59.6153865,11.409541 59.6615657,11.2635738 C59.9689681,11.6401967 60.3246175,12.1593443 60.4045697,12.3369836 C60.107506,12.3369836 59.7518566,12.2681311 59.63951,12.2681311 C59.341757,12.2681311 59.2714542,12.4354426 59.2714542,12.5834754 C59.2714542,12.8072459 59.4995936,13.0103607 59.656741,13.1542623 C59.7959681,12.853377 60.3749323,12.8988197 60.3749323,12.8988197 C60.4872789,12.8988197 60.5458645,12.8988197 60.6919841,12.9194754 C60.6781992,12.9979672 60.67751,13.1074426 60.6781992,13.189377 C60.6795777,13.315377 60.6802669,13.4069508 60.6802669,13.5005902 C60.6802669,13.8606885 60.6664821,14.0507213 60.4018127,14.294459 C60.4493705,14.3275082 60.5872191,14.4369836 60.7870996,14.4369836 C61.1944422,14.4369836 61.2530279,14.1422951 61.2530279,13.5012787 C61.2530279,13.4248525 61.2550956,13.4310492 61.2495817,13.3656393 C61.4529084,13.5866557 61.6934542,13.9040656 61.6934542,14.1753443 C61.6934542,14.224918 61.6962112,14.2910164 61.6762231,14.3619344 C61.9974104,14.3619344 62.2414024,14.029377 62.2414024,13.8076721 C62.2414024,13.4730492 61.7265378,13.0571803 61.5611195,12.8747213 C61.588,12.8719672 61.6072988,12.8712787 61.6176375,12.8712787 C62.1814382,12.8712787 62.2944741,13.0599344 62.350992,13.201082 C62.5019363,13.0792131 62.6308247,12.8588852 62.6308247,12.5820984 C62.6308247,12.4244262 62.5970518,12.2454098 62.2917171,12.2454098 C62.0015458,12.2454098 61.5569841,12.2887869 61.2509602,12.3438689 C61.0166175,12.0161311 60.552757,11.382 60.3356454,10.891082 C60.4231793,10.9062295 60.5479323,10.9165574 60.7402311,10.9165574 C60.8367251,10.9165574 60.9408008,10.9076066 61.0000757,10.8814426 C60.0668406,10.0744918 59.2893745,9.02862295 59.2893745,7.8457377 C59.2893745,7.65639344 59.3341753,7.46636066 59.3982749,7.26255738 C59.4217092,7.2577377 59.4458327,7.25360656 59.4692669,7.25016393 L61.8250996,11.0163934 C62.5308845,12.1297377 63.0836574,12.1111475 63.9169522,12.1111475 C63.2304661,11.5858033 62.7693625,10.9062295 62.5536295,10.5619672 L60.3425378,7.02777049 C60.4631554,6.98990164 60.5803267,6.94721311 60.6961195,6.90314754 L62.651502,10.0311148 C63.3572869,11.1451475 63.9100598,11.1258689 64.7447331,11.1258689 C64.0499761,10.5929508 63.5992112,9.92577049 63.3807211,9.57668852 L61.4804781,6.53960656 C61.588,6.48108197 61.6941434,6.41704918 61.7954622,6.35301639 L63.3531514,8.84203279 C64.058247,9.9567541 64.6110199,9.93678689 65.4443147,9.93678689 C64.7509363,9.4052459 64.3001713,8.736 64.0803028,8.38760656 L62.4840159,5.8352459 C62.577753,5.75055738 62.6673546,5.66311475 62.7514422,5.57222951 L63.8831793,7.38167213 C64.5882749,8.49570492 65.1410478,8.47642623 65.9750319,8.47642623 C65.2816534,7.94488525 64.8301992,7.2742623 64.6110199,6.92586885 L63.2959442,4.82518033 C63.3669363,4.69436066 63.4269004,4.56078689 63.4765259,4.42377049 L64.1368207,5.47996721 L64.1368207,5.47996721 Z"/>
    <polygon fill="#828889" points="70.414 .667 72.827 .667 72.827 14.438 70.414 14.438"/>
    <path fill="#828889" d="M80.3126653 4.60347541C80.3126653 4.23511475 80.2347809 3.96108197 80.076255 3.78206557 79.9170398 3.60304918 79.656506 3.51354098 79.2925857 3.51354098L78.5840438 3.51354098 78.5840438 5.64521311 79.1836853 5.64521311C79.5786215 5.64521311 79.8584542 5.5804918 80.0245618 5.45104918 80.2175498 5.30095082 80.3126653 5.01865574 80.3126653 4.60347541L80.3126653 4.60347541zM80.2271992 1.99672131C80.2271992 1.64901639 80.1424223 1.40527869 79.9708008 1.2655082 79.8205458 1.14088525 79.5758645 1.07822951 79.2381355 1.07822951L78.5840438 1.07822951 78.5840438 3.00059016 79.2774223 3.00059016C79.9108367 3.00059016 80.2271992 2.66596721 80.2271992 1.99672131L80.2271992 1.99672131zM80.9908805 4.63377049C80.9908805 5.2052459 80.8482072 5.60940984 80.5628606 5.84763934 80.3030159 6.06590164 79.8846454 6.17468852 79.3084382 6.17468852L77.9299522 6.17468852 77.9299522.549442623 79.4249203.549442623C79.9294462.549442623 80.2988805.658229508 80.5359801.876491803 80.771012 1.09406557 80.8895618 1.45485246 80.8895618 1.95816393 80.8895618 2.31 80.8295976 2.58059016 80.7110478 2.76718033 80.5856056 2.97993443 80.3650478 3.13485246 80.0486853 3.23331148 80.4119163 3.32213115 80.66349 3.48531148 80.8034064 3.72422951 80.9288486 3.93078689 80.9908805 4.23511475 80.9908805 4.63377049L80.9908805 4.63377049zM84.6824661 6.17468852L84.0676614 6.17468852 84.0593904 5.67688525C83.8209124 6.0507541 83.4914542 6.23734426 83.0696375 6.23734426 82.3693665 6.23734426 82.0185418 5.8352459 82.0185418 5.03104918L82.0185418 2.25354098 82.6340359 2.25354098 82.6340359 4.75908197C82.6340359 5.08062295 82.6609163 5.30783607 82.7126096 5.44347541 82.8001434 5.66655738 82.9821036 5.77809836 83.2571116 5.77809836 83.7719761 5.77809836 84.0283745 5.39665574 84.0283745 4.63377049L84.0283745 2.25354098 84.6514502 2.25354098 84.6514502 5.31059016C84.6514502 5.61767213 84.6617888 5.90547541 84.6824661 6.17468852M88.4443546 6.17468852L87.8288606 6.17468852 87.8288606 3.66914754C87.8288606 3.33245902 87.8061155 3.10180328 87.7599363 2.97718033 87.6710239 2.74859016 87.4911315 2.63498361 87.2216375 2.63498361 86.9576574 2.63498361 86.7515737 2.76442623 86.6061434 3.024 86.4862151 3.24708197 86.4276295 3.51147541 86.4276295 3.81786885L86.4276295 6.17468852 85.8121355 6.17468852 85.8121355 3.10937705C85.8121355 2.76167213 85.8017968 2.47662295 85.7811195 2.25354098L86.3883426 2.25354098 86.3883426 2.79059016C86.6061434 2.37540984 86.9466295 2.16747541 87.4084223 2.16747541 88.0990438 2.16747541 88.4443546 2.57508197 88.4443546 3.38960656L88.4443546 6.17468852M91.5604223 4.25370492C91.5604223 3.71872131 91.5211355 3.33796721 91.443251 3.10937705 91.3343506 2.78232787 91.1241315 2.61914754 90.8119044 2.61914754 90.5065697 2.61914754 90.2991076 2.79059016 90.1895179 3.13209836 90.1164582 3.35518033 90.0806175 3.70288525 90.0806175 4.17452459 90.0806175 4.68885246 90.1219721 5.06409836 90.2046813 5.30370492 90.3135817 5.6252459 90.5086375 5.78567213 90.7891594 5.78567213 91.1213745 5.78567213 91.3419323 5.6224918 91.4515219 5.29544262 91.5238924 5.08268852 91.5604223 4.73498361 91.5604223 4.25370492L91.5604223 4.25370492zM92.1903904 6.17468852L91.5914382 6.17468852 91.5831673 5.72301639C91.3605418 6.06590164 91.0531394 6.23734426 90.6637171 6.23734426 90.1605697 6.23734426 89.815259 6.01081967 89.6284741 5.56052459 89.5085458 5.25963934 89.4492709 4.79213115 89.4492709 4.15937705 89.4492709 3.56311475 89.5195737 3.11144262 89.65949 2.8057377 89.8462749 2.38022951 90.1764223 2.16747541 90.649243 2.16747541 91.04349 2.16747541 91.3391753 2.32101639 91.5362988 2.62672131L91.5362988.549442623 92.1593745.549442623 92.1593745 5.43521311C92.1593745 5.57567213 92.1704024 5.82216393 92.1903904 6.17468852L92.1903904 6.17468852zM95.2285737 3.87983607C95.2285737 3.50045902 95.2023825 3.23331148 95.1506892 3.07839344 95.0569522 2.76718033 94.8570717 2.61157377 94.5510478 2.61157377 94.1250956 2.61157377 93.8838606 2.86563934 93.8266534 3.37377049 93.8052869 3.55003279 93.7949482 3.71872131 93.7949482 3.87983607L95.2285737 3.87983607 95.2285737 3.87983607zM95.8509602 4.29983607L93.7949482 4.29983607 93.7949482 4.56422951C93.7949482 4.96357377 93.8314781 5.25137705 93.9038486 5.42763934 94.0093028 5.68170492 94.211251 5.80908197 94.5124502 5.80908197 94.9632151 5.80908197 95.1996255 5.52127869 95.2203028 4.94567213L95.8289044 4.94567213C95.790996 5.81665574 95.3526375 6.2524918 94.5124502 6.2524918 93.9665697 6.2524918 93.5923108 6.06796721 93.3903625 5.70029508 93.2394183 5.42557377 93.1642908 4.98147541 93.1642908 4.36937705 93.1642908 3.67465574 93.2297689 3.17616393 93.3586574 2.87665574 93.5619841 2.40432787 93.9610558 2.16747541 94.5579402 2.16747541 95.1196733 2.16747541 95.493243 2.37540984 95.6793386 2.79059016 95.793753 3.05016393 95.8509602 3.49357377 95.8509602 4.12013115L95.8509602 4.29983607 95.8509602 4.29983607zM99.0063147 5.10127869C99.0063147 5.86347541 98.5955259 6.24491803 97.7753267 6.24491803 96.9702908 6.24491803 96.5753546 5.82216393 96.5912072 4.97596721L97.2073904 4.97596721C97.2073904 5.05514754 97.2101474 5.1267541 97.2142829 5.19491803 97.2508127 5.60390164 97.4431116 5.80908197 97.79049 5.80908197 98.1847371 5.80908197 98.3818606 5.60665574 98.3818606 5.2024918 98.3818606 4.98422951 98.3198287 4.81347541 98.1957649 4.68885246 98.1171912 4.60554098 97.9441912 4.4912459 97.6733187 4.34665574 97.3052629 4.14904918 97.0716096 4.00377049 96.9730478 3.91081967 96.7752351 3.72904918 96.6773625 3.48806557 96.6773625 3.18718033 96.6773625 2.84980328 96.7883307 2.59367213 97.0116454 2.41672131 97.2191076 2.25078689 97.498251 2.16747541 97.8456295 2.16747541 98.2502151 2.16747541 98.5383187 2.2624918 98.7099402 2.45183607 98.8808725 2.64118033 98.9718526 2.93311475 98.9821912 3.32695082L98.3680757 3.32695082C98.3680757 2.83947541 98.1819801 2.59504918 97.8139243 2.59504918 97.6533307 2.59504918 97.5258207 2.64531148 97.4320837 2.74308197 97.3397251 2.84154098 97.2914781 2.97167213 97.2914781 3.13209836 97.2914781 3.30904918 97.3679841 3.45914754 97.5175498 3.58445902 97.5961235 3.6567541 97.7808406 3.77104918 98.0717012 3.92665574 98.3873745 4.09740984 98.6058645 4.24268852 98.7257928 4.36180328 98.9125777 4.55872131 99.0063147 4.80521311 99.0063147 5.10127869M104.2549 6.17468852L103.639406 6.17468852 103.639406 3.53763934C103.639406 3.25190164 103.613904 3.05016393 103.562211 2.93036066 103.484327 2.7382623 103.327869 2.64255738 103.094215 2.64255738 102.632422 2.64255738 102.401526 2.99783607 102.401526 3.70839344L102.401526 6.17468852 101.786032 6.17468852 101.786032 3.50596721C101.786032 3.2312459 101.765355 3.03914754 101.724 2.93036066 101.650251 2.7382623 101.492414 2.64255738 101.248422 2.64255738 101.015458 2.64255738 100.835566 2.75685246 100.710813 2.9847541 100.602602 3.18718033 100.547462 3.44881967 100.547462 3.77104918L100.547462 6.17468852 99.9326574 6.17468852 99.9326574 2.93036066C99.9326574 2.6962623 99.9223187 2.47111475 99.9009522 2.25354098L100.516446 2.25354098 100.516446 2.76718033C100.723908 2.36714754 101.033378 2.16747541 101.443478 2.16747541 101.889418 2.16747541 102.180968 2.36714754 102.315371 2.76718033 102.54351 2.36714754 102.868143 2.16747541 103.289271 2.16747541 103.647677 2.16747541 103.902008 2.28452459 104.052952 2.51793443 104.187355 2.72036066 104.2549 3.05016393 104.2549 3.50596721L104.2549 6.17468852M105.414896 2.25354098L106.03039 2.25354098 106.03039 6.17468852 105.414896 6.17468852 105.414896 2.25354098zM105.38388.627245902L106.062785.627245902 106.062785 1.2964918 105.38388 1.2964918 105.38388.627245902zM109.823984 6.17468852L109.20849 6.17468852 109.20849 3.66914754C109.20849 3.33245902 109.185745 3.10180328 109.138187 2.97718033 109.051343 2.74859016 108.870761 2.63498361 108.601267 2.63498361 108.335908 2.63498361 108.131203 2.76442623 107.985773 3.024 107.866534 3.24708197 107.807259 3.51147541 107.807259 3.81786885L107.807259 6.17468852 107.191076 6.17468852 107.191076 3.10937705C107.191076 2.76167213 107.180737 2.47662295 107.161438 2.25354098L107.767283 2.25354098 107.767283 2.79059016C107.985773 2.37540984 108.32557 2.16747541 108.788052 2.16747541 109.479363 2.16747541 109.823984 2.57508197 109.823984 3.38960656L109.823984 6.17468852M110.98398 2.25354098L111.599474 2.25354098 111.599474 6.17468852 110.98398 6.17468852 110.98398 2.25354098zM110.952964.627245902L111.63049.627245902 111.63049 1.2964918 110.952964 1.2964918 110.952964.627245902zM114.932653 5.10127869C114.932653 5.86347541 114.522554 6.24491803 113.702355 6.24491803 112.897319 6.24491803 112.503072 5.82216393 112.518924 4.97596721L113.134418 4.97596721C113.134418 5.05514754 113.136486 5.1267541 113.141311 5.19491803 113.17853 5.60390164 113.370139 5.80908197 113.717518 5.80908197 114.113143 5.80908197 114.310267 5.60665574 114.310267 5.2024918 114.310267 4.98422951 114.247546 4.81347541 114.123482 4.68885246 114.045598 4.60554098 113.871219 4.4912459 113.601036 4.34665574 113.232291 4.14904918 112.998637 4.00377049 112.900076 3.91081967 112.702952 3.72904918 112.603701 3.48806557 112.603701 3.18718033 112.603701 2.84980328 112.715359 2.59367213 112.938673 2.41672131 113.146825 2.25078689 113.42459 2.16747541 113.771968 2.16747541 114.177243 2.16747541 114.465347 2.2624918 114.637657 2.45183607 114.80859 2.64118033 114.89888 2.93311475 114.909908 3.32695082L114.294414 3.32695082C114.294414 2.83947541 114.110386 2.59504918 113.740952 2.59504918 113.580359 2.59504918 113.452849 2.64531148 113.359801 2.74308197 113.266064 2.84154098 113.219884 2.97167213 113.219884 3.13209836 113.219884 3.30904918 113.295012 3.45914754 113.445267 3.58445902 113.523151 3.6567541 113.707869 3.77104918 113.99804 3.92665574 114.314402 4.09740984 114.533582 4.24268852 114.652821 4.36180328 114.839606 4.55872131 114.932653 4.80521311 114.932653 5.10127869M117.378777 6.17468852C117.185789 6.19534426 117.036912 6.20636066 116.927323 6.20636066 116.573741 6.20636066 116.331817 6.13062295 116.202928 5.97983607 116.094717 5.84557377 116.038888 5.59839344 116.038888 5.24104918L116.038888 2.70452459 115.4551 2.70452459 115.4551 2.25354098 116.038888 2.25354098 116.038888 1.52990164 116.654382 1.25793443 116.654382 2.25354098 117.355343 2.25354098 117.355343 2.70452459 116.654382 2.70452459 116.654382 5.17081967C116.654382 5.38908197 116.685398 5.53504918 116.748809 5.61009836 116.810841 5.68583607 116.927323 5.72301639 117.098944 5.72301639 117.129271 5.72301639 117.222319 5.71337705 117.378777 5.69272131L117.378777 6.17468852M120.057865 3.87983607C120.057865 3.50045902 120.031673 3.23331148 119.97998 3.07839344 119.886243 2.76718033 119.686363 2.61157377 119.380339 2.61157377 118.954386 2.61157377 118.712462 2.86563934 118.655944 3.37377049 118.635956 3.55003279 118.624928 3.71872131 118.624928 3.87983607L120.057865 3.87983607 120.057865 3.87983607zM120.68094 4.29983607L118.624928 4.29983607 118.624928 4.56422951C118.624928 4.96357377 118.660769 5.25137705 118.733829 5.42763934 118.837904 5.68170492 119.039853 5.80908197 119.341052 5.80908197 119.793884 5.80908197 120.028916 5.52127869 120.050283 4.94567213L120.658195 4.94567213C120.620976 5.81665574 120.181928 6.2524918 119.341052 6.2524918 118.795861 6.2524918 118.421602 6.06796721 118.219653 5.70029508 118.069398 5.42557377 117.993582 4.98147541 117.993582 4.36937705 117.993582 3.67465574 118.058371 3.17616393 118.189327 2.87665574 118.391275 2.40432787 118.791036 2.16747541 119.38792 2.16747541 119.948275 2.16747541 120.322534 2.37540984 120.510008 2.79059016 120.623733 3.05016393 120.68094 3.49357377 120.68094 4.12013115L120.68094 4.29983607 120.68094 4.29983607zM123.297996 2.76718033C123.235275 2.75685246 123.191163 2.75134426 123.164972 2.75134426 122.869976 2.75134426 122.647351 2.84154098 122.499163 3.024 122.351665 3.20508197 122.277227 3.4467541 122.277227 3.74763934L122.277227 6.17468852 121.654151 6.17468852 121.654151 2.96891803C121.654151 2.70452459 121.64657 2.46629508 121.631406 2.25354098L122.238629 2.25354098 122.238629 2.76718033C122.451606 2.37265574 122.783821 2.1757377 123.235275 2.1757377 123.277319 2.1757377 123.297996 2.37265574 123.297996 2.76718033M124.037554 2.25354098L124.653048 2.25354098 124.653048 6.17468852 124.037554 6.17468852 124.037554 2.25354098zM124.007227.627245902L124.684064.627245902 124.684064 1.2964918 124.007227 1.2964918 124.007227.627245902zM128.476968 6.17468852L127.862853 6.17468852 127.854582 5.67688525C127.614725 6.0507541 127.285267 6.23734426 126.864829 6.23734426 126.163869 6.23734426 125.813733 5.8352459 125.813733 5.03104918L125.813733 2.25354098 126.429227 2.25354098 126.429227 4.75908197C126.429227 5.08062295 126.454729 5.30783607 126.506422 5.44347541 126.594645 5.66655738 126.776606 5.77809836 127.052303 5.77809836 127.566478 5.77809836 127.822876 5.39665574 127.822876 4.63377049L127.822876 2.25354098 128.445263 2.25354098 128.445263 5.31059016C128.445263 5.61767213 128.456291 5.90547541 128.476968 6.17468852M133.92888 6.17468852L133.313386 6.17468852 133.313386 3.53763934C133.313386 3.25190164 133.287884 3.05016393 133.23688 2.93036066 133.158307 2.7382623 133.002538 2.64255738 132.768884 2.64255738 132.306402 2.64255738 132.076195 2.99783607 132.076195 3.70839344L132.076195 6.17468852 131.460012 6.17468852 131.460012 3.50596721C131.460012 3.2312459 131.439335 3.03914754 131.39798 2.93036066 131.32492 2.7382623 131.167084 2.64255738 130.922402 2.64255738 130.689438 2.64255738 130.510235 2.75685246 130.385482 2.9847541 130.276582 3.18718033 130.222131 3.44881967 130.222131 3.77104918L130.222131 6.17468852 129.607327 6.17468852 129.607327 2.93036066C129.607327 2.6962623 129.596299 2.47111475 129.574932 2.25354098L130.190426 2.25354098 130.190426 2.76718033C130.398578 2.36714754 130.707359 2.16747541 131.117458 2.16747541 131.564777 2.16747541 131.855637 2.36714754 131.99004 2.76718033 132.218869 2.36714754 132.542813 2.16747541 132.963251 2.16747541 133.321657 2.16747541 133.575988 2.28452459 133.726932 2.51793443 133.861335 2.72036066 133.92888 3.05016393 133.92888 3.50596721L133.92888 6.17468852M138.477195 1.00868852C138.431016 1.00318033 138.350375 1.00042623 138.236649 1.00042623 138.043661 1.00042623 137.914084 1.07134426 137.846538 1.21111475 137.805873 1.30957377 137.783817 1.4672459 137.783817 1.6855082L137.783817 2.25354098 138.45445 2.25354098 138.45445 2.70452459 137.783817 2.70452459 137.783817 6.17468852 137.169012 6.17468852 137.169012 2.70452459 136.592805 2.70452459 136.592805 2.25354098 137.169012 2.25354098 137.169012 1.82527869C137.169012 1.40045902 137.221394 1.09681967 137.324781.91504918 137.470211.645147541 137.750044.510885246 138.166347.510885246 138.274558.510885246 138.379323.515704918 138.477195.526032787L138.477195 1.00868852M141.912382 6.17468852L141.297578 6.17468852 141.289307 5.67688525C141.050829 6.0507541 140.721371 6.23734426 140.300243 6.23734426 139.598594 6.23734426 139.248458 5.8352459 139.248458 5.03104918L139.248458 2.25354098 139.863952 2.25354098 139.863952 4.75908197C139.863952 5.08062295 139.889454 5.30783607 139.941837 5.44347541 140.03006 5.66655738 140.212709 5.77809836 140.487028 5.77809836 141.001203 5.77809836 141.257602 5.39665574 141.257602 4.63377049L141.257602 2.25354098 141.882056 2.25354098 141.882056 5.31059016C141.882056 5.61767213 141.891016 5.90547541 141.912382 6.17468852M139.676478.603836066L140.252685.603836066 140.252685 1.35088525 139.676478 1.35088525 139.676478.603836066zM140.884032.603836066L141.476092.603836066 141.476092 1.35088525 140.884032 1.35088525 140.884032.603836066zM144.676936 2.76718033C144.614215 2.75685246 144.571482 2.75134426 144.544602 2.75134426 144.248227 2.75134426 144.027669 2.84154098 143.879482 3.024 143.731295 3.20508197 143.656857 3.4467541 143.656857 3.74763934L143.656857 6.17468852 143.033781 6.17468852 143.033781 2.96891803C143.033781 2.70452459 143.026199 2.46629508 143.010347 2.25354098L143.618259 2.25354098 143.618259 2.76718033C143.831235 2.37265574 144.162761 2.1757377 144.614215 2.1757377 144.656259 2.1757377 144.676936 2.37265574 144.676936 2.76718033"/>
    <polyline fill="#828889" points="82.4 10.516 81.419 14.437 80.68 14.437 79.916 11.193 79.169 14.437 78.428 14.437 77.44 10.516 78.102 10.516 78.825 13.854 79.589 10.516 80.306 10.516 81.085 13.854 81.801 10.516 82.4 10.516"/>
    <path fill="#828889" d="M83.1716454 10.5158361L83.7864502 10.5158361 83.7864502 14.4369836 83.1716454 14.4369836 83.1716454 10.5158361zM83.1406295 8.88954098L83.8181554 8.88954098 83.8181554 9.55878689 83.1406295 9.55878689 83.1406295 8.88954098zM86.5833984 11.0294754C86.5213665 11.0191475 86.4765657 11.0136393 86.4503745 11.0136393 86.1553785 11.0136393 85.932753 11.1038361 85.785255 11.2862951 85.6363785 11.467377 85.5626295 11.7090492 85.5626295 12.0099344L85.5626295 14.4369836 84.940243 14.4369836 84.940243 11.2312131C84.940243 10.9668197 84.9319721 10.7285902 84.9168088 10.5158361L85.5240319 10.5158361 85.5240319 11.0294754C85.737008 10.6349508 86.0692231 10.4380328 86.5213665 10.4380328 86.5620319 10.4380328 86.5833984 10.6349508 86.5833984 11.0294754M88.8420478 14.4369836C88.6490598 14.4576393 88.4988048 14.4686557 88.3899044 14.4686557 88.037012 14.4686557 87.7957769 14.392918 87.66551 14.2421311 87.5559203 14.1078689 87.5014701 13.8606885 87.5014701 13.5033443L87.5014701 10.9668197 86.9176813 10.9668197 86.9176813 10.5158361 87.5014701 10.5158361 87.5014701 9.79219672 88.1183426 9.52022951 88.1183426 10.5158361 88.8179243 10.5158361 88.8179243 10.9668197 88.1183426 10.9668197 88.1183426 13.4331148C88.1183426 13.651377 88.1486693 13.7973443 88.210012 13.8723934 88.2727331 13.9481311 88.3899044 13.9853115 88.5608367 13.9853115 88.5918526 13.9853115 88.6862789 13.9756721 88.8420478 13.9550164L88.8420478 14.4369836M91.7858048 13.3635738C91.7858048 14.1257705 91.3757052 14.5072131 90.555506 14.5072131 89.7504701 14.5072131 89.3569124 14.084459 89.3713865 13.2382623L89.9868805 13.2382623C89.9868805 13.3174426 89.9896375 13.3890492 89.9944622 13.4572131 90.0303028 13.8661967 90.2232908 14.071377 90.5706693 14.071377 90.9656056 14.071377 91.1634183 13.8689508 91.1634183 13.4647869 91.1634183 13.2465246 91.100008 13.0757705 90.975255 12.9511475 90.8980598 12.8678361 90.7243705 12.753541 90.453498 12.6082623 90.0861315 12.4113443 89.8517888 12.2660656 89.7532271 12.1731148 89.5561036 11.9913443 89.4568526 11.7503607 89.4568526 11.4494754 89.4568526 11.1120984 89.5691992 10.8559672 89.7925139 10.6790164 89.9999761 10.513082 90.2770518 10.4297705 90.6251195 10.4297705 91.0297052 10.4297705 91.3178088 10.5247869 91.4894303 10.7141311 91.6610518 10.9034754 91.7513426 11.1954098 91.7623705 11.5892459L91.1468765 11.5892459C91.1468765 11.1017705 90.9628486 10.8573443 90.5934143 10.8573443 90.43351 10.8573443 90.3066892 10.9076066 90.2129522 11.005377 90.1192151 11.1038361 90.0730359 11.2339672 90.0730359 11.3943934 90.0730359 11.5713443 90.1481633 11.7214426 90.2991076 11.8467541 90.3756135 11.9190492 90.5603307 12.0333443 90.8511912 12.1889508 91.168243 12.3597049 91.3867331 12.5049836 91.5052829 12.6240984 91.6920677 12.8210164 91.7858048 13.0675082 91.7858048 13.3635738M95.127255 13.215541C95.127255 14.0817049 94.7199124 14.5147869 93.9038486 14.5147869 93.3441833 14.5147869 92.9671673 14.3330164 92.7748685 13.9701639 92.6308167 13.6954426 92.557757 13.2182951 92.557757 12.5387213 92.557757 11.8598361 92.6225458 11.3764918 92.7514343 11.0914426 92.9485578 10.6507869 93.3386693 10.4297705 93.9203904 10.4297705 94.3670199 10.4297705 94.6826932 10.5337377 94.8708566 10.7409836 95.0417888 10.9385902 95.127255 11.257377 95.127255 11.6987213L94.5193426 11.6987213C94.5193426 11.1485902 94.3173944 10.8738689 93.9121195 10.8738689 93.5895538 10.8738689 93.3793347 11.047377 93.2821514 11.3943934 93.224255 11.5975082 93.195996 11.9576066 93.195996 12.4767541 93.195996 13.0675082 93.2394183 13.4744262 93.3276414 13.6975082 93.4262032 13.9467541 93.612988 14.071377 93.8886853 14.071377 94.1326773 14.071377 94.3036096 13.9853115 94.4028606 13.8145574 94.4752311 13.6851148 94.5138287 13.4854426 94.5193426 13.215541L95.127255 13.215541M98.6237849 14.4369836L98.0082908 14.4369836 98.0082908 11.9314426C98.0082908 11.6002623 97.9855458 11.368918 97.9386773 11.2394754 97.8511434 11.0108852 97.671251 10.8972787 97.4010677 10.8972787 96.8717291 10.8972787 96.6070598 11.2842295 96.6070598 12.0560656L96.6070598 14.4369836 95.9915657 14.4369836 95.9915657 8.8117377 96.6070598 8.8117377 96.6070598 10.9668197C96.8607012 10.6094754 97.1915378 10.4297705 97.5961235 10.4297705 98.2819203 10.4297705 98.6237849 10.8394426 98.6237849 11.6594754L98.6237849 14.4369836M101.567542 12.9194754L101.567542 12.4533443 101.413151 12.4533443C100.591574 12.4533443 100.182853 12.7328852 100.182853 13.2933443 100.182853 13.7966557 100.373773 14.0479672 100.75906 14.0479672 101.049231 14.0479672 101.264964 13.9240328 101.40488 13.6740984 101.513092 13.4771803 101.567542 13.2258689 101.567542 12.9194754L101.567542 12.9194754zM102.214052 14.4369836L101.6151 14.4369836 101.606829 13.9240328C101.342849 14.307541 100.991335 14.4996393 100.555733 14.4996393 100.222829 14.4996393 99.9671195 14.3901639 99.7837809 14.1725902 99.6231873 13.9646557 99.5432351 13.6899344 99.5432351 13.3477377 99.5432351 12.7927869 99.7555219 12.4196066 100.182853 12.2275082 100.462685 12.097377 100.924478 12.0305902 101.567542 12.025082L101.567542 11.8543279C101.567542 11.5320984 101.54204 11.3097049 101.489657 11.185082 101.407637 10.9771475 101.230502 10.8738689 100.960319 10.8738689 100.773534 10.8738689 100.617076 10.9255082 100.493012 11.0294754 100.368948 11.1334426 100.306227 11.2787213 100.306227 11.4653115L100.306227 11.5038689 99.6914223 11.5038689 99.6914223 11.4653115C99.6914223 11.1065902 99.8216892 10.8394426 100.080155 10.6638689 100.30347 10.5082623 100.605359 10.4297705 100.985131 10.4297705 101.435207 10.4297705 101.750191 10.5392459 101.925948 10.7568197 102.092056 10.9544262 102.175454 11.2807869 102.175454 11.7372787L102.175454 13.1838689C102.175454 13.6561967 102.18855 14.0741311 102.214052 14.4369836L102.214052 14.4369836zM104.832486 9.27098361C104.784239 9.26547541 104.703598 9.26272131 104.589873 9.26272131 104.398952 9.26272131 104.267996 9.33363934 104.20045 9.47340984 104.159096 9.57186885 104.138418 9.72954098 104.138418 9.94780328L104.138418 10.5158361 104.808363 10.5158361 104.808363 10.9668197 104.138418 10.9668197 104.138418 14.4369836 103.522235 14.4369836 103.522235 10.9668197 102.946028 10.9668197 102.946028 10.5158361 103.522235 10.5158361 103.522235 10.0875738C103.522235 9.6627541 103.574618 9.35911475 103.678693 9.17734426 103.824124 8.90744262 104.103956 8.77318033 104.520259 8.77318033 104.629159 8.77318033 104.732546 8.778 104.832486 8.78832787L104.832486 9.27098361M107.120773 14.4369836C106.929853 14.4576393 106.778908 14.4686557 106.670008 14.4686557 106.316426 14.4686557 106.074502 14.392918 105.945614 14.2421311 105.836713 14.1078689 105.782952 13.8606885 105.782952 13.5033443L105.782952 10.9668197 105.197096 10.9668197 105.197096 10.5158361 105.782952 10.5158361 105.782952 9.79219672 106.397068 9.52022951 106.397068 10.5158361 107.098028 10.5158361 107.098028 10.9668197 106.397068 10.9668197 106.397068 13.4331148C106.397068 13.651377 106.428773 13.7973443 106.490805 13.8723934 106.552837 13.9481311 106.670008 13.9853115 106.84094 13.9853115 106.871956 13.9853115 106.965004 13.9756721 107.120773 13.9550164L107.120773 14.4369836"/>
    <polygon fill="#828889" points="107.892 8.812 108.508 8.812 108.508 14.437 107.892 14.437"/>
    <path fill="#828889" d="M109.668215 10.5158361L110.28302 10.5158361 110.28302 14.4369836 109.668215 14.4369836 109.668215 10.5158361zM109.63651 8.88954098L110.314725 8.88954098 110.314725 9.55878689 109.63651 9.55878689 109.63651 8.88954098zM113.858124 13.215541C113.858124 14.0817049 113.450781 14.5147869 112.635406 14.5147869 112.074363 14.5147869 111.698725 14.3330164 111.506426 13.9701639 111.360996 13.6954426 111.288625 13.2182951 111.288625 12.5387213 111.288625 11.8598361 111.353414 11.3764918 111.482992 11.0914426 111.679426 10.6507869 112.069538 10.4297705 112.65057 10.4297705 113.097888 10.4297705 113.414251 10.5337377 113.601036 10.7409836 113.771968 10.9385902 113.858124 11.257377 113.858124 11.6987213L113.25159 11.6987213C113.25159 11.1485902 113.048263 10.8738689 112.643677 10.8738689 112.321112 10.8738689 112.110892 11.047377 112.01302 11.3943934 111.955124 11.5975082 111.926865 11.9576066 111.926865 12.4767541 111.926865 13.0675082 111.970976 13.4744262 112.05851 13.6975082 112.15845 13.9467541 112.344546 14.071377 112.619554 14.071377 112.864235 14.071377 113.035857 13.9853115 113.134418 13.8145574 113.2061 13.6851148 113.246076 13.4854426 113.25159 13.215541L113.858124 13.215541M117.355343 14.4369836L116.740538 14.4369836 116.740538 11.9314426C116.740538 11.6002623 116.716414 11.368918 116.670235 11.2394754 116.582012 11.0108852 116.402809 10.8972787 116.131936 10.8972787 115.602598 10.8972787 115.337928 11.2842295 115.337928 12.0560656L115.337928 14.4369836 114.722434 14.4369836 114.722434 8.8117377 115.337928 8.8117377 115.337928 10.9668197C115.592259 10.6094754 115.922406 10.4297705 116.326992 10.4297705 117.012789 10.4297705 117.355343 10.8394426 117.355343 11.6594754L117.355343 14.4369836M120.423853 12.1421311C120.423853 11.7627541 120.398351 11.4956066 120.345279 11.3406885 120.25292 11.0294754 120.05304 10.8738689 119.745637 10.8738689 119.320375 10.8738689 119.079139 11.1279344 119.021932 11.6360656 119.001944 11.8123279 118.991606 11.9810164 118.991606 12.1421311L120.423853 12.1421311 120.423853 12.1421311zM121.046928 12.5621311L118.991606 12.5621311 118.991606 12.8265246C118.991606 13.2258689 119.026757 13.5136721 119.099817 13.6899344 119.203892 13.944 119.405841 14.071377 119.707729 14.071377 120.159873 14.071377 120.395594 13.7835738 120.416271 13.2079672L121.024183 13.2079672C120.986964 14.0789508 120.547916 14.5147869 119.707729 14.5147869 119.162538 14.5147869 118.788279 14.3302623 118.585641 13.9625902 118.435386 13.6878689 118.360259 13.2437705 118.360259 12.6316721 118.360259 11.9369508 118.424359 11.438459 118.555315 11.1389508 118.757263 10.666623 119.157024 10.4297705 119.753908 10.4297705 120.314952 10.4297705 120.689211 10.6377049 120.875996 11.0528852 120.989721 11.312459 121.046928 11.7558689 121.046928 12.3824262L121.046928 12.5621311 121.046928 12.5621311z"/>
    <polyline fill="#828889" points="126.686 14.437 123.594 14.437 123.594 13.854 125.985 9.349 123.734 9.349 123.734 8.812 126.67 8.812 126.67 9.427 124.295 13.9 126.686 13.9 126.686 14.437"/>
    <path fill="#828889" d="M130.198008 14.4369836L129.583203 14.4369836 129.574932 13.9391803C129.336454 14.3130492 129.006996 14.4996393 128.587247 14.4996393 127.884908 14.4996393 127.534773 14.097541 127.534773 13.2933443L127.534773 10.5158361 128.150956 10.5158361 128.150956 13.021377C128.150956 13.342918 128.175769 13.5701311 128.227462 13.7057705 128.316375 13.9288525 128.498335 14.0403934 128.772653 14.0403934 129.286829 14.0403934 129.543916 13.6589508 129.543916 12.8960656L129.543916 10.5158361 130.166992 10.5158361 130.166992 13.5728852C130.166992 13.8799672 130.17802 14.1677705 130.198008 14.4369836M133.500171 13.3635738C133.500171 14.1257705 133.09145 14.5072131 132.269873 14.5072131 131.464837 14.5072131 131.07059 14.084459 131.085753 13.2382623L131.701936 13.2382623C131.701936 13.3174426 131.704693 13.3890492 131.710207 13.4572131 131.746048 13.8661967 131.937657 14.071377 132.286414 14.071377 132.679972 14.071377 132.878474 13.8689508 132.878474 13.4647869 132.878474 13.2465246 132.815064 13.0757705 132.691 12.9511475 132.612426 12.8678361 132.439426 12.753541 132.169243 12.6082623 131.800498 12.4113443 131.567534 12.2660656 131.467594 12.1731148 131.271159 11.9913443 131.171908 11.7503607 131.171908 11.4494754 131.171908 11.1120984 131.283566 10.8559672 131.50688 10.6790164 131.715721 10.513082 131.992797 10.4297705 132.340175 10.4297705 132.74545 10.4297705 133.033554 10.5247869 133.204486 10.7141311 133.376797 10.9034754 133.467088 11.1954098 133.476737 11.5892459L132.862622 11.5892459C132.862622 11.1017705 132.677904 10.8573443 132.309159 10.8573443 132.148566 10.8573443 132.021056 10.9076066 131.928008 11.005377 131.833582 11.1038361 131.788092 11.2339672 131.788092 11.3943934 131.788092 11.5713443 131.861841 11.7214426 132.012785 11.8467541 132.090669 11.9190492 132.275386 12.0333443 132.566247 12.1889508 132.88261 12.3597049 133.10041 12.5049836 133.220339 12.6240984 133.407124 12.8210164 133.500171 13.0675082 133.500171 13.3635738M136.211653 12.9194754L136.211653 12.4533443 136.055195 12.4533443C135.234996 12.4533443 134.824896 12.7328852 134.824896 13.2933443 134.824896 13.7966557 135.017195 14.0479672 135.401104 14.0479672 135.691964 14.0479672 135.907697 13.9240328 136.047614 13.6740984 136.156514 13.4771803 136.211653 13.2258689 136.211653 12.9194754L136.211653 12.9194754zM136.858163 14.4369836L136.257143 14.4369836 136.250251 13.9240328C135.985582 14.307541 135.635446 14.4996393 135.199155 14.4996393 134.866251 14.4996393 134.609853 14.3901639 134.427203 14.1725902 134.26661 13.9646557 134.185968 13.6899344 134.185968 13.3477377 134.185968 12.7927869 134.399633 12.4196066 134.824896 12.2275082 135.105418 12.097377 135.566522 12.0305902 136.211653 12.025082L136.211653 11.8543279C136.211653 11.5320984 136.184773 11.3097049 136.133769 11.185082 136.050371 10.9771475 135.873924 10.8738689 135.603052 10.8738689 135.417645 10.8738689 135.261187 10.9255082 135.135745 11.0294754 135.011681 11.1334426 134.94896 11.2787213 134.94896 11.4653115L134.94896 11.5038689 134.333466 11.5038689 134.333466 11.4653115C134.333466 11.1065902 134.464422 10.8394426 134.723578 10.6638689 134.946892 10.5082623 135.248092 10.4297705 135.627175 10.4297705 136.078629 10.4297705 136.392924 10.5392459 136.57006 10.7568197 136.735478 10.9544262 136.818876 11.2807869 136.818876 11.7372787L136.818876 13.1838689C136.818876 13.6561967 136.831283 14.0741311 136.858163 14.4369836L136.858163 14.4369836zM142.285952 14.4369836L141.670458 14.4369836 141.670458 11.7999344C141.670458 11.5141967 141.644956 11.312459 141.593952 11.1926557 141.515378 11.0005574 141.35961 10.9048525 141.125267 10.9048525 140.663474 10.9048525 140.433267 11.2601311 140.433267 11.9706885L140.433267 14.4369836 139.816394 14.4369836 139.816394 11.7682623C139.816394 11.493541 139.796406 11.3014426 139.755052 11.1926557 139.681992 11.0005574 139.524155 10.9048525 139.279474 10.9048525 139.04651 10.9048525 138.867307 11.0191475 138.742554 11.2470492 138.633653 11.4494754 138.579203 11.7111148 138.579203 12.0333443L138.579203 14.4369836 137.96302 14.4369836 137.96302 11.1926557C137.96302 10.9585574 137.953371 10.7334098 137.932004 10.5158361L138.547498 10.5158361 138.547498 11.0294754C138.755649 10.6294426 139.06443 10.4297705 139.47453 10.4297705 139.921849 10.4297705 140.212709 10.6294426 140.347112 11.0294754 140.57594 10.6294426 140.899884 10.4297705 141.320323 10.4297705 141.678729 10.4297705 141.93306 10.5468197 142.084004 10.7802295 142.218406 10.9826557 142.285952 11.312459 142.285952 11.7682623L142.285952 14.4369836M147.770259 14.4369836L147.154076 14.4369836 147.154076 11.7999344C147.154076 11.5141967 147.127884 11.312459 147.076191 11.1926557 146.997618 11.0005574 146.842538 10.9048525 146.609574 10.9048525 146.146402 10.9048525 145.915506 11.2601311 145.915506 11.9706885L145.915506 14.4369836 145.30139 14.4369836 145.30139 11.7682623C145.30139 11.493541 145.279335 11.3014426 145.23798 11.1926557 145.16492 11.0005574 145.007773 10.9048525 144.762402 10.9048525 144.528749 10.9048525 144.350924 11.0191475 144.225482 11.2470492 144.116582 11.4494754 144.062821 11.7111148 144.062821 12.0333443L144.062821 14.4369836 143.446637 14.4369836 143.446637 11.1926557C143.446637 10.9585574 143.43561 10.7334098 143.414932 10.5158361L144.030426 10.5158361 144.030426 11.0294754C144.238578 10.6294426 144.547359 10.4297705 144.956769 10.4297705 145.404088 10.4297705 145.694948 10.6294426 145.829351 11.0294754 146.058179 10.6294426 146.383502 10.4297705 146.803251 10.4297705 147.161657 10.4297705 147.415988 10.5468197 147.566932 10.7802295 147.701335 10.9826557 147.770259 11.312459 147.770259 11.7682623L147.770259 14.4369836M150.83808 12.1421311C150.83808 11.7627541 150.812578 11.4956066 150.759506 11.3406885 150.667147 11.0294754 150.466578 10.8738689 150.160554 10.8738689 149.733912 10.8738689 149.493367 11.1279344 149.436849 11.6360656 149.414793 11.8123279 149.405143 11.9810164 149.405143 12.1421311L150.83808 12.1421311 150.83808 12.1421311zM151.461155 12.5621311L149.405143 12.5621311 149.405143 12.8265246C149.405143 13.2258689 149.441673 13.5136721 149.514733 13.6899344 149.61743 13.944 149.820068 14.071377 150.121267 14.071377 150.572721 14.071377 150.809821 13.7835738 150.829809 13.2079672L151.437721 13.2079672C151.40188 14.0789508 150.962833 14.5147869 150.121267 14.5147869 149.576765 14.5147869 149.202506 14.3302623 149.000558 13.9625902 148.849614 13.6878689 148.774486 13.2437705 148.774486 12.6316721 148.774486 11.9369508 148.838586 11.438459 148.968853 11.1389508 149.170801 10.666623 149.571251 10.4297705 150.168825 10.4297705 150.729179 10.4297705 151.102749 10.6377049 151.289534 11.0528852 151.403259 11.312459 151.461155 11.7558689 151.461155 12.3824262L151.461155 12.5621311 151.461155 12.5621311zM155.074167 14.4369836L154.459363 14.4369836 154.459363 11.9314426C154.459363 11.5947541 154.435928 11.3640984 154.38906 11.2394754 154.301526 11.0108852 154.121633 10.8972787 153.852139 10.8972787 153.586781 10.8972787 153.382076 11.0267213 153.236645 11.2862951 153.116717 11.509377 153.057442 11.7737705 153.057442 12.0801639L153.057442 14.4369836 152.441948 14.4369836 152.441948 11.3716721C152.441948 11.0239672 152.43161 10.738918 152.411622 10.5158361L153.018845 10.5158361 153.018845 11.0528852C153.236645 10.6377049 153.577131 10.4297705 154.038235 10.4297705 154.729546 10.4297705 155.074167 10.837377 155.074167 11.6519016L155.074167 14.4369836M158.018614 12.9194754L158.018614 12.4533443 157.863534 12.4533443C157.042645 12.4533443 156.633235 12.7328852 156.633235 13.2933443 156.633235 13.7966557 156.824155 14.0479672 157.209442 14.0479672 157.500303 14.0479672 157.715347 13.9240328 157.855263 13.6740984 157.964163 13.4771803 158.018614 13.2258689 158.018614 12.9194754L158.018614 12.9194754zM158.665813 14.4369836L158.065482 14.4369836 158.057211 13.9240328C157.79392 14.307541 157.442406 14.4996393 157.006116 14.4996393 156.6739 14.4996393 156.417502 14.3901639 156.235542 14.1725902 156.07357 13.9646557 155.993618 13.6899344 155.993618 13.3477377 155.993618 12.7927869 156.206594 12.4196066 156.633235 12.2275082 156.913068 12.097377 157.374861 12.0305902 158.018614 12.025082L158.018614 11.8543279C158.018614 11.5320984 157.993112 11.3097049 157.941418 11.185082 157.85802 10.9771475 157.680884 10.8738689 157.41139 10.8738689 157.223916 10.8738689 157.069526 10.9255082 156.944084 11.0294754 156.818641 11.1334426 156.757299 11.2787213 156.757299 11.4653115L156.757299 11.5038689 156.141805 11.5038689 156.141805 11.4653115C156.141805 11.1065902 156.271382 10.8394426 156.530538 10.6638689 156.754542 10.5082623 157.055741 10.4297705 157.434135 10.4297705 157.886279 10.4297705 158.199884 10.5392459 158.377709 10.7568197 158.543127 10.9544262 158.626526 11.2807869 158.626526 11.7372787L158.626526 13.1838689C158.626526 13.6561967 158.638932 14.0741311 158.665813 14.4369836L158.665813 14.4369836zM161.406932 11.0294754C161.3449 11.0191475 161.3001 11.0136393 161.274598 11.0136393 160.978912 11.0136393 160.756287 11.1038361 160.6081 11.2862951 160.460602 11.467377 160.386163 11.7090492 160.386163 12.0099344L160.386163 14.4369836 159.763088 14.4369836 159.763088 11.2312131C159.763088 10.9668197 159.756195 10.7285902 159.740343 10.5158361L160.347566 10.5158361 160.347566 11.0294754C160.559853 10.6349508 160.892757 10.4380328 161.3449 10.4380328 161.385566 10.4380328 161.406932 10.6349508 161.406932 11.0294754M164.226625 12.3989508C164.226625 11.9679344 164.199745 11.6546557 164.148052 11.4570492 164.045355 11.073541 163.836514 10.8814426 163.525665 10.8814426 163.302351 10.8814426 163.122458 10.975082 162.988056 11.1616721 162.826773 11.3847541 162.746131 11.8281639 162.746131 12.4919016 162.746131 13.0730164 162.798514 13.4647869 162.90259 13.6672131 163.031478 13.9212787 163.237562 14.0479672 163.517394 14.0479672 163.719343 14.0479672 163.883382 13.9495082 164.008135 13.7525902 164.153566 13.5191803 164.226625 13.0675082 164.226625 12.3989508L164.226625 12.3989508zM164.857283 12.4065246C164.857283 13.0289508 164.800076 13.4902623 164.686351 13.7911475 164.503701 14.2634754 164.15839 14.4996393 163.649729 14.4996393 163.249968 14.4996393 162.941187 14.3281967 162.723386 13.9853115L162.715116 14.4369836 162.115474 14.4369836C162.136151 14.084459 162.147179 13.8352131 162.147179 13.6899344L162.147179 8.8117377 162.761984 8.8117377 162.761984 10.9131148C163.005976 10.5908852 163.319582 10.4297705 163.704179 10.4297705 164.197677 10.4297705 164.529892 10.653541 164.700825 11.0997049 164.8049 11.3737377 164.857283 11.8095738 164.857283 12.4065246L164.857283 12.4065246zM167.769335 12.1421311C167.769335 11.7627541 167.744522 11.4956066 167.692139 11.3406885 167.599092 11.0294754 167.398522 10.8738689 167.093187 10.8738689 166.666546 10.8738689 166.425311 11.1279344 166.368793 11.6360656 166.347426 11.8123279 166.336398 11.9810164 166.336398 12.1421311L167.769335 12.1421311 167.769335 12.1421311zM168.3931 12.5621311L166.336398 12.5621311 166.336398 12.8265246C166.336398 13.2258689 166.372928 13.5136721 166.445299 13.6899344 166.550064 13.944 166.752701 14.071377 167.053211 14.071377 167.504665 14.071377 167.741765 13.7835738 167.761753 13.2079672L168.368976 13.2079672C168.333135 14.0789508 167.895466 14.5147869 167.053211 14.5147869 166.508709 14.5147869 166.13445 14.3302623 165.932502 13.9625902 165.781558 13.6878689 165.70643 13.2437705 165.70643 12.6316721 165.70643 11.9369508 165.771219 11.438459 165.900108 11.1389508 166.102745 10.666623 166.503195 10.4297705 167.09939 10.4297705 167.661124 10.4297705 168.035382 10.6377049 168.221478 11.0528852 168.335203 11.312459 168.3931 11.7558689 168.3931 12.3824262L168.3931 12.5621311 168.3931 12.5621311zM169.373892 10.5158361L169.990076 10.5158361 169.990076 14.4369836 169.373892 14.4369836 169.373892 10.5158361zM169.343566 8.88954098L170.021092 8.88954098 170.021092 9.55878689 169.343566 9.55878689 169.343566 8.88954098zM172.669163 14.4369836C172.476175 14.4576393 172.32661 14.4686557 172.21702 14.4686557 171.864127 14.4686557 171.622203 14.392918 171.492625 14.2421311 171.384414 14.1078689 171.329275 13.8606885 171.329275 13.5033443L171.329275 10.9668197 170.745486 10.9668197 170.745486 10.5158361 171.329275 10.5158361 171.329275 9.79219672 171.944769 9.52022951 171.944769 10.5158361 172.64504 10.5158361 172.64504 10.9668197 171.944769 10.9668197 171.944769 13.4331148C171.944769 13.651377 171.975785 13.7973443 172.037817 13.8723934 172.100538 13.9481311 172.21702 13.9853115 172.388641 13.9853115 172.418968 13.9853115 172.512705 13.9756721 172.669163 13.9550164L172.669163 14.4369836M80.493247 22.6992787L79.8770637 22.6992787 79.8694821 22.2014754C79.631004 22.5753443 79.3008566 22.7612459 78.8804183 22.7612459 78.1794582 22.7612459 77.8286335 22.3598361 77.8286335 21.5556393L77.8286335 18.7781311 78.4441275 18.7781311 78.4441275 21.2836721C78.4441275 21.6052131 78.4703187 21.8324262 78.522012 21.9680656 78.6102351 22.1911475 78.791506 22.3026885 79.0672032 22.3026885 79.5813785 22.3026885 79.8384661 21.9212459 79.8384661 21.1583607L79.8384661 18.7781311 80.4615418 18.7781311 80.4615418 21.8351803C80.4615418 22.1422623 80.4718805 22.4300656 80.493247 22.6992787M84.2544462 22.6992787L83.6389522 22.6992787 83.6389522 20.1937377C83.6389522 19.8570492 83.6155179 19.6263934 83.5686494 19.5017705 83.4811155 19.2731803 83.3012231 19.1595738 83.0317291 19.1595738 82.7670598 19.1595738 82.5609761 19.2890164 82.4155458 19.5485902 82.296996 19.7716721 82.2370319 20.0360656 82.2370319 20.342459L82.2370319 22.6992787 81.6222271 22.6992787 81.6222271 19.6339672C81.6222271 19.2862623 81.6111992 19.0012131 81.5905219 18.7781311L82.1984343 18.7781311 82.1984343 19.3151803C82.4155458 18.9 82.7560319 18.6920656 83.2185139 18.6920656 83.9084462 18.6920656 84.2544462 19.0996721 84.2544462 19.9141967L84.2544462 22.6992787M87.3698247 20.7782951C87.3698247 20.2433115 87.3305378 19.8625574 87.2540319 19.6339672 87.1444422 19.306918 86.9335339 19.1437377 86.621996 19.1437377 86.3152829 19.1437377 86.1078207 19.3151803 85.9989203 19.6566885 85.9265498 19.8797705 85.8893307 20.2274754 85.8893307 20.6991148 85.8893307 21.2134426 85.9313745 21.5886885 86.0140837 21.8282951 86.1229841 22.1491475 86.3187291 22.3095738 86.5999402 22.3095738 86.9307769 22.3095738 87.1513347 22.1463934 87.2609243 21.8200328 87.3332948 21.6072787 87.3698247 21.2595738 87.3698247 20.7782951L87.3698247 20.7782951zM88.0004821 22.6992787L87.4008406 22.6992787 87.3925697 22.2476066C87.1706335 22.5904918 86.8632311 22.7612459 86.474498 22.7612459 85.9699721 22.7612459 85.6246614 22.5354098 85.4385657 22.0851148 85.3186375 21.783541 85.2586733 21.3167213 85.2586733 20.6839672 85.2586733 20.0877049 85.3296653 19.6360328 85.4695817 19.3303279 85.6570558 18.9048197 85.9858247 18.6920656 86.4586454 18.6920656 86.8528924 18.6920656 87.1485777 18.8456066 87.3463904 19.1513115L87.3463904 17.0740328 87.9701554 17.0740328 87.9701554 21.9598033C87.9701554 22.0995738 87.980494 22.3467541 88.0004821 22.6992787L88.0004821 22.6992787z"/>
    <polyline fill="#828889" points="93.756 22.699 91.108 22.699 91.108 17.074 93.702 17.074 93.702 17.611 91.77 17.611 91.77 19.541 93.601 19.541 93.601 20.062 91.77 20.062 91.77 22.163 93.756 22.163 93.756 22.699"/>
    <path fill="#828889" d="M97.3080199 22.6992787L96.6932151 22.6992787 96.6932151 20.1937377C96.6932151 19.8570492 96.6690916 19.6263934 96.6222231 19.5017705 96.5346892 19.2731803 96.3547968 19.1595738 96.0846135 19.1595738 95.8206335 19.1595738 95.615239 19.2890164 95.4698088 19.5485902 95.3498805 19.7716721 95.2906056 20.0360656 95.2906056 20.342459L95.2906056 22.6992787 94.6751116 22.6992787 94.6751116 19.6339672C94.6751116 19.2862623 94.6661514 19.0012131 94.6440956 18.7781311L95.2513187 18.7781311 95.2513187 19.3151803C95.4698088 18.9 95.8102948 18.6920656 96.2720876 18.6920656 96.9627092 18.6920656 97.3080199 19.0996721 97.3080199 19.9141967L97.3080199 22.6992787M99.9871076 22.6992787C99.7948088 22.7199344 99.6438645 22.7302623 99.5349641 22.7302623 99.1820717 22.7302623 98.9415259 22.6552131 98.8105697 22.5051148 98.7016693 22.3701639 98.6479084 22.1236721 98.6479084 21.7656393L98.6479084 19.2291148 98.0634303 19.2291148 98.0634303 18.7781311 98.6479084 18.7781311 98.6479084 18.0544918 99.2627131 17.7825246 99.2627131 18.7781311 99.9643625 18.7781311 99.9643625 19.2291148 99.2627131 19.2291148 99.2627131 21.6954098C99.2627131 21.9136721 99.2944183 22.0596393 99.355761 22.1346885 99.4184821 22.2097377 99.5349641 22.2476066 99.7065857 22.2476066 99.7382908 22.2476066 99.8313386 22.2365902 99.9871076 22.2173115L99.9871076 22.6992787"/>
    <polyline fill="#828889" points="105.33 18.778 104.349 22.699 103.608 22.699 102.845 19.455 102.098 22.699 101.358 22.699 100.369 18.778 101.031 18.778 101.755 22.116 102.518 18.778 103.236 18.778 104.014 22.116 104.73 18.778 105.33 18.778"/>
    <path fill="#828889" d="M106.100693 18.7781311L106.716876 18.7781311 106.716876 22.6992787 106.100693 22.6992787 106.100693 18.7781311zM106.071056 17.1518361L106.747203 17.1518361 106.747203 17.821082 106.071056 17.821082 106.071056 17.1518361zM110.291291 21.4778361C110.291291 22.3446885 109.883948 22.777082 109.067884 22.777082 108.50753 22.777082 108.131203 22.596 107.938904 22.232459 107.794163 21.9570492 107.721104 21.4805902 107.721104 20.8010164 107.721104 20.1221311 107.785892 19.6387869 107.91547 19.3537377 108.112594 18.913082 108.502705 18.6920656 109.083737 18.6920656 109.530367 18.6920656 109.846729 18.7960328 110.034203 19.0032787 110.206514 19.2008852 110.291291 19.5196721 110.291291 19.9610164L109.684068 19.9610164C109.684068 19.4108852 109.48212 19.1361639 109.076155 19.1361639 108.754968 19.1361639 108.543371 19.3096721 108.445498 19.6566885 108.38898 19.8598033 108.359343 20.2199016 108.359343 20.7390492 108.359343 21.3298033 108.403454 21.7367213 108.491677 21.9598033 108.590928 22.2090492 108.777713 22.3336721 109.052721 22.3336721 109.296713 22.3336721 109.468335 22.2476066 109.566896 22.0768525 109.639267 21.9474098 109.678554 21.7470492 109.684068 21.4778361L110.291291 21.4778361M111.156291 17.0740328L111.770406 17.0740328 111.770406 22.6999672 111.156291 22.6999672 111.156291 17.0740328zM113.811255 22.6992787L113.086861 22.6992787 111.79453 20.5049508 112.971068 18.7781311 113.687191 18.7781311 112.463785 20.4898033 113.811255 22.6992787 113.811255 22.6992787z"/>
    <polygon fill="#828889" points="114.465 17.074 115.082 17.074 115.082 22.7 114.465 22.7"/>
    <path fill="#828889" d="M118.90545 22.6992787L118.289956 22.6992787 118.281685 22.2014754C118.043896 22.5753443 117.71306 22.7612459 117.293311 22.7612459 116.592351 22.7612459 116.240837 22.3598361 116.240837 21.5556393L116.240837 18.7781311 116.85702 18.7781311 116.85702 21.2836721C116.85702 21.6052131 116.883211 21.8324262 116.934215 21.9680656 117.023127 22.1911475 117.204398 22.3026885 117.479406 22.3026885 117.993582 22.3026885 118.250669 21.9212459 118.250669 21.1583607L118.250669 18.7781311 118.873745 18.7781311 118.873745 21.8351803C118.873745 22.1422623 118.884084 22.4300656 118.90545 22.6992787M122.667339 22.6992787L122.052534 22.6992787 122.052534 20.1937377C122.052534 19.8570492 122.02841 19.6263934 121.981542 19.5017705 121.894008 19.2731803 121.714116 19.1595738 121.443932 19.1595738 121.179952 19.1595738 120.974558 19.2890164 120.829127 19.5485902 120.709199 19.7716721 120.649924 20.0360656 120.649924 20.342459L120.649924 22.6992787 120.03443 22.6992787 120.03443 19.6339672C120.03443 19.2862623 120.024092 19.0012131 120.003414 18.7781311L120.610637 18.7781311 120.610637 19.3151803C120.829127 18.9 121.169614 18.6920656 121.631406 18.6920656 122.322028 18.6920656 122.667339 19.0996721 122.667339 19.9141967L122.667339 22.6992787M125.782028 20.6144262C125.782028 20.173082 125.746187 19.8467213 125.673817 19.6339672 125.558713 19.3124262 125.345737 19.1513115 125.034199 19.1513115 124.712323 19.1513115 124.500036 19.333082 124.395271 19.6959344 124.333928 19.9141967 124.303602 20.2742951 124.303602 20.7782951 124.303602 21.2285902 124.333928 21.5501311 124.395271 21.7422295 124.494522 22.0637705 124.694402 22.2248852 124.995602 22.2248852 125.348494 22.2248852 125.582147 22.0300328 125.696562 21.6417049 125.754458 21.4392787 125.782028 21.097082 125.782028 20.6144262L125.782028 20.6144262zM126.420956 18.7781311C126.420956 18.8345902 126.416821 18.9378689 126.409239 19.0852131 126.401657 19.2332459 126.398211 19.348918 126.398211 19.431541L126.398211 22.8631475C126.398211 23.3396066 126.285865 23.688 126.06255 23.9055738 125.839235 24.1238361 125.484275 24.232623 124.995602 24.232623 124.185741 24.232623 123.775641 23.8532459 123.764614 23.0958689L124.419394 23.0958689C124.419394 23.5737049 124.622032 23.8119344 125.027307 23.8119344 125.34298 23.8119344 125.553888 23.6969508 125.657964 23.4697377 125.730335 23.3196393 125.766865 23.0703934 125.766865 22.7226885L125.766865 22.1939016C125.548375 22.4996066 125.245797 22.6531475 124.854996 22.6531475 124.367701 22.6531475 124.032729 22.4479672 123.850769 22.0376066 123.73153 21.7683934 123.671566 21.3483934 123.671566 20.7782951 123.671566 20.1448525 123.736355 19.6732131 123.867311 19.362 124.052717 18.9158361 124.385622 18.6920656 124.863267 18.6920656 125.299558 18.6920656 125.613163 18.8745246 125.805462 19.237377L125.805462 18.7781311 126.420956 18.7781311 126.420956 18.7781311zM4.2850239 7.88980328L2.53986056 7.88980328C2.45508367 7.88980328 2.32688446 7.9324918 2.32688446 8.1452459L2.32688446 13.076459C2.32688446 13.2671803 2.45508367 13.3319016 2.53986056 13.3319016L4.09341434 13.3319016C5.56150199 13.3319016 7.51964143 13.1824918 7.51964143 10.5895082 7.51964143 8.12390164 5.75242231 7.88980328 4.2850239 7.88980328L4.2850239 7.88980328zM3.66746215 1.83147541L2.53986056 1.83147541C2.45508367 1.83147541 2.32688446 1.87416393 2.32688446 2.08691803L2.32688446 6.29518033C2.32688446 6.48659016 2.45508367 6.55131148 2.53986056 6.55131148L3.77429482 6.55131148C4.81643028 6.55131148 6.66773705 6.40121311 6.66773705 4.12770492 6.66773705 1.95954098 5.02940637 1.83147541 3.66746215 1.83147541L3.66746215 1.83147541zM6.92275697 14.3729508C6.327251 14.5423279 5.28442629 14.6703934 3.90180478 14.6703934L.688553785 14.6703934C.518310757 14.6703934.305334661 14.6270164.305334661 14.2875738L.305334661.875114754C.305334661.534983607.518310757.492295082.688553785.492295082L3.49721912.492295082C4.71028685.492295082 5.77378884.513639344 6.68910359.811081967 7.83807171 1.19459016 8.79611952 2.06488525 8.79611952 3.93560656 8.79611952 6.35990164 6.96617928 6.8487541 6.64705976 6.91209836 6.54022709 6.9327541 6.49818327 6.99678689 6.49818327 7.04016393 6.49818327 7.08216393 6.54022709 7.12554098 6.64705976 7.14619672 8.90226295 7.54967213 9.64664542 9.0382623 9.64664542 10.737541 9.64664542 11.8433115 9.13591633 13.7140328 6.92275697 14.3729508L6.92275697 14.3729508zM26.3325299 14.6703934L25.0980956 14.6703934C24.9271633 14.6703934 24.7148765 14.6270164 24.7148765 14.2875738L24.7148765 3.59616393C24.7148765 3.40406557 24.6514661 3.38340984 24.6080438 3.38340984 24.5232669 3.38340984 24.5019004 3.4467541 24.4591673 3.55347541L21.1177171 13.3952459C20.7358765 14.5423279 20.6504104 14.6703934 19.8846614 14.6703934L19.0968566 14.6703934C18.3311076 14.6703934 18.2463307 14.5423279 17.8631116 13.3952459L14.5223506 3.55347541C14.4796175 3.4467541 14.458251 3.38340984 14.3734741 3.38340984 14.330741 3.38340984 14.2666414 3.40406557 14.2666414 3.59616393L14.2666414 14.2875738C14.2666414 14.6270164 14.0543546 14.6703934 13.8841116 14.6703934L13.0115299 14.6703934C12.8412869 14.6703934 12.6283108 14.6270164 12.6283108 14.2875738L12.6283108.875114754C12.6283108.534983607 12.8412869.492295082 13.0115299.492295082L14.9689801.492295082C15.3094661.492295082 15.4583426.598327869 15.5438088.83242623L19.5441753 12.417541C19.5862191 12.544918 19.6503187 12.6089508 19.7137291 12.6089508 19.7778287 12.6089508 19.8426175 12.544918 19.8846614 12.417541L23.8416056.938459016C23.9484382.598327869 24.0552709.492295082 24.3316574.492295082L26.3325299.492295082C26.5020837.492295082 26.7150598.534983607 26.7150598.875114754L26.7150598 14.2875738C26.7150598 14.6270164 26.5020837 14.6703934 26.3325299 14.6703934M39.1869124 14.6703934L29.7615139 14.6703934C29.5912709 14.6703934 29.3782948 14.6270164 29.3782948 14.2875738L29.3782948 13.2671803C29.3782948 12.991082 29.4210279 12.7790164 29.6119482 12.5235738L36.7835219 2.44770492C36.8476215 2.36301639 36.9110319 2.27901639 36.9110319 2.17160656 36.9110319 2.04422951 36.826255 2.02288525 36.6339562 2.02288525L30.0158446 2.02288525C29.8462908 2.02288525 29.634004 1.98088525 29.634004 1.6407541L29.634004.875114754C29.634004.534983607 29.8462908.492295082 30.0158446.492295082L39.0180478.492295082C39.1869124.492295082 39.4012669.534983607 39.4012669.875114754L39.4012669 1.68344262C39.4012669 2.00222951 39.3578446 2.1502623 39.1669243 2.42704918L31.8685299 12.7149836C31.8044303 12.7996721 31.7403307 12.8857377 31.7403307 12.991082 31.7403307 13.1191475 31.8251076 13.1398033 32.0174064 13.1398033L39.1869124 13.1398033C39.3578446 13.1398033 39.5708207 13.1824918 39.5708207 13.522623L39.5708207 14.2875738C39.5708207 14.6270164 39.3578446 14.6703934 39.1869124 14.6703934"/>
  </g>
</svg>
