<svg xmlns="http://www.w3.org/2000/svg" width="198" height="116" viewBox="0 0 198 116">
  <g fill="#828889" fill-rule="evenodd" transform="translate(30 40)">
    <path d="M4.15054539,21.8955134 C4.70196321,21.1397855 16.7804881,3.3649495 18.8516363,0.317258781 L2.00007936,0.317258781 C1.23989691,0.317258781 0.619313976,0.935919114 0.619313976,1.69863973 L0.619313976,22.8822207 L2.43918307,22.8822207 C3.08197508,22.8904704 3.68859813,22.5262618 4.15054539,21.8955134 L4.15054539,21.8955134 Z"/>
    <path d="M5.05223092 24.5910601C5.55669256 24.1081621 16.4803493 11.8183496 19.5547099 8.37911419 20.109935 7.75979393 20.716558 7.61322085 21.8784061 7.57958373L28.8050769 7.57958373 28.8050769 4.58707921 21.0465203 4.58707921C20.1093004 4.58707921 19.6023006 4.71082143 19.1720805 5.22035941 18.8300618 5.62710144 4.98623845 22.9996289 4.41641952 23.5935446 3.88530644 24.1475114 3.24885987 24.1906559 2.86178868 24.1906559L.619313976 24.1906559.619313976 25.3099947 3.59722395 25.3099947C4.08201476 25.3099947 4.60614723 25.01873 5.05223092 24.5910601L5.05223092 24.5910601zM20.8358521 20.562345C20.3244105 20.8409094 7.12591726 28.0810463 6.34479553 28.4979296 6.34035373 28.5004665 6.33654583 28.5023834 6.33147012 28.5042814L27.4262151 28.5042814C28.1870321 28.5042814 28.8050769 27.8843392 28.8050769 27.1235191L28.8050769 19.9950573C27.5125129 19.9956982 23.1703356 20.0001337 22.7445573 20.0001337 21.8079719 20.0001337 21.4500897 20.2266591 20.8358521 20.562345L20.8358521 20.562345z"/>
    <path d="M6.13793389 26.9661423C6.74455695 26.5530542 16.475273 19.003273 20.3244105 16.1395807 20.8529848 15.7474268 21.1867543 15.3521193 22.3841369 15.3172004L28.8050769 15.3172004 28.8050769 12.1965182 21.9526477 12.1965182C21.0160623 12.1965182 20.2711089 12.5353641 19.771089 13.023334 19.083879 13.6908732 6.00404597 25.5739551 5.46531901 26.0219576 4.87455889 26.5124466 4.2983939 26.6190492 3.91005362 26.6190492L.619313976 26.6190492.619313976 27.1235191C.619313976 27.3557605.682133664 27.5715026.784295078 27.7631358L4.47670047 27.7631358C4.96149128 27.7631358 5.62649291 27.3138744 6.13793389 26.9661423L6.13793389 26.9661423zM68.2596881 13.9986201C75.3519745 14.5094399 77.1064858 15.40287 77.1064858 20.8967365 77.1064858 24.8550204 77.2663906 28.7517431 66.7266323 28.7517431 60.6280464 28.7517431 56.5720479 28.6254851 56.5720479 20.7691997L62.70363 20.7691997C62.70363 23.260414 63.5970665 23.5142268 66.7266323 23.5142268 69.7299241 23.5142268 70.7198111 23.3232331 70.7198111 21.3117403 70.7198111 19.237413 70.3676397 19.268512 67.3662516 19.0762391L65.960739 18.981064C60.0537851 18.564163 56.6056724 18.5978001 56.6056724 11.7307764 56.6056724 4.86438082 60.4681416 4.41829713 66.7266323 4.41829713 71.9647843 4.41829713 76.437043 4.51411312 76.437043 11.1247815L76.437043 12.1146685 70.3029163 12.1146685C70.3029163 9.65581459 69.2819367 9.65581459 66.7266323 9.65581459 63.2791668 9.65581459 62.9929816 10.3588882 62.9929816 11.698402 62.9929816 13.6153752 63.9168762 13.6788105 65.6104713 13.8076227L68.2596881 13.9986201 68.2596881 13.9986201zM100.450052 19.4912302L100.450052 20.1943038C100.450052 22.8117934 100.418324 25.1748288 98.247553 26.9953439 96.0761471 28.7828428 93.4250267 28.7517431 90.6476322 28.7517431 84.1334143 28.7517431 79.3743423 28.4319346 79.3743423 19.6834967L79.3743423 13.4878194C79.3743423 5.5674544 83.6207036 4.41829713 90.6476322 4.41829713 97.2246698 4.41829713 100.29205 5.08900902 100.418324 12.2733042L100.418324 13.2003651 93.8393832 13.2003651 93.8393832 12.2733042C93.6153895 10.1355354 92.1159646 9.97561789 89.9432895 9.97561789 86.3048203 9.97561789 85.9520144 11.0924198 85.9520144 14.5094399L85.9520144 18.2456288C85.9520144 21.8225473 86.1119192 23.195697 89.9432895 23.195697 92.595679 23.195697 93.8711103 23.0034248 93.8711103 20.1943038L93.8711103 19.4912302 100.450052 19.4912302 100.450052 19.4912302zM130.627645 4.60928821L137.048585 4.60928821 131.746979 28.562027 122.518821 28.562027 119.259808 13.5512737 119.004722 13.5512737 115.522985 28.562027 106.390643 28.562027 101.217849 4.60928821 107.69907 4.60928821 111.14908 23.0681412 111.372439 23.0681412 115.874521 4.60928821 122.518821 4.60928821 126.796275 23.0681412 127.020903 23.0681412 130.627645 4.60928821 130.627645 4.60928821zM33.7392828 4.60928821L46.3216349 4.60928821C51.0807133 4.60928821 53.889194 5.50400011 53.889194 10.7415112 53.889194 13.774011 53.2832055 15.7537786 50.1219189 16.2664766L50.1219189 16.522851C53.6683731 16.7462038 54.2724643 18.8839663 54.2724643 21.8860016 54.2724643 27.7618579 51.5267906 28.562027 46.4498125 28.562027L33.7392828 28.562027 33.7392828 4.60928821 33.7392828 4.60928821zM40.125323 14.1896303L44.7232212 14.1896303C46.9587223 14.1896303 47.5018847 13.8076227 47.5018847 11.8919503 47.5018847 10.4528069 47.2785256 9.91026631 45.4903836 9.84680567L40.125323 9.84680567 40.125323 14.1896303 40.125323 14.1896303zM40.125323 23.3232331L44.9478557 23.3232331C47.0240739 23.3232331 47.8864178 22.844789 47.8864178 20.8967365 47.8864178 18.9176034 47.1509888 18.628899 45.0760271 18.628899L40.125323 18.628899 40.125323 23.3232331 40.125323 23.3232331z"/>
  </g>
</svg>
