<svg xmlns="http://www.w3.org/2000/svg" width="81" height="35" viewBox="0 0 81 35">
  <g fill="#828889" fill-rule="evenodd">
    <path d="M78.689153 2.88869863L79.471471 2.88869863 79.471471 7.68321918 78.689153 7.68321918C78.5086181 6.36472603 77.8707281 5.33390411 76.7875186 4.60273973 75.7043091 3.85958904 74.3442793 3.4880137 72.7074294 3.4880137 71.2511144 3.4880137 70.0716196 3.76369863 69.1930163 4.31506849 68.3144131 4.86643836 67.8570579 5.60958904 67.8570579 6.53253425 67.8570579 7.38356164 68.2181278 8.16267123 68.9523031 8.86986301 69.6864785 9.57705479 71.2751857 10.4880137 73.718425 11.5907534 76.558841 12.8732877 78.4845468 14 79.471471 14.9589041 80.4704309 15.9178082 80.963893 17.0205479 80.963893 18.255137 80.963893 19.8493151 80.2056464 21.2157534 78.7011887 22.3424658 77.1967311 23.4811644 75.3793462 24.0445205 73.2610698 24.0445205 72.0334324 24.0445205 70.4687964 23.7928082 68.567162 23.2773973 67.784844 23.0736301 67.2793462 22.9657534 67.07474 22.9657534 66.6294205 22.9657534 66.2803863 23.2294521 66.0396731 23.744863L65.2573551 23.744863 65.2573551 18.2311644 66.0396731 18.2311644C66.0517088 19.7534247 66.7136701 20.9760274 68.0014859 21.8869863 69.2893016 22.7979452 70.8057949 23.265411 72.5389302 23.265411 74.1757801 23.265411 75.4876672 22.9297945 76.4745914 22.2705479 77.4615156 21.6113014 77.9549777 20.7243151 77.9549777 19.6335616 77.9549777 18.8065068 77.5457652 18.0273973 76.7393759 17.2722603 75.9329866 16.5171233 74.2479941 15.5462329 71.6723626 14.3715753 69.5781575 13.4006849 68.1699851 12.6215753 67.4598811 12.0582192 66.7497771 11.494863 66.220208 10.8715753 65.8832095 10.1883562 65.546211 9.51712329 65.3777117 8.7739726 65.3777117 7.95890411 65.3777117 6.40068493 66.0517088 5.13013699 67.4117385 4.15924658 68.7717682 3.18835616 70.5289747 2.69691781 72.7074294 2.69691781 73.8989599 2.69691781 75.1988113 2.87671233 76.6069837 3.23630137 77.268945 3.40410959 77.7263001 3.4760274 77.9910847 3.4760274 78.2077266 3.4760274 78.3521545 3.44006849 78.4243685 3.36815068 78.5086181 3.30821918 78.5928678 3.14041096 78.689153 2.88869863L78.689153 2.88869863 78.689153 2.88869863zM0 23.5650685L0 22.9657534C.89063893 22.9657534 1.50445765 22.7260274 1.84145617 22.2465753 2.17845468 21.7671233 2.34695394 20.9280822 2.34695394 19.7414384L2.34695394 7.0359589C2.34695394 5.82534247 2.17845468 4.97431507 1.84145617 4.49486301 1.50445765 4.01541096.89063893 3.78767123 0 3.78767123L0 3.18835616 9.4961367 3.18835616C12.9985141 3.18835616 15.8028232 4.18321918 17.9090639 6.1609589 20.0153046 8.13869863 21.0624071 10.6558219 21.0624071 13.7123288 21.0624071 16.7089041 20.0634473 19.1061644 18.0775632 20.8921233 16.0796434 22.6780822 13.3114413 23.5650685 9.76092125 23.5650685L0 23.5650685 0 23.5650685zM8.94249629 3.96746575L5.05497771 3.96746575 5.05497771 19.010274C5.05497771 20.4606164 5.22347697 21.4554795 5.57251114 21.9828767 5.92154532 22.510274 6.61961367 22.7859589 7.6667162 22.7859589L9.77295691 22.7859589C12.2884101 22.7859589 14.2622585 21.9828767 15.7065379 20.364726 17.1508172 18.7465753 17.8729569 16.5410959 17.8729569 13.7482877 17.8729569 10.7876712 17.0906389 8.41438356 15.5139673 6.62842466 13.9372957 4.85445205 11.7468053 3.96746575 8.94249629 3.96746575L8.94249629 3.96746575 8.94249629 3.96746575zM4.68187221 28.2157534L5.42808321 28.2157534 3.23759287 33.3818493 2.23863299 33.3818493.0240713224 28.2157534.770282318 28.2157534 2.4191679 32.1232877 2.58766716 32.5188356C2.64784547 32.6746575 2.69598811 32.8065068 2.7320951 32.9143836L2.75616642 32.9143836C2.85245171 32.6626712 2.948737 32.3989726 3.05705795 32.1232877L4.68187221 28.2157534 4.68187221 28.2157534zM8.96656761 32.2910959L9.61649331 32.2910959 9.61649331 32.4229452C9.61649331 32.8065068 9.48410104 33.0702055 9.20728083 33.2140411 8.93046062 33.369863 8.44903418 33.4417808 7.77503715 33.4417808 6.98068351 33.4417808 6.45111441 33.3219178 6.21040119 33.0702055 5.96968796 32.8184932 5.83729569 32.3150685 5.83729569 31.5359589 5.83729569 30.8167808 5.9576523 30.3253425 6.21040119 30.0856164 6.46315007 29.8339041 6.95661218 29.7140411 7.67875186 29.7140411 8.4731055 29.7140411 9.00267459 29.8219178 9.24338782 30.0376712 9.4961367 30.2534247 9.61649331 30.7089041 9.61649331 31.3921233L9.61649331 31.6797945 6.4872214 31.6797945C6.4872214 32.255137 6.55943536 32.614726 6.7038633 32.7825342 6.84829123 32.9383562 7.19732541 33.0222603 7.7268945 33.0222603 8.23239227 33.0222603 8.56939079 32.9863014 8.72585438 32.9143836 8.88231798 32.8424658 8.95453195 32.6746575 8.95453195 32.4229452L8.95453195 32.2910959 8.96656761 32.2910959 8.96656761 32.2910959zM8.96656761 31.260274L8.96656761 31.0924658C8.96656761 30.6969178 8.89435364 30.4452055 8.73789004 30.3253425 8.58142645 30.2054795 8.2564636 30.1455479 7.73893016 30.1455479 7.22139673 30.1455479 6.89643388 30.2174658 6.73997028 30.3493151 6.58350669 30.4811644 6.51129272 30.7928082 6.51129272 31.2482877L8.96656761 31.2482877 8.96656761 31.260274 8.96656761 31.260274zM10.6756315 29.7619863L11.3014859 29.7619863 11.2413076 30.1815068 11.2533432 30.1934932C11.5060921 29.8578767 11.9153046 29.6900685 12.4930163 29.6900685 13.28737 29.6900685 13.6965825 30.0376712 13.6965825 30.7208904L13.6965825 30.9726027 13.0707281 30.9726027 13.0827637 30.8767123C13.0947994 30.7808219 13.0947994 30.7208904 13.0947994 30.6849315 13.0947994 30.3133562 12.8540862 30.1335616 12.3726597 30.1335616 11.6625557 30.1335616 11.3135215 30.4931507 11.3135215 31.2243151L11.3135215 33.3938356 10.6876672 33.3938356 10.6876672 29.7619863 10.6756315 29.7619863 10.6756315 29.7619863zM14.3224368 29.7619863L14.9482912 29.7619863 14.9362556 30.3133562 14.9482912 30.3253425C15.1890045 29.9178082 15.6704309 29.7260274 16.3684993 29.7260274 17.1026746 29.7260274 17.5479941 29.9297945 17.7044577 30.3253425L17.7164933 30.3253425C17.9933135 29.9178082 18.4867756 29.7260274 19.2089153 29.7260274 20.2319465 29.7260274 20.7494799 30.1575342 20.7494799 31.0205479L20.7494799 33.3938356 20.1236256 33.3938356 20.1236256 30.9726027C20.1236256 30.6609589 20.0514116 30.4452055 19.9190193 30.3253425 19.786627 30.2054795 19.5218425 30.1575342 19.148737 30.1575342 18.6432392 30.1575342 18.3062407 30.2414384 18.1257058 30.3972603 17.9451709 30.5530822 17.8609212 30.8527397 17.8609212 31.2962329L17.8609212 33.3938356 17.2350669 33.3938356 17.2350669 31.0205479 17.2230312 30.8527397C17.2230312 30.385274 16.8980684 30.1575342 16.2601783 30.1575342 15.3936107 30.1575342 14.9603269 30.5530822 14.9603269 31.3321918L14.9603269 33.3938356 14.3224368 33.3938356 14.3224368 29.7619863 14.3224368 29.7619863zM23.7945022 29.7140411C24.6008915 29.7140411 25.118425 29.8339041 25.3591382 30.0616438 25.5998514 30.2893836 25.720208 30.8047945 25.720208 31.5839041 25.720208 32.3630137 25.5998514 32.8664384 25.3591382 33.1061644 25.118425 33.3339041 24.6008915 33.4537671 23.7945022 33.4537671 23.0001486 33.4537671 22.4705795 33.3339041 22.2419019 33.1061644 22.0011887 32.8784247 21.8808321 32.3630137 21.8808321 31.5839041 21.8808321 30.8047945 22.0011887 30.3013699 22.2419019 30.0616438 22.4826152 29.8339041 23.0001486 29.7140411 23.7945022 29.7140411L23.7945022 29.7140411 23.7945022 29.7140411zM23.7945022 30.1455479C23.2288262 30.1455479 22.879792 30.2174658 22.7473997 30.3732877 22.6150074 30.5291096 22.5427935 30.9246575 22.5427935 31.5719178 22.5427935 32.2191781 22.6150074 32.614726 22.7473997 32.7705479 22.879792 32.9263699 23.2288262 32.9982877 23.7945022 32.9982877 24.3601783 32.9982877 24.7092125 32.9263699 24.8536404 32.7705479 24.9860327 32.614726 25.0582467 32.2191781 25.0582467 31.5719178 25.0582467 30.9246575 24.9860327 30.5291096 24.8536404 30.3732877 24.7212481 30.2294521 24.372214 30.1455479 23.7945022 30.1455479L23.7945022 30.1455479 23.7945022 30.1455479zM23.3010401 28.6232877L23.3010401 29.114726 22.6029718 29.114726 22.6029718 28.6232877 23.3010401 28.6232877 23.3010401 28.6232877zM24.9980684 28.6232877L24.9980684 29.114726 24.3 29.114726 24.3 28.6232877 24.9980684 28.6232877 24.9980684 28.6232877zM30.3539376 29.7619863L30.3539376 33.6215753C30.3539376 34.1489726 30.2215453 34.5085616 29.9447251 34.7003425 29.6679049 34.8921233 29.1744428 35 28.4523031 35 27.8023774 35 27.3690936 34.9160959 27.1283804 34.7482877 26.8876672 34.5804795 26.7793462 34.2688356 26.7793462 33.8133562L27.3931649 33.8133562C27.3931649 34.125 27.4653789 34.3287671 27.5977712 34.4246575 27.7301634 34.5205479 28.0430906 34.5684932 28.5004458 34.5684932 28.9818722 34.5684932 29.3068351 34.5085616 29.4753343 34.3886986 29.6438336 34.2688356 29.7280832 34.0291096 29.7280832 33.6695205L29.7280832 32.9383562 29.7160475 32.9383562C29.5475483 33.2739726 29.0781575 33.4537671 28.2958395 33.4537671 27.6579495 33.4537671 27.21263 33.3219178 26.9719168 33.0582192 26.7312036 32.7945205 26.610847 32.3150685 26.610847 31.6078767 26.610847 30.8767123 26.7312036 30.385274 26.9839525 30.1215753 27.2367013 29.8578767 27.6820208 29.7260274 28.3560178 29.7260274 29.0661218 29.7260274 29.5355126 29.9058219 29.7521545 30.265411L29.7641902 30.265411 29.7280832 29.7739726 30.3539376 29.7739726 30.3539376 29.7619863 30.3539376 29.7619863zM28.4643388 30.1455479C27.958841 30.1455479 27.6459138 30.2294521 27.4894502 30.4092466 27.3329866 30.5890411 27.2607727 30.9726027 27.2607727 31.5719178 27.2607727 32.1712329 27.3329866 32.5667808 27.4894502 32.7465753 27.6459138 32.9263699 27.958841 33.010274 28.4643388 33.010274 28.9698366 33.010274 29.3068351 32.9143836 29.4632987 32.7106164 29.6197623 32.5188356 29.7040119 32.0993151 29.7040119 31.4880137 29.7040119 30.9366438 29.6197623 30.5770548 29.4632987 30.4092466 29.3068351 30.2294521 28.9698366 30.1455479 28.4643388 30.1455479L28.4643388 30.1455479 28.4643388 30.1455479zM34.4821694 32.2910959L35.1320951 32.2910959 35.1320951 32.4229452C35.1320951 32.8065068 34.9997028 33.0702055 34.7228826 33.2140411 34.4460624 33.369863 33.964636 33.4417808 33.2906389 33.4417808 32.4962853 33.4417808 31.9667162 33.3219178 31.726003 33.0702055 31.4852897 32.8184932 31.3528975 32.3150685 31.3528975 31.5359589 31.3528975 30.8167808 31.4732541 30.3253425 31.726003 30.0856164 31.9787519 29.8339041 32.472214 29.7140411 33.1943536 29.7140411 33.9887073 29.7140411 34.5182764 29.8219178 34.7589896 30.0376712 35.0117385 30.2534247 35.1320951 30.7089041 35.1320951 31.3921233L35.1320951 31.6797945 32.0028232 31.6797945C32.0028232 32.255137 32.0750371 32.614726 32.2194651 32.7825342 32.363893 32.9383562 32.7129272 33.0222603 33.2424963 33.0222603 33.7479941 33.0222603 34.0849926 32.9863014 34.2414562 32.9143836 34.3979198 32.8424658 34.4701337 32.6746575 34.4701337 32.4229452L34.4701337 32.2910959 34.4821694 32.2910959 34.4821694 32.2910959zM34.4821694 31.260274L34.4821694 31.0924658C34.4821694 30.6969178 34.4099554 30.4452055 34.2534918 30.3253425 34.0970282 30.2054795 33.7720654 30.1455479 33.2545319 30.1455479 32.7369985 30.1455479 32.4120357 30.2174658 32.2555721 30.3493151 32.0991085 30.4811644 32.0268945 30.7928082 32.0268945 31.2482877L34.4821694 31.2482877 34.4821694 31.260274 34.4821694 31.260274zM36.131055 29.7619863L36.7448737 29.7619863 36.7208024 30.2534247 36.7448737 30.265411C36.9374443 29.8938356 37.4188707 29.7140411 38.189153 29.7140411 38.8150074 29.7140411 39.2242199 29.8099315 39.4528975 29.989726 39.6695394 30.1695205 39.7778603 30.5171233 39.7778603 31.0325342L39.7778603 33.3938356 39.1520059 33.3938356 39.1520059 31.0804795 39.1520059 30.9486301C39.1520059 30.6369863 39.079792 30.4332192 38.935364 30.3253425 38.7909361 30.2174658 38.5141159 30.1695205 38.1169391 30.1695205 37.2263001 30.1695205 36.7809807 30.5171233 36.7809807 31.2243151L36.7809807 33.4058219 36.1551263 33.4058219 36.1551263 29.7619863 36.131055 29.7619863 36.131055 29.7619863zM44.2912333 30.6969178L43.6533432 30.6969178C43.6533432 30.4452055 43.5931649 30.2893836 43.4728083 30.2294521 43.3524517 30.1695205 43.0395245 30.1335616 42.5219911 30.1335616 42.0526003 30.1335616 41.7517088 30.1695205 41.6193165 30.2294521 41.4869242 30.2893836 41.4267459 30.4452055 41.4267459 30.6969178 41.4267459 31.0684932 41.6433878 31.260274 42.064636 31.2842466L42.5821694 31.3082192 43.2320951 31.3321918C44.0144131 31.3681507 44.4115899 31.7037671 44.4115899 32.3630137 44.4115899 32.7705479 44.2791976 33.0462329 44.0264487 33.2020548 43.7736999 33.3578767 43.2922734 33.4297945 42.5942051 33.4297945 41.884101 33.4297945 41.3906389 33.3578767 41.1258544 33.2140411 40.8610698 33.0702055 40.7286776 32.8065068 40.7286776 32.4109589L40.7286776 32.2071918 41.3906389 32.2071918 41.3906389 32.375C41.3906389 32.614726 41.4628529 32.7825342 41.6072808 32.8544521 41.7517088 32.9263699 42.0405646 32.9743151 42.4618128 32.9743151 42.9913819 32.9743151 43.3283804 32.9383562 43.4968796 32.8544521 43.6653789 32.7705479 43.7496285 32.5907534 43.7496285 32.3270548 43.7496285 31.9434932 43.5450223 31.7517123 43.1237741 31.7517123 42.1609212 31.7517123 41.5230312 31.6797945 41.2221397 31.5479452 40.9212481 31.4160959 40.7647845 31.1284247 40.7647845 30.6969178 40.7647845 30.2893836 40.8851412 30.0136986 41.1258544 29.8818493 41.3665676 29.75 41.8479941 29.6780822 42.5580981 29.6780822 43.7014859 29.6780822 44.2791976 29.9657534 44.2791976 30.5410959L44.2912333 30.6969178 44.2912333 30.6969178z"/>
    <polygon points="48.552 29.762 47.096 33.382 46.181 33.382 44.737 29.762 45.386 29.762 46.157 31.74 46.397 32.363 46.506 32.675 46.626 32.986 46.65 32.986 46.759 32.675 46.867 32.363 47.096 31.752 47.83 29.774 48.552 29.774"/>
    <path d="M52.1023774 32.2910959L52.7523031 32.2910959 52.7523031 32.4229452C52.7523031 32.8065068 52.6199108 33.0702055 52.3430906 33.2140411 52.0662704 33.369863 51.584844 33.4417808 50.910847 33.4417808 50.1164933 33.4417808 49.5869242 33.3219178 49.346211 33.0702055 49.1054978 32.8184932 48.9731055 32.3150685 48.9731055 31.5359589 48.9731055 30.8167808 49.0934621 30.3253425 49.346211 30.0856164 49.5989599 29.8339041 50.092422 29.7140411 50.8145617 29.7140411 51.6089153 29.7140411 52.1384844 29.8219178 52.3791976 30.0376712 52.6319465 30.2534247 52.7523031 30.7089041 52.7523031 31.3921233L52.7523031 31.6797945 49.6230312 31.6797945C49.6230312 32.255137 49.6952452 32.614726 49.8396731 32.7825342 49.984101 32.9383562 50.3331352 33.0222603 50.8627043 33.0222603 51.3682021 33.0222603 51.7052006 32.9863014 51.8616642 32.9143836 52.0181278 32.8424658 52.0903418 32.6746575 52.0903418 32.4229452L52.0903418 32.2910959 52.1023774 32.2910959 52.1023774 32.2910959zM52.1023774 31.260274L52.1023774 31.0924658C52.1023774 30.6969178 52.0301634 30.4452055 51.8736999 30.3253425 51.7172363 30.2054795 51.3922734 30.1455479 50.87474 30.1455479 50.3572065 30.1455479 50.0322437 30.2174658 49.8757801 30.3493151 49.7193165 30.4811644 49.6471025 30.7928082 49.6471025 31.2482877L52.1023774 31.2482877 52.1023774 31.260274 52.1023774 31.260274zM53.8114413 29.7619863L54.4372957 29.7619863 54.3771174 30.1815068 54.389153 30.1934932C54.6419019 29.8578767 55.0511144 29.6900685 55.6288262 29.6900685 56.4231798 29.6900685 56.8323923 30.0376712 56.8323923 30.7208904L56.8323923 30.9726027 56.2065379 30.9726027 56.2185736 30.8767123C56.2306092 30.7808219 56.2306092 30.7208904 56.2306092 30.6849315 56.2306092 30.3133562 55.989896 30.1335616 55.5084695 30.1335616 54.7983655 30.1335616 54.4493314 30.4931507 54.4493314 31.2243151L54.4493314 33.3938356 53.823477 33.3938356 53.823477 29.7619863 53.8114413 29.7619863 53.8114413 29.7619863z"/>
    <polygon points="63.103 29.762 61.887 33.382 60.949 33.382 60.371 31.368 60.19 30.757 60.106 30.445 60.022 30.134 60.01 30.134 59.926 30.445 59.841 30.757 59.661 31.368 59.071 33.382 58.108 33.382 56.929 29.762 57.591 29.762 58.204 31.764 58.397 32.399 58.493 32.711 58.59 33.022 58.614 33.022 58.698 32.711 58.794 32.399 58.975 31.776 59.564 29.762 60.491 29.762 61.081 31.776 61.262 32.399 61.346 32.711 61.43 33.022 61.442 33.022 61.538 32.711 61.635 32.399 61.827 31.764 62.441 29.762"/>
    <path d="M64.3667162,30.7808219 L63.7408618,30.7808219 C63.7408618,30.3613014 63.8491828,30.0736301 64.0778603,29.9297945 C64.3065379,29.7859589 64.7518574,29.7140411 65.4138187,29.7140411 C66.1359584,29.7140411 66.6294205,29.7979452 66.8821694,29.9777397 C67.1349183,30.1575342 67.2673105,30.4931507 67.2673105,30.9965753 L67.2673105,33.3818493 L66.6414562,33.3818493 L66.6895988,32.9863014 L66.6775632,32.9863014 C66.4368499,33.2859589 65.9433878,33.4417808 65.1971768,33.4417808 C64.1019316,33.4417808 63.5482912,33.0702055 63.5482912,32.3390411 C63.5482912,31.8955479 63.6686478,31.5958904 63.9213967,31.4280822 C64.16211,31.260274 64.6074294,31.1763699 65.2573551,31.1763699 C66.0156018,31.1763699 66.4729569,31.2962329 66.6294205,31.5479452 L66.6414562,31.5479452 L66.6414562,31.1044521 C66.6414562,30.6969178 66.5692422,30.4332192 66.4368499,30.3133562 C66.3044577,30.1934932 66.0035661,30.1335616 65.546211,30.1335616 C64.763893,30.1335616 64.3787519,30.3133562 64.3787519,30.6729452 C64.3546805,30.6849315 64.3546805,30.7208904 64.3667162,30.7808219 L64.3667162,30.7808219 L64.3667162,30.7808219 Z M65.3777117,31.5958904 C64.8842496,31.5958904 64.5713224,31.6438356 64.4268945,31.7277397 C64.2824666,31.8116438 64.2102526,32.0034247 64.2102526,32.2791096 C64.2102526,32.5667808 64.2824666,32.7705479 64.4268945,32.8664384 C64.5713224,32.9623288 64.872214,33.010274 65.3175334,33.010274 C66.220208,33.010274 66.6655275,32.7825342 66.6655275,32.3270548 C66.6655275,32.0393836 66.5812779,31.8476027 66.4007429,31.7517123 C66.220208,31.6558219 65.8832095,31.5958904 65.3777117,31.5958904 L65.3777117,31.5958904 L65.3777117,31.5958904 Z"/>
    <polygon points="69.073 28.216 69.073 33.382 68.447 33.382 68.447 28.216"/>
    <path d="M72.4907875 29.7619863L72.4907875 30.1934932 70.8178306 30.1934932 70.8178306 32.4109589C70.8178306 32.8065068 71.0224368 33.010274 71.4316493 33.010274 71.8408618 33.010274 72.0454681 32.8304795 72.0454681 32.4708904L72.0454681 32.2910959 72.0575037 32.0873288 72.6472511 32.0873288 72.6472511 32.3630137C72.6472511 33.0821918 72.2380386 33.4417808 71.4316493 33.4417808 70.6011887 33.4417808 70.1799406 33.1421233 70.1799406 32.5428082L70.1799406 32.4109589 70.1799406 30.1934932 69.5781575 30.1934932 69.5781575 29.7619863 70.1799406 29.7619863 70.1799406 28.8869863 70.8057949 28.8869863 70.8057949 29.75 72.4907875 29.75 72.4907875 29.7619863 72.4907875 29.7619863zM76.2459138 32.2910959L76.8958395 32.2910959 76.8958395 32.4229452C76.8958395 32.8065068 76.7634473 33.0702055 76.486627 33.2140411 76.2098068 33.369863 75.7283804 33.4417808 75.0543834 33.4417808 74.2600297 33.4417808 73.7304606 33.3219178 73.4897474 33.0702055 73.2490342 32.8184932 73.1166419 32.3150685 73.1166419 31.5359589 73.1166419 30.8167808 73.2369985 30.3253425 73.4897474 30.0856164 73.7424963 29.8339041 74.2359584 29.7140411 74.9580981 29.7140411 75.7524517 29.7140411 76.2820208 29.8219178 76.522734 30.0376712 76.7754829 30.2534247 76.8958395 30.7089041 76.8958395 31.3921233L76.8958395 31.6797945 73.7665676 31.6797945C73.7665676 32.255137 73.8387816 32.614726 73.9832095 32.7825342 74.1276374 32.9383562 74.4766716 33.0222603 75.0062407 33.0222603 75.5117385 33.0222603 75.848737 32.9863014 76.0052006 32.9143836 76.1616642 32.8424658 76.2338782 32.6746575 76.2338782 32.4229452L76.2338782 32.2910959 76.2459138 32.2910959 76.2459138 32.2910959zM76.2459138 31.260274L76.2459138 31.0924658C76.2459138 30.6969178 76.1736999 30.4452055 76.0172363 30.3253425 75.8607727 30.2054795 75.5358098 30.1455479 75.0182764 30.1455479 74.5007429 30.1455479 74.1757801 30.2174658 74.0193165 30.3493151 73.8628529 30.4811644 73.7906389 30.7928082 73.7906389 31.2482877L76.2459138 31.2482877 76.2459138 31.260274 76.2459138 31.260274zM77.9549777 29.7619863L78.5808321 29.7619863 78.5206538 30.1815068 78.5326895 30.1934932C78.7854383 29.8578767 79.1946508 29.6900685 79.7723626 29.6900685 80.5667162 29.6900685 80.9759287 30.0376712 80.9759287 30.7208904L80.9759287 30.9726027 80.3500743 30.9726027 80.36211 30.8767123C80.3741456 30.7808219 80.3741456 30.7208904 80.3741456 30.6849315 80.3741456 30.3133562 80.1334324 30.1335616 79.6520059 30.1335616 78.9419019 30.1335616 78.5928678 30.4931507 78.5928678 31.2243151L78.5928678 33.3938356 77.9670134 33.3938356 77.9670134 29.7619863 77.9549777 29.7619863 77.9549777 29.7619863z"/>
    <polygon points="26.442 26.586 26.442 0 28.163 0 28.163 26.586"/>
    <polygon points="58.144 26.586 58.144 0 59.865 0 59.865 26.586"/>
    <path d="M33.0258544,23.5650685 L33.0258544,22.9657534 C34.0248143,22.9657534 34.710847,22.7260274 35.0719168,22.2465753 C35.4329866,21.7671233 35.6135215,20.9280822 35.6135215,19.7414384 L35.6135215,7.0359589 C35.6135215,5.81335616 35.4329866,4.96232877 35.0839525,4.49486301 C34.7228826,4.02739726 34.0488856,3.78767123 33.0258544,3.78767123 L33.0258544,3.18835616 L41.2702823,3.18835616 L41.2702823,3.78767123 C40.2953938,3.78767123 39.6213967,4.02739726 39.2482912,4.51883562 C38.8751857,5.01027397 38.6826152,5.84931507 38.6826152,7.0359589 L38.6826152,13.1849315 L46.1567608,6.62842466 C46.9511144,5.92123288 47.3482912,5.35787671 47.3482912,4.92636986 C47.3482912,4.3390411 46.8668648,3.96746575 45.9040119,3.78767123 L45.9040119,3.18835616 L54.569688,3.18835616 L54.569688,3.78767123 L53.4383358,3.78767123 C52.7523031,3.78767123 51.9579495,3.99143836 51.0673105,4.3989726 C50.1766716,4.80650685 49.3582467,5.34589041 48.6120357,6.01712329 L41.4869242,12.2859589 L50.9469539,20.8202055 C51.8857355,21.6832192 52.6078752,22.234589 53.113373,22.4982877 C53.6188707,22.75 54.3289747,22.9058219 55.243685,22.9657534 L55.243685,23.5650685 L49.7794948,23.5650685 L38.6946508,13.5804795 L38.6946508,19.7414384 C38.6946508,20.9400685 38.8751857,21.7791096 39.2362556,22.2585616 C39.5973254,22.7380137 40.2833581,22.9777397 41.282318,22.9777397 L41.282318,23.5770548 L33.0258544,23.5770548 L33.0258544,23.5650685 L33.0258544,23.5650685 Z"/>
  </g>
</svg>
