<svg xmlns="http://www.w3.org/2000/svg" width="198" height="116" viewBox="0 0 198 116" xmlns:xlink="http://www.w3.org/1999/xlink">
  <defs>
    <path id="a" d="M186,72 C186,71.9972266 101,72 101,72 L101,44 C101,44.0027734 186,44 186,44 L186,72 Z M101,45 L101,71 L185,71 L185,45 L101,45 Z"/>
  </defs>
  <g fill="none" fill-rule="evenodd">
    <path fill="#828889" d="M101.386231,72 L12,72 L12,44 L101.386231,44 L101.386231,72 Z M19.0467502,66.997796 L25.505918,66.997796 C31.5576644,66.997796 36.0077132,64.6840106 36.0077132,58.0473206 C36.0077132,51.1815311 31.6848087,49.2487785 25.505918,49.2487785 L19.0467502,49.2487785 L19.0467502,66.997796 Z M41.1343053,66.997916 L53.924697,66.997916 L53.924697,63.6413877 L45.8638315,63.6413877 L45.8638315,59.6239493 L53.2126093,59.6239493 L53.2126093,56.267421 L45.8638315,56.267421 L45.8638315,52.6054267 L53.6452196,52.6054267 L53.6452196,49.2488985 L41.1343053,49.2488985 L41.1343053,66.997916 Z M73.7998623,62.8784023 C72.502831,63.3869793 70.9263223,63.7940008 69.3754023,63.7940008 C65.9173186,63.7940008 63.4508001,61.6833263 63.4508001,58.1996538 C63.4508001,54.8939033 65.6374413,52.4529736 68.9939695,52.4529736 C70.621256,52.4529736 72.0962093,52.8595953 73.6219403,53.6988273 L74.003373,49.858911 C72.2997201,49.3507338 70.5448895,48.9437123 68.739681,48.9437123 C62.8910455,48.9437123 58.568141,52.0207631 58.568141,58.1996538 C58.568141,64.9127103 64.0353438,67.3028623 68.7652698,67.3028623 C71.1810106,67.3028623 72.6811528,66.9214295 74.028562,66.5911743 L73.7998623,62.8784023 Z M77.9685144,58.1234872 C77.9685144,63.7686119 81.0707542,67.3030622 86.8686119,67.3030622 C92.6660699,67.3030622 95.7683096,63.7686119 95.7683096,58.1234872 C95.7683096,52.4275847 92.7168476,48.9439122 86.8686119,48.9439122 C81.0199764,48.9439122 77.9685144,52.4275847 77.9685144,58.1234872 Z"/>
    <path fill="#828889" d="M23.7766762 52.7580398L25.6074735 52.7580398C29.065957 52.7580398 31.125454 54.5888371 31.125454 58.1232873 31.125454 61.6581373 29.1419237 63.4889346 25.6074735 63.4889346L23.7766762 63.4889346 23.7766762 52.7580398 23.7766762 52.7580398zM82.8507737 58.1234872C82.8507737 55.0464364 83.9950719 52.4527737 86.8686119 52.4527737 89.7417521 52.4527737 90.8860504 55.0464364 90.8860504 58.1234872 90.8860504 61.0474051 89.7417521 63.7942007 86.8686119 63.7942007 83.9950719 63.7942007 82.8507737 61.0474051 82.8507737 58.1234872"/>
    <path fill="#828889" d="M122.712575 56.6231451L115.363398 56.6231451 115.363398 59.9796733 118.135382 59.9796733 118.135382 63.4889346C117.703172 63.6924453 117.092639 63.7940008 116.456918 63.7940008 112.998834 63.7940008 110.531916 61.6833263 110.531916 58.1996538 110.531916 54.0550711 113.685333 52.4529736 117.52485 52.4529736 118.643959 52.4529736 120.372801 52.7328509 121.847754 53.5972718L122.229187 49.7321666C120.500345 49.0708566 118.033427 48.9437123 116.86394 48.9437123 110.354394 48.9437123 105.649657 51.5121861 105.649657 58.1996538 105.649657 64.9127103 111.11686 67.3028623 115.846786 67.3028623 117.474072 67.3028623 119.711891 67.2520845 122.712575 66.489219L122.712575 56.6231451 122.712575 56.6231451zM128.525666 66.997916L140.578781 66.997916 140.578781 63.4890545 133.255193 63.4890545 133.255193 49.2488985 128.525666 49.2488985 128.525666 66.997916 128.525666 66.997916zM155.393565 59.852609L150.943117 59.852609 153.232113 52.910453 153.282891 52.910453 155.393565 59.852609 155.393565 59.852609zM143.645517 66.997876L148.451409 66.997876 149.849996 63.2091373 156.512275 63.2091373 157.834095 66.997876 163.021821 66.997876 156.18162 49.2488585 150.384162 49.2488585 143.645517 66.997876 143.645517 66.997876zM166.953337 66.5400767C168.529845 67.0486537 170.589742 67.3029422 172.242618 67.3029422 176.184089 67.3029422 180.049195 66.0570885 180.049195 61.4547065 180.049195 55.0463165 171.657674 56.979069 171.657674 54.105529 171.657674 52.554609 173.641204 52.4530535 174.83628 52.4530535 176.184089 52.4530535 177.557087 52.707342 178.777352 53.2666968L179.082818 49.6051023C177.887742 49.1980808 176.209278 48.9437923 174.505625 48.9437923 170.945186 48.9437923 166.775415 50.1136793 166.775415 54.3854063 166.775415 60.8441742 175.166935 58.7590885 175.166935 62.064839 175.166935 63.4890145 173.74236 63.7940808 172.242618 63.7940808 170.284676 63.7940808 168.580623 63.285104 167.360358 62.6241937L166.953337 66.5400767 166.953337 66.5400767z"/>
    <use fill="#828889" xlink:href="#a"/>
  </g>
</svg>
