<svg xmlns="http://www.w3.org/2000/svg" width="198" height="116" viewBox="0 0 198 116">
  <g fill="#828889" transform="translate(20 19)">
    <g transform="translate(17 21)">
      <path d="M3.74713043,0.673826087 C6.57704348,0.673826087 8.00373913,0.899217391 9.28095652,1.5753913 C11.660087,2.82756522 13.1626957,5.70678261 13.1626957,9.01252174 C13.1626957,12.2924348 11.7101739,15.1481739 9.43121739,16.3995652 C7.97947826,17.2001739 6.87678261,17.3762609 3.39652174,17.3762609 L0.36626087,17.3762609 L0.36626087,0.673826087 L3.74713043,0.673826087 Z M4.29730435,15.1481739 C6.47608696,15.1481739 7.32756522,14.972087 8.30426087,14.3467826 C9.70669565,13.3951304 10.4830435,11.4918261 10.4830435,8.98747826 C10.4830435,6.48313043 9.63156522,4.5806087 8.10391304,3.62817391 C7.10217391,3.00208696 6.40095652,2.90191304 3.67121739,2.90191304 L2.94495652,2.90191304 L2.94495652,15.1473913 L4.29730435,15.1473913 L4.29730435,15.1481739 Z"/>
      <polygon points="25.309 .674 25.309 2.477 17.195 15.148 25.083 15.148 25.083 17.377 14.14 17.377 14.14 15.349 22.178 2.853 14.791 2.853 14.791 .674"/>
      <polygon points="30.042 .674 37.379 13.445 37.379 .674 39.833 .674 39.833 17.377 37.154 17.377 29.716 4.631 29.716 17.377 27.262 17.377 27.262 .674"/>
      <polygon points="52.531 7.611 52.531 9.84 45.82 9.84 45.82 15.149 53.332 15.149 53.332 17.378 43.24 17.378 43.24 .674 53.131 .674 53.131 2.903 45.819 2.903 45.819 7.611"/>
    </g>
    <g transform="translate(17 42)">
      <path d="M1.80769822.907055556C2.87405917.907055556 3.41235503.994055556 3.89320118 1.25505556 4.78957396 1.73838889 5.35620118 2.84925 5.35620118 4.12444444 5.35620118 5.38997222 4.80924852 6.49116667 3.94986391 6.9745 3.40291124 7.28383333 2.98738462 7.3515 1.67548521 7.3515L.533573964 7.3515.533573964.907055556 1.80769822.907055556zM2.01546154 6.49197222C2.83628402 6.49197222 3.15737278 6.42430556 3.52568047 6.18263889 4.05374556 5.81611111 4.34650296 5.08144444 4.34650296 4.11558333 4.34650296 3.14972222 4.0254142 2.41505556 3.4493432 2.04852778 3.0723787 1.80605556 2.80795266 1.76819444 1.77857988 1.76819444L1.50471006 1.76819444 1.50471006 6.49197222 2.01546154 6.49197222 2.01546154 6.49197222zM7.06867456 5.26430556C7.1064497 6.20116667 7.52197633 6.69416667 8.25780473 6.69416667 8.71976331 6.69416667 9.00307692 6.52016667 9.20139645 6.09563889L10.0316627 6.15283333C9.78612426 7.0035 9.14473373 7.47716667 8.22868639 7.47716667 6.96400592 7.47716667 6.13295266 6.54916667 6.13295266 5.11044444 6.13295266 3.61291667 6.94433136 2.63738889 8.19091124 2.63738889 9.38004142 2.63738889 10.1347574 3.57425 10.1347574 5.06291667 10.1347574 5.09111111 10.1347574 5.17811111 10.1253136 5.26511111L7.06867456 5.26511111 7.06867456 5.26430556zM9.18250888 4.55863889C9.09751479 3.78611111 8.75753846 3.40025 8.17202367 3.40025 7.59673964 3.40025 7.24731953 3.77725 7.09621893 4.55863889L9.18250888 4.55863889zM12.0636509 2.76225L12.0636509 5.46730556C12.0636509 5.89263889 12.1203136 6.16330556 12.2336391 6.31797222 12.3752959 6.50163889 12.6302781 6.61683333 12.9041479 6.61683333 13.2630118 6.61683333 13.565213 6.43397222 13.7352012 6.12463889 13.8390828 5.93130556 13.8863018 5.68077778 13.8863018 5.28444444L13.8863018 2.76225 14.8110059 2.76225 14.8110059 5.94097222C14.8110059 6.9745 14.8110059 6.9745 14.9243314 7.3515L14.0374024 7.3515C13.9901834 7.21616667 13.9524083 7.0035 13.9429645 6.78197222 13.6407633 7.25483333 13.2724556 7.45783333 12.7160592 7.45783333 12.1116568 7.45783333 11.5930355 7.1775 11.347497 6.72397222 11.2058402 6.46297222 11.1397337 6.08597222 11.1397337 5.49711111L11.1397337 2.76225 12.0636509 2.76225 12.0636509 2.76225zM18.3240947 2.76225L18.3146509 3.51625 17.3238402 3.51625 17.2955089 5.54625 17.2860651 5.80644444 17.2860651 5.93130556C17.2860651 6.44444444 17.4088343 6.61763889 17.7676982 6.61763889 17.956574 6.61763889 18.2021124 6.56044444 18.4279763 6.46377778L18.4185325 7.26611111C18.0974438 7.39097222 17.8141302 7.44977778 17.512716 7.44977778 17.0310828 7.44977778 16.6627751 7.26611111 16.4746864 6.93744444 16.3708047 6.74411111 16.3330296 6.53144444 16.3330296 6.11577778 16.3330296 6.06663889 16.3330296 6.06663889 16.3519172 5.54625L16.4085799 3.51625 15.7199704 3.51625 15.7294142 2.76225 16.4369112 2.76225 16.4652426 1.44838889 17.3616154 1.44838889 17.3427278 2.76225 18.3240947 2.76225 18.3240947 2.76225zM21.6860828 4.10591667C21.6199763 3.60325 21.3744379 3.38091667 20.8747041 3.38091667 20.4308462 3.38091667 20.1380888 3.61291667 20.1380888 3.96172222 20.1380888 4.28958333 20.2797456 4.38625 21.2044497 4.66658333 21.9032899 4.86958333 22.1952604 5.01458333 22.3746923 5.24577778 22.5446805 5.44877778 22.6296746 5.70977778 22.6296746 6.01911111 22.6296746 6.92777778 21.9780533 7.47877778 20.9022485 7.47877778 19.7036746 7.47877778 19.0520533 6.91891667 19.0520533 5.87491667L19.9295385 5.87491667C19.9767574 6.46377778 20.2789586 6.73444444 20.8739172 6.73444444 21.3830947 6.73444444 21.6947396 6.49277778 21.6947396 6.09725 21.6947396 5.88377778 21.6097456 5.75891667 21.3830947 5.65177778 21.2414379 5.57444444 21.147 5.53577778 20.4300592 5.31344444 19.5336864 5.04358333 19.2125976 4.70525 19.2125976 4.04872222 19.2125976 3.19805556 19.8728757 2.63819444 20.8833609 2.63819444 21.9213905 2.63819444 22.5257929 3.15938889 22.5824556 4.10672222L21.6860828 4.10672222 21.6860828 4.10591667zM26.2757633 4.27911111C26.1813254 3.67091667 25.9263432 3.40991667 25.4360533 3.40991667 24.7757751 3.40991667 24.3602485 4.04791667 24.3602485 5.07177778 24.3602485 6.09563889 24.7663314 6.70383333 25.445497 6.70383333 25.9649053 6.70383333 26.2387751 6.40416667 26.3143254 5.74763889L27.220142 5.74763889C27.1540355 6.81902778 26.4748698 7.47636111 25.445497 7.47636111 24.2185917 7.47636111 23.407213 6.5105 23.407213 5.07097222 23.407213 3.59197222 24.2099349 2.63658333 25.4557278 2.63658333 26.465426 2.63658333 27.0698284 3.21658333 27.1925976 4.27830556L26.2757633 4.27830556 26.2757633 4.27911111zM29.1388047.869194444L29.1388047 3.28425C29.4693373 2.86858333 29.9037515 2.65672222 30.4318166 2.65672222 30.9795562 2.65672222 31.4887337 2.91691667 31.7059408 3.31244444 31.8664852 3.59277778 31.9137041 3.90211111 31.9137041 4.71330556L31.9137041 7.35069444 30.989 7.35069444 30.989 4.86797222C30.989 4.34597222 30.9512249 4.09463889 30.856787 3.90211111 30.7253609 3.64111111 30.4695917 3.49611111 30.1492899 3.49611111 29.790426 3.49611111 29.4606805 3.70877778 29.2906923 4.02697222 29.1868107 4.24044444 29.1395917 4.51997222 29.1395917 4.91630556L29.1395917 7.35069444 28.2148876 7.35069444 28.2148876.868388889 29.1388047.868388889 29.1388047.869194444zM33.8520414 5.26430556C33.8898166 6.20116667 34.3053432 6.69416667 35.0411716 6.69416667 35.5039172 6.69416667 35.7872308 6.52016667 35.9855503 6.09563889L36.8158166 6.15283333C36.5702781 7.0035 35.9288876 7.47716667 35.0128402 7.47716667 33.7481598 7.47716667 32.9171065 6.54916667 32.9171065 5.11044444 32.9171065 3.61291667 33.7284852 2.63738889 34.9750651 2.63738889 36.1641953 2.63738889 36.9189112 3.57425 36.9189112 5.06291667 36.9189112 5.09111111 36.9189112 5.17811111 36.9094675 5.26511111L33.8520414 5.26511111 33.8520414 5.26430556zM35.9658757 4.55863889C35.8808817 3.78611111 35.5409053 3.40025 34.9553905 3.40025 34.3801065 3.40025 34.0306864 3.77725 33.8795858 4.55863889L35.9658757 4.55863889zM40.300574 4.10591667C40.2344675 3.60325 39.988929 3.38091667 39.4891953 3.38091667 39.0453373 3.38091667 38.7525799 3.61291667 38.7525799 3.96172222 38.7525799 4.28958333 38.8942367 4.38625 39.8189408 4.66658333 40.5177811 4.86958333 40.8097515 5.01458333 40.9891834 5.24577778 41.1591716 5.44877778 41.2441657 5.70977778 41.2441657 6.01911111 41.2441657 6.92777778 40.5925444 7.47877778 39.5167396 7.47877778 38.3181657 7.47877778 37.6665444 6.91891667 37.6665444 5.87491667L38.5440296 5.87491667C38.5912485 6.46377778 38.8934497 6.73444444 39.4884083 6.73444444 39.9975858 6.73444444 40.3092308 6.49277778 40.3092308 6.09725 40.3092308 5.88377778 40.2242367 5.75891667 39.9975858 5.65177778 39.855929 5.57444444 39.7614911 5.53577778 39.0445503 5.31344444 38.1481775 5.04358333 37.8270888 4.70525 37.8270888 4.04872222 37.8270888 3.19805556 38.4873669 2.63819444 39.4978521 2.63819444 40.5358817 2.63819444 41.140284 3.15938889 41.1969467 4.10672222L40.300574 4.10672222 40.300574 4.10591667z"/>
      <polygon points="48.469 .907 48.469 1.602 45.411 6.491 48.384 6.491 48.384 7.351 44.26 7.351 44.26 6.568 47.29 1.747 44.505 1.747 44.505 .906 48.469 .906"/>
      <path d="M50.0103609 5.26430556C50.0481361 6.20116667 50.4636627 6.69416667 51.1994911 6.69416667 51.6622367 6.69416667 51.9455503 6.52016667 52.1438698 6.09563889L52.9741361 6.15283333C52.7285976 7.0035 52.0872071 7.47716667 51.1711598 7.47716667 49.9064793 7.47716667 49.075426 6.54916667 49.075426 5.11044444 49.075426 3.61291667 49.8868047 2.63738889 51.1333846 2.63738889 52.3225148 2.63738889 53.0772308 3.57425 53.0772308 5.06291667 53.0772308 5.09111111 53.0772308 5.17811111 53.067787 5.26511111L50.0103609 5.26511111 50.0103609 5.26430556zM52.1241953 4.55863889C52.0392012 3.78611111 51.6992249 3.40025 51.1137101 3.40025 50.538426 3.40025 50.1890059 3.77725 50.0379053 4.55863889L52.1241953 4.55863889zM54.882568 2.76225C54.9486746 2.94672222 54.9675621 3.10058333 54.9770059 3.38977778 55.2886509 2.90644444 55.7506095 2.65672222 56.3266805 2.65672222 56.8933077 2.65672222 57.3835976 2.92658333 57.6008047 3.36158333 57.7519053 3.66044444 57.7802367 3.86344444 57.7802367 4.71411111L57.7802367 7.3515 56.8555325 7.3515 56.8555325 4.86877778C56.8555325 4.30891667 56.8272012 4.08577778 56.7327633 3.89325 56.6099941 3.64191667 56.3644556 3.49691667 56.0441538 3.49691667 55.6852899 3.49691667 55.3461006 3.69991667 55.1855562 4.01811111 55.0816746 4.22111111 55.0344556 4.49177778 55.0344556 4.90744444L55.0344556 7.3515 54.1097515 7.3515 54.1097515 4.36611111C54.1097515 3.24477778 54.1097515 3.20772222 53.9869822 2.76225L54.882568 2.76225zM61.2563373 2.76225L61.2468935 3.51625 60.2560828 3.51625 60.2277515 5.54625 60.2183077 5.80644444 60.2183077 5.93130556C60.2183077 6.44444444 60.3410769 6.61763889 60.6999408 6.61763889 60.8888166 6.61763889 61.134355 6.56044444 61.3602189 6.46377778L61.3507751 7.26611111C61.0296864 7.39097222 60.7463728 7.44977778 60.4449586 7.44977778 59.9633254 7.44977778 59.5950178 7.26611111 59.406929 6.93744444 59.3030473 6.74411111 59.2652722 6.53144444 59.2652722 6.11577778 59.2652722 6.06663889 59.2652722 6.06663889 59.2841598 5.54625L59.3408225 3.51625 58.652213 3.51625 58.6616568 2.76225 59.3691538 2.76225 59.3974852 1.44838889 60.293858 1.44838889 60.2749704 2.76225 61.2563373 2.76225 61.2563373 2.76225zM63.0892189 2.76225C63.1372249 3.00472222 63.1553254 3.20772222 63.1553254 3.46791667 63.1553254 3.52511111 63.1553254 3.61291667 63.1458817 3.72811111 63.4764142 3.00472222 63.8730533 2.65672222 64.372787 2.65672222 64.4955562 2.65672222 64.637213 2.68491667 64.816645 2.75258333L64.816645 3.70958333C64.5616627 3.56458333 64.3814438 3.50658333 64.1650237 3.50658333 63.8069467 3.50658333 63.5236331 3.72811111 63.353645 4.13411111 63.2395325 4.39511111 63.1931006 4.75277778 63.1931006 5.25544444L63.1931006 7.35230556 62.2581657 7.35230556 62.2581657 4.25091667C62.2581657 3.25605556 62.2487219 3.16825 62.2022899 2.76225L63.0892189 2.76225 63.0892189 2.76225zM66.4889822 2.76225L66.4889822 5.46730556C66.4889822 5.89263889 66.545645 6.16330556 66.6589704 6.31797222 66.8006272 6.50163889 67.0548225 6.61683333 67.3286923 6.61683333 67.6883432 6.61683333 67.9897574 6.43397222 68.1605325 6.12463889 68.2636272 5.93130556 68.3108462 5.68077778 68.3108462 5.28444444L68.3108462 2.76225 69.2363373 2.76225 69.2363373 5.94097222C69.2363373 6.9745 69.2363373 6.9745 69.3496627 7.3515L68.4619467 7.3515C68.4147278 7.21616667 68.3777396 7.0035 68.3682959 6.78197222 68.0653077 7.25483333 67.697787 7.45783333 67.1406036 7.45783333 66.5362012 7.45783333 66.0175799 7.1775 65.7720414 6.72397222 65.6303846 6.46297222 65.5642781 6.08597222 65.5642781 5.49711111L65.5642781 2.76225 66.4889822 2.76225 66.4889822 2.76225zM71.3627633 2.76225C71.4288698 2.93705556 71.4572012 3.12958333 71.4572012 3.38091667 71.7688462 2.88872222 72.1938166 2.65752778 72.7879882 2.65752778 73.4010473 2.65752778 73.8071302 2.89838889 74.0518817 3.43005556 74.4107456 2.89838889 74.8546036 2.65752778 75.4676627 2.65752778 76.0429467 2.65752778 76.4773609 2.88872222 76.6756805 3.29472222 76.8181243 3.59358333 76.8362249 3.71038889 76.8362249 4.61825L76.8362249 7.35311111 75.9107337 7.35311111 75.9107337 4.62791667C75.9107337 4.14458333 75.8831893 3.96252778 75.7879645 3.80705556 75.6659822 3.61372222 75.4204438 3.49772222 75.1182426 3.49772222 74.7774793 3.49772222 74.4949527 3.65158333 74.3351953 3.91338889 74.2210828 4.08738889 74.1738639 4.32905556 74.1738639 4.70525L74.1738639 7.35230556 73.2491598 7.35230556 73.2491598 4.73425C73.2491598 4.13491667 73.2302722 4.00925 73.1452781 3.84491667 73.0311657 3.63225 72.7675266 3.49691667 72.4661124 3.49691667 72.0694734 3.49691667 71.7483846 3.69991667 71.6161716 4.01811111 71.5319645 4.21063889 71.5028462 4.41363889 71.5028462 4.74230556L71.5028462 7.35069444 70.578142 7.35069444 70.578142 4.00763889C70.578142 3.21658333 70.5679112 3.09977778 70.4640296 2.76144444L71.3627633 2.76144444 71.3627633 2.76225zM82.6276272 2.76225L82.6276272 3.51625 81.5518225 3.51625 81.5518225 7.35230556 80.6082308 7.35230556 80.6082308 3.51625 79.9943846 3.51625 79.9943846 2.76225 80.6082308 2.76225 80.6082308 2.47305556C80.6082308 1.83586111 80.6641065 1.53538889 80.8246509 1.27519444 81.041858.927194444 81.4093787.744333333 81.9012426.744333333 82.2121006.744333333 82.4670828.792666667 82.7787278.917527778L82.7787278 1.71986111C82.4576391 1.60305556 82.2876509 1.566 82.0704438 1.566 81.6557041 1.566 81.5415917 1.78752778 81.5415917 2.56005556L81.5415917 2.76305556 82.6276272 2.76305556 82.6276272 2.76225zM84.3094083 2.76225L84.3094083 5.46730556C84.3094083 5.89263889 84.366071 6.16330556 84.4793964 6.31797222 84.6210533 6.50163889 84.8760355 6.61683333 85.1499053 6.61683333 85.5087692 6.61683333 85.8109704 6.43397222 85.9809586 6.12463889 86.0848402 5.93130556 86.1320592 5.68077778 86.1320592 5.28444444L86.1320592 2.76225 87.0567633 2.76225 87.0567633 5.94097222C87.0567633 6.9745 87.0567633 6.9745 87.1700888 7.3515L86.2831598 7.3515C86.2351538 7.21616667 86.1989527 7.0035 86.1887219 6.78197222 85.8865207 7.25483333 85.518213 7.45783333 84.9610296 7.45783333 84.3566272 7.45783333 83.8380059 7.1775 83.5932544 6.72397222 83.4515976 6.46297222 83.3854911 6.08597222 83.3854911 5.49711111L83.3854911 2.76225 84.3094083 2.76225 84.3094083 2.76225zM84.9704734 1.37105556C84.9704734 1.69972222 84.7162781 1.95991667 84.4038462 1.95991667 84.0827574 1.95991667 83.8285621 1.69972222 83.8285621 1.37105556 83.8285621 1.03272222 84.0741006.791055556 84.4038462.791055556 84.7249349.791055556 84.9704734 1.04238889 84.9704734 1.37105556zM86.6129053 1.37105556C86.6129053 1.68038889 86.3390355 1.95991667 86.0273905 1.95991667 85.7157456 1.95991667 85.4615503 1.69972222 85.4615503 1.37105556 85.4615503 1.04238889 85.7157456.782194444 86.0360473.782194444 86.3390355.782194444 86.6129053 1.06172222 86.6129053 1.37105556zM89.2201775 2.76225C89.2673964 3.00472222 89.286284 3.20772222 89.286284 3.46791667 89.286284 3.52511111 89.286284 3.61291667 89.2760533 3.72811111 89.6065858 3.00472222 90.0032249 2.65672222 90.5037456 2.65672222 90.6265148 2.65672222 90.7681716 2.68491667 90.9468166 2.75258333L90.9468166 3.70958333C90.6926213 3.56458333 90.5131893 3.50658333 90.2959822 3.50658333 89.9371183 3.50658333 89.6545917 3.72811111 89.4846036 4.13411111 89.3712781 4.39511111 89.3240592 4.75277778 89.3240592 5.25544444L89.3240592 7.35230556 88.3891243 7.35230556 88.3891243 4.25091667C88.3891243 3.25605556 88.3796805 3.16825 88.3324615 2.76225L89.2201775 2.76225 89.2201775 2.76225z"/>
      <polygon points="1.581 11.379 4.347 16.307 4.347 11.379 5.271 11.379 5.271 17.824 4.262 17.824 1.458 12.907 1.458 17.824 .534 17.824 .534 11.379"/>
      <path d="M7.34333136 15.7365278C7.38110651 16.6733889 7.79663314 17.1663889 8.53246154 17.1663889 8.99442012 17.1663889 9.27773373 16.9923889 9.47605325 16.5678611L10.3063195 16.6250556C10.0607811 17.4757222 9.41939053 17.9493889 8.5033432 17.9493889 7.23866272 17.9493889 6.40760947 17.0213889 6.40760947 15.5826667 6.40760947 14.0851389 7.21898817 13.1096111 8.46556805 13.1096111 9.65469822 13.1096111 10.4094142 14.0464722 10.4094142 15.5351389 10.4094142 15.5633333 10.4094142 15.6503333 10.3999704 15.7373333L7.34333136 15.7373333 7.34333136 15.7365278zM9.45716568 15.0308611C9.3721716 14.2583333 9.03219527 13.8724722 8.44668047 13.8724722 7.87139645 13.8724722 7.52197633 14.2494722 7.37087574 15.0308611L9.45716568 15.0308611zM12.3383077 13.2344722L12.3383077 15.9395278C12.3383077 16.3648611 12.3949704 16.6355278 12.5082959 16.7901944 12.6499527 16.9738611 12.9049349 17.0890556 13.1788047 17.0890556 13.5376686 17.0890556 13.8398698 16.9061944 14.009858 16.5968611 14.1137396 16.4035278 14.1609586 16.153 14.1609586 15.7566667L14.1609586 13.2344722 15.0856627 13.2344722 15.0856627 16.4131944C15.0856627 17.4467222 15.0856627 17.4467222 15.1989882 17.8237222L14.3120592 17.8237222C14.2648402 17.6883889 14.2270651 17.4757222 14.2176213 17.2541944 13.9154201 17.7270556 13.5471124 17.9300556 12.990716 17.9300556 12.3863136 17.9300556 11.8676923 17.6497222 11.6221538 17.1961944 11.480497 16.9351944 11.4143905 16.5581944 11.4143905 15.9693333L11.4143905 13.2344722 12.3383077 13.2344722zM17.2490769 13.2344722C17.2962959 13.4769444 17.3151834 13.6799444 17.3151834 13.9401389 17.3151834 13.9973333 17.3151834 14.0851389 17.3057396 14.2003333 17.6362722 13.4769444 18.0329112 13.1289444 18.532645 13.1289444 18.6554142 13.1289444 18.797071 13.1571389 18.976503 13.2248056L18.976503 14.1818056C18.7215207 14.0368056 18.5420888 13.9788056 18.3248817 13.9788056 17.9660178 13.9788056 17.6834911 14.2003333 17.513503 14.6063333 17.4001775 14.8673333 17.3529586 15.225 17.3529586 15.7276667L17.3529586 17.8245278 16.4180237 17.8245278 16.4180237 14.7231389C16.4180237 13.7282778 16.4085799 13.6404722 16.3613609 13.2344722L17.2490769 13.2344722zM23.6496036 15.5343333C23.6496036 16.9440556 22.7807751 17.9493889 21.5641006 17.9493889 20.3277515 17.9493889 19.4683669 16.9440556 19.4683669 15.4948611 19.4683669 14.1133333 20.3458521 13.1088056 21.5641006 13.1088056 22.7910059 13.1088056 23.6496036 14.1141389 23.6496036 15.5343333zM20.4221893 15.515C20.4221893 16.5195278 20.8754911 17.1760556 21.5641006 17.1760556 22.2432663 17.1760556 22.696568 16.5195278 22.696568 15.5343333 22.696568 14.5386667 22.2432663 13.8813333 21.5641006 13.8813333 20.8841479 13.8813333 20.4221893 14.5386667 20.4221893 15.515zM28.3526095 16.4131944C28.3526095 17.2147222 28.371497 17.5143889 28.4376036 17.8237222L27.5601183 17.8237222C27.5223432 17.6698611 27.5034556 17.4853889 27.5034556 17.3790556 27.5034556 17.3597222 27.5034556 17.3113889 27.5128994 17.2630556L27.5128994 17.1760556C27.2106982 17.7069167 26.8337337 17.9300556 26.2482189 17.9300556 25.1338521 17.9300556 24.3980237 16.9931944 24.3980237 15.5721944 24.3980237 14.1431389 25.1535266 13.1289444 26.2198876 13.1289444 26.7581834 13.1289444 27.0973728 13.3118056 27.4279053 13.8048056L27.4279053 11.3414167 28.3526095 11.3414167 28.3526095 16.4131944 28.3526095 16.4131944zM25.3510592 15.5536667C25.3510592 16.5291944 25.7382544 17.1285278 26.380432 17.1285278 27.0312663 17.1285278 27.4467929 16.501 27.4467929 15.5246667 27.4467929 14.5588056 27.0407101 13.9304722 26.4182071 13.9304722 25.7476982 13.9296667 25.3510592 14.5386667 25.3510592 15.5536667zM30.3192781 15.7365278C30.3570533 16.6733889 30.7725799 17.1663889 31.5084083 17.1663889 31.9703669 17.1663889 32.2536805 16.9923889 32.452 16.5678611L33.2822663 16.6250556C33.0367278 17.4757222 32.3953373 17.9493889 31.4792899 17.9493889 30.2146095 17.9493889 29.3835562 17.0213889 29.3835562 15.5826667 29.3835562 14.0851389 30.1949349 13.1096111 31.4415148 13.1096111 32.630645 13.1096111 33.3853609 14.0464722 33.3853609 15.5351389 33.3853609 15.5633333 33.3853609 15.6503333 33.3759172 15.7373333L30.3192781 15.7373333 30.3192781 15.7365278zM32.4331124 15.0308611C32.3481183 14.2583333 32.008142 13.8724722 31.4226272 13.8724722 30.8473432 13.8724722 30.4979231 14.2494722 30.3468225 15.0308611L32.4331124 15.0308611zM38.3535799 13.9296667L37.4375325 13.92C37.6264083 14.1423333 37.7397337 14.4798611 37.7397337 14.848 37.7397337 15.3788611 37.5036391 15.7945278 37.0983432 15.9870556 36.7866982 16.1328611 36.6828166 16.1618611 35.777 16.2971944 35.5031302 16.3455278 35.3142544 16.4703889 35.3142544 16.6250556 35.3142544 16.8183889 35.3803609 16.8385278 36.2491893 16.9247222 37.0888994 17.0109167 37.4005444 17.0785833 37.683858 17.2437222 38.0324911 17.4467222 38.2410414 17.8325833 38.2410414 18.2973889 38.2410414 19.23425 37.4572071 19.7755833 36.1083195 19.7755833 34.7869763 19.7755833 33.9748107 19.26325 33.9748107 18.4423889 33.9748107 17.9010556 34.2486805 17.5723889 34.9003018 17.3411944 34.5414379 17.1961944 34.4092249 17.052 34.4092249 16.7998611 34.4092249 16.4808611 34.6169882 16.2883333 35.202503 16.0555278 34.6358757 15.7953333 34.3816805 15.3893333 34.3816805 14.7416667 34.3816805 13.7758056 35.0702899 13.1474722 36.1468817 13.1474722 36.3924201 13.1474722 36.619071 13.1861389 36.930716 13.2731389L38.3559408 13.2336667 38.3559408 13.9296667 38.3535799 13.9296667zM34.7861893 18.3747222C34.7861893 18.79925 35.2867101 19.0513889 36.1264201 19.0513889 36.9000237 19.0513889 37.3438817 18.8089167 37.3438817 18.3843889 37.3438817 17.9308611 36.8819231 17.6980556 36.0036509 17.6980556 35.2198166 17.6980556 34.7861893 17.9405278 34.7861893 18.3747222zM35.2103728 14.732C35.2103728 15.2241944 35.5409053 15.5343333 36.0603136 15.5343333 36.5986095 15.5343333 36.929142 15.2241944 36.929142 14.732 36.929142 14.2301389 36.5891657 13.8813333 36.088645 13.8813333 35.5597929 13.8813333 35.2103728 14.2196667 35.2103728 14.732zM39.7536213 15.7365278C39.7913964 16.6733889 40.2069231 17.1663889 40.9427515 17.1663889 41.405497 17.1663889 41.6888107 16.9923889 41.8871302 16.5678611L42.7173964 16.6250556C42.471858 17.4757222 41.8304675 17.9493889 40.9144201 17.9493889 39.6497396 17.9493889 38.8186864 17.0213889 38.8186864 15.5826667 38.8186864 14.0851389 39.6300651 13.1096111 40.876645 13.1096111 42.0657751 13.1096111 42.8204911 14.0464722 42.8204911 15.5351389 42.8204911 15.5633333 42.8204911 15.6503333 42.8110473 15.7373333L39.7536213 15.7373333 39.7536213 15.7365278zM41.8674556 15.0308611C41.7824615 14.2583333 41.4424852 13.8724722 40.8569704 13.8724722 40.2816864 13.8724722 39.9322663 14.2494722 39.7811657 15.0308611L41.8674556 15.0308611zM44.6258284 13.2344722C44.6919349 13.4189444 44.7108225 13.5728056 44.7202663 13.862 45.0319112 13.3786667 45.4938698 13.1289444 46.0699408 13.1289444 46.636568 13.1289444 47.126858 13.3988056 47.3440651 13.8338056 47.4951657 14.1326667 47.523497 14.3356667 47.523497 15.1863333L47.523497 17.8237222 46.5987929 17.8237222 46.5987929 15.341C46.5987929 14.7811389 46.5704615 14.558 46.4760237 14.3654722 46.3532544 14.1141389 46.107716 13.9691389 45.7874142 13.9691389 45.4285503 13.9691389 45.0893609 14.1721389 44.9288166 14.4903333 44.8249349 14.6933333 44.777716 14.964 44.777716 15.3796667L44.777716 17.8237222 43.8530118 17.8237222 43.8530118 14.8383333C43.8530118 13.717 43.8530118 13.6799444 43.7302426 13.2344722L44.6258284 13.2344722zM49.4618343 15.7365278C49.4996095 16.6733889 49.9151361 17.1663889 50.6509645 17.1663889 51.1137101 17.1663889 51.3970237 16.9923889 51.5953432 16.5678611L52.4256095 16.6250556C52.180071 17.4757222 51.5386805 17.9493889 50.6226331 17.9493889 49.3579527 17.9493889 48.5268994 17.0213889 48.5268994 15.5826667 48.5268994 14.0851389 49.3382781 13.1096111 50.584858 13.1096111 51.7739882 13.1096111 52.5287041 14.0464722 52.5287041 15.5351389 52.5287041 15.5633333 52.5287041 15.6503333 52.5192604 15.7373333L49.4618343 15.7373333 49.4618343 15.7365278zM51.5756686 15.0308611C51.4906746 14.2583333 51.1506982 13.8724722 50.5651834 13.8724722 49.9898994 13.8724722 49.6404793 14.2494722 49.4893787 15.0308611L51.5756686 15.0308611zM54.3812604 13.2344722C54.4284793 13.4769444 54.4473669 13.6799444 54.4473669 13.9401389 54.4473669 13.9973333 54.4473669 14.0851389 54.4379231 14.2003333 54.7684556 13.4769444 55.1650947 13.1289444 55.6648284 13.1289444 55.7875976 13.1289444 55.9292544 13.1571389 56.1086864 13.2248056L56.1086864 14.1818056C55.8537041 14.0368056 55.6742722 13.9788056 55.4570651 13.9788056 55.0982012 13.9788056 54.8156746 14.2003333 54.6456864 14.6063333 54.5323609 14.8673333 54.485142 15.225 54.485142 15.7276667L54.485142 17.8245278 53.5502071 17.8245278 53.5502071 14.7231389C53.5502071 13.7282778 53.5407633 13.6404722 53.4935444 13.2344722L54.3812604 13.2344722zM56.8083136 14.529C56.8649763 14.0553333 57.0066331 13.7661389 57.2993905 13.5341389 57.6015917 13.2828056 58.1021124 13.1289444 58.6396213 13.1289444 59.3848935 13.1289444 59.9326331 13.3891389 60.1215089 13.8434722 60.2348343 14.1044722 60.2631657 14.3558056 60.2631657 14.9261389L60.2631657 16.7136667C60.2631657 17.3323333 60.291497 17.5538611 60.4048225 17.8245278L59.5462249 17.8245278C59.4895621 17.6118611 59.4706746 17.5055278 59.4706746 17.255 59.2251361 17.6988611 58.7915089 17.9308611 58.1871065 17.9308611 57.2521716 17.9308611 56.658 17.4281944 56.658 16.617 56.658 15.979 57.0168639 15.4956667 57.6865858 15.2451389 58.0926686 15.0808056 58.3665385 15.0228056 59.3667929 14.8391389L59.3667929 14.7142778C59.3667929 14.1334722 59.1495858 13.9022778 58.5829586 13.9022778 58.0737811 13.9022778 57.7904675 14.1052778 57.7054734 14.5298056L56.8083136 14.5298056 56.8083136 14.529zM59.3660059 15.4948611C58.0541065 15.6978611 57.6110355 15.9588611 57.6110355 16.5098611 57.6110355 16.9061944 57.9226805 17.1760556 58.3751953 17.1760556 58.7623905 17.1760556 59.0929231 16.9835278 59.2440237 16.6733889 59.3290178 16.5001944 59.3667929 16.2488611 59.3667929 15.8517222L59.3667929 15.4948611 59.3660059 15.4948611zM63.7581538 13.2344722L63.7487101 13.9884722 62.7571124 13.9884722 62.7287811 16.0184722 62.7185503 16.2786667 62.7185503 16.4035278C62.7185503 16.9166667 62.8413195 17.0898611 63.2001834 17.0898611 63.3882722 17.0898611 63.6345976 17.0326667 63.8612485 16.936L63.8510178 17.7383333C63.530716 17.8631944 63.2466154 17.922 62.9459882 17.922 62.464355 17.922 62.0960473 17.7383333 61.9071716 17.4096667 61.8040769 17.2163333 61.7655148 17.0036667 61.7655148 16.588 61.7655148 16.5388611 61.7655148 16.5388611 61.7844024 16.0184722L61.8402781 13.9884722 61.1516686 13.9884722 61.1611124 13.2344722 61.8693964 13.2344722 61.8969408 11.9206111 62.7941006 11.9206111 62.775213 13.2344722 63.7581538 13.2344722zM65.8271302 11.8722778C65.8271302 12.2202778 65.5815917 12.4708056 65.2416154 12.4708056 64.9016391 12.4708056 64.6561006 12.2291389 64.6561006 11.8819444 64.6561006 11.5242778 64.9016391 11.27375 65.2510592 11.27375 65.5902485 11.27375 65.8271302 11.5146111 65.8271302 11.8722778zM65.7130178 13.2344722L65.7130178 17.8237222 64.769426 17.8237222 64.769426 13.2344722 65.7130178 13.2344722z"/>
      <polygon points="67.451 13.234 68.593 16.79 69.725 13.234 70.697 13.234 69.102 17.862 68.074 17.862 66.479 13.234"/>
      <path d="M71.9553609,15.7365278 C71.9923491,16.6733889 72.4078757,17.1663889 73.1444911,17.1663889 C73.6064497,17.1663889 73.8897633,16.9923889 74.0880828,16.5678611 L74.9191361,16.6250556 C74.6735976,17.4757222 74.0314201,17.9493889 73.1161598,17.9493889 C71.8514793,17.9493889 71.021213,17.0213889 71.021213,15.5826667 C71.021213,14.0851389 71.8325917,13.1096111 73.0783846,13.1096111 C74.2675148,13.1096111 75.0222308,14.0464722 75.0222308,15.5351389 C75.0222308,15.5633333 75.0222308,15.6503333 75.012787,15.7373333 L71.9553609,15.7373333 L71.9553609,15.7365278 Z M74.0684083,15.0308611 C73.9842012,14.2583333 73.6442249,13.8724722 73.0587101,13.8724722 C72.483426,13.8724722 72.1332189,14.2494722 71.9829053,15.0308611 L74.0684083,15.0308611 Z"/>
      <polygon points="82.029 14.055 82.029 14.916 79.5 14.916 79.5 16.963 82.332 16.963 82.332 17.823 78.527 17.823 78.527 11.378 82.256 11.378 82.256 12.239 79.5 12.239 79.5 14.055 82.029 14.055"/>
      <path d="M84.146503 13.2344722C84.1937219 13.4769444 84.2126095 13.6799444 84.2126095 13.9401389 84.2126095 13.9973333 84.2126095 14.0851389 84.2023787 14.2003333 84.5329112 13.4769444 84.9295503 13.1289444 85.430071 13.1289444 85.5528402 13.1289444 85.694497 13.1571389 85.873142 13.2248056L85.873142 14.1818056C85.6189467 14.0368056 85.4395148 13.9788056 85.2223077 13.9788056 84.8634438 13.9788056 84.5809172 14.2003333 84.410929 14.6063333 84.2976036 14.8673333 84.2503846 15.225 84.2503846 15.7276667L84.2503846 17.8245278 83.3154497 17.8245278 83.3154497 14.7231389C83.3154497 13.7282778 83.3060059 13.6404722 83.258787 13.2344722L84.146503 13.2344722zM87.556497 11.3414167L87.556497 17.8237222 86.6310059 17.8237222 86.6310059 11.3414167 87.556497 11.3414167zM90.4541657 13.2344722L88.6795207 15.3321389 90.5958225 17.8245278 89.3397988 17.8245278 87.5753846 15.3514722 89.330355 13.2352778 90.4541657 13.2352778 90.4541657 13.2344722zM92.2783905 13.2344722C92.3256095 13.4769444 92.344497 13.6799444 92.344497 13.9401389 92.344497 13.9973333 92.344497 14.0851389 92.3342663 14.2003333 92.6647988 13.4769444 93.0614379 13.1289444 93.5619586 13.1289444 93.6847278 13.1289444 93.8263846 13.1571389 94.0050296 13.2248056L94.0050296 14.1818056C93.7508343 14.0368056 93.5706154 13.9788056 93.3541953 13.9788056 92.9953314 13.9788056 92.7120178 14.2003333 92.5428166 14.6063333 92.4287041 14.8673333 92.3814852 15.225 92.3814852 15.7276667L92.3814852 17.8245278 91.4465503 17.8245278 91.4465503 14.7231389C91.4465503 13.7282778 91.4371065 13.6404722 91.3906746 13.2344722L92.2783905 13.2344722zM94.7054438 14.529C94.7613195 14.0553333 94.9037633 13.7661389 95.1957337 13.5341389 95.4979349 13.2828056 95.9984556 13.1289444 96.5359645 13.1289444 97.2812367 13.1289444 97.8289763 13.3891389 98.0178521 13.8434722 98.1319645 14.1044722 98.1595089 14.3558056 98.1595089 14.9261389L98.1595089 16.7136667C98.1595089 17.3323333 98.1878402 17.5538611 98.3011657 17.8245278L97.442568 17.8245278C97.3859053 17.6118611 97.3662308 17.5055278 97.3662308 17.255 97.1214793 17.6988611 96.6870651 17.9308611 96.0826627 17.9308611 95.1477278 17.9308611 94.5543432 17.4281944 94.5543432 16.617 94.5543432 15.979 94.9132071 15.4956667 95.583716 15.2451389 95.9897988 15.0808056 96.2628817 15.0228056 97.2639231 14.8391389L97.2639231 14.7142778C97.2639231 14.1334722 97.046716 13.9022778 96.4800888 13.9022778 95.9709112 13.9022778 95.6868107 14.1052778 95.6026036 14.5298056L94.7054438 14.5298056 94.7054438 14.529zM97.2631361 15.4948611C95.9504497 15.6978611 95.5081657 15.9588611 95.5081657 16.5098611 95.5081657 16.9061944 95.8190237 17.1760556 96.2723254 17.1760556 96.6595207 17.1760556 96.9900533 16.9835278 97.1411538 16.6733889 97.2253609 16.5001944 97.2639231 16.2488611 97.2639231 15.8517222L97.2639231 15.4948611 97.2631361 15.4948611zM100.257604 13.2344722C100.32371 13.4189444 100.341811 13.5728056 100.352041 13.862 100.663686 13.3786667 101.125645 13.1289444 101.701716 13.1289444 102.268343 13.1289444 102.758633 13.3988056 102.97584 13.8338056 103.126941 14.1326667 103.155272 14.3356667 103.155272 15.1863333L103.155272 17.8237222 102.230568 17.8237222 102.230568 15.341C102.230568 14.7811389 102.202237 14.558 102.107799 14.3654722 101.985817 14.1141389 101.739491 13.9691389 101.418402 13.9691389 101.060325 13.9691389 100.720349 14.1721389 100.559805 14.4903333 100.455923 14.6933333 100.408704 14.964 100.408704 15.3796667L100.408704 17.8237222 99.484 17.8237222 99.484 14.8383333C99.484 13.717 99.484 13.6799444 99.3620178 13.2344722L100.257604 13.2344722zM105.384793 11.3414167L105.384793 17.8237222 104.460089 17.8237222 104.460089 11.3414167 105.384793 11.3414167zM108.283249 13.2344722L106.508604 15.3321389 108.424905 17.8245278 107.169669 17.8245278 105.404467 15.3514722 107.160225 13.2352778 108.283249 13.2352778 108.283249 13.2344722zM110.061041 13.2344722L110.061041 15.9395278C110.061041 16.3648611 110.117704 16.6355278 110.23103 16.7901944 110.372686 16.9738611 110.626882 17.0890556 110.900751 17.0890556 111.260402 17.0890556 111.561817 16.9061944 111.732592 16.5968611 111.835686 16.4035278 111.882905 16.153 111.882905 15.7566667L111.882905 13.2344722 112.808396 13.2344722 112.808396 16.4131944C112.808396 17.4467222 112.808396 17.4467222 112.921722 17.8237222L112.034006 17.8237222C111.986787 17.6883889 111.949799 17.4757222 111.940355 17.2541944 111.637367 17.7270556 111.269846 17.9300556 110.712663 17.9300556 110.10826 17.9300556 109.589639 17.6497222 109.344101 17.1961944 109.202444 16.9351944 109.136337 16.5581944 109.136337 15.9693333L109.136337 13.2344722 110.061041 13.2344722zM114.923805 13.2344722C114.989911 13.4189444 115.008012 13.5728056 115.018243 13.862 115.329888 13.3786667 115.791846 13.1289444 116.367917 13.1289444 116.934544 13.1289444 117.424834 13.3988056 117.642041 13.8338056 117.793142 14.1326667 117.821473 14.3356667 117.821473 15.1863333L117.821473 17.8237222 116.896769 17.8237222 116.896769 15.341C116.896769 14.7811389 116.868438 14.558 116.774 14.3654722 116.652018 14.1141389 116.405692 13.9691389 116.084604 13.9691389 115.726527 13.9691389 115.38655 14.1721389 115.226006 14.4903333 115.122124 14.6933333 115.074905 14.964 115.074905 15.3796667L115.074905 17.8237222 114.150201 17.8237222 114.150201 14.8383333C114.150201 13.717 114.150201 13.6799444 114.028219 13.2344722L114.923805 13.2344722zM123.062775 13.9296667L122.146728 13.92C122.335604 14.1423333 122.449716 14.4798611 122.449716 14.848 122.449716 15.3788611 122.212834 15.7945278 121.807538 15.9870556 121.495893 16.1328611 121.392799 16.1618611 120.486195 16.2971944 120.212325 16.3455278 120.02345 16.4703889 120.02345 16.6250556 120.02345 16.8183889 120.089556 16.8385278 120.958385 16.9247222 121.798095 17.0109167 122.110527 17.0785833 122.393053 17.2437222 122.741686 17.4467222 122.94945 17.8325833 122.94945 18.2973889 122.94945 19.23425 122.166402 19.7755833 120.816728 19.7755833 119.495385 19.7755833 118.683219 19.26325 118.683219 18.4423889 118.683219 17.9010556 118.957876 17.5723889 119.60871 17.3411944 119.249846 17.1961944 119.117633 17.052 119.117633 16.7998611 119.117633 16.4808611 119.325396 16.2883333 119.910911 16.0555278 119.344284 15.7953333 119.090089 15.3893333 119.090089 14.7416667 119.090089 13.7758056 119.778698 13.1474722 120.854503 13.1474722 121.100041 13.1474722 121.326692 13.1861389 121.638337 13.2731389L123.063562 13.2336667 123.063562 13.9296667 123.062775 13.9296667zM119.495385 18.3747222C119.495385 18.79925 119.995118 19.0513889 120.835615 19.0513889 121.608432 19.0513889 122.053077 18.8089167 122.053077 18.3843889 122.053077 17.9308611 121.590331 17.6980556 120.712846 17.6980556 119.929012 17.6980556 119.495385 17.9405278 119.495385 18.3747222zM119.919568 14.732C119.919568 15.2241944 120.250101 15.5343333 120.769509 15.5343333 121.307805 15.5343333 121.638337 15.2241944 121.638337 14.732 121.638337 14.2301389 121.297574 13.8813333 120.79784 13.8813333 120.268201 13.8813333 119.919568 14.2196667 119.919568 14.732zM124.46203 15.7365278C124.499805 16.6733889 124.914544 17.1663889 125.65116 17.1663889 126.113905 17.1663889 126.396432 16.9923889 126.594751 16.5678611L127.425805 16.6250556C127.180266 17.4757222 126.538089 17.9493889 125.623615 17.9493889 124.358935 17.9493889 123.527882 17.0213889 123.527882 15.5826667 123.527882 14.0851389 124.33926 13.1096111 125.585053 13.1096111 126.77497 13.1096111 127.529686 14.0464722 127.529686 15.5351389 127.529686 15.5633333 127.529686 15.6503333 127.520243 15.7373333L124.46203 15.7373333 124.46203 15.7365278zM126.576651 15.0308611C126.492444 14.2583333 126.15168 13.8724722 125.566953 13.8724722 124.990882 13.8724722 124.641462 14.2494722 124.491148 15.0308611L126.576651 15.0308611zM129.335024 13.2344722C129.40113 13.4189444 129.420018 13.5728056 129.429462 13.862 129.741107 13.3786667 130.203065 13.1289444 130.779136 13.1289444 131.345763 13.1289444 131.83684 13.3988056 132.05326 13.8338056 132.203574 14.1326667 132.233479 14.3356667 132.233479 15.1863333L132.233479 17.8237222 131.307988 17.8237222 131.307988 15.341C131.307988 14.7811389 131.279657 14.558 131.185219 14.3654722 131.06245 14.1141389 130.816911 13.9691389 130.496609 13.9691389 130.137746 13.9691389 129.797769 14.1721389 129.637225 14.4903333 129.533343 14.6933333 129.486911 14.964 129.486911 15.3796667L129.486911 17.8237222 128.56142 17.8237222 128.56142 14.8383333C128.56142 13.717 128.56142 13.6799444 128.438651 13.2344722L129.335024 13.2344722zM1.47716568 22.3445C1.47716568 22.6925 1.23162722 22.9430278.891650888 22.9430278.551674556 22.9430278.306136095 22.7013611.306136095 22.3541667.306136095 21.9965.551674556 21.7459722.901094675 21.7459722 1.24185799 21.7459722 1.47716568 21.9868333 1.47716568 22.3445zM1.36384024 23.7066944L1.36384024 28.2959444.420248521 28.2959444.420248521 23.7066944 1.36384024 23.7066944zM3.47924852 23.7066944C3.54535503 23.8911667 3.5642426 24.0450278 3.57368639 24.3342222 3.88533136 23.8508889 4.34728994 23.6011667 4.92336095 23.6011667 5.48998817 23.6011667 5.98027811 23.8710278 6.19748521 24.3060278 6.3485858 24.6048889 6.37691716 24.8078889 6.37691716 25.6585556L6.37691716 28.2959444 5.45221302 28.2959444 5.45221302 25.8132222C5.45221302 25.2533611 5.42388166 25.0302222 5.32944379 24.8376944 5.20667456 24.5863611 4.96113609 24.4413611 4.64083432 24.4413611 4.28197041 24.4413611 3.94278107 24.6443611 3.78223669 24.9625556 3.67835503 25.1655556 3.63113609 25.4362222 3.63113609 25.8518889L3.63113609 28.2959444 2.70643195 28.2959444 2.70643195 25.3105556C2.70643195 24.1892222 2.70643195 24.1521667 2.58366272 23.7066944L3.47924852 23.7066944zM13.7052959 26.8854167C13.7052959 27.6869444 13.7241834 27.9866111 13.7902899 28.2959444L12.9128047 28.2959444C12.8750296 28.1420833 12.856142 27.9576111 12.856142 27.8512778 12.856142 27.8319444 12.856142 27.7836111 12.8655858 27.7352778L12.8655858 27.6482778C12.5633846 28.1791389 12.1864201 28.4022778 11.6009053 28.4022778 10.4865385 28.4022778 9.75071006 27.4654167 9.75071006 26.0444167 9.75071006 24.6153611 10.506213 23.6011667 11.572574 23.6011667 12.1108698 23.6011667 12.4500592 23.7840278 12.7805917 24.2770278L12.7805917 21.8136389 13.7052959 21.8136389 13.7052959 26.8854167 13.7052959 26.8854167zM10.7037456 26.0258889C10.7037456 27.0014167 11.0909408 27.60075 11.7331183 27.60075 12.3839527 27.60075 12.7994793 26.9732222 12.7994793 25.9968889 12.7994793 25.0310278 12.3933964 24.4026944 11.7708935 24.4026944 11.1003846 24.4018889 10.7037456 25.0108889 10.7037456 26.0258889zM15.6719645 26.20875C15.7097396 27.1456111 16.1252663 27.6386111 16.8610947 27.6386111 17.3230533 27.6386111 17.6063669 27.4646111 17.8046864 27.0400833L18.6349527 27.0972778C18.3894142 27.9479444 17.7480237 28.4216111 16.8319763 28.4216111 15.5672959 28.4216111 14.7362426 27.4936111 14.7362426 26.0548889 14.7362426 24.5573611 15.5476213 23.5818333 16.7942012 23.5818333 17.9833314 23.5818333 18.7380473 24.5186944 18.7380473 26.0073611 18.7380473 26.0355556 18.7380473 26.1225556 18.7286036 26.2095556L15.6719645 26.2095556 15.6719645 26.20875zM17.7857988 25.5030833C17.7008047 24.7305556 17.3608284 24.3446944 16.7753136 24.3446944 16.2000296 24.3446944 15.8506095 24.7216944 15.6995089 25.5030833L17.7857988 25.5030833zM20.5913905 23.7066944C20.6386095 23.9491667 20.657497 24.1521667 20.657497 24.4123611 20.657497 24.4695556 20.657497 24.5573611 20.6480533 24.6725556 20.9785858 23.9491667 21.3752249 23.6011667 21.8749586 23.6011667 21.9977278 23.6011667 22.1393846 23.6293611 22.3188166 23.6970278L22.3188166 24.6540278C22.0638343 24.5090278 21.8844024 24.4510278 21.6671953 24.4510278 21.3083314 24.4510278 21.0258047 24.6725556 20.8558166 25.0785556 20.7424911 25.3395556 20.6952722 25.6972222 20.6952722 26.1998889L20.6952722 28.29675 19.7603373 28.29675 19.7603373 25.1953611C19.7603373 24.2005 19.7508935 24.1126944 19.7036746 23.7066944L20.5913905 23.7066944z"/>
      <polygon points="29.269 24.519 29.269 21.852 30.241 21.852 30.241 28.296 29.269 28.296 29.269 25.34 26.55 25.34 26.55 28.296 25.578 28.296 25.578 21.852 26.55 21.852 26.55 24.519 29.269 24.519"/>
      <path d="M32.320574,26.20875 C32.3583491,27.1456111 32.7738757,27.6386111 33.5097041,27.6386111 C33.9724497,27.6386111 34.2557633,27.4646111 34.4540828,27.0400833 L35.2843491,27.0972778 C35.0388107,27.9479444 34.3974201,28.4216111 33.4813728,28.4216111 C32.2166923,28.4216111 31.3856391,27.4936111 31.3856391,26.0548889 C31.3856391,24.5573611 32.1970178,23.5818333 33.4435976,23.5818333 C34.6327278,23.5818333 35.3874438,24.5186944 35.3874438,26.0073611 C35.3874438,26.0355556 35.3874438,26.1225556 35.378,26.2095556 L32.320574,26.2095556 L32.320574,26.20875 Z M34.4351953,25.5030833 C34.3502012,24.7305556 34.0102249,24.3446944 33.4247101,24.3446944 C32.849426,24.3446944 32.5000059,24.7216944 32.3489053,25.5030833 L34.4351953,25.5030833 Z"/>
      <polygon points="37.364 21.814 37.364 28.296 36.42 28.296 36.42 21.814"/>
      <path d="M39.4884083 23.7066944C39.5545148 23.8815 39.5828462 24.0740278 39.5828462 24.3253611 39.8944911 23.8331667 40.3194615 23.6019722 40.9136331 23.6019722 41.5266923 23.6019722 41.9327751 23.8428333 42.1783136 24.3745 42.5371775 23.8428333 42.9810355 23.6019722 43.5940947 23.6019722 44.1701657 23.6019722 44.6045799 23.8331667 44.8021124 24.2391667 44.9437692 24.5380278 44.9626568 24.6548333 44.9626568 25.5626944L44.9626568 28.2975556 44.0379527 28.2975556 44.0379527 25.5723611C44.0379527 25.0890278 44.0096213 24.9069722 43.9151834 24.7515 43.7924142 24.5581667 43.5468757 24.4421667 43.2446746 24.4421667 42.9046982 24.4421667 42.6213846 24.5960278 42.4616272 24.8578333 42.3483018 25.0318333 42.3010828 25.2735 42.3010828 25.6496944L42.3010828 28.29675 41.3763787 28.29675 41.3763787 25.6786944C41.3763787 25.0793611 41.3574911 24.9536944 41.272497 24.7893611 41.1591716 24.5766944 40.8947456 24.4413611 40.5925444 24.4413611 40.1966923 24.4413611 39.8756036 24.6443611 39.7433905 24.9625556 39.6583964 25.1550833 39.6300651 25.3580833 39.6300651 25.68675L39.6300651 28.2951389 38.7053609 28.2951389 38.7053609 24.9520833C38.7053609 24.1610278 38.6959172 24.0442222 38.5920355 23.7058889L39.4884083 23.7058889 39.4884083 23.7066944zM47.2031953 21.8136389L47.2031953 24.2286944C47.5337278 23.8130278 47.968142 23.6011667 48.4962071 23.6011667 49.0439467 23.6011667 49.5531243 23.8613611 49.7703314 24.2568889 49.9308757 24.5372222 49.9780947 24.8465556 49.9780947 25.65775L49.9780947 28.2951389 49.0533905 28.2951389 49.0533905 25.8124167C49.0533905 25.2904167 49.0156154 25.0390833 48.9211775 24.8465556 48.7897515 24.5855556 48.5339822 24.4405556 48.2136805 24.4405556 47.8548166 24.4405556 47.525071 24.6532222 47.3550828 24.9714167 47.2512012 25.1848889 47.2039822 25.4644167 47.2039822 25.86075L47.2039822 28.2951389 46.2792781 28.2951389 46.2792781 21.8128333 47.2031953 21.8128333 47.2031953 21.8136389zM55.1627337 26.0065556C55.1627337 27.4162778 54.2939053 28.4216111 53.0772308 28.4216111 51.8408817 28.4216111 50.981497 27.4162778 50.981497 25.9670833 50.981497 24.5855556 51.8589822 23.5810278 53.0772308 23.5810278 54.3041361 23.5810278 55.1627337 24.5863611 55.1627337 26.0065556zM51.9353195 25.9872222C51.9353195 26.99175 52.3886213 27.6482778 53.0772308 27.6482778 53.7563964 27.6482778 54.2096982 26.99175 54.2096982 26.0065556 54.2096982 25.0108889 53.7563964 24.3535556 53.0772308 24.3535556 52.3972781 24.3535556 51.9353195 25.0108889 51.9353195 25.9872222z"/>
      <polygon points="57.148 21.814 57.148 28.296 56.204 28.296 56.204 21.814"/>
      <path d="M60.6605917,23.7066944 L60.6511479,24.4606944 L59.6603373,24.4606944 L59.6320059,26.4906944 L59.6225621,26.7508889 L59.6225621,26.87575 C59.6225621,27.3888889 59.7453314,27.5620833 60.1041953,27.5620833 C60.293071,27.5620833 60.5386095,27.5048889 60.7652604,27.4082222 L60.7550296,28.20975 C60.4339408,28.3346111 60.1506272,28.3934167 59.849213,28.3934167 C59.3675799,28.3934167 58.9992722,28.20975 58.8111834,27.8810833 C58.7073018,27.68775 58.6695266,27.4750833 58.6695266,27.0594167 C58.6695266,27.0102778 58.6695266,27.0102778 58.6884142,26.4898889 L58.7450769,24.4598889 L58.0556805,24.4598889 L58.0651243,23.7058889 L58.7726213,23.7058889 L58.8009527,22.3920278 L59.6981124,22.3920278 L59.6792249,23.7058889 L60.6605917,23.7058889 L60.6605917,23.7066944 Z"/>
      <polygon points="64.655 23.707 64.655 24.412 62.305 27.514 64.645 27.514 64.645 28.297 61.21 28.297 61.21 27.562 63.522 24.491 61.426 24.491 61.426 23.707 64.655 23.707"/>
      <polygon points="67.412 25.514 67.412 26.219 64.892 26.219 64.892 25.514"/>
      <path d="M72.840716 25.0302222L72.840716 27.6966111C72.1709941 28.1799444 71.4540533 28.41275 70.6324438 28.41275 68.8861302 28.41275 67.8197692 27.1464167 67.8197692 25.0696944 67.8197692 23.0509722 68.8861302 21.7363056 70.5380059 21.7363056 71.3116095 21.7363056 71.9443432 22.0263056 72.3409822 22.5475 72.5865207 22.8858333 72.6990592 23.2338333 72.7557219 23.7945L71.8868935 23.7945C71.7452367 22.9929722 71.3116095 22.6055 70.5561065 22.6055 69.4905325 22.6055 68.8389112 23.5335 68.8389112 25.0785556 68.8389112 25.8712222 69.027 26.5382222 69.3858639 26.99175 69.6683905 27.3582778 70.0933609 27.54275 70.6316568 27.54275 71.112503 27.54275 71.5949231 27.39775 72.0096627 27.1270833L72.0096627 25.8132222 70.7355385 25.8132222 70.7355385 25.0302222 72.840716 25.0302222 72.840716 25.0302222zM74.6846154 26.20875C74.7223905 27.1456111 75.1379172 27.6386111 75.8737456 27.6386111 76.3364911 27.6386111 76.6198047 27.4646111 76.8181243 27.0400833L77.6483905 27.0972778C77.4028521 27.9479444 76.7614615 28.4216111 75.8454142 28.4216111 74.5807337 28.4216111 73.7504675 27.4936111 73.7504675 26.0548889 73.7504675 24.5573611 74.5618462 23.5818333 75.808426 23.5818333 76.9967692 23.5818333 77.7522722 24.5186944 77.7522722 26.0073611 77.7522722 26.0355556 77.7522722 26.1225556 77.7428284 26.2095556L74.6846154 26.2095556 74.6846154 26.20875zM76.7992367 25.5030833C76.7142426 24.7305556 76.3742663 24.3446944 75.7887515 24.3446944 75.2142544 24.3446944 74.8640473 24.7216944 74.7129467 25.5030833L76.7992367 25.5030833zM79.5670533 23.7066944C79.6331598 23.8815 79.6614911 24.0740278 79.6614911 24.3253611 79.9731361 23.8331667 80.3981065 23.6019722 80.9922781 23.6019722 81.6053373 23.6019722 82.0114201 23.8428333 82.2561716 24.3745 82.6150355 23.8428333 83.0588935 23.6019722 83.6719527 23.6019722 84.2480237 23.6019722 84.6824379 23.8331667 84.8799704 24.2391667 85.0224142 24.5380278 85.0413018 24.6548333 85.0413018 25.5626944L85.0413018 28.2975556 84.1158107 28.2975556 84.1158107 25.5723611C84.1158107 25.0890278 84.0874793 24.9069722 83.9930414 24.7515 83.8702722 24.5581667 83.6247337 24.4421667 83.3225325 24.4421667 82.9825562 24.4421667 82.7000296 24.5960278 82.5394852 24.8578333 82.4261598 25.0318333 82.3789408 25.2735 82.3789408 25.6496944L82.3789408 28.29675 81.4534497 28.29675 81.4534497 25.6786944C81.4534497 25.0793611 81.4353491 24.9536944 81.350355 24.7893611 81.2362426 24.5766944 80.9726036 24.4413611 80.6704024 24.4413611 80.2745503 24.4413611 79.9534615 24.6443611 79.8212485 24.9625556 79.7370414 25.1550833 79.7071361 25.3580833 79.7071361 25.68675L79.7071361 28.2951389 78.782432 28.2951389 78.782432 24.9520833C78.782432 24.1610278 78.7722012 24.0442222 78.6691065 23.7058889L79.5670533 23.7058889 79.5670533 23.7066944zM86.9898698 26.20875C87.027645 27.1456111 87.4423846 27.6386111 88.179 27.6386111 88.6417456 27.6386111 88.9242722 27.4646111 89.1225917 27.0400833L89.953645 27.0972778C89.7081065 27.9479444 89.065929 28.4216111 88.1514556 28.4216111 86.8867751 28.4216111 86.0557219 27.4936111 86.0557219 26.0548889 86.0557219 24.5573611 86.8671006 23.5818333 88.1128935 23.5818333 89.3028107 23.5818333 90.0575266 24.5186944 90.0575266 26.0073611 90.0575266 26.0355556 90.0575266 26.1225556 90.0480828 26.2095556L86.9898698 26.2095556 86.9898698 26.20875zM89.1044911 25.5030833C89.020284 24.7305556 88.6795207 24.3446944 88.0947929 24.3446944 87.5187219 24.3446944 87.1693018 24.7216944 87.0189882 25.5030833L89.1044911 25.5030833zM92.1461775 22.3445C92.1461775 22.6925 91.9006391 22.9430278 91.5606627 22.9430278 91.2206864 22.9430278 90.9751479 22.7013611 90.9751479 22.3541667 90.9751479 21.9965 91.2206864 21.7459722 91.5701065 21.7459722 91.9092959 21.7459722 92.1461775 21.9868333 92.1461775 22.3445zM92.0320651 23.7066944L92.0320651 28.2959444 91.0884734 28.2959444 91.0884734 23.7066944 92.0320651 23.7066944zM94.1482604 23.7066944C94.2143669 23.8911667 94.2332544 24.0450278 94.2426982 24.3342222 94.5543432 23.8508889 95.0163018 23.6011667 95.5923728 23.6011667 96.159 23.6011667 96.6500769 23.8710278 96.866497 24.3060278 97.0168107 24.6048889 97.046716 24.8078889 97.046716 25.6585556L97.046716 28.2959444 96.1212249 28.2959444 96.1212249 25.8132222C96.1212249 25.2533611 96.0928935 25.0302222 95.9984556 24.8376944 95.8756864 24.5863611 95.6301479 24.4413611 95.3098462 24.4413611 94.9509822 24.4413611 94.6110059 24.6443611 94.4504615 24.9625556 94.3465799 25.1655556 94.3001479 25.4362222 94.3001479 25.8518889L94.3001479 28.2959444 93.3746568 28.2959444 93.3746568 25.3105556C93.3746568 24.1892222 93.3746568 24.1521667 93.2518876 23.7066944L94.1482604 23.7066944zM100.701462 25.0503611C100.635355 24.5476944 100.389817 24.3253611 99.8900828 24.3253611 99.4462249 24.3253611 99.1534675 24.5573611 99.1534675 24.9061667 99.1534675 25.2340278 99.2951243 25.3306944 100.219041 25.6110278 100.917882 25.8140278 101.209852 25.9590278 101.389284 26.1902222 101.559272 26.3932222 101.644266 26.6542222 101.644266 26.9635556 101.644266 27.8722222 100.992645 28.4232222 99.9168402 28.4232222 98.7182663 28.4232222 98.066645 27.8633611 98.066645 26.8193611L98.9441302 26.8193611C98.9913491 27.4082222 99.2935503 27.6788889 99.8885089 27.6788889 100.396899 27.6788889 100.709331 27.4372222 100.709331 27.0416944 100.709331 26.8282222 100.624337 26.7033611 100.397686 26.5962222 100.25603 26.5188889 100.162379 26.4802222 99.4446509 26.2578889 98.5482781 25.9880278 98.2271893 25.6496944 98.2271893 24.9931667 98.2271893 24.1425 98.8882544 23.5826389 99.8979527 23.5826389 100.935195 23.5826389 101.539598 24.1038333 101.59626 25.0511667L100.701462 25.0511667 100.701462 25.0503611zM105.291142 25.2235556C105.195917 24.6153611 104.941722 24.3543611 104.450645 24.3543611 103.790367 24.3543611 103.37484 24.9923611 103.37484 26.0162222 103.37484 27.0400833 103.780923 27.6482778 104.460089 27.6482778 104.979497 27.6482778 105.253367 27.3486111 105.328917 26.6920833L106.235521 26.6920833C106.169414 27.7634722 105.490249 28.4208056 104.460089 28.4208056 103.233183 28.4208056 102.421805 27.4549444 102.421805 26.0154167 102.421805 24.5364167 103.224527 23.5810278 104.47032 23.5810278 105.480018 23.5810278 106.08442 24.1610278 106.207189 25.22275L105.291142 25.22275 105.291142 25.2235556zM108.154183 21.8136389L108.154183 24.2286944C108.484716 23.8130278 108.91913 23.6011667 109.447982 23.6011667 109.994935 23.6011667 110.504899 23.8613611 110.722107 24.2568889 110.881864 24.5372222 110.92987 24.8465556 110.92987 25.65775L110.92987 28.2951389 110.004379 28.2951389 110.004379 25.8124167C110.004379 25.2904167 109.966604 25.0390833 109.872166 24.8465556 109.739953 24.5855556 109.48497 24.4405556 109.164669 24.4405556 108.805805 24.4405556 108.475272 24.6532222 108.306071 24.9714167 108.201402 25.1848889 108.15497 25.4644167 108.15497 25.86075L108.15497 28.2951389 107.230266 28.2951389 107.230266 21.8128333 108.154183 21.8128333 108.154183 21.8136389zM112.130018 25.0012222C112.185893 24.5275556 112.328337 24.2383611 112.621095 24.0063611 112.922509 23.7550278 113.423817 23.6011667 113.961325 23.6011667 114.706598 23.6011667 115.254337 23.8613611 115.443213 24.3156944 115.556538 24.5766944 115.58487 24.8280278 115.58487 25.3983611L115.58487 27.1858889C115.58487 27.8045556 115.612414 28.0260833 115.726527 28.29675L114.867142 28.29675C114.811266 28.0840833 114.791592 27.97775 114.791592 27.7272222 114.546053 28.1710833 114.112426 28.4030833 113.508024 28.4030833 112.573089 28.4030833 111.978917 27.9004167 111.978917 27.0892222 111.978917 26.4512222 112.337781 25.9678889 113.00829 25.7173611 113.414373 25.5530278 113.688243 25.4950278 114.688497 25.3113611L114.688497 25.1865C114.688497 24.6056944 114.47129 24.3745 113.90545 24.3745 113.395485 24.3745 113.112172 24.5775 113.027964 25.0020278L112.130018 25.0020278 112.130018 25.0012222zM114.68771 25.9670833C113.375811 26.1700833 112.93274 26.4310833 112.93274 26.9820833 112.93274 27.3784167 113.244385 27.6482778 113.697686 27.6482778 114.084095 27.6482778 114.414627 27.45575 114.566515 27.1456111 114.650722 26.9724167 114.688497 26.7210833 114.688497 26.3239444L114.688497 25.9670833 114.68771 25.9670833zM119.023195 23.7066944L119.023195 24.4606944 117.947391 24.4606944 117.947391 28.29675 117.003799 28.29675 117.003799 24.4606944 116.389953 24.4606944 116.389953 23.7066944 117.003799 23.7066944 117.003799 23.4175C117.003799 22.7803056 117.059675 22.4798333 117.220219 22.2196389 117.436639 21.8716389 117.804947 21.6887778 118.296024 21.6887778 118.607669 21.6887778 118.861864 21.7371111 119.173509 21.8619722L119.173509 22.6643056C118.85242 22.5475 118.683219 22.5104444 118.466012 22.5104444 118.050485 22.5104444 117.93716 22.7319722 117.93716 23.5045L117.93716 23.7075 119.023195 23.7075 119.023195 23.7066944zM122.167976 23.7066944L122.158533 24.4606944 121.166935 24.4606944 121.138604 26.4906944 121.128373 26.7508889 121.128373 26.87575C121.128373 27.3888889 121.251142 27.5620833 121.610006 27.5620833 121.798095 27.5620833 122.04442 27.5048889 122.271071 27.4082222L122.26084 28.2105556C121.940538 28.3354167 121.656438 28.3942222 121.355811 28.3942222 120.874178 28.3942222 120.50587 28.2105556 120.316994 27.8818889 120.213899 27.6885556 120.175337 27.4758889 120.175337 27.0602222 120.175337 27.0110833 120.175337 27.0110833 120.194225 26.4906944L120.250101 24.4606944 119.561491 24.4606944 119.570935 23.7066944 120.279219 23.7066944 120.306763 22.3928333 121.203923 22.3928333 121.185036 23.7066944 122.167976 23.7066944z"/>
    </g>
    <g transform="translate(20)">
      <path d="M.967214286 7.09384C.909857143 7.09384.849357143 7.09536.790428571 7.09612L.721285714 7.09688C.625428571 7.09992.548428571 7.17592.548428571 7.2694L.548428571 7.93668C.548428571 8.03092.627785714 8.10692.725214286 8.10692.727571429 8.10692.740142857 8.10692.743285714 8.10692.739357143 8.10692.916928571 8.10616.915357143 8.10616 3.67085714 8.10616 6.24485714 9.12684 8.162 10.98048 9.92907143 12.68972 10.9772143 14.98416 11.1123571 17.43896 11.1170714 17.53016 11.1948571 17.60084 11.2891429 17.60084L11.9884286 17.60084C12.0371429 17.60084 12.0835 17.58184 12.1165 17.54764 12.1495 17.51496 12.1667857 17.4686 12.1652143 17.42148 12.0332143 14.6946 10.879 12.14784 8.91707143 10.24936 6.81371429 8.21484 3.98985714 7.09384.967214286 7.09384zM17.6950714 6.37108C14.971 2.9792 11.0172857.7182 6.56464286.00228 6.51357143-.00608 6.46092857.0076 6.42164286.04104 6.38157143.07372 6.35878571.12008 6.35878571.17024L6.35878571.84968C6.35878571.93252 6.42085714 1.00396 6.50492857 1.0184 10.6401429 1.71988 14.3141429 3.84712 16.8512143 7.00492 19.3851429 10.16044 20.6045714 14.12992 20.2847857 18.18148 20.2808571 18.2286 20.2973571 18.27572 20.3311429 18.31068 20.3641429 18.34564 20.4112857 18.3654 20.4607857 18.3654L21.1561429 18.3654C21.2480714 18.3654 21.3250714 18.29624 21.3321429 18.20732 21.6684286 13.91256 20.3767143 9.709 17.6950714 6.37108z"/>
      <path d="M10.4138571,5.82388 C9.22664286,5.0046 7.9145,4.37228 6.51435714,3.94136 C5.11578571,3.51196 3.66064286,3.29384 2.18978571,3.29384 C1.86214286,3.29384 1.53842857,3.31056 1.29407143,3.32576 C1.20057143,3.33184 1.12828571,3.40556 1.12828571,3.496 L1.12828571,4.17164 C1.12828571,4.21876 1.14871429,4.2636 1.18407143,4.29628 C1.21942857,4.3282 1.26735714,4.34492 1.31607143,4.34264 C1.63585714,4.32288 1.92185714,4.313 2.19135714,4.313 C4.9335,4.313 7.56171429,5.12696 9.79392857,6.6652 C12.5777143,8.58724 14.4563571,11.4684 15.0833571,14.77668 C15.0990714,14.858 15.1721429,14.91728 15.257,14.91728 L15.9665,14.91728 C16.0183571,14.91728 16.0678571,14.89524 16.1016429,14.85648 C16.1346429,14.81772 16.1495714,14.7668 16.1401429,14.7174 C15.4966429,11.0846 13.4632143,7.9268 10.4138571,5.82388 Z"/>
    </g>
    <path d="M17.9424546,10.0492889 C17.9076031,10.015967 17.8581627,9.99851265 17.8079117,10.0000994 C16.9609403,10.038975 16.1358523,10.1770228 15.3358898,10.391235 C13.5422555,11.0195909 11.8523651,11.8724729 10.304312,12.9260796 C8.30400048,14.2875173 6.53954416,15.9774136 5.08307746,17.9172243 C2.2925294,21.6318228 0.632627455,26.2659471 0.632627455,31.2943805 C0.632627455,33.575344 0.986005019,35.7690357 1.62062573,37.8389605 C1.72355911,38.1769397 1.83135547,38.5125389 1.94968833,38.8433777 C1.92132086,38.8465513 1.89619539,38.8560718 1.86620693,38.8560718 L1.69681264,38.8886003 C1.38152853,38.8893937 1.06381292,38.8679725 0.765549291,38.7822876 C0.614796477,38.7394452 -0.0190137397,38.3054671 0.000438236225,38.7116769 C0.0125957212,38.936203 0.194957996,39.4320647 0.365973285,39.5812198 C0.836062704,39.9898098 1.2413122,40.1540392 1.79488302,40.1595928 C1.78839903,40.2849466 1.78434653,40.4087137 1.76327356,40.5356543 C1.59063727,41.62893 0.945480069,42.5912982 0.543472565,43.6107896 C0.139844064,44.6350414 0.0563626671,45.6886482 0.199010491,46.7731967 C0.481874641,49.3873791 2.50163815,51.3819329 3.30727415,53.8374396 C3.9143379,55.6923587 4.55301111,57.5377573 5.16250636,59.3926764 C5.39593007,60.1075105 5.63502728,60.823138 5.83765203,61.548286 C5.99569933,62.1139649 6.25668001,62.6732968 6.82402931,62.9462191 C7.12310344,63.0295238 7.36057964,63.0636391 7.40029409,62.6828174 C7.48377549,61.8680176 6.82321881,61.038937 6.80781933,60.1836748 C6.79079885,59.2443146 7.14255541,58.2422775 6.54440715,57.4457254 C6.1026852,56.8594186 6.1788721,56.304847 6.54521765,55.7042594 C7.05096903,54.8767655 5.62773278,54.615744 5.64961626,53.7343004 C5.67555223,52.6600658 6.14564164,51.8198778 5.82711554,50.7313624 C5.5369569,49.7396392 4.69241694,49.3730983 3.78790006,48.9684752 C0.697467375,47.5864097 2.28361392,44.7318336 3.57635982,42.5500425 C3.5925698,42.5230676 3.60877978,42.4960927 3.62498976,42.4675311 C4.26852596,41.3869495 4.93880864,40.3039877 5.35297362,39.1147132 C5.71688767,38.0698336 5.73552915,37.041615 5.66339474,35.9903884 C5.23058828,34.0672387 4.99311207,31.9957272 4.99311207,29.834564 C4.99311207,26.0929906 5.70310919,22.6156122 6.91885769,19.7269208 C8.35668291,16.3098393 10.5020738,13.7178714 13.0211047,12.4833744 C13.4020392,12.2651953 13.7910787,12.0620903 14.1971387,11.8915139 C15.3334583,11.4154868 16.5589328,11.1290771 17.8273637,11.0624333 C17.9246236,11.0576731 18,10.9791286 18,10.8839231 L18,10.1778162 C17.9991895,10.1294201 17.978927,10.0826108 17.9424546,10.0492889 Z"/>
  </g>
</svg>
