<svg xmlns="http://www.w3.org/2000/svg" width="198" height="116" viewBox="0 0 198 116">
  <g fill="#828889" fill-rule="evenodd" transform="translate(18 36)">
    <path d="M151.140148 7.84616628C152.708165 7.84616628 154.211321 8.13196051 155.648805 8.70354896 157.086289 9.27513741 158.344189 10.0757666 159.422505 11.1050312 160.500415 12.1342958 161.366716 13.3512522 162.019787 14.7563058 162.673262 16.1613594 163 17.6803253 163 19.3140143L163 28.38038C163 29.2300604 162.69799 29.9650178 162.093566 30.5860628 161.488736 31.2067025 160.745266 31.5334403 159.86356 31.5658708 158.981449 31.5658708 158.221764 31.280482 157.584503 30.7080828 156.947243 30.1364943 156.629018 29.4092392 156.629018 28.5275336L156.629018 19.7060186C156.629018 18.9544405 156.489972 18.2438061 156.212691 17.5741152 155.934599 16.9044244 155.542595 16.3243229 155.035868 15.8342162 154.529546 15.3441095 153.941742 14.9521053 153.272051 14.6582034 152.601955 14.3643015 151.875105 14.2171479 151.091097 14.2171479 150.371949 14.2171479 149.686043 14.3561939 149.032973 14.6334751 148.379092 14.9115671 147.807503 15.278843 147.317397 15.7365192 146.82729 16.1937899 146.435691 16.7491631 146.141384 17.4026387 145.847077 18.0561143 145.700328 18.7420204 145.700328 19.4607625L145.700328 28.38038C145.700328 29.2296551 145.373185 29.9731254 144.720115 30.6099804 144.066639 31.247646 143.315061 31.5658708 142.465786 31.5658708 141.616106 31.5658708 140.864528 31.2715636 140.211458 30.6837599 139.557982 30.0959561 139.231244 29.3768087 139.231244 28.5275336L139.231244 19.7060186C139.263675 18.0723296 139.582305 16.536743 140.186729 15.0992589 140.791154 13.6617747 141.624213 12.4038748 142.686314 11.325559 143.748009 10.2476485 144.997801 9.39796812 146.435691 8.77732846 147.87277 8.1566888 149.441192 7.8457609 151.140148 7.8457609L151.140148 7.84616628 151.140148 7.84616628zM125.531364 14.8540028C124.780191 14.8540028 124.077664 14.9930488 123.424189 15.27033 122.771118 15.548422 122.191017 15.9323186 121.68429 16.4224253 121.177968 16.912532 120.777856 17.4926335 120.483548 18.1623244 120.189241 18.8320152 120.042493 19.5592703 120.042493 20.3428735 120.042493 21.0948569 120.189241 21.8054913 120.483548 22.4747768 120.777856 23.1444677 121.177968 23.7326768 121.68429 24.2389987 122.191017 24.7457261 122.771118 25.145838 123.424189 25.4397399 124.077664 25.7340471 124.780191 25.8807953 125.531364 25.8807953 126.283347 25.8807953 126.993576 25.7340471 127.663267 25.4397399 128.332958 25.145838 128.913059 24.7457261 129.403166 24.2389987 129.893273 23.7326768 130.285682 23.1444677 130.579179 22.4747768 130.873486 21.8054913 131.020234 21.0948569 131.020234 20.3428735 130.954968 18.8401229 130.416215 17.5660076 129.403166 16.5205277 128.390522 15.4746425 127.099786 14.9192693 125.531364 14.8540028L125.531364 14.8540028zM125.531364 8.43397001C127.132217 8.43397001 128.651588 8.74489791 130.089072 9.36513218 131.526962 9.98577184 132.784862 10.8354523 133.862772 11.9137681 134.941088 12.9916785 135.79847 14.2495785 136.436136 15.687468 137.072991 17.1249521 137.391621 18.676754 137.391621 20.3428735 137.391621 21.9765625 137.080693 23.5040414 136.460054 24.9253103 135.839819 26.3465791 134.998247 27.5963715 133.936552 28.6742819 132.874451 29.7525977 131.624659 30.6022781 130.187175 31.2229178 128.74969 31.8435574 127.197483 32.1540799 125.531364 32.1540799 123.89808 32.1540799 122.362493 31.8597727 120.925009 31.2715636 119.48712 30.6837599 118.228814 29.8588077 117.150904 28.7971126 116.072994 27.7354174 115.223313 26.4852197 114.602674 25.0477356 113.982034 23.6102514 113.671511 22.0422343 113.671511 20.3428735 113.671511 18.7095899 113.973521 17.182111 114.578351 15.7604367 115.182775 14.3395732 116.015429 13.0978885 117.077935 12.0361934 118.13963 10.9744982 119.397125 10.1248178 120.85123 9.48796289 122.305335 8.85070258 123.865244 8.49923649 125.531364 8.43397001L125.531364 8.43397001zM108.793551 21.0295904C109.675662 21.0295904 110.44305 21.3478152 111.096931 21.9850755 111.750407 22.6219304 112.077144 23.4140466 112.077144 24.3618294 112.077144 24.6885672 112.01958 24.9990898 111.905668 25.2929916 111.79135 25.5868935 111.652304 25.8970106 111.488935 26.2241538 110.541558 27.8902733 109.202176 29.2215474 107.469979 30.2183815 105.738593 31.2148101 103.876269 31.7130244 101.883412 31.7130244 100.445522 31.7130244 99.0570892 31.4272302 97.7177075 30.8552364 96.3779204 30.2836479 95.1937999 29.4996394 94.1645353 28.5028053 93.1352707 27.5063767 92.3184262 26.3303638 91.7140018 24.9743615 91.1099828 23.6183591 90.807568 22.156552 90.807568 20.5881295L90.807568 11.570815C90.807568 10.1004949 91.0933622 8.69544132 91.6649506 7.35605959 92.2369445 6.01627248 93.0290607 4.83174662 94.0417046 3.80288741 95.0547539 2.77362282 96.2311721 1.95718372 97.5705539 1.35235395 98.9099356.747929568 100.347825.445920068 101.883412.445920068 103.843838.445920068 105.689542.94453978 107.420928 1.94056306 109.153125 2.9373971 110.525343 4.3177224 111.537987 6.08153896 111.668519 6.31057972 111.79135 6.58786093 111.905668 6.9150041 112.01958 7.2417419 112.077144 7.55185904 112.077144 7.84616628 112.077144 8.76111318 111.750407 9.54471636 111.096931 10.1985973 110.44305 10.8520729 109.659447 11.1788107 108.7445 11.1788107 108.025758 11.1788107 107.437549 10.9907135 106.980278 10.6149245 106.522602 10.2391355 106.114382 9.77375712 105.755214 9.21838394 105.362804 8.56490835 104.832159 8.04196573 104.162063 7.65036683 103.492372 7.25795717 102.732687 7.06175234 101.883412 7.06175234 101.262367 7.06175234 100.682671 7.17647542 100.143513 7.4051108 99.6043547 7.63415156 99.1308687 7.95278172 98.7222438 8.36100127 98.3136188 8.76922082 97.9872864 9.25121988 97.7420304 9.80659305 97.4971797 10.3619662 97.3747544 10.9501753 97.3747544 11.570815L97.3747544 20.5885349C97.3747544 21.2091746 97.4971797 21.7969783 97.7420304 22.3527568 97.9872864 22.90813 98.3136188 23.3901291 98.7222438 23.7983486 99.1308687 24.2065682 99.6043547 24.5256037 100.143513 24.7538337 100.682671 24.9824691 101.262367 25.0975976 101.883412 25.0975976 102.732687 25.0975976 103.483859 24.9013927 104.13774 24.5089831 104.791216 24.1173842 105.330374 23.5944415 105.754809 22.9405606 106.114382 22.3855928 106.489766 21.9279166 106.882176 21.5687483 107.27418 21.2091746 107.911035 21.0295904 108.793551 21.0295904L108.793551 21.0295904zM76.1769305 7.01270114C75.392922 7.01270114 74.7313388 7.29890074 74.1921809 7.87089458 73.653023 8.44248303 73.3668233 9.15311746 73.3343928 10.0023925 73.3668233 10.7539705 73.653023 11.3993385 74.1921809 11.9384964 74.7313388 12.4776543 75.392922 12.7468278 76.1769305 12.7468278L79.509575 12.7468278C80.7184237 12.7468278 81.8863289 12.9916785 83.0132906 13.4817852 84.1410629 13.9718919 85.1451939 14.6500957 86.0277102 15.5159914 86.9098212 16.3818871 87.6119426 17.3945311 88.1348852 18.5543286 88.6574225 19.7141262 88.9192992 20.9472979 88.9192992 22.254249 88.9192992 23.5287697 88.6736377 24.7376184 88.1839364 25.8807953 87.6938297 27.024783 87.0241389 28.0212117 86.1744585 28.8704867 85.324778 29.7197617 84.3283494 30.3979656 83.1851725 30.9042876 82.0415902 31.4106096 80.8161208 31.6801885 79.509575 31.7130244L70.7857569 31.7130244C69.8055435 31.7130244 69.0057251 31.3943943 68.3842747 30.7575394 67.763635 30.1198737 67.4535179 29.3277575 67.4535179 28.38038 67.4535179 27.498269 67.772148 26.7304758 68.409003 26.0770002 69.0462633 25.4235246 69.8383795 25.0971922 70.7857569 25.0971922L79.509575 25.0971922C80.2607476 25.0971922 80.9308438 24.8191002 81.5186476 24.263727 82.1068567 23.7083539 82.4011639 23.038663 82.4011639 22.254249 82.4011639 21.4374046 82.1149643 20.7592007 81.5429705 20.2204482 80.971382 19.6812903 80.3097988 19.395496 79.5586262 19.3630655L76.1769305 19.3630655C74.9356512 19.3302296 73.7426124 19.0691636 72.5994354 18.5790569 71.4558532 18.0889502 70.4513169 17.427367 69.5850158 16.5939019 68.7195255 15.7604367 68.0255117 14.7725211 67.5025691 13.6289388 66.9796265 12.4853565 66.7185605 11.2440772 66.7185605 9.90429008 66.7185605 8.69544132 66.9634112 7.5190231 67.4535179 6.3758462 67.9436246 5.23226392 68.6214231 4.21961999 69.4873188 3.33710363 70.3532145 2.45499266 71.3577508 1.74435823 72.501333 1.20520033 73.6449153.666042428 74.869574.39686886 76.1769305.39686886L84.9003432.39686886C85.7824542.39686886 86.5340322.715093636 87.1546718 1.35235395 87.7753115 1.98961427 88.1182646 2.78173046 88.1839364 3.72951329 88.1839364 4.67689075 87.8734139 5.4608993 87.2523689 6.08153896 86.6317292 6.702584 85.848126 7.01270114 84.9003432 7.01270114L76.1769305 7.01270114 76.1769305 7.01270114zM21.9822378 31.7620757C21.0997215 31.7620757 20.3643587 31.475876 19.776555 30.9042876 19.1887513 30.3326991 18.7963416 29.5754458 18.7963416 28.6256361L18.7963416 19.5592703C18.7963416 17.9900371 19.164023 16.5124201 19.8012833 15.1235818 20.4381382 13.7351488 21.2878186 12.5263001 22.3495138 11.4970355 23.4112089 10.4681763 24.6528936 9.65133179 26.0741625 9.04690741 27.495026 8.44248303 29.0058843 8.08372006 30.6075481 8.04196573 31.5216842 8.01845358 32.2817752 8.35248825 32.8861996 8.97312791 33.4902186 9.59417295 33.8579 10.343724 33.8911413 11.2274565 33.9235718 12.1091621 33.5802134 12.8534433 32.9599791 13.4574623 32.3389341 14.0618866 31.5715462 14.3951105 30.6561939 14.4129474 29.9054266 14.4275411 29.2024945 14.5519933 28.5490189 14.8300853 27.8955433 15.1073665 27.3235495 15.4912632 26.8334428 15.9813698 26.3433361 16.4714765 25.9517372 17.051578 25.6574299 17.7208635 25.3631227 18.3909597 25.2163744 19.1182148 25.2163744 19.901818L25.2163744 28.8214355C25.2163744 29.6735482 24.8324778 30.3732373 24.2608894 30.9286105 23.6893009 31.4843891 22.9296153 31.7620757 21.9822378 31.7620757L21.9822378 31.7620757zM6.66488348 7.01270114L6.66488348 13.67799 13.0853217 13.67799C14.0326991 13.67799 14.8171131 14.0047278 15.4377527 14.6582034 16.057987 15.311679 16.3689149 16.0960929 16.3689149 17.0106344 16.3689149 17.925176 16.0583924 18.7010769 15.4377527 19.3387426 14.8167077 19.9755975 14.0322938 20.2942277 13.0853217 20.2942277L6.66488348 20.2942277 6.66488348 28.38038C6.66488348 29.3277575 6.34665871 30.120279 5.70939839 30.7575394 5.07254346 31.3943943 4.28042727 31.7130244 3.33264443 31.7130244 2.38526698 31.7130244 1.59274541 31.3943943.95548509 30.7575394.318630157 30.120279 0 29.3277575 0 28.38038L0 3.72951329C0 2.87983287.319035539 2.11203959.95548509 1.42613345 1.59274541.740227312 2.38526698.39686886 3.33264443.39686886L16.3689149.39686886C17.2834564.39686886 18.0597627.724012037 18.6966177 1.37708225 19.3334726 2.03015245 19.6525081 2.81456639 19.6525081 3.72951329 19.6525081 4.67689075 19.3334726 5.4608993 18.6966177 6.08153896 18.0597627 6.702584 17.2834564 7.01270114 16.3689149 7.01270114L6.66488348 7.01270114 6.66488348 7.01270114zM79.7133604 38.3079796L81.5323089 38.3079796C81.5083914 37.9650265 81.415559 37.7084198 81.2550277 37.5389701 81.0944965 37.3687097 80.8836979 37.2831742 80.6214159 37.2831742 80.3704845 37.2831742 80.1657666 37.3695205 80.0056408 37.540997 79.8451096 37.7140951 79.7474125 37.9702965 79.7133604 38.3075742L79.7133604 38.3079796 79.7133604 38.3079796zM81.6754087 38.8771357L79.7133604 38.8771357C79.7157927 39.1057711 79.7620063 39.3064351 79.8511903 39.4807493 79.9403743 39.6550635 80.0595566 39.7855965 80.2079263 39.873159 80.3558907 39.962343 80.5200704 40.0061243 80.698033 40.0061243 80.8188368 40.0061243 80.9278846 39.9927466 81.0267977 39.9639645 81.1257109 39.9363986 81.2225972 39.8922119 81.3154296 39.8322154 81.4098836 39.7718135 81.4950138 39.7077632 81.5728471 39.6384429 81.6518966 39.569528 81.7532421 39.4766955 81.8789104 39.3591348 81.9303939 39.3149481 82.0029573 39.2926521 82.0986274 39.2926521 82.2015944 39.2926521 82.2851031 39.3214343 82.3491534 39.3777823 82.4115822 39.433725 82.4440128 39.5131799 82.4440128 39.6161469 82.4440128 39.706547 82.4079338 39.8131625 82.3378027 39.934777 82.2664555 40.0551755 82.1594347 40.1719254 82.0151188 40.2834055 81.872019 40.3948855 81.6932455 40.4877179 81.4759609 40.5606867 81.2590815 40.6344662 81.0089609 40.6713559 80.7280313 40.6713559 80.0834741 40.6713559 79.5816113 40.4881233 79.2240645 40.1204419 78.8665177 39.7527606 78.6873389 39.2537355 78.6873389 38.623772 78.6873389 38.3282487 78.7311201 38.0517782 78.8203042 37.7984145 78.908272 37.5450509 79.0371835 37.3281716 79.2054169 37.1461551 79.3748666 36.9653548 79.5832329 36.8263088 79.8313266 36.7294225 80.0782041 36.6329416 80.353053 36.5838904 80.6542518 36.5838904 81.0470668 36.5838904 81.3831284 36.6669937 81.6628419 36.8323895 81.9437715 36.9981907 82.1537594 37.2114216 82.2936161 37.4732983 82.4330675 37.7359857 82.5031985 38.002727 82.5031985 38.2751436 82.5031985 38.5272912 82.4302298 38.6902547 82.2863192 38.7656557 82.1415979 38.8398406 81.9372854 38.8771357 81.6754087 38.8771357L81.6754087 38.8771357zM78.0022435 39.4280497C78.0022435 39.5533127 77.9649484 39.6862779 77.8895474 39.8293778 77.8153625 39.9716668 77.7014502 40.1070643 77.5482158 40.2359758 77.3953869 40.3636711 77.2024251 40.4678542 76.9689251 40.5456875 76.7370467 40.624737 76.4747646 40.6636537 76.1837004 40.6636537 75.5626554 40.6636537 75.0794402 40.4828533 74.7308118 40.1216581 74.3838049 39.7604628 74.2090853 39.2764369 74.2090853 38.6679587 74.2090853 38.2560907 74.2881347 37.8924631 74.4478552 37.5762653 74.6071703 37.2604728 74.8378326 37.0156221 75.1390313 36.8437402 75.4410408 36.6706421 75.8014253 36.5838904 76.2201848 36.5838904 76.4800346 36.5838904 76.7179937 36.6215909 76.9352784 36.6982081 77.1509416 36.7732038 77.3353903 36.8709008 77.4861924 36.9917046 77.6365891 37.1125084 77.7517175 37.2402037 77.830767 37.3756012 77.9110326 37.5126203 77.9511654 37.6390995 77.9511654 37.7558494 77.9511654 37.8762479 77.9057626 37.9779987 77.8165786 38.0619128 77.7265838 38.1446107 77.6187523 38.186365 77.491057 38.186365 77.4075483 38.186365 77.3390388 38.1644744 77.2839068 38.1219093 77.2283695 38.0793442 77.1671569 38.0096185 77.0982419 37.9139484 76.9750058 37.7282835 76.8473106 37.5892375 76.7143453 37.4951889 76.5801639 37.4023564 76.4111196 37.3557375 76.2051857 37.3557375 75.9088515 37.3557375 75.6692708 37.4716767 75.4884705 37.7031498 75.3068594 37.9338121 75.2164593 38.2512261 75.2164593 38.6529595 75.2164593 38.8418675 75.2403768 39.0153709 75.2869957 39.1734699 75.3332092 39.3311634 75.3992865 39.4653448 75.4888759 39.5772302 75.5768437 39.6887102 75.6834592 39.7726243 75.8087222 39.8305939 75.9335798 39.8877527 76.0714096 39.9169402 76.2205902 39.9169402 76.4212542 39.9169402 76.5931361 39.8703213 76.7358305 39.7774889 76.8801465 39.6834403 77.007031 39.541962 77.1172949 39.3510271 77.1776968 39.238331 77.243774 39.1503631 77.3155266 39.0863128 77.3860631 39.0226678 77.4736256 38.991048 77.5765926 38.991048 77.6990179 38.991048 77.8011741 39.0372616 77.8810343 39.130094 77.9617053 39.2233318 78.0026489 39.322245 78.0026489 39.4280497L78.0022435 39.4280497 78.0022435 39.4280497zM72.2973043 39.2225211L72.2973043 40.0612562C72.2973043 40.2647579 72.2494693 40.4163707 72.1542045 40.5181216 72.0589398 40.619467 71.9369198 40.6713559 71.7901716 40.6713559 71.6450449 40.6713559 71.5270788 40.6198724 71.4326248 40.5169054 71.3401977 40.4139384 71.2931734 40.2623256 71.2931734 40.0616616L71.2931734 37.268175C71.2931734 36.8177958 71.4565423 36.5919981 71.7828747 36.5919981 71.9494867 36.5919981 72.068669 36.6442923 72.1428538 36.7496916 72.2170387 36.8554963 72.2567661 37.0107575 72.264063 37.2166915 72.3836507 37.0107575 72.5064814 36.8554963 72.6329605 36.7496916 72.7598451 36.6442923 72.9280785 36.5919981 73.1384717 36.5919981 73.3496757 36.5919981 73.5539882 36.6442923 73.7522199 36.7496916 73.9500463 36.8554963 74.0493648 36.9945423 74.0493648 37.1688565 74.0493648 37.290471 74.0080159 37.3922219 73.9228857 37.4716767 73.8385662 37.551537 73.7473553 37.5900482 73.6492529 37.5900482 73.6127685 37.5900482 73.5235845 37.5677522 73.3833224 37.5227549 73.2410334 37.4773521 73.1173919 37.4550561 73.0095603 37.4550561 72.8628121 37.4550561 72.7420083 37.4939727 72.6491758 37.5705899 72.5567487 37.6484232 72.48378 37.7623355 72.4322965 37.9139484 72.380813 38.0659666 72.3455448 38.2467669 72.3256811 38.4571601 72.3066281 38.6667425 72.296899 38.9217277 72.296899 39.2225211L72.2973043 39.2225211zM69.3603126 40.1054428L69.3603126 39.976126C69.2399142 40.1277388 69.1142458 40.2562449 68.9816859 40.3592119 68.8499368 40.4617735 68.7056209 40.5383907 68.5487381 40.5882526 68.3918553 40.63852 68.2126765 40.6636537 68.0120125 40.6636537 67.7695941 40.6636537 67.5527148 40.6137917 67.3593477 40.5128516 67.167602 40.4123169 67.0184215 40.2748924 66.9130222 40.0977406 66.7889754 39.8845097 66.7261412 39.5784464 66.7261412 39.1791452L66.7261412 37.1911525C66.7261412 36.9888669 66.7711386 36.8396864 66.8615387 36.7407732 66.9527496 36.64186 67.0723373 36.5915927 67.2223286 36.5915927 67.3743468 36.5915927 67.4963667 36.64186 67.5904153 36.7423947 67.6832478 36.8425241 67.7294613 36.9917046 67.7294613 37.1911525L67.7294613 38.7968701C67.7294613 39.0287485 67.749325 39.2249534 67.7882417 39.3826469 67.8275637 39.5407459 67.8976948 39.6651981 67.9994456 39.7539767 68.1007911 39.8431607 68.2390263 39.8881581 68.4133405 39.8881581 68.581574 39.8881581 68.7408891 39.8382962 68.8900696 39.7373561 69.0392502 39.6372267 69.1482979 39.5054776 69.2172128 39.3437303 69.2739663 39.2018466 69.3015322 38.8909187 69.3015322 38.4105412L69.3015322 37.1911525C69.3015322 36.9917046 69.3481512 36.8425241 69.4405782 36.7419894 69.5350322 36.64186 69.6550252 36.5915927 69.8046112 36.5915927 69.9550078 36.5915927 70.0741901 36.6414546 70.165401 36.7407732 70.2562066 36.8396864 70.3007986 36.9888669 70.3007986 37.1907471L70.3007986 40.0973352C70.3007986 40.28827 70.2570173 40.4309645 70.170671 40.5278507 70.0839193 40.6231155 69.9712231 40.6709505 69.834204 40.6709505 69.6963742 40.6709505 69.583678 40.6202778 69.4940886 40.52177 69.4049046 40.4224514 69.3599072 40.2834055 69.3599072 40.1054428L69.3603126 40.1054428 69.3603126 40.1054428zM64.95746 38.6314743C64.95746 38.222444 64.8666545 37.9038138 64.6878811 37.6751784 64.5070808 37.44857 64.2662839 37.3342523 63.9626529 37.3342523 63.7656373 37.3342523 63.5937554 37.3857358 63.4445748 37.4874866 63.2953943 37.5892375 63.1798605 37.738418 63.1000002 37.9362444 63.0177077 38.1352869 62.9779803 38.3667599 62.9779803 38.6314743 62.9779803 38.8929456 63.0177077 39.1219864 63.0971626 39.3185966 63.1774282 39.514396 63.2905297 39.6651981 63.4384941 39.7689759 63.5876746 39.8727536 63.7615835 39.9242371 63.9626529 39.9242371 64.2662839 39.9242371 64.5066754 39.8103248 64.6878811 39.5808787 64.8670599 39.3522433 64.95746 39.0352346 64.95746 38.6310689L64.95746 38.6314743 64.95746 38.6314743zM65.9644286 38.6314743C65.9644286 38.9302407 65.9182151 39.2059004 65.8253826 39.4580479 65.731334 39.7101955 65.5971526 39.9270748 65.4204061 40.1090912 65.2448758 40.2898916 65.0336718 40.4289376 64.7896319 40.5258238 64.5431597 40.6223047 64.2687162 40.6709505 63.9626529 40.6709505 63.6582111 40.6709505 63.3857945 40.6223047 63.14216 40.5246077 62.900147 40.4269106 62.6905646 40.2858377 62.5121965 40.1030105 62.3346393 39.9209941 62.2000525 39.7053309 62.1084362 39.4568318 62.0172252 39.2075219 61.9706063 38.9322677 61.9706063 38.6314743 61.9706063 38.3278433 62.0172252 38.0493459 62.1096523 37.7971984 62.2041063 37.5450509 62.3366662 37.3293877 62.5109804 37.1502089 62.6840784 36.9718409 62.894877 36.8336057 63.1417546 36.7371248 63.3902537 36.6406439 63.6626703 36.5919981 63.9626529 36.5919981 64.2662839 36.5919981 64.5407274 36.6406439 64.7892265 36.7383409 65.0365095 36.836038 65.2481188 36.9767055 65.4240546 37.1571004 65.6008011 37.3391169 65.7353878 37.5551854 65.8265988 37.8044953 65.9182151 38.0542105 65.9644286 38.3302756 65.9644286 38.6310689L65.9644286 38.6314743 65.9644286 38.6314743zM61.3519936 38.9610498C61.3519936 39.2873822 61.2680795 39.5808787 61.0998461 39.8403231 60.9332341 40.1001728 60.6871673 40.3036746 60.3636726 40.4500174 60.0401778 40.5967656 59.6570919 40.6713559 59.2131988 40.6713559 58.6813378 40.6713559 58.2435253 40.5708212 57.8973292 40.3701572 57.6528839 40.2250305 57.453436 40.0328795 57.3002017 39.7904611 57.1473727 39.5496643 57.0707556 39.3149481 57.0707556 39.0867181 57.0707556 38.9553744 57.1169691 38.8406513 57.2085854 38.7470081 57.3002017 38.6533649 57.4165463 38.6051245 57.5600515 38.6051245 57.6751799 38.6051245 57.7720662 38.642825 57.8519264 38.7153883 57.9313813 38.7895732 57.9990801 38.898621 58.0554281 39.0429369 58.1243431 39.2148188 58.1985279 39.3579186 58.2787936 39.4730471 58.357843 39.5873648 58.4705392 39.6826295 58.6148551 39.7580305 58.7591711 39.8322154 58.9488898 39.8699159 59.1844167 39.8699159 59.5079114 39.8699159 59.7705989 39.7945149 59.972479 39.6441182 60.1743592 39.4933162 60.2761101 39.3056244 60.2761101 39.0794213 60.2761101 38.9014586 60.2217889 38.7555212 60.1127412 38.6440411 60.0036935 38.5325611 59.8622152 38.4470255 59.6899279 38.3894613 59.5172352 38.3306809 59.2857621 38.2674414 58.9967249 38.2009587 58.6099905 38.110964 58.2852797 38.0043485 58.0242137 37.8835447 57.7635532 37.7623355 57.556403 37.5965344 57.4031687 37.3873573 57.2503397 37.1777749 57.1733172 36.9175197 57.1733172 36.6069972 57.1733172 36.310663 57.2539882 36.0471648 57.4157355 35.8165025 57.5778883 35.586651 57.812199 35.4103099 58.1182623 35.2858576 58.4243256 35.1618108 58.7843048 35.1001927 59.198605 35.1001927 59.5293967 35.1001927 59.8155963 35.1411363 60.0563931 35.2230235 60.2984061 35.3061267 60.4982593 35.4135529 60.657169 35.5501666 60.8168895 35.6855642 60.9332341 35.828664 61.0070136 35.9782499 61.0799823 36.1274304 61.1176829 36.2725571 61.1176829 36.4160623 61.1176829 36.5449738 61.0714693 36.6617237 60.979853 36.7655015 60.8882367 36.8696846 60.7727029 36.9227897 60.6360892 36.9227897 60.5108262 36.9227897 60.4163722 36.8915753 60.3515111 36.8287411 60.2862446 36.767123 60.2157082 36.664156 60.1407125 36.5226778 60.0417993 36.3191761 59.9254547 36.159861 59.7872195 36.0459487 59.6506058 35.931631 59.4296727 35.8748775 59.1260417 35.8748775 58.8438959 35.8748775 58.616882 35.9364956 58.4450001 36.0609478 58.2719021 36.1849947 58.1851503 36.332959 58.1851503 36.5076786 58.1851503 36.6151048 58.2139325 36.7079373 58.2731182 36.7857706 58.332304 36.8648201 58.4133803 36.9321135 58.5163473 36.9888669 58.6193143 37.0439989 58.7234975 37.0889962 58.8284914 37.120616 58.9338907 37.1518304 59.1069887 37.1984494 59.3506232 37.2600674 59.6542543 37.3314146 59.9286978 37.4092479 60.1747646 37.4955943 60.4220476 37.5811298 60.6300085 37.6849076 60.8035119 37.8081437 60.9762046 37.9293529 61.110386 38.0850195 61.2072723 38.2719006 61.3041585 38.4604031 61.3528043 38.6898493 61.3528043 38.9606444L61.3519936 38.9610498 61.3519936 38.9610498zM51.6726904 37.1461551L51.6726904 37.2677697C51.8494369 37.0342697 52.0423987 36.8636039 52.250765 36.7545562 52.4599421 36.6451031 52.7011443 36.5915927 52.9731555 36.5915927 53.2378699 36.5915927 53.4738021 36.6487515 53.6821684 36.7642854 53.8905347 36.878603 54.0462013 37.0415666 54.148763 37.2523651 54.2152456 37.3751959 54.2578107 37.5065396 54.2780798 37.6500448 54.2967273 37.7919284 54.3068619 37.9723234 54.3068619 38.1932565L54.3068619 40.0608508C54.3068619 40.2615148 54.2606484 40.4131277 54.1686267 40.5160947 54.0774158 40.6190617 53.9582335 40.6705452 53.8106745 40.6705452 53.6610886 40.6705452 53.5406901 40.6178455 53.4466415 40.5124462 53.3542145 40.4074523 53.3075956 40.2570556 53.3075956 40.0608508L53.3075956 38.3886506C53.3075956 38.0578589 53.2609766 37.8044953 53.1693603 37.6285595 53.0781494 37.4542453 52.8949168 37.3662775 52.621284 37.3662775 52.4425106 37.3662775 52.2787364 37.4189771 52.1319881 37.5255925 51.9856453 37.632208 51.8774083 37.7789562 51.8101149 37.9658373 51.7610637 38.1150178 51.73593 38.3939205 51.73593 38.804167L51.73593 40.0608508C51.73593 40.2643525 51.688095 40.4159653 51.5940464 40.5177162 51.4995924 40.6190617 51.3783832 40.6709505 51.2287973 40.6709505 51.0832652 40.6709505 50.9652991 40.6182509 50.8716558 40.5128516 50.778418 40.4074523 50.7322045 40.257461 50.7322045 40.0612562L50.7322045 37.1611542C50.7322045 36.9702194 50.7735534 36.8275249 50.8574675 36.733071 50.9405708 36.6394277 51.0548885 36.5915927 51.198799 36.5915927 51.2867669 36.5915927 51.3670325 36.6126725 51.4387851 36.6540215 51.5093215 36.6957758 51.5664804 36.7582046 51.6094509 36.8413079 51.652016 36.925222 51.6730958 37.0269728 51.6730958 37.1461551L51.6726904 37.1461551 51.6726904 37.1461551zM47.1263327 38.3075742L48.9456865 38.3075742C48.921769 37.9650265 48.8285312 37.7080144 48.668 37.5385647 48.5074687 37.3683044 48.2966701 37.2827688 48.0343881 37.2827688 47.7834567 37.2827688 47.5791442 37.3695205 47.418613 37.540997 47.2580818 37.7140951 47.1603847 37.9702965 47.1263327 38.3075742L47.1263327 38.3075742zM49.088381 38.8771357L47.1263327 38.8771357C47.128765 39.1057711 47.1753839 39.3064351 47.2645679 39.4807493 47.3533465 39.6550635 47.4729342 39.7855965 47.6208986 39.873159 47.7688629 39.962343 47.9330426 40.0061243 48.1114106 40.0061243 48.231809 40.0061243 48.3408568 39.9923413 48.43977 39.9635592 48.5390885 39.9363986 48.6355694 39.8922119 48.7284019 39.83181 48.8228558 39.7714081 48.9083914 39.7073578 48.9858193 39.6384429 49.0648688 39.569528 49.1662143 39.4766955 49.2918827 39.3587294 49.3433662 39.3149481 49.4163349 39.2922468 49.5115996 39.2922468 49.6145666 39.2922468 49.6984807 39.3210289 49.7621256 39.377377 49.8249598 39.433725 49.8573904 39.5131799 49.8573904 39.6161469 49.8573904 39.7061417 49.8213114 39.8131625 49.750775 39.9343717 49.6794277 40.0551755 49.5728123 40.1715201 49.4284964 40.2830001 49.2849912 40.3948855 49.1062178 40.4877179 48.8889331 40.5606867 48.6720538 40.6344662 48.4223385 40.6709505 48.1414089 40.6709505 47.4964463 40.6709505 46.9949889 40.4881233 46.6370367 40.1204419 46.2794899 39.7523552 46.1003111 39.2533301 46.1003111 38.623772 46.1003111 38.3278433 46.1440924 38.0513728 46.2336818 37.7980092 46.3216496 37.5450509 46.4501557 37.3277662 46.6183892 37.1461551 46.7878388 36.9653548 46.9962051 36.8259034 47.2447042 36.7294225 47.4915817 36.6325362 47.7664306 36.5838904 48.0676294 36.5838904 48.460039 36.5838904 48.7961006 36.6665883 49.0762195 36.8319841 49.3567438 36.9981907 49.5667316 37.2110162 49.7069937 37.4728929 49.8464451 37.7355803 49.9165761 38.002727 49.9165761 38.2747382 49.9165761 38.5268858 49.843202 38.6898493 49.6992915 38.7652503 49.5545701 38.8398406 49.350663 38.8767303 49.088381 38.8767303L49.088381 38.8771357zM44.4771621 38.6136375C44.4771621 38.3489231 44.4366239 38.1219093 44.3555475 37.9313798 44.2752819 37.7420665 44.1621804 37.596129 44.0190806 37.4947835 43.8763861 37.3930327 43.7170711 37.3415492 43.5435676 37.3415492 43.2666918 37.3415492 43.0335972 37.4505969 42.8426623 37.6690977 42.6529436 37.8871932 42.5580843 38.2074449 42.5580843 38.6314743 42.5580843 39.0311808 42.6521329 39.341298 42.8414462 39.5634472 43.0299488 39.7855965 43.2642595 39.8958604 43.5435676 39.8958604 43.7097742 39.8958604 43.8646301 39.8468092 44.0069191 39.7503283 44.1488028 39.653442 44.2631204 39.5083153 44.3478453 39.3145428 44.434597 39.121581 44.4771621 38.8872703 44.4771621 38.6136375L44.4771621 38.6136375zM42.5102492 37.1546681L42.5102492 37.2750665C42.6983464 37.0431881 42.895362 36.8713062 43.0984583 36.7622584 43.30196 36.6532107 43.5326223 36.5988896 43.7896344 36.5988896 44.0985354 36.5988896 44.3831135 36.677939 44.6425579 36.8372541 44.9024077 36.9969746 45.1083417 37.2300691 45.2587383 37.5361325 45.4095404 37.8421958 45.4841307 38.2046072 45.4841307 38.623772 45.4841307 38.9322677 45.4407548 39.2156296 45.3540031 39.4742632 45.2676567 39.7324915 45.1472583 39.9497762 44.9956455 40.1253065 44.8436273 40.3008369 44.6644485 40.4350183 44.4572984 40.5290669 44.2505536 40.6235209 44.0271882 40.6709505 43.7900398 40.6709505 43.5030294 40.6709505 43.2618272 40.6137917 43.0676493 40.4978525 42.873066 40.3835348 42.6874011 40.2144905 42.5106546 39.9911251L42.5106546 41.4991457C42.5106546 41.9393904 42.3501234 42.1599182 42.0286555 42.1599182 41.8405583 42.1599182 41.7157007 42.1035701 41.6536773 41.9892524 41.5924646 41.8753401 41.562061 41.7095389 41.562061 41.4914435L41.562061 37.1611542C41.562061 36.9702194 41.6034099 36.8271196 41.6877294 36.733071 41.7704273 36.6390224 41.884745 36.5915927 42.0286555 36.5915927 42.1709446 36.5915927 42.2876945 36.6402385 42.3760678 36.7367194 42.4652518 36.8336057 42.51106 36.9726516 42.51106 37.1546681L42.5102492 37.1546681 42.5102492 37.1546681zM39.6146064 37.8713833C39.6146064 37.4757306 39.5509615 37.134399 39.4240769 36.8449564 39.2963817 36.5563245 39.1147706 36.3370129 38.8776222 36.1886431 38.6416899 36.0406787 38.3708948 35.9673046 38.06321 35.9673046 37.8451145 35.9673046 37.6444505 36.0082482 37.4587856 36.0897299 37.2743368 36.1724278 37.1150218 36.2920155 36.9808404 36.4484929 36.8478751 36.605781 36.7424758 36.8060397 36.6646425 37.0496742 36.5880253 37.2929033 36.5487033 37.5677522 36.5487033 37.8713833 36.5487033 38.1774466 36.5880253 38.4543224 36.6646425 38.7016054 36.7424758 38.9488883 36.8515235 39.1544169 36.9917857 39.3173804 37.1324532 39.4807493 37.2942006 39.6023639 37.4774332 39.6826295 37.6590442 39.7641113 37.8601137 39.8038387 38.0782091 39.8038387 38.3579226 39.8038387 38.6137186 39.7337076 38.8484347 39.5946616 39.0827454 39.4556157 39.2684103 39.2399525 39.4066455 38.9472668 39.5456915 38.6562026 39.6146064 38.297845 39.6146064 37.8713833L39.6146064 37.8713833zM38.06321 35.1001927C38.622637 35.1001927 39.101393 35.2124835 39.5035318 35.4403081 39.9032383 35.6669166 40.2068694 35.9879791 40.4128034 36.4059278 40.6187373 36.8234711 40.721299 37.3143886 40.721299 37.8782748 40.721299 38.2954127 40.6649509 38.6724179 40.5518493 39.0137494 40.4391532 39.3538648 40.2709197 39.650199 40.045122 39.8999142 39.8197297 40.1492241 39.5420431 40.3401589 39.2148999 40.4731242 38.8861352 40.6044679 38.5095354 40.6709505 38.085506 40.6709505 37.6643142 40.6709505 37.2869037 40.6032518 36.9532744 40.4662327 36.6204559 40.3308351 36.3423639 40.1390895 36.1189985 39.8918066 35.8956331 39.644929 35.7273996 39.3461626 35.6134873 38.9987503 35.4991696 38.651338 35.4424161 38.2747382 35.4424161 37.8709779 35.4424161 37.4566776 35.5016019 37.0768348 35.6203788 36.7318548 35.7399664 36.3856587 35.9118483 36.0921622 36.137646 35.8501492 36.3630384 35.6065147 36.6366711 35.4212552 36.9605713 35.2927491 37.284066 35.1638377 37.6517474 35.0997874 38.06321 35.0997874L38.06321 35.1001927 38.06321 35.1001927zM29.8124726 38.623772C29.8124726 38.8957833 29.8554431 39.1280671 29.9393571 39.3185966 30.0232712 39.5091261 30.1400211 39.653442 30.286364 39.7503283 30.4335176 39.8468092 30.5940488 39.8958604 30.7683631 39.8958604 30.9438934 39.8958604 31.1060462 39.8496468 31.2511729 39.7580305 31.396705 39.6664142 31.5138603 39.5257467 31.5998013 39.3352172 31.6861476 39.1454985 31.7303343 38.9083501 31.7303343 38.623772 31.7303343 38.3578415 31.6861476 38.1271792 31.5998013 37.9350282 31.5138603 37.7428772 31.3958942 37.5965344 31.2475244 37.4947835 31.09956 37.3930327 30.9365965 37.3415492 30.7606608 37.3415492 30.5766174 37.3415492 30.4120324 37.3930327 30.2677164 37.4972158 30.1238059 37.6009936 30.0119205 37.7517956 29.9316549 37.9459735 29.8526054 38.1405568 29.8124726 38.3663545 29.8124726 38.6233667L29.8124726 38.623772zM31.7858716 40.0977406L31.7858716 39.998422C31.6512848 40.1528725 31.5183195 40.2781355 31.3869758 40.3750218 31.2568482 40.4715026 31.113343 40.5456875 30.9601087 40.5959549 30.8072797 40.6462222 30.6402624 40.6709505 30.4586513 40.6709505 30.2186652 40.6709505 29.9969213 40.619467 29.7922035 40.5177162 29.5882964 40.4163707 29.4099284 40.2720548 29.2607478 40.0827414 29.1115673 39.8942389 28.9984658 39.6720896 28.9210378 39.4175098 28.8444207 39.1629299 28.8050986 38.8872703 28.8050986 38.5909361 28.8050986 37.9638103 28.958333 37.4745144 29.2643963 37.1246699 29.570865 36.7748253 29.9746253 36.5988896 30.4736504 36.5988896 30.7634985 36.5988896 31.007133 36.6487515 31.2049593 36.7480701 31.4031911 36.8469833 31.5977744 36.9990015 31.7858716 37.2061516L31.7858716 35.7244808C31.7858716 35.5185468 31.8272205 35.3632856 31.9087023 35.2578863 31.9914002 35.152487 32.1081502 35.0997874 32.2601684 35.0997874 32.4117812 35.0997874 32.5285312 35.1488386 32.6116345 35.2453195 32.6935216 35.3422057 32.7344652 35.4853055 32.7344652 35.6734027L32.7344652 40.0977406C32.7344652 40.2886754 32.6906839 40.432586 32.6027161 40.5282561 32.513532 40.6231155 32.3996197 40.6709505 32.2601684 40.6709505 32.1231493 40.6709505 32.009237 40.6206832 31.9204584 40.52177 31.8312743 40.4224514 31.7858716 40.2821893 31.7858716 40.0977406L31.7858716 40.0977406zM25.4031339 37.1461551L25.4031339 37.2677697C25.5802858 37.0342697 25.7728421 36.8636039 25.9812084 36.7545562 26.1907909 36.6451031 26.4315877 36.5915927 26.7035989 36.5915927 26.9691241 36.5915927 27.2046509 36.6487515 27.4126119 36.7642854 27.6209781 36.878603 27.7766448 37.0415666 27.8796118 37.2523651 27.9460944 37.3751959 27.9882541 37.506945 28.0085232 37.6500448 28.0275762 37.7919284 28.0373053 37.9723234 28.0373053 38.1932565L28.0373053 40.0608508C28.0373053 40.2615148 27.9910918 40.4131277 27.8998809 40.5160947 27.8078592 40.6190617 27.6886769 40.6705452 27.5411179 40.6705452 27.3919374 40.6705452 27.271539 40.6178455 27.177085 40.5124462 27.0846579 40.4074523 27.038039 40.2570556 27.038039 40.0608508L27.038039 38.3890559C27.038039 38.0578589 26.9910147 37.8044953 26.8998038 37.6285595 26.8081875 37.4546507 26.6249549 37.3662775 26.3513221 37.3662775 26.1725487 37.3662775 26.0087744 37.4189771 25.8624315 37.5255925 25.7156833 37.632208 25.6074463 37.7789562 25.540153 37.9658373 25.4911017 38.1150178 25.4663734 38.3939205 25.4663734 38.804167L25.4663734 40.0608508C25.4663734 40.2643525 25.418133 40.4159653 25.3240844 40.5177162 25.2304412 40.6190617 25.1088266 40.6709505 24.9592407 40.6709505 24.8133032 40.6709505 24.6957425 40.6182509 24.6016939 40.5128516 24.5088614 40.4074523 24.4622425 40.257461 24.4622425 40.0612562L24.4622425 37.1611542C24.4622425 36.9702194 24.5035915 36.8275249 24.5879109 36.733071 24.6706088 36.6394277 24.7845211 36.5915927 24.9288371 36.5915927 25.0168049 36.5915927 25.0966652 36.6126725 25.1684178 36.6540215 25.2389542 36.6957758 25.2969238 36.7582046 25.3390835 36.8413079 25.382054 36.925222 25.4031339 37.0269728 25.4031339 37.1461551L25.4031339 37.1461551zM22.4892489 38.6541757C22.3425007 38.7076861 22.1276483 38.7644396 21.8483402 38.8244361 21.5670051 38.884838 21.3728272 38.9286192 21.2645903 38.9578067 21.1567587 38.9853727 21.0537917 39.04091 20.9560947 39.1236079 20.8575869 39.2046843 20.8093464 39.319002 20.8093464 39.4657502 20.8093464 39.6185792 20.867316 39.7483014 20.9824445 39.8545114 21.0979783 39.9611269 21.248375 40.0142319 21.4336345 40.0142319 21.6322716 40.0142319 21.8155042 39.970856 21.9833323 39.8841043 22.1515658 39.797758 22.2748019 39.6846564 22.353446 39.5476373 22.4438462 39.3960245 22.4888435 39.1463093 22.4888435 38.7976809L22.4888435 38.6541757 22.4892489 38.6541757 22.4892489 38.6541757zM22.5557316 40.1054428C22.312097 40.2931346 22.0773809 40.4350183 21.8519886 40.5290669 21.6249748 40.6235209 21.3699896 40.6709505 21.0890599 40.6709505 20.8308317 40.6709505 20.6046286 40.6198724 20.4104506 40.5177162 20.2158673 40.4163707 20.0650653 40.279757 19.9600714 40.1054428 19.8546721 39.9307232 19.8019724 39.742626 19.8019724 39.5395297 19.8019724 39.2646808 19.8887242 39.0311808 20.0630384 38.8370029 20.2373526 38.6436358 20.4757171 38.5135082 20.7805643 38.4482417 20.8429931 38.4332426 21.001092 38.4004066 21.2544557 38.3489231 21.5066032 38.2966289 21.7222664 38.2496046 21.9030667 38.2070395 22.0826509 38.1632582 22.278045 38.1117747 22.4888435 38.0497513 22.4766821 37.7850369 22.4239824 37.5904536 22.3295285 37.4680283 22.2342637 37.3439814 22.0396804 37.2823634 21.7425355 37.2823634 21.4875503 37.2823634 21.2962101 37.3172262 21.1681094 37.3885735 21.0387926 37.460326 20.9281233 37.5657253 20.8369124 37.7084198 20.7448907 37.8507088 20.6796242 37.9447574 20.6423291 37.9897548 20.6034124 38.0347522 20.5215253 38.0574536 20.3978838 38.0574536 20.2847823 38.0574536 20.1866798 38.0209692 20.1056035 37.9484058 20.0229056 37.8770586 19.9823674 37.7842262 19.9823674 37.6711246 19.9823674 37.4951889 20.0439854 37.3237124 20.1692484 37.156695 20.2949168 36.9900831 20.4890947 36.853064 20.7542145 36.7456378 21.0185235 36.6374008 21.3468828 36.583485 21.7425355 36.583485 22.1839964 36.583485 22.5301925 36.6357793 22.78234 36.7403678 23.0344876 36.844551 23.2128556 37.0087306 23.3170387 37.2345283 23.4208165 37.4587045 23.4739215 37.7590925 23.4739215 38.1312331 23.4739215 38.3659492 23.4727054 38.5670186 23.4714892 38.7299821 23.4702731 38.8937564 23.4690569 39.076989 23.4662193 39.2780584 23.4662193 39.4661556 23.4974337 39.6631712 23.5602679 39.867889 23.623102 40.0726069 23.6531003 40.2039506 23.6531003 40.262731 23.6531003 40.365698 23.6052652 40.4597466 23.5087844 40.5436606 23.4123035 40.6279801 23.3020396 40.6705452 23.180425 40.6705452 23.077458 40.6705452 22.9757072 40.6218993 22.8755779 40.5250131 22.773827 40.4281268 22.6688331 40.2894862 22.5557316 40.1050374L22.5557316 40.1054428zM14.5036313 38.3075742L16.3221744 38.3075742C16.2982569 37.9650265 16.2054244 37.7080144 16.0448932 37.5385647 15.884362 37.3683044 15.6735634 37.2827688 15.4116867 37.2827688 15.1607553 37.2827688 14.9560375 37.3695205 14.7955062 37.540997 14.634975 37.7140951 14.537278 37.9702965 14.5036313 38.3075742L14.5036313 38.3075742zM16.4652742 38.8771357L14.5036313 38.8771357C14.5060636 39.1057711 14.5522771 39.3060297 14.6410557 39.4807493 14.7302397 39.6546582 14.849422 39.7851911 14.9973864 39.8727536 15.1461616 39.9619376 15.3099358 40.0061243 15.4878985 40.0061243 15.6082969 40.0061243 15.7181554 39.9923413 15.8166632 39.9635592 15.9155764 39.9359932 16.0120573 39.8918066 16.1052951 39.83181 16.1993437 39.7714081 16.2848793 39.7073578 16.3627126 39.6384429 16.441762 39.569528 16.5431075 39.4766955 16.6683705 39.3587294 16.719854 39.3145428 16.7932281 39.2922468 16.8880875 39.2922468 16.9910545 39.2922468 17.0749685 39.3210289 17.1390189 39.377377 17.2018531 39.433725 17.2342836 39.5131799 17.2342836 39.6161469 17.2342836 39.7061417 17.1977992 39.8127571 17.1276682 39.9343717 17.056321 40.0547701 16.9497055 40.1715201 16.8049842 40.2830001 16.6622898 40.3944801 16.4827056 40.4873125 16.2658263 40.5606867 16.0485416 40.6344662 15.7992318 40.6709505 15.5183021 40.6709505 14.8733396 40.6709505 14.3714768 40.4877179 14.0143353 40.1204419 13.6567885 39.7523552 13.4772044 39.2533301 13.4772044 38.6233667 13.4772044 38.3278433 13.5209856 38.0513728 13.610575 37.7980092 13.6981375 37.5450509 13.8270489 37.3277662 13.9956878 37.1461551 14.164732 36.9649494 14.3726929 36.8259034 14.6215974 36.7290171 14.868475 36.6325362 15.1433239 36.5838904 15.4445226 36.5838904 15.8369323 36.5838904 16.1733992 36.6665883 16.4527074 36.8319841 16.7340424 36.9981907 16.9432194 37.2110162 17.0838869 37.4728929 17.2233383 37.7355803 17.293064 38.002727 17.293064 38.2747382 17.293064 38.5268858 17.2205006 38.6898493 17.0761847 38.7652503 16.9318687 38.8394352 16.7275563 38.8767303 16.4652742 38.8767303L16.4652742 38.8771357zM10.031053 38.3075742L11.8504069 38.3075742C11.8264893 37.9650265 11.7336569 37.7080144 11.5727203 37.5385647 11.4125944 37.3683044 11.2013905 37.2827688 10.9395138 37.2827688 10.6885824 37.2827688 10.4842699 37.3695205 10.3233333 37.540997 10.1632075 37.7140951 10.0651051 37.9702965 10.031053 38.3075742L10.031053 38.3075742zM11.9931013 38.8771357L10.031053 38.8771357C10.0334853 39.1057711 10.0805096 39.3060297 10.1692882 39.4807493 10.2580669 39.6546582 10.3776545 39.7851911 10.5256189 39.8727536 10.6735833 39.9619376 10.8381683 40.0061243 11.016131 40.0061243 11.1365294 40.0061243 11.2459825 39.9923413 11.3448957 39.9635592 11.4438088 39.9359932 11.5402897 39.8918066 11.6335276 39.83181 11.7275762 39.7714081 11.8127064 39.7073578 11.8905397 39.6384429 11.9699945 39.569528 12.07134 39.4766955 12.196603 39.3587294 12.2480865 39.3145428 12.3210552 39.2922468 12.41632 39.2922468 12.519287 39.2922468 12.603201 39.3210289 12.666846 39.377377 12.7296802 39.433725 12.7621107 39.5131799 12.7621107 39.6161469 12.7621107 39.7061417 12.7260317 39.8127571 12.6554953 39.9343717 12.5841481 40.0547701 12.477938 40.1715201 12.3332167 40.2830001 12.1901169 40.3944801 12.0109381 40.4873125 11.7936534 40.5606867 11.5767741 40.6344662 11.3270589 40.6709505 11.0461292 40.6709505 10.401572 40.6709505 9.89930389 40.4877179 9.54175707 40.1204419 9.18461563 39.7523552 9.00503146 39.2533301 9.00503146 38.6233667 9.00503146 38.3278433 9.04921809 38.0513728 9.13799672 37.7980092 9.22636997 37.5450509 9.35487602 37.3277662 9.5231095 37.1461551 9.69255913 36.9649494 9.90092541 36.8259034 10.1490191 36.7290171 10.3963021 36.6325362 10.6715564 36.5838904 10.9723497 36.5838904 11.3647594 36.5838904 11.7012263 36.6665883 11.9809398 36.8319841 12.2614641 36.9981907 12.4714519 37.2110162 12.6121194 37.4728929 12.7511654 37.7355803 12.8212965 38.002727 12.8212965 38.2747382 12.8212965 38.5268858 12.7483277 38.6898493 12.6040118 38.7652503 12.4596958 38.8394352 12.2553834 38.8767303 11.9931013 38.8767303L11.9931013 38.8771357zM7.07946753 39.2221157L7.07946753 40.0612562C7.07946753 40.2643525 7.03163247 40.4163707 6.93677311 40.5181216 6.84110299 40.619467 6.71908304 40.6713559 6.57274018 40.6713559 6.42720809 40.6713559 6.30924196 40.6198724 6.21519336 40.5169054 6.1227663 40.4139384 6.07614738 40.2623256 6.07614738 40.0616616L6.07614738 37.268175C6.07614738 36.8173904 6.2391109 36.5919981 6.56503793 36.5919981 6.73205526 36.5919981 6.85123753 36.6442923 6.92501704 36.7496916 6.99920192 36.8550909 7.03974011 37.0107575 7.0466316 37.2166915 7.16581387 37.0107575 7.28904996 36.8554963 7.41552911 36.7496916 7.54200826 36.6442923 7.71024174 36.5919981 7.92063493 36.5919981 8.13183889 36.5919981 8.33615136 36.6442923 8.5343831 36.7496916 8.73261484 36.8550909 8.83152802 36.9945423 8.83152802 37.1684511 8.83152802 37.2900657 8.79017906 37.3918165 8.70504887 37.4712714 8.62113482 37.551537 8.52951852 37.5900482 8.4314161 37.5900482 8.39493173 37.5900482 8.3061531 37.5677522 8.16548559 37.5223495 8.02360193 37.4773521 7.89996046 37.4550561 7.79172349 37.4550561 7.64538064 37.4550561 7.52457684 37.4939727 7.43174439 37.5705899 7.33931732 37.6480179 7.2659432 37.7623355 7.2144597 37.9139484 7.1629762 38.0659666 7.12811336 38.2467669 7.10784426 38.4571601 7.08960208 38.6667425 7.07906215 38.9217277 7.07906215 39.2225211L7.07946753 39.2221157 7.07946753 39.2221157zM5.11417618 36.0333818L2.96362531 36.0333818 2.96362531 37.4120856 4.76108856 37.4120856C4.92729513 37.4120856 5.05255813 37.4493807 5.13363451 37.5235656 5.21592703 37.5985613 5.2568706 37.6978798 5.2568706 37.8235482 5.2568706 37.9488112 5.21592703 38.0477244 5.13241836 38.1206931 5.04850431 38.194878 4.92445746 38.2313624 4.76108856 38.2313624L2.96403069 38.2313624 2.96403069 40.0057189C2.96403069 40.2303004 2.91254719 40.3985339 2.81039096 40.507987 2.70904549 40.6166294 2.57851252 40.6709505 2.41919744 40.6709505 2.25866622 40.6709505 2.12691711 40.6154132 2.02516626 40.5051493 1.92382079 40.3944801 1.87233729 40.2278681 1.87233729 40.0057189L1.87233729 35.8598784C1.87233729 35.7029956 1.89625482 35.5753003 1.94287373 35.4763871 1.98949265 35.3770686 2.06165063 35.3045052 2.16096919 35.2591024 2.25988236 35.2136997 2.38676689 35.1914037 2.54121739 35.1914037L5.11417618 35.1914037C5.28849039 35.1914037 5.41780721 35.2303203 5.50172126 35.3069375 5.58563531 35.3843654 5.6282004 35.4849001 5.6282004 35.6105685 5.6282004 35.7382638 5.58563531 35.8400147 5.50172126 35.917848 5.41780721 35.9944652 5.28849039 36.0333818 5.11417618 36.0333818L5.11417618 36.0333818zM157.192378 39.4279281C157.192378 39.5535965 157.154677 39.6861563 157.079681 39.8292561 157.005497 39.9711398 156.891179 40.1065373 156.73835 40.2358542 156.585521 40.3639548 156.392154 40.4677326 156.158654 40.5455659 155.926775 40.6246154 155.664493 40.663532 155.373429 40.663532 154.752384 40.663532 154.269574 40.4827317 153.920946 40.1215365 153.573534 39.7599358 153.399219 39.2759099 153.399219 38.6674317 153.399219 38.2559691 153.478269 37.8923415 153.637584 37.5761436 153.796899 37.2599458 154.027561 37.0155005 154.329165 36.8436186 154.631175 36.6705205 154.991154 36.5837688 155.410319 36.5837688 155.669763 36.5837688 155.908128 36.6214693 156.125007 36.6980865 156.34067 36.7730821 156.525119 36.8707792 156.675921 36.991583 156.826723 37.1119814 156.941852 37.2404875 157.020496 37.3754796 157.100761 37.5120933 157.140894 37.6389778 157.140894 37.7557278 157.140894 37.8761262 157.095897 37.9778771 157.006713 38.0617911 156.916313 38.144489 156.808886 38.1862434 156.68038 38.1862434 156.597682 38.1862434 156.528767 38.1647581 156.474041 38.1217877 156.418504 38.0792226 156.356886 38.0090915 156.288376 37.9142321 156.16514 37.7281619 156.037039 37.5887105 155.904074 37.4946619 155.769893 37.4018294 155.600443 37.3556159 155.394509 37.3556159 155.098986 37.3556159 154.859405 37.4711497 154.678605 37.7030282 154.496993 37.9336905 154.406593 38.2515099 154.406593 38.6528379 154.406593 38.8421513 154.430511 39.0152493 154.476724 39.1729429 154.522938 39.3314472 154.589421 39.4656286 154.67901 39.5771086 154.766978 39.688994 154.873188 39.7729081 154.998856 39.8300669 155.123308 39.8880365 155.261138 39.9168186 155.410319 39.9168186 155.611388 39.9168186 155.782865 39.8706051 155.925965 39.7773673 156.069875 39.6833187 156.197165 39.541435 156.307024 39.3509055 156.367425 39.2382094 156.433908 39.1502415 156.505661 39.0857858 156.575792 39.0221408 156.663354 38.9909264 156.766321 38.9909264 156.889152 38.9909264 156.990903 39.0371399 157.071168 39.1299724 157.151434 39.2223995 157.192783 39.321718 157.192783 39.4271173L157.192378 39.4279281 157.192378 39.4279281zM149.958743 37.1460335L149.958743 37.267648C150.135895 37.0345535 150.328857 36.8638877 150.537223 36.7544346 150.746806 36.6453869 150.987603 36.5914711 151.259614 36.5914711 151.524734 36.5914711 151.760666 36.6490353 151.968627 36.7645691 152.176993 36.8784814 152.332254 37.041445 152.435221 37.2522435 152.501704 37.3754796 152.544269 37.5072287 152.564538 37.6499232 152.583186 37.7918068 152.59332 37.9722017 152.59332 38.1931349L152.59332 40.0611346C152.59332 40.2617986 152.547107 40.4134114 152.455085 40.5163784 152.363874 40.61894 152.244692 40.6704235 152.096727 40.6704235 151.947547 40.6704235 151.827148 40.6181293 151.7331 40.51273 151.640267 40.4073307 151.593243 40.256934 151.593243 40.0611346L151.593243 38.3889343C151.593243 38.0577373 151.54703 37.8043736 151.455819 37.6288433 151.364202 37.4545291 151.18097 37.3661558 150.907337 37.3661558 150.728564 37.3661558 150.564789 37.4188555 150.418041 37.5258763 150.271698 37.6320863 150.163461 37.77924 150.096168 37.966121 150.047117 38.1153015 150.021983 38.3937989 150.021983 38.8040454L150.021983 40.0611346C150.021983 40.2642309 149.974148 40.4162491 149.880099 40.5175946 149.785645 40.61894 149.664436 40.6708289 149.515256 40.6708289 149.369318 40.6708289 149.251352 40.6185347 149.157709 40.5131354 149.064471 40.4073307 149.017852 40.2573394 149.017852 40.06154L149.017852 37.1610326C149.017852 36.9700977 149.059201 36.8274033 149.143926 36.7337601 149.226624 36.6393061 149.340536 36.5914711 149.484447 36.5914711 149.572414 36.5914711 149.65268 36.6129563 149.724433 36.6543053 149.794969 36.6960596 149.852533 36.758083 149.895098 36.8411863 149.937663 36.9251004 149.958743 37.0268512 149.958743 37.1460335L149.958743 37.1460335zM145.412791 38.3074526L147.232145 38.3074526C147.207822 37.9653103 147.115395 37.7078928 146.954458 37.5388485 146.794332 37.3681827 146.583128 37.2830526 146.321252 37.2830526 146.069915 37.2830526 145.866008 37.3693989 145.705071 37.5412808 145.544945 37.7139735 145.446843 37.9701748 145.412791 38.3074526L145.412791 38.3074526zM147.374839 38.8774195L145.412791 38.8774195C145.415223 39.1056495 145.461842 39.3063135 145.550621 39.4806277 145.639805 39.6553473 145.759392 39.7854749 145.907357 39.8734428 146.055321 39.9622214 146.219906 40.006408 146.397869 40.006408 146.518267 40.006408 146.627315 39.992625 146.726634 39.9634375 146.825547 39.936277 146.922028 39.8924957 147.015265 39.8320938 147.109314 39.7720973 147.194444 39.7072362 147.272278 39.6387267 147.351732 39.5698117 147.453078 39.4765739 147.578341 39.3586078 147.629824 39.3152319 147.702793 39.2925305 147.798058 39.2925305 147.901025 39.2925305 147.984939 39.3209073 148.048584 39.3772553 148.111418 39.4340088 148.143849 39.5130583 148.143849 39.6160253 148.143849 39.7068308 148.10777 39.8130409 148.037233 39.9346554 147.965886 40.0550538 147.859676 40.1718038 147.714955 40.2832838 147.571855 40.3951692 147.392676 40.4875963 147.175391 40.560565 146.958512 40.6347499 146.708797 40.6708289 146.427867 40.6708289 145.782905 40.6708289 145.281042 40.4880017 144.923495 40.1203203 144.566354 39.7530443 144.386769 39.2532085 144.386769 38.6240558 144.386769 38.3277217 144.430956 38.0516566 144.519735 37.7982929 144.608108 37.5449292 144.736614 37.3276446 144.904847 37.1460335 145.074297 36.9656385 145.282663 36.8261872 145.530757 36.7297063 145.77804 36.6324146 146.052889 36.5837688 146.354088 36.5837688 146.746497 36.5837688 147.082964 36.6664667 147.362678 36.8326733 147.643202 36.9980691 147.85319 37.2108946 147.993452 37.473582 148.132903 37.7354587 148.203034 38.0026054 148.203034 38.2746166 148.203034 38.5267642 148.130066 38.6901331 147.98575 38.7655341 147.841434 38.839719 147.637121 38.8774195 147.374839 38.8774195L147.374839 38.8774195zM142.461205 39.2223995L142.461205 40.06154C142.461205 40.2646363 142.41337 40.4162491 142.318511 40.518 142.222841 40.6193454 142.100821 40.6712343 141.954478 40.6712343 141.808946 40.6712343 141.69098 40.6197508 141.596931 40.5171892 141.504099 40.4142222 141.45748 40.2626094 141.45748 40.06154L141.45748 37.2680534C141.45748 36.8180795 141.620443 36.5918764 141.946776 36.5918764 142.113388 36.5918764 142.232975 36.6445761 142.306755 36.7499754 142.38094 36.8553747 142.421073 37.0106359 142.42837 37.2165699 142.547552 37.0106359 142.670788 36.8553747 142.796862 36.7499754 142.923746 36.6445761 143.09198 36.5918764 143.302373 36.5918764 143.513577 36.5918764 143.717889 36.6445761 143.916121 36.7499754 144.113947 36.8553747 144.213266 36.9944207 144.213266 37.1691402 144.213266 37.2907548 144.171917 37.3925057 144.086787 37.4715551 144.002467 37.5518207 143.911256 37.590332 143.813154 37.590332 143.77667 37.590332 143.687891 37.5676306 143.547224 37.5230386 143.40534 37.4772305 143.281293 37.4549345 143.173461 37.4549345 143.027119 37.4549345 142.906315 37.4938511 142.813482 37.5704683 142.721055 37.6483016 142.647681 37.7626193 142.596198 37.9146375 142.544714 38.0662503 142.509851 38.2466453 142.489582 38.4570385 142.47134 38.6666209 142.4608 38.9216061 142.4608 39.2228048L142.461205 39.2223995 142.461205 39.2223995zM137.830934 38.3078579L139.650287 38.3078579C139.625965 37.9653103 139.533132 37.7082981 139.372601 37.5388485 139.21207 37.3685881 139.001271 37.2830526 138.738989 37.2830526 138.488058 37.2830526 138.283745 37.3693989 138.123214 37.5412808 137.962683 37.7139735 137.864986 37.9701748 137.830934 38.3074526L137.830934 38.3078579zM139.792982 38.8774195L137.830934 38.8774195C137.833366 39.1056495 137.879985 39.3063135 137.968763 39.4806277 138.057947 39.6553473 138.177535 39.7854749 138.3255 39.8734428 138.473464 39.9622214 138.637644 40.006408 138.816012 40.006408 138.93641 40.006408 139.045458 39.9930304 139.144371 39.9638429 139.243689 39.936277 139.34017 39.8924957 139.433003 39.8320938 139.527457 39.7720973 139.612587 39.7076416 139.69042 39.6387267 139.76947 39.5698117 139.870815 39.4765739 139.996484 39.3590132 140.047967 39.3152319 140.120936 39.2925305 140.216201 39.2925305 140.319168 39.2925305 140.403082 39.3209073 140.466727 39.3776607 140.529561 39.4340088 140.561991 39.5130583 140.561991 39.6160253 140.561991 39.7068308 140.525912 39.8130409 140.455376 39.9346554 140.384029 40.0550538 140.277413 40.1718038 140.133097 40.2832838 139.989592 40.3951692 139.810819 40.4875963 139.593534 40.560565 139.376655 40.6347499 139.126939 40.6712343 138.84601 40.6712343 138.201047 40.6712343 137.69959 40.4880017 137.341638 40.1203203 136.984091 39.7530443 136.804912 39.2536139 136.804912 38.6240558 136.804912 38.328127 136.848693 38.0516566 136.938283 37.7982929 137.026251 37.5449292 137.154757 37.3276446 137.32299 37.1460335 137.49244 36.9656385 137.700806 36.8261872 137.949305 36.7297063 138.196588 36.63282 138.471032 36.5837688 138.77223 36.5837688 139.16464 36.5837688 139.500702 36.6664667 139.78082 36.8326733 140.061345 36.9980691 140.271333 37.2113 140.411595 37.473582 140.551046 37.7354587 140.621177 38.0026054 140.621177 38.275022 140.621177 38.5271695 140.547803 38.6905384 140.403892 38.7655341 140.259171 38.839719 140.055264 38.8774195 139.792982 38.8774195L139.792982 38.8774195zM134.505586 36.6810605L134.743951 36.6810605 134.743951 36.3794563C134.743951 36.0660961 134.784083 35.8167863 134.863133 35.630716 134.943398 35.4462673 135.07758 35.3108697 135.268109 35.2269557 135.457828 35.1430416 135.718489 35.1000711 136.048469 35.1000711 136.634246 35.1000711 136.926527 35.2435763 136.926527 35.5305867 136.926527 35.6234191 136.896934 35.7024686 136.83491 35.7693566 136.773292 35.8358392 136.701945 35.8682698 136.618031 35.8682698 136.578709 35.8682698 136.511416 35.8605675 136.415745 35.8467846 136.320886 35.8317854 136.23981 35.8240832 136.173327 35.8240832 135.991716 35.8240832 135.876182 35.8784043 135.824699 35.9850198 135.773215 36.0916352 135.747271 36.243248 135.747271 36.4414798L135.747271 36.6814658 135.992932 36.6814658C136.375207 36.6814658 136.566142 36.7965943 136.566142 37.0260404 136.566142 37.1902201 136.515875 37.2944032 136.414529 37.3385899 136.313184 37.3819657 136.172516 37.4046671 135.992932 37.4046671L135.747271 37.4046671 135.747271 40.06154C135.747271 40.2597717 135.69903 40.4117899 135.605387 40.515973 135.511339 40.6197508 135.389724 40.6712343 135.240543 40.6712343 135.097038 40.6712343 134.979477 40.6197508 134.885429 40.515973 134.790975 40.4117899 134.74314 40.2597717 134.74314 40.06154L134.74314 37.4046671 134.46748 37.4046671C134.3183 37.4046671 134.202766 37.3710204 134.1225 37.3033216 134.041018 37.236839 134.000886 37.1488711 134.000886 37.0410396 134.000886 36.8014589 134.169119 36.6810605 134.505181 36.6810605L134.505586 36.6810605 134.505586 36.6810605zM130.952009 37.1460335L130.952009 37.267648C131.128755 37.0345535 131.321717 36.8638877 131.529678 36.7544346 131.73926 36.6457922 131.980462 36.5914711 132.252474 36.5914711 132.517188 36.5914711 132.75312 36.6494407 132.961486 36.7645691 133.169447 36.8784814 133.325114 37.041445 133.428081 37.2526489 133.494158 37.3754796 133.536723 37.5072287 133.556992 37.6499232 133.576045 37.7922122 133.58618 37.9722017 133.58618 38.1931349L133.58618 40.0611346C133.58618 40.2617986 133.539561 40.4138168 133.447945 40.5167838 133.356328 40.6193454 133.237146 40.6704235 133.089587 40.6704235 132.940407 40.6704235 132.820008 40.6185347 132.72596 40.51273 132.633127 40.4073307 132.586508 40.256934 132.586508 40.06154L132.586508 38.3889343C132.586508 38.0577373 132.539889 37.8043736 132.448273 37.6288433 132.356657 37.4545291 132.173424 37.3665612 131.899791 37.3665612 131.721018 37.3665612 131.557649 37.4188555 131.410901 37.5258763 131.264153 37.6324917 131.155916 37.77924 131.088622 37.9665264 131.039571 38.1157069 131.014843 38.3937989 131.014843 38.8040454L131.014843 40.06154C131.014843 40.2642309 130.967008 40.4162491 130.872554 40.5175946 130.778505 40.61894 130.65689 40.6708289 130.50771 40.6708289 130.361772 40.6708289 130.243806 40.6185347 130.150163 40.5131354 130.057331 40.4077361 130.010712 40.2573394 130.010712 40.06154L130.010712 37.1610326C130.010712 36.9700977 130.052061 36.8274033 130.13638 36.7337601 130.219078 36.6393061 130.33299 36.5914711 130.477306 36.5914711 130.564869 36.5914711 130.64554 36.6129563 130.716887 36.6543053 130.787423 36.6960596 130.844988 36.758083 130.887553 36.8415917 130.930523 36.9255057 130.951603 37.0272566 130.951603 37.1460335L130.952009 37.1460335zM128.242031 38.6313527C128.242031 38.2223224 128.15163 37.9036922 127.972452 37.6754622 127.792057 37.4484484 127.550855 37.334536 127.247224 37.334536 127.050613 37.334536 126.878731 37.3860195 126.729551 37.487365 126.579965 37.5891159 126.464431 37.7382964 126.384571 37.9361228 126.302684 38.1355706 126.262551 38.3666383 126.262551 38.6313527 126.262551 38.8936348 126.302684 39.1218648 126.381733 39.318475 126.461999 39.5142744 126.575506 39.6650765 126.723065 39.7692596 126.872245 39.8730374 127.046559 39.9245209 127.247224 39.9245209 127.550855 39.9245209 127.791651 39.8102032 127.972452 39.580757 128.15163 39.3521217 128.242031 39.035113 128.242031 38.6309473L128.242031 38.6313527zM129.248999 38.6313527C129.248999 38.9297137 129.202786 39.2057788 129.109953 39.4579263 129.015499 39.7100739 128.881318 39.9269532 128.704977 40.109375 128.529041 40.28977 128.318242 40.4292213 128.073797 40.5257022 127.82773 40.6221831 127.553287 40.6708289 127.247224 40.6708289 126.942376 40.6708289 126.66996 40.6221831 126.426325 40.5244861 126.184718 40.426789 125.97473 40.2857161 125.796767 40.1028889 125.618804 39.9212778 125.484218 39.7056147 125.393007 39.4567102 125.30139 39.2074003 125.255177 38.9325514 125.255177 38.6313527 125.255177 38.3277217 125.30139 38.0496297 125.394223 37.7974822 125.488272 37.5449292 125.620831 37.3292661 125.795551 37.1500873 125.968649 36.9717193 126.179042 36.8338894 126.42592 36.7370032 126.674824 36.6405223 126.947241 36.5918764 127.246818 36.5918764 127.550449 36.5918764 127.825298 36.6405223 128.073392 36.7382193 128.320675 36.8359163 128.532689 36.9765838 128.70822 37.1569788 128.884966 37.3394006 129.019553 37.5550638 129.111169 37.8043736 129.20238 38.0540889 129.248594 38.3301539 129.248594 38.6313527L129.248999 38.6313527zM124.582648 38.879041C124.582648 39.048896 124.541299 39.2345609 124.456169 39.4344142 124.372255 39.6350782 124.238885 39.8308777 124.057273 40.0226233 123.876473 40.2143689 123.644595 40.3712517 123.36326 40.4908394 123.081114 40.6112378 122.752349 40.6712343 122.377371 40.6712343 122.094009 40.6712343 121.835375 40.6448845 121.602281 40.5909687 121.370402 40.5370529 121.157982 40.4531388 120.968669 40.3388212 120.779356 40.2249089 120.60342 40.0757283 120.44451 39.8888473 120.302221 39.7206138 120.180607 39.5313005 120.080477 39.3213126 119.979943 39.1121356 119.905352 38.887554 119.85468 38.6504056 119.804412 38.4132572 119.779684 38.1598936 119.779684 37.893963 119.779684 37.4602044 119.842113 37.0714432 119.968997 36.7288955 120.095476 36.3851317 120.276682 36.092446 120.510993 35.8480007 120.74652 35.6043662 121.021369 35.4187013 121.337566 35.291006 121.653764 35.1641215 121.991042 35.1004765 122.348589 35.1004765 122.785185 35.1004765 123.17273 35.1868229 123.514062 35.3615424 123.854177 35.5354513 124.114838 35.7503037 124.296854 36.006505 124.477655 36.262301 124.568865 36.504314 124.568865 36.7329493 124.568865 36.8565908 124.523868 36.9672601 124.4359 37.0625248 124.347932 37.1573842 124.241317 37.2056246 124.115648 37.2056246 123.976197 37.2056246 123.871609 37.1727887 123.802694 37.1059007 123.732157 37.0406342 123.654729 36.9271273 123.569599 36.7653799 123.426094 36.4978278 123.259482 36.29838 123.067331 36.1654147 122.874369 36.0336656 122.637221 35.967183 122.356291 35.967183 121.907128 35.967183 121.550797 36.1378487 121.284867 36.4779641 121.018936 36.8184849 120.885971 37.3033216 120.885971 37.9304474 120.885971 38.3492069 120.945157 38.6978353 121.063123 38.9755219 121.179468 39.2536139 121.346485 39.4619802 121.562148 39.5989992 121.778217 39.7356129 122.030364 39.8049332 122.320212 39.8049332 122.633572 39.8049332 122.898287 39.7266945 123.115166 39.5714333 123.332451 39.4157666 123.495414 39.1871312 123.605678 38.8851217 123.652297 38.7432381 123.709861 38.6277042 123.778776 38.5389256 123.846475 38.4481201 123.957144 38.4047442 124.108757 38.4047442 124.238885 38.4047442 124.35077 38.4497416 124.443602 38.5405471 124.536029 38.6301365 124.583054 38.7436435 124.583054 38.879041L124.582648 38.879041zM114.406752 38.3078579L116.225296 38.3078579C116.201783 37.9657156 116.108546 37.7082981 115.94842 37.5388485 115.787483 37.3685881 115.57709 37.2830526 115.314808 37.2830526 115.063876 37.2830526 114.859159 37.3698043 114.699033 37.5416862 114.538096 37.7143789 114.440399 37.9705802 114.406752 38.3078579L114.406752 38.3078579zM116.368801 38.8778249L114.406752 38.8778249C114.409185 39.1056495 114.455398 39.3063135 114.544582 39.4810331 114.633766 39.6553473 114.752949 39.7854749 114.900913 39.8734428 115.048877 39.9622214 115.213057 40.0068134 115.391425 40.0068134 115.511823 40.0068134 115.621277 39.9930304 115.719784 39.9638429 115.818698 39.936277 115.915584 39.8924957 116.008416 39.8320938 116.10287 39.7720973 116.188406 39.7076416 116.265834 39.639132 116.344883 39.5702171 116.446229 39.4769793 116.571897 39.3590132 116.623381 39.3152319 116.696349 39.2925305 116.791614 39.2925305 116.894581 39.2925305 116.978495 39.3213126 117.04214 39.3776607 117.104974 39.4344142 117.137405 39.5134637 117.137405 39.6164306 117.137405 39.7068308 117.101326 39.8130409 117.031195 39.9346554 116.959442 40.0550538 116.852827 40.1718038 116.708511 40.2832838 116.565411 40.3951692 116.386232 40.4875963 116.169353 40.5609704 115.952068 40.6351553 115.702353 40.6712343 115.421423 40.6712343 114.776461 40.6712343 114.275003 40.4880017 113.917457 40.1207257 113.55991 39.7530443 113.380731 39.2536139 113.380731 38.6240558 113.380731 38.328127 113.424107 38.0516566 113.513696 37.7982929 113.601664 37.5453346 113.73017 37.3280499 113.898809 37.1464389 114.067853 36.9656385 114.27622 36.8261872 114.524719 36.7297063 114.771596 36.63282 115.046445 36.5841742 115.347644 36.5841742 115.740053 36.5841742 116.07652 36.6668721 116.356234 36.8326733 116.637164 36.9984745 116.846746 37.2113 116.987008 37.473582 117.126459 37.7358641 117.196591 38.0030108 117.196591 38.275022 117.196591 38.5271695 117.123622 38.6905384 116.979711 38.7655341 116.83499 38.839719 116.630677 38.8774195 116.368801 38.8774195L116.368801 38.8778249 116.368801 38.8778249zM111.454762 39.2223995L111.454762 40.06154C111.454762 40.2646363 111.407332 40.4166545 111.311662 40.5184053 111.216802 40.6197508 111.094783 40.6716397 110.948034 40.6716397 110.802502 40.6716397 110.684536 40.6201562 110.590487 40.5175946 110.497655 40.4146276 110.451036 40.2626094 110.451036 40.0619453L110.451036 37.2684588C110.451036 36.8180795 110.614405 36.5922818 110.940332 36.5922818 111.106944 36.5922818 111.226126 36.6449815 111.300311 36.7503808 111.374901 36.8553747 111.414629 37.0110413 111.421926 37.2169753 111.541513 37.0110413 111.663939 36.8553747 111.790823 36.7503808 111.917302 36.6449815 112.085536 36.5922818 112.296334 36.5922818 112.507538 36.5922818 112.711445 36.6449815 112.910083 36.7503808 113.107909 36.8553747 113.207227 36.994826 113.207227 37.1691402 113.207227 37.2907548 113.165879 37.3925057 113.080748 37.4715551 112.996429 37.5518207 112.905218 37.5907374 112.807116 37.5907374 112.770226 37.5907374 112.681447 37.568036 112.541185 37.5230386 112.398896 37.4776359 112.274849 37.4553398 112.167423 37.4553398 112.020269 37.4553398 111.899466 37.4942565 111.807038 37.5708737 111.714206 37.6483016 111.641643 37.7630247 111.590159 37.9146375 111.538676 38.0666557 111.503407 38.2470507 111.483544 38.4574439 111.464491 38.6670263 111.454762 38.9220115 111.454762 39.2228048L111.454762 39.2223995 111.454762 39.2223995zM108.456557 38.6544594C108.310214 38.7083752 108.095767 38.7647233 107.815648 38.8251252 107.534719 38.8851217 107.340136 38.9293084 107.232304 38.9580905 107.124472 38.9856564 107.021505 39.0407884 106.923808 39.1238917 106.825706 39.204968 106.77706 39.3192857 106.77706 39.4664394 106.77706 39.6192683 106.834624 39.7485851 106.950158 39.8552006 107.065692 39.9614106 107.216089 40.0145157 107.401754 40.0145157 107.59958 40.0145157 107.782813 39.9707344 107.951046 39.8843881 108.11928 39.7980417 108.24211 39.6849402 108.32116 39.5479211 108.411154 39.3963083 108.456557 39.1465931 108.456557 38.7979646L108.456557 38.6548648 108.456557 38.6544594 108.456557 38.6544594zM108.52304 40.1057266C108.279811 40.2942292 108.0455 40.435302 107.819297 40.529756 107.592283 40.6238046 107.338109 40.6716397 107.056774 40.6716397 106.79814 40.6716397 106.572342 40.6201562 106.378164 40.5184053 106.183581 40.4166545 106.033184 40.2804462 105.927785 40.1057266 105.82198 39.9314124 105.769686 39.7429098 105.769686 39.5398135 105.769686 39.2653699 105.856032 39.03187 106.030752 38.8372867 106.205066 38.6439195 106.443431 38.5137919 106.747873 38.4485255 106.810707 38.4335263 106.968806 38.4006904 107.222169 38.3492069 107.473912 38.2969126 107.690385 38.2502937 107.87078 38.2073232 108.049959 38.163542 108.246164 38.1120585 108.456557 38.0508458 108.44399 37.7857261 108.391291 37.5915482 108.297242 37.4683121 108.201977 37.3442652 108.007394 37.2826472 107.710249 37.2826472 107.455669 37.2826472 107.263518 37.31751 107.135823 37.3892626 107.006506 37.4606098 106.895837 37.5660091 106.804221 37.7091089 106.71301 37.8509926 106.647338 37.9450412 106.610043 37.9900385 106.571126 38.0350359 106.489644 38.0577373 106.365192 38.0577373 106.252901 38.0577373 106.154799 38.0216583 106.072912 37.949095 105.990214 37.8773424 105.950486 37.7845099 105.950486 37.6714084 105.950486 37.4954727 106.011699 37.3244015 106.136962 37.1569788 106.262225 36.9903668 106.457214 36.8533478 106.721523 36.7459216 106.985832 36.6376846 107.315002 36.5837688 107.710249 36.5837688 108.15171 36.5837688 108.497906 36.6360631 108.750054 36.7406516 109.002201 36.8448347 109.180164 37.0090144 109.284347 37.2352175 109.38853 37.4593937 109.44123 37.7593763 109.44123 38.1319222 109.44123 38.3666383 109.440014 38.5673023 109.438798 38.7302659 109.437581 38.8944455 109.436365 39.0776781 109.433528 39.2787475 109.433528 39.4668447 109.465553 39.6634549 109.527982 39.8681728 109.590816 40.0728906 109.620409 40.2042344 109.620409 40.2634201 109.620409 40.3659817 109.572979 40.4604357 109.476498 40.5443498 109.380017 40.6282638 109.269753 40.6708289 109.147733 40.6708289 109.044766 40.6708289 108.943421 40.6221831 108.842886 40.5257022 108.741135 40.4288159 108.636547 40.28977 108.52304 40.1053212L108.52304 40.1057266zM100.591338 37.2165699L101.244814 39.4583317 101.840725 37.3750742C101.903154 37.156168 101.950989 37.0082036 101.982609 36.9283434 102.012607 36.8492939 102.070171 36.7726768 102.154085 36.7001134 102.239621 36.6283608 102.355155 36.5918764 102.501903 36.5918764 102.651083 36.5918764 102.768644 36.6283608 102.852964 36.7001134 102.936878 36.7722714 102.997685 36.8517262 103.031332 36.9356403 103.065384 37.0195543 103.112813 37.1663026 103.174026 37.3746689L103.769937 39.4579263 104.431115 37.2165699C104.476518 37.0544172 104.511381 36.9376672 104.537731 36.8651038 104.565297 36.7933512 104.610699 36.7293009 104.674344 36.674169 104.737989 36.619037 104.830011 36.5914711 104.949193 36.5914711 105.069592 36.5914711 105.173775 36.6324146 105.262553 36.7167341 105.350521 36.7998373 105.394303 36.8975344 105.394303 37.0106359 105.394303 37.1136029 105.357007 37.2688642 105.279985 37.4768251L104.461113 39.8807396C104.389361 40.083836 104.334229 40.2305842 104.295312 40.3222005 104.256396 40.4126007 104.193561 40.4928663 104.109647 40.5642135 104.025733 40.6355607 103.908983 40.6708289 103.762235 40.6708289 103.610217 40.6708289 103.491035 40.6335338 103.403472 40.5569166 103.317126 40.481921 103.25267 40.387467 103.211726 40.2772031 103.168756 40.16775 103.123759 40.0238394 103.075113 39.8479037L102.501497 37.8923415 101.94734 39.8479037C101.873156 40.1203203 101.794106 40.3246328 101.707354 40.462868 101.622224 40.601914 101.471827 40.6708289 101.256164 40.6708289 101.14509 40.6708289 101.051446 40.6497491 100.974829 40.6067786 100.897401 40.5642135 100.833351 40.5025954 100.781867 40.4223298 100.730789 40.3432804 100.684981 40.2492318 100.645254 40.1397787 100.605932 40.0307309 100.576339 39.9439792 100.553637 39.8803343L99.742063 37.4768251C99.6601758 37.2510274 99.620043 37.0957661 99.620043 37.0102305 99.620043 36.902399 99.6630135 36.8055127 99.7493598 36.7203825 99.8348954 36.6340362 99.9398893 36.5914711 100.065558 36.5914711 100.230954 36.5914711 100.344055 36.6393061 100.402835 36.7337601 100.462427 36.8274033 100.52445 36.9879345 100.591338 37.2161645L100.591338 37.2165699 100.591338 37.2165699zM97.3572014 36.6810605L97.4678706 36.6810605 97.4678706 36.0774468C97.4678706 35.9156995 97.4715191 35.7888149 97.4800321 35.697604 97.4893559 35.6047716 97.512868 35.5257221 97.5517847 35.4604556 97.5919175 35.3915407 97.6482656 35.3364088 97.7212343 35.2922221 97.7954192 35.2492517 97.8764956 35.2285772 97.9681119 35.2285772 98.094591 35.2285772 98.2105302 35.2760069 98.3130918 35.3712716 98.3824121 35.4353219 98.4245719 35.5135606 98.4432194 35.6047716 98.4622724 35.697604 98.4711908 35.828137 98.4711908 35.9975866L98.4711908 36.6814658 98.8388721 36.6814658C98.9803504 36.6814658 99.0898035 36.7151125 99.163583 36.7828113 99.2389841 36.8492939 99.2762792 36.9360457 99.2762792 37.0406342 99.2762792 37.175221 99.2223634 37.2704857 99.115748 37.3248069 99.0095379 37.3783173 98.8575197 37.4046671 98.6580718 37.4046671L98.4711908 37.4046671 98.4711908 39.2487493C98.4711908 39.4056321 98.4760554 39.5272466 98.4874061 39.6111607 98.4983514 39.6950747 98.5275389 39.764395 98.5749685 39.8170947 98.6240197 39.8697943 98.7018531 39.8961441 98.8096846 39.8961441 98.8676543 39.8961441 98.9475145 39.886415 99.0484546 39.8649297 99.1485839 39.8434445 99.2280387 39.8337153 99.2827653 39.8337153 99.3646524 39.8337153 99.4372158 39.8661459 99.5024823 39.9314124 99.5681541 39.9966789 99.5993685 40.0757283 99.5993685 40.1722092 99.5993685 40.3339566 99.5114007 40.4567873 99.3342488 40.5423229 99.1591238 40.6286692 98.9053548 40.6712343 98.5741578 40.6712343 98.2607976 40.6712343 98.022433 40.61894 97.8619018 40.5135407 97.6997491 40.4081415 97.5931336 40.2626094 97.5428663 40.0757283 97.4925989 39.8900634 97.468276 39.6415643 97.468276 39.3306364L97.468276 37.4050725 97.3365269 37.4050725C97.1905894 37.4050725 97.0803255 37.3710204 97.0049245 37.3021055 96.9287127 37.2331906 96.8910122 37.1468442 96.8910122 37.0410396 96.8910122 36.9360457 96.931145 36.8492939 97.0101945 36.7832167 97.0904601 36.7155179 97.2055885 36.6818712 97.3572014 36.6818712L97.3572014 36.6810605 97.3572014 36.6810605zM94.7153277 36.6810605L94.9536922 36.6810605 94.9536922 36.3798617C94.9536922 36.0665015 94.993825 35.8167863 95.0732799 35.6311214 95.1531401 35.4466726 95.2873215 35.3112751 95.4782564 35.227361 95.6671643 35.143447 95.9286356 35.1004765 96.2582111 35.1004765 96.8443933 35.1004765 97.1366736 35.2435763 97.1366736 35.5309921 97.1366736 35.6238245 97.10627 35.702874 97.0450573 35.769762 96.9838447 35.8358392 96.9116867 35.8686752 96.8277726 35.8686752 96.788856 35.8686752 96.7211572 35.8609729 96.6258925 35.8471899 96.5302223 35.8321908 96.4503621 35.8244885 96.3834741 35.8244885 96.201863 35.8244885 96.0863292 35.8788097 96.0348457 35.9854252 95.9833622 36.0920406 95.9570124 36.2436534 95.9570124 36.4418852L95.9570124 36.6818712 96.2030792 36.6818712C96.5853543 36.6818712 96.7762891 36.7969997 96.7762891 37.0264458 96.7762891 37.1906255 96.7260218 37.2948086 96.6242709 37.3385899 96.5229255 37.3823711 96.382258 37.4050725 96.2030792 37.4050725L95.9570124 37.4050725 95.9570124 40.0619453C95.9570124 40.2601771 95.9091773 40.4117899 95.8151287 40.5163784 95.7206747 40.6197508 95.5994655 40.6712343 95.4498796 40.6712343 95.3071852 40.6712343 95.1892191 40.6197508 95.0951705 40.5163784 95.0011219 40.4121953 94.9532868 40.2601771 94.9532868 40.0619453L94.9532868 37.4050725 94.6772218 37.4050725C94.5280412 37.4050725 94.4125074 37.3714258 94.3322418 37.303727 94.25076 37.2372444 94.2110326 37.1492765 94.2110326 37.0410396 94.2110326 36.8014589 94.3788607 36.6814658 94.7153277 36.6814658L94.7153277 36.6810605zM92.99813 38.6317581C92.99813 38.2227277 92.9077299 37.9040976 92.7281457 37.6758676 92.5477508 37.4488537 92.3069539 37.334536 92.0033229 37.334536 91.8063073 37.334536 91.6344254 37.3860195 91.4852448 37.487365 91.3360643 37.5895213 91.2205305 37.7387018 91.1402649 37.9365281 91.0587831 38.1355706 91.0186503 38.3670437 91.0186503 38.6313527 91.0186503 38.8940401 91.0587831 39.1222701 91.138238 39.3188804 91.2180982 39.5146798 91.3311997 39.6654819 91.4787587 39.7692596 91.6283446 39.8734428 91.8026589 39.9249263 92.0033229 39.9249263 92.3065485 39.9249263 92.5477508 39.8106086 92.7281457 39.5811624 92.9081352 39.352527 92.99813 39.035113 92.99813 38.6313527L92.99813 38.6317581 92.99813 38.6317581zM94.0050986 38.6317581C94.0050986 38.9305245 93.9588851 39.2061842 93.8656472 39.4583317 93.772004 39.7104792 93.6378226 39.9273586 93.4606707 40.1097804 93.2855458 40.2901753 93.0743418 40.4296267 92.8294912 40.5257022 92.5838297 40.6225885 92.3089808 40.6712343 92.0029175 40.6712343 91.6980703 40.6712343 91.4260591 40.6225885 91.1824246 40.5248914 90.9404116 40.4271944 90.7312345 40.2861215 90.5528665 40.1032943 90.3749039 39.9216832 90.2407225 39.7056147 90.1487008 39.4571156 90.0574899 39.2078057 90.0108709 38.9325514 90.0108709 38.6317581 90.0108709 38.328127 90.0574899 38.0500351 90.1499169 37.7974822 90.2443709 37.5453346 90.3769308 37.3296715 90.551245 37.1504927 90.7243431 36.9721246 90.935547 36.8342948 91.1824246 36.7374085 91.4305183 36.6409277 91.7029349 36.5918764 92.0025121 36.5918764 92.3061432 36.5918764 92.5809921 36.6409277 92.8294912 36.7386247 93.0767741 36.8363217 93.2883834 36.9769892 93.4643192 37.1573842 93.6410657 37.339806 93.7752471 37.5554692 93.8668634 37.804779 93.9584797 38.0544943 94.0050986 38.3305593 94.0050986 38.6313527L94.0050986 38.6317581 94.0050986 38.6317581zM89.3926636 38.9617389C89.3926636 39.2876659 89.3087495 39.5811624 89.1405161 39.8410122 88.9739041 40.1004566 88.7278373 40.3039583 88.4039372 40.4503012 88.0808478 40.5970494 87.6977619 40.6712343 87.2542742 40.6712343 86.7220078 40.6712343 86.2841953 40.571105 85.9379992 40.3704409 85.6935539 40.2249089 85.494106 40.0331632 85.3408717 39.7911502 85.1880427 39.5503534 85.1114256 39.3156373 85.1114256 39.0870019 85.1114256 38.9556582 85.1580445 38.8413405 85.2492554 38.7472919 85.3408717 38.6532433 85.4572163 38.6058136 85.6007215 38.6058136 85.7162553 38.6058136 85.8127362 38.6431088 85.8930018 38.7156721 85.9720513 38.789857 86.0393447 38.8989047 86.0960981 39.0436261 86.1650131 39.215508 86.2391979 39.3582024 86.3194636 39.4733308 86.398513 39.5880539 86.5116146 39.6829133 86.6559305 39.7583143 86.7998411 39.8324992 86.9895598 39.8701997 87.2250867 39.8701997 87.5489868 39.8701997 87.8112689 39.7947987 88.013149 39.644402 88.2154346 39.4935999 88.3167801 39.3055027 88.3167801 39.0801104 88.3167801 38.9017424 88.2628643 38.7562103 88.1534112 38.6443249 88.0447688 38.5328449 87.9028852 38.4473093 87.7305979 38.3897451 87.5579052 38.3305593 87.3268375 38.2681305 87.0369895 38.2016479 86.6506605 38.1112477 86.3259497 38.0042269 86.0648837 37.8838285 85.8038178 37.7626193 85.597073 37.5968181 85.4438387 37.3876411 85.2910097 37.1780586 85.2143925 36.9182089 85.2143925 36.607281 85.2143925 36.3109468 85.2950635 36.0474486 85.4568109 35.8167863 85.6181529 35.5869348 85.8532744 35.4105936 86.1589323 35.2861414 86.4649956 35.1620946 86.8253801 35.1004765 87.2388697 35.1004765 87.5700667 35.1004765 87.8562663 35.1418255 88.0974685 35.2233072 88.3394815 35.3060051 88.5389293 35.4138367 88.6982444 35.5508558 88.8579649 35.6862533 88.9739041 35.8289477 89.048089 35.9781283 89.1210577 36.1273088 89.1587582 36.2732463 89.1587582 36.4159407 89.1587582 36.5456629 89.1125447 36.6624129 89.020523 36.7661907 88.9289067 36.8699684 88.8137783 36.9226681 88.6767592 36.9226681 88.5514962 36.9226681 88.4570422 36.8914537 88.3921811 36.8290248 88.3269146 36.7674068 88.2567836 36.6648452 88.1817879 36.5225561 88.0824693 36.3194598 87.9657194 36.1597394 87.8282949 36.0462324 87.6912758 35.9319147 87.4707481 35.8751613 87.1671171 35.8751613 86.8841605 35.8751613 86.657552 35.9371847 86.4856701 36.0608262 86.3125721 36.1852784 86.2258203 36.3332428 86.2258203 36.507557 86.2258203 36.6153886 86.2550078 36.708221 86.3137882 36.7860544 86.372974 36.8655092 86.4544557 36.9328026 86.5574227 36.9891507 86.6603897 37.0442826 86.7641675 37.08928 86.8695668 37.1213052 86.9749661 37.1525196 87.1480641 37.1987331 87.3912932 37.2603512 87.6949243 37.3316984 87.9693678 37.4095317 88.21584 37.495878 88.4631229 37.5814136 88.6710838 37.6851914 88.8437765 37.8084275 89.0168746 37.930042 89.151056 38.0853033 89.2483476 38.2721843 89.3448285 38.4606869 89.3934743 38.6905384 89.3934743 38.9613335L89.3926636 38.9617389 89.3926636 38.9617389zM63.5622167 13.7309329C63.3631742 15.1947668 61.3265356 13.1350215 59.804732 13.9814589 58.2995491 14.8193832 57.6553973 16.6083335 56.0910286 17.2970773 55.1821625 17.6975946 54.3803171 16.7461633 53.5282044 16.5013126 53.3238919 17.8800164 52.4162419 18.9194156 51.518321 19.9126012 50.7172864 22.0785565 55.9686033 19.2976368 55.2701303 21.8714064 54.8254264 23.5095546 52.6602818 22.864592 51.2969825 23.8002134 51.1149661 25.007846 52.1523383 25.4963312 52.9947218 25.926036 54.3272121 26.605456 53.3697001 26.9650297 53.0389085 26.6322112 52.3298955 25.9191445 52.283682 26.4295203 52.4040804 26.5637017 52.8836472 27.0996165 52.5982584 26.8681435 53.5764448 27.6103977 54.0965498 28.0052396 53.6032 28.7049287 53.1045803 28.3891363 52.378136 27.6541789 52.2257124 26.8770619 51.8199251 27.0059733 51.276308 27.2021781 52.1523383 27.71904 52.484346 28.8678923 52.7717618 29.8614833 51.4453523 29.9632341 51.5402116 29.0620702 51.6456109 28.0583446 51.2426613 27.4308135 51.0063237 27.4425696 50.6876936 27.4579741 51.3095494 29.4321838 50.557566 29.3620528 49.8440939 29.2959755 50.2202882 28.0696953 50.2604211 27.9278117 50.6783698 26.4680315 50.435546 26.4789768 49.7540991 25.1229745 49.4099299 24.4362576 47.6242227 23.0612022 48.5870047 22.452724 51.89411 21.4080549 48.144733 21.5154811 47.8439397 20.7768753 47.8439397 20.6605307 47.832589 20.6536392 47.7316489 20.7124196 46.941965 20.8206566 45.1599062 17.5204427 45.909052 20.9065975 45.8636492 22.0449098 43.7795809 21.1859056 43.0130038 21.2304976 41.4976863 21.3188709 41.3858009 21.1036131 40.3305919 22.1944958 40.2280303 22.3007058 39.354027 23.2391649 38.9401321 22.6546042 38.5035358 22.0384237 40.5235537 21.5900714 40.3780216 21.3063041 40.2697846 21.0959109 39.5250981 21.0606426 38.7082536 21.6541217 37.9757286 22.1859827 37.4008971 20.9864578 38.4046226 20.7387694 39.5656363 20.4521644 40.4509903 20.9524057 40.3496449 20.3832495 40.2580286 19.9673277 39.5092882 20.2239344 38.5092111 19.9624631 37.9866739 19.688425 38.3458422 18.9109025 38.9474289 19.1642662 40.0788498 19.6401845 39.7367075 19.5088408 40.4404504 19.6568052 40.6163861 19.6936949 41.035551 19.3985769 40.0634452 19.1411594 39.6094175 19.020761 39.4428056 18.0117655 40.6974625 18.8261777 41.4907948 19.3410127 42.4320916 19.9952991 43.3871713 19.2331811 43.5156773 17.5848984 41.8742861 16.0322858 43.0709734 14.8283016 44.9507292 12.9363844 45.1680139 18.8744182 46.6431985 17.0980348 47.0546611 15.8239195 47.5005812 14.5177791 48.5922746 13.651478 47.9542035 13.0361083 46.7295449 12.8172021 46.6221187 11.8300972 46.4368592 10.1311418 47.6635447 8.67865851 47.6363841 6.9561909 47.6088182 5.21467035 44.8064132 4.48092915 45.9747238 3.57652217 46.866564 2.88575145 47.0773625 5.07319207 47.7446211 4.51984581 48.3174257 4.04554901 47.0684441 3.45004303 47.6023321 2.57766122 47.7040829 2.41104927 47.9870395 2.4013201 48.1556783 2.49415255 49.0069803 2.9652063 48.0733858 4.12622 48.7211861 4.27337362 49.4772233 4.41566266 48.9806305 2.37415952 49.8072041 2.49374717 51.1490181 2.68792509 49.1168388 4.32485712 49.7780166 4.9852242 50.4241953 5.63018677 50.8871414 3.97136412 51.732768 4.35039618 52.1272046 4.52754806 51.8333027 5.16359223 51.4198132 5.36263473 50.490678 5.80936556 49.7885565 5.90138725 49.4751963 7.02064662 49.1646738 8.14841901 48.8861765 9.38077992 49.1857537 10.5381452 49.5976217 11.3724211 50.8851145 11.3955279 51.3642759 10.84583 51.7364165 10.4177468 51.2746865 9.7034639 51.3517091 9.13957771 51.515078 8.48691288 52.2273339 8.31503096 52.784734 8.15206745 53.716707 7.89870377 54.7261078 6.81430724 55.5648429 7.27522644L55.5644376 7.27522644C56.3829036 7.77100848 55.9487396 9.18741277 56.1948064 10.1214126 56.3326362 10.6852988 56.5401917 11.3886364 56.0565712 11.8560417 55.6061919 12.2042647 54.7569169 12.1616996 54.5724681 12.6980198 54.3353197 13.3883852 55.000146 14.4918347 55.9280651 14.4314328 57.0805658 14.1115865 58.0080795 13.2542038 58.8293832 12.4219548 59.6421739 11.5901112 59.370568 10.9362302 59.2935455 9.90858713 59.2586826 9.45091099 59.6628484 8.87851178 60.0130983 9.13106469 60.7646763 9.67427641 59.559476 10.9046104 60.4411816 11.1417588 61.3435616 11.3841772 61.7452951 8.80594842 62.5836248 9.87088662 63.1004867 10.5271999 61.084928 11.1174359 61.58598 11.7007804 62.03717 12.1884548 62.5755172 10.8000219 63.4093877 11.3010739 63.5743781 11.4003924 63.7065326 11.6505131 63.6137002 11.8219896 63.125215 12.7207212 61.9848758 11.9371181 61.8608289 12.6700485 61.7152968 13.5241881 63.7146403 12.6128897 63.5622167 13.7309329M50.4781111.761550399C42.0161698.761550399 35.1534599 7.62385486 35.1534599 16.0857962 35.1534599 24.5477376 42.0161698 31.4096366 50.4781111 31.4096366 58.9396471 31.4096366 65.8019516 24.5477376 65.8019516 16.0857962 65.8019516 7.62385486 58.9396471.761550399 50.4781111.761550399"/>
  </g>
</svg>
