<svg xmlns="http://www.w3.org/2000/svg" width="198" height="116" viewBox="0 0 198 116">
  <path fill="#828889" fill-rule="evenodd" d="M33.6526217,52.2436381 L32.9294955,49.7560841 C32.0231729,49.4475488 30.9336737,49.2932834 29.6609653,49.2932834 C26.4406275,49.2932834 24.8304827,51.6554719 24.8304827,56.3799197 C24.8304827,60.8536825 26.4695522,63.0905303 29.7477405,63.0905303 C30.1912601,63.0905303 30.6781601,63.0471432 31.2084553,62.9603676 C31.7387505,62.873592 32.1581594,62.7916386 32.4666948,62.7145047 L32.9294955,62.5698795 L32.9294955,58.9253237 L30.7601171,58.2600476 L30.7601171,55.8881939 L39.0905303,55.7435686 L39.0905303,58.2600476 L37.1236272,58.9253237 L37.1236272,64.8260331 C36.8922257,64.9803008 36.5692325,65.1634909 36.1546382,65.3756089 C35.7400438,65.587727 34.8481971,65.8721538 33.4790714,66.2288978 C32.1099457,66.5856418 30.7022742,66.7640111 29.2560147,66.7640111 C26.3056453,66.7640111 24.0254103,65.8914477 22.4152413,64.1462945 C20.8050724,62.4011413 20,59.8605835 20,56.5245449 C20,53.1499393 20.8773843,50.4985033 22.6321792,48.5701573 C24.3869741,46.6418112 26.7588041,45.6776527 29.7477405,45.6776527 C30.7890473,45.6776527 31.8689049,45.7885309 32.9873456,46.0102907 C34.1057863,46.2320505 34.973529,46.4586277 35.5905998,46.6900293 L36.4872762,47.0371298 L36.3426509,52.2436381 L33.6526217,52.2436381 Z M40.8260331,44.2314004 L47.5077187,44 L47.5077187,63.3797808 L50.255598,64.1029069 L50.255598,66.4169106 L40.8260331,66.4169106 L40.8260331,64.1029069 L43.1400367,63.3797808 L43.1400367,47.123905 L40.8260331,46.545404 L40.8260331,44.2314004 Z M66.9453495,66.2144353 L61.2181904,66.4169106 L60.6975396,64.5367826 C60.5239885,64.6910503 60.2925904,64.8887028 60.0033385,65.129746 C59.7140866,65.3707893 59.1596954,65.6937824 58.3401484,66.0987351 C57.5206013,66.5036878 56.7444537,66.7061611 56.0116822,66.7061611 C54.6039896,66.7061611 53.5048488,66.310856 52.7142269,65.5202342 C51.9236051,64.7296123 51.5283001,63.6111884 51.5283001,62.1649288 C51.5283001,58.9831579 53.8422806,57.3922963 58.4703111,57.3922963 L60.4950643,57.3922963 L60.4950643,55.8014187 C60.4950643,54.3551592 59.7526622,53.6320403 58.2678358,53.6320403 C57.8243162,53.6320403 57.3904448,53.6706066 56.9662087,53.7477405 C56.5419726,53.8248743 56.2238002,53.902007 56.0116822,53.9791408 L55.7224317,54.065916 L55.288556,55.946044 L52.6853019,55.946044 L52.4828266,51.6651372 C54.8161253,50.8937988 56.9083493,50.5081353 58.7595615,50.5081353 C60.957876,50.5081353 62.5101713,50.9371859 63.4164939,51.7952999 C64.3228166,52.6534139 64.7759711,54.1333972 64.7759711,56.2352944 L64.7759711,63.3797808 L66.9453495,63.9004316 L66.9453495,66.2144353 Z M55.6935067,61.7310532 C55.6935067,62.8880608 56.2623602,63.4665559 57.4000844,63.4665559 C57.8628874,63.4665559 58.3497875,63.3267529 58.8607992,63.0471427 C59.3718109,62.7675326 59.7719367,62.4831058 60.0611886,62.1938539 L60.4950643,61.7889032 L60.4950643,59.8509252 L58.8463367,59.8509252 C57.727896,59.8509252 56.9228236,60.0003697 56.4310953,60.2992634 C55.9393671,60.598157 55.6935067,61.0754155 55.6935067,61.7310532 L55.6935067,61.7310532 Z M71.4287317,61.3550276 L71.660132,63.3797808 C72.2964862,63.5726154 73.0870962,63.6690312 74.0319858,63.6690312 C75.5553792,63.6690312 76.3170644,63.1483856 76.3170644,62.1070788 C76.3170644,61.6635592 76.0567416,61.2827165 75.5360882,60.9645394 C75.0154347,60.6463623 74.3790901,60.3715772 73.6270351,60.1401756 C72.8749802,59.9087741 72.1229365,59.6339889 71.3708816,59.3158118 C70.6188266,58.9976347 69.982482,58.5107347 69.4618285,57.855097 C68.9411751,57.1994593 68.6808523,56.3992077 68.6808523,55.4543182 C68.6808523,53.7573737 69.2497058,52.5087883 70.38743,51.7085247 C71.5251542,50.9082611 72.9424672,50.5081353 74.6394118,50.5081353 C75.4107502,50.5081353 76.2447473,50.5804472 77.1414282,50.7250732 C78.0381091,50.8696991 78.7467657,51.0095021 79.2674191,51.1444863 L80.0194703,51.3758867 C79.9809034,52.3400597 79.942337,53.7862976 79.9037701,55.7146436 L77.3583661,55.7146436 L76.9244904,53.8345156 C76.4231204,53.641681 75.7867758,53.5452652 75.0154374,53.5452652 C74.4176501,53.5452652 73.9452124,53.6754266 73.5981101,53.9357533 C73.2510078,54.19608 73.0774593,54.5576394 73.0774593,55.0204425 C73.0774593,55.4639621 73.3426029,55.8399839 73.872898,56.1485193 C74.4031932,56.4570547 75.0395378,56.7270191 75.7819511,56.9584206 C76.5243643,57.1898221 77.2715872,57.4549657 78.0236421,57.7538593 C78.7756971,58.052753 79.4168625,58.5203699 79.9471577,59.1567241 C80.4774528,59.7930783 80.7425964,60.5740467 80.7425964,61.4996528 C80.7425964,63.1387469 80.1399973,64.416257 78.9347811,65.3322214 C77.7295648,66.2481857 76.1145992,66.7061611 74.0898359,66.7061611 C73.2799305,66.7061611 72.431471,66.6531323 71.5444318,66.5470733 C70.6573927,66.4410143 69.9728401,66.3397776 69.4907536,66.2433603 L68.7676274,66.06981 L68.7676274,61.3550276 L71.4287317,61.3550276 Z M90.548187,66.4169106 L92.6307903,53.4006399 L90.1721614,52.822139 L90.4614119,51.2312615 L95.7546953,51.0866363 L93.672092,64.1029069 L96.1307209,64.5367826 L95.8703955,66.1276601 L90.548187,66.4169106 Z M96.0873333,47.5867057 C95.7305893,48.0880757 95.272614,48.3387569 94.7133936,48.3387569 C94.1541733,48.3387569 93.7299435,48.2085955 93.4406916,47.9482688 C93.1514397,47.6879421 93.0068159,47.2637123 93.0068159,46.6755667 C93.0068159,46.0874212 93.1851853,45.5426716 93.5419293,45.0413017 C93.8986733,44.5399317 94.3566486,44.2892505 94.915869,44.2892505 C95.4750893,44.2892505 95.8993191,44.4194119 96.188571,44.6797386 C96.4778229,44.9400653 96.6224467,45.3642951 96.6224467,45.9524406 C96.6224467,46.5405861 96.4440773,47.0853357 96.0873333,47.5867057 L96.0873333,47.5867057 Z M101.076904,61.7889032 L101.105829,64.2475321 C101.684333,64.4789337 102.431555,64.5946327 103.34752,64.5946327 C104.263484,64.5946327 105.010707,64.3921594 105.589211,63.9872067 C106.167715,63.5822541 106.456962,63.0616084 106.456962,62.4252543 C106.456962,61.7889001 106.240027,61.277896 105.806149,60.8922268 C105.372271,60.5065576 104.841984,60.1691021 104.215271,59.8798502 C103.588559,59.5905983 102.961856,59.272426 102.335143,58.9253237 C101.708431,58.5782214 101.178144,58.1106045 100.744266,57.522459 C100.310388,56.9343134 100.093452,56.2352985 100.093452,55.4253931 C100.093452,53.9019998 100.643023,52.7498303 101.74218,51.9688502 C102.841337,51.18787 104.239367,50.7973858 105.936311,50.7973858 C107.228303,50.7973858 108.452785,50.9709343 109.609792,51.3180366 L110.217218,51.5205119 L109.523017,55.4253931 L107.642889,55.4253931 L107.469339,53.1692396 C107.045103,52.9956884 106.4184,52.9089141 105.589211,52.9089141 C104.760022,52.9089141 104.094753,53.0824627 103.593383,53.429565 C103.092013,53.7766673 102.841332,54.2539257 102.841332,54.8613547 C102.841332,55.4687837 103.063088,55.9797878 103.506608,56.3943822 C103.950127,56.8089766 104.490056,57.170536 105.12641,57.4790714 C105.762764,57.7876068 106.40393,58.1154207 107.049926,58.462523 C107.695922,58.8096253 108.240671,59.2627798 108.684191,59.8220001 C109.12771,60.3812205 109.349467,61.0368483 109.349467,61.7889032 C109.349467,63.2930132 108.756509,64.4885698 107.570577,65.3756089 C106.384644,66.2626481 104.808244,66.7061611 102.841332,66.7061611 C101.395072,66.7061611 100.141666,66.5326125 99.0810756,66.1855102 L98.5025746,65.9830349 L99.1967757,61.7889032 L101.076904,61.7889032 Z M120.340984,63.8136565 L120.803785,65.3756089 C119.357526,66.2626481 118.094478,66.7061611 117.014604,66.7061611 C115.066975,66.7061611 114.093174,65.5588124 114.093174,63.2640806 C114.093174,62.7048602 114.151024,62.0877988 114.266725,61.4128776 L115.539427,53.4006399 L112.675847,53.4006399 L112.994023,51.5205119 L115.886527,51.2312615 L116.465028,47.5867057 L119.328608,47.0082048 L118.634407,51.2312615 L122.626063,51.2312615 L122.278962,53.4006399 L118.287306,53.4006399 L117.043529,61.1236272 C116.927828,61.8756821 116.869979,62.4975644 116.869979,62.9892927 C116.869979,63.4810209 116.956753,63.8377596 117.130304,64.0595194 C117.303855,64.2812791 117.544895,64.3921574 117.85343,64.3921574 C118.431934,64.3921574 119.126128,64.2475336 119.936034,63.9582817 L120.340984,63.8136565 Z M130.0598,69.5986656 C130.0598,68.8658942 130.310481,68.2102663 130.811851,67.6317625 C131.313221,67.0532587 131.814583,66.6579537 132.315953,66.4458356 L133.09693,66.1276601 C132.961945,66.1083767 132.798038,66.0698103 132.605204,66.01196 C132.412369,65.9541096 132.156867,65.7612779 131.83869,65.433459 C131.520513,65.1056402 131.361427,64.7006936 131.361427,64.2186071 C131.361427,63.6208198 131.862789,62.5313207 132.865529,60.9500769 C131.380703,59.9666204 130.638301,58.4625331 130.638301,56.4377697 C130.638301,54.5287072 131.279466,53.0631862 132.561816,52.0411628 C133.844166,51.0191394 135.516981,50.5081353 137.580312,50.5081353 C138.872304,50.5081353 140.010011,50.7395334 140.993467,51.2023364 L145.968575,51.0866363 L145.968575,53.4006399 L143.596721,53.8055906 C143.596721,53.824874 143.644929,53.9550354 143.741346,54.1960787 C143.837764,54.4371219 143.919717,54.7215487 143.987209,55.0493675 C144.054701,55.3771864 144.088447,55.7242835 144.088447,56.0906692 C144.088447,58.0961491 143.461744,59.585774 142.208319,60.5595888 C140.954894,61.5334035 139.267617,62.0203036 137.146436,62.0203036 C136.915034,62.0203036 136.688457,62.010662 136.466697,61.9913786 C136.244938,61.9720951 136.061748,61.9479911 135.917122,61.919066 C135.772496,61.8901408 135.690542,61.8756784 135.671259,61.8756784 L135.555558,63.8136565 L139.836465,63.8136565 C141.687677,63.8136565 143.114632,64.1993199 144.117372,64.9706583 C145.120112,65.7419967 145.621474,66.8507791 145.621474,68.2970386 C145.621474,69.9554162 144.941743,71.285955 143.582259,72.2886949 C142.222775,73.2914349 140.202863,73.7927973 137.522462,73.7927973 C135.092746,73.7927973 133.241561,73.474625 131.968853,72.8382708 C130.696144,72.2019166 130.0598,71.122059 130.0598,69.5986656 L130.0598,69.5986656 Z M137.435686,53.4874151 C135.796592,53.4874151 134.977058,54.4033657 134.977058,56.2352944 C134.977058,58.1636405 135.748384,59.127799 137.291061,59.127799 C138.1781,59.127799 138.809624,58.896401 139.185652,58.4335979 C139.561679,57.9707949 139.74969,57.2380344 139.74969,56.2352944 C139.74969,54.4033657 138.978363,53.4874151 137.435686,53.4874151 L137.435686,53.4874151 Z M138.679463,66.9954115 L135.642334,66.9954115 C135.545916,67.0339784 135.420576,67.1014695 135.266308,67.1978868 C135.11204,67.2943041 134.904746,67.506419 134.64442,67.8342378 C134.384093,68.1620567 134.253931,68.5091538 134.253931,68.8755395 C134.253931,69.5697441 134.538358,70.0325402 135.10722,70.2639417 C135.676082,70.4953432 136.596854,70.6110423 137.869562,70.6110423 C139.180837,70.6110423 140.125713,70.4567769 140.704217,70.1482415 C141.28272,69.8397062 141.571968,69.3383437 141.571968,68.6441391 C141.571968,68.0270684 141.345391,67.5980178 140.892229,67.3569746 C140.439068,67.1159313 139.701487,66.9954115 138.679463,66.9954115 L138.679463,66.9954115 Z M149.20818,61.5285778 L149.20818,53.8634407 L147.096652,53.3427898 L147.096652,51.0287862 L153.489087,50.7973858 L153.489087,60.7186765 C153.489087,61.5092984 153.614428,62.0926143 153.865113,62.4686418 C154.115798,62.8446693 154.530386,63.0326802 155.10889,63.0326802 C155.648826,63.0326802 156.203218,62.9025188 156.77208,62.6421921 C157.340942,62.3818654 157.779634,62.1167218 158.088169,61.8467533 L158.522045,61.4418027 L158.522045,53.8634407 L156.381592,53.3427898 L156.381592,51.0287862 L162.774027,50.7973858 L162.774027,63.3797808 L164.97233,63.9582817 L164.97233,66.2144353 L159.071621,66.4169106 L158.78237,64.3921574 C158.72452,64.4500078 158.632925,64.5319612 158.507582,64.6380203 C158.38224,64.7440793 158.136379,64.9320902 157.769994,65.2020587 C157.403608,65.4720271 157.027586,65.708246 156.641917,65.9107223 C156.256248,66.1131986 155.788631,66.2963887 155.239052,66.4602982 C154.689474,66.6242076 154.164007,66.7061611 153.662637,66.7061611 C152.216378,66.7061611 151.112416,66.2530065 150.350719,65.3466839 C149.589023,64.4403613 149.20818,63.167672 149.20818,61.5285778 L149.20818,61.5285778 Z M172.955643,66.7061611 C171.355116,66.7061611 170.255975,66.1903362 169.658188,65.1586711 C169.0604,64.127006 168.761511,62.3288503 168.761511,59.76415 L168.761511,54.3551664 L166.071482,54.3551664 L166.071482,51.6072871 L168.761511,51.2312615 L168.761511,47.2396051 L173.013493,46.4586289 L173.013493,51.2312615 L177.062999,51.2312615 L177.062999,54.3551664 L173.013493,54.3551664 L173.013493,60.8922268 C173.013493,61.8563998 173.11955,62.5313108 173.331668,62.91698 C173.543787,63.3026492 173.948733,63.495481 174.54652,63.495481 C175.240725,63.495481 176.00241,63.2737245 176.831599,62.8302049 L177.872901,64.9128082 C176.175956,66.1083827 174.536887,66.7061611 172.955643,66.7061611 L172.955643,66.7061611 Z"/>
</svg>
