<svg xmlns="http://www.w3.org/2000/svg" width="198" height="116" viewBox="0 0 198 116">
  <g fill="none" fill-rule="evenodd">
    <g fill="#828889" transform="translate(44 38)">
      <path d="M14.5951503,29.9472152 C6.57939869,29.944557 0.00379084967,23.4425316 0,15.3979747 L0,15.3979747 C0.00530718954,7.35721519 6.57067974,0.775443038 14.5966667,0.770506329 L14.5966667,0.770506329 L93.3015294,0.849113924 C101.316523,0.852151899 107.891373,7.34734177 107.897817,15.3189873 L107.897817,15.3189873 C107.895542,23.4368354 101.318039,29.9464557 93.3015294,29.9472152 L93.3015294,29.9472152 L93.3015294,28.9249367 L93.3015294,27.9022785 C96.7504444,27.9022785 99.8843399,26.5044304 102.164915,24.2297468 L102.164915,24.2297468 C104.443974,21.9527848 105.856444,18.814557 105.856444,15.3193671 L105.856444,15.3193671 C105.856444,11.9092405 104.447386,8.80898734 102.167569,6.55025316 L102.167569,6.55025316 C99.8869935,4.29303797 96.7504444,2.89367089 93.3007712,2.89367089 L93.3007712,2.89367089 L14.5951503,2.81468354 C11.1504052,2.81468354 8.01613072,4.23 5.73403922,6.51607595 L5.73403922,6.51607595 C3.45308497,8.80329114 2.04023529,11.9456962 2.04023529,15.3979747 L2.04023529,15.3979747 C2.04099346,18.8510127 3.45156863,21.9702532 5.73100654,24.2377215 L5.73100654,24.2377215 C8.0115817,26.5036709 11.1466144,27.9018987 14.5951503,27.9018987 L14.5951503,27.9018987 L93.3015294,27.9018987 L93.3015294,28.924557 L93.3015294,29.9468354 L14.5951503,29.9468354 L14.5951503,29.9472152 L14.5951503,29.9472152 Z"/>
      <polygon points="33.057 17.831 29.322 9.033 29.322 7.917 33.057 7.917"/>
      <path d="M77.3473595 23.5431646C73.3502876 23.0836709 70.2709804 19.6040506 70.2709804 15.4674684 70.2709804 11.3308861 73.3502876 7.91696203 77.3473595 7.39177215L77.3473595 23.5431646 77.3473595 23.5431646zM79.3125359 23.5431646C83.3748105 23.0183544 86.4537386 19.6040506 86.4537386 15.4674684 86.4537386 11.3308861 83.3092288 7.85126582 79.3125359 7.39177215L79.3125359 23.5431646 79.3125359 23.5431646z"/>
      <polygon points="64.817 16.971 60.03 7.927 53.596 7.927 61.522 23.42"/>
      <polygon points="21.187 7.927 26.837 7.927 33.036 22.162 33.036 22.948 27.387 22.948 21.266 8.714"/>
      <polygon points="65.68 14.926 62.071 7.927 69.369 7.927"/>
      <path d="M43.4086405 23.5431646C39.3467451 23.0836709 36.2674379 19.6040506 36.2674379 15.4674684 36.2674379 11.3308861 39.4123268 7.91696203 43.4086405 7.39177215L43.4086405 23.5431646 43.4086405 23.5431646zM45.3086144 23.5431646C49.3053072 23.0183544 52.4501961 19.6040506 52.4501961 15.4674684 52.4501961 11.3308861 49.3708889 7.85126582 45.3086144 7.39177215L45.3086144 23.5431646 45.3086144 23.5431646z"/>
      <polygon points="21.264 12.973 25.064 21.771 25.064 22.887 21.264 22.887"/>
      <path d="M0.146326797,3.74772152 C0.146326797,1.88734177 1.65015686,0.380126582 3.50691503,0.379367089 L3.50691503,0.379367089 C5.36253595,0.380126582 6.8667451,1.88734177 6.8667451,3.74772152 L6.8667451,3.74772152 C6.8667451,5.60696203 5.36215686,7.11455696 3.50691503,7.11455696 L3.50691503,7.11455696 C1.65015686,7.11417722 0.146326797,5.60696203 0.146326797,3.74772152 L0.146326797,3.74772152 L0.146326797,3.74772152 Z M0.774091503,3.74772152 C0.776745098,5.25949367 1.99739869,6.48341772 3.50729412,6.48531646 L3.50729412,6.48531646 C5.0156732,6.48303797 6.2363268,5.25949367 6.23973856,3.74772152 L6.23973856,3.74772152 C6.2363268,2.23481013 5.0156732,1.01126582 3.50729412,1.00822785 L3.50729412,1.00822785 C1.99701961,1.01126582 0.776366013,2.23481013 0.774091503,3.74772152 L0.774091503,3.74772152 L0.774091503,3.74772152 Z" transform="translate(108.797)"/>
      <path d="M111.728092,2.54240506 L112.659503,2.54240506 C112.957843,2.54240506 113.22851,2.62518987 113.22851,3.04367089 C113.22851,3.38848101 113.031386,3.56810127 112.668601,3.56810127 L111.728092,3.56810127 L111.728092,2.54240506 L111.728092,2.54240506 Z M111.154157,5.35670886 L111.728092,5.35670886 L111.728092,4.00481013 L112.572693,4.00481013 C113.100379,4.00481013 113.22434,4.27139241 113.22434,4.87405063 C113.22434,5.03506329 113.22434,5.2143038 113.311529,5.35670886 L113.926026,5.35670886 C113.802444,5.22341772 113.747098,4.87405063 113.747098,4.49202532 C113.747098,3.97253165 113.457856,3.82518987 113.260732,3.79746835 L113.260732,3.78873418 C113.366118,3.75189873 113.802444,3.59088608 113.802444,2.96088608 C113.802444,2.40455696 113.435111,2.07341772 112.719399,2.07341772 L111.154536,2.07341772 L111.154536,5.35670886 L111.154157,5.35670886 Z"/>
    </g>
    <rect width="198" height="116"/>
  </g>
</svg>
