<svg xmlns="http://www.w3.org/2000/svg" width="198" height="116" viewBox="0 0 198 116">
  <g fill="#828889" fill-rule="evenodd" transform="translate(23 37)">
    <path d="M51.11405 9.97015663C51.124125 10.593759 50.18 9.62436145 49.660975 10.1435422 49.317125 10.4873855 49.9421 9.62273494 49.914475 8.87063855 49.87645 7.83422892 49.92065 7.72980723 49.527075 6.84824096 49.291775 6.32222892 49.0009 5.67585542 49.99735 5.51938554 50.461125 5.44619277 50.51215 5.97838554 50.5791 6.68266265 50.68505 7.80625301 51.384125 5.12056627 54.96465 4.45239759 57.35535 4.00706024 60.36095 4.9693012 62.7718 3.91044578 65.481325 2.72146988 58.575725 10.2007952 53.304875 7.89213253 49.69445 6.31084337 51.1043 9.39762651 51.11405 9.97015663M6.746025 8.98774699C6.417775 8.68326506 6.10285 8.27175904 5.95075 7.87261446 5.798 7.47412048 5.639075 5.80239759 5.154825 5.42179518 4.9439 5.18725301 4.7216 5.0480241 4.323475 5.0480241 3.92535 5.0480241 3.626025 5.17098795 3.427125 5.41756627 2.90615 5.80239759 3.003325 6.75813253 2.90615 7.39474699 2.842125 7.81698795 2.998125 8.23695181 2.46025 8.81468675 2.05595 9.24213253 1.3429 9.67706024.588575 9.99195181.155025 10.3790602.000325 10.3719036.000325 10.8178916.000325 11.1692169.153075 11.3910723.433875 11.6604217.715325 11.9297711 1.710475 12.0758313 2.06245 12.4157711 2.413775 12.7557108 2.64745 13.0771084 2.78135 13.5930361 3.02835 14.2202169 2.975375 15.0468072 2.975375 15.8441205 3.018925 16.2953133 2.7417 20.351494 2.7417 20.351494 2.7417 21.1953253 2.806375 22.0111807 2.935075 22.7958072 3.0641 23.5817349 3.3098 24.2853614 3.673475 24.907012 4.0365 25.5286627 4.5344 26.0208434 5.16685 26.3838795 5.799625 26.7485422 6.608225 26.9307108 7.592 26.9307108 8.08405 26.9307108 8.54685 26.8474337 8.9804 26.6838072 9.41395 26.5192048 9.6304 26.2261084 9.6304 25.8041928 9.6304 25.5455783 9.554675 25.3351084 9.401925 25.1714819 9.249825 25.0065542 6.019325 25.5735542 5.825625 20.2067349L5.770375 15.9130843C5.770375 14.9986627 5.967 13.878 6.365125 13.3851687 6.7912 12.6590964 7.0733 12.4092651 7.54195 12.1041325 8.010275 11.7993253 8.665475 11.7954217 9.063925 11.5849518 9.462375 11.3731807 9.70125 11.2046747 9.70125 10.8526988 9.70125 10.5713133 9.636575 10.3666988 9.507225 10.2372289 9.37885 10.1084096 9.197175 9.97893976 8.96285 9.84979518 8.728525 9.7209759 7.16755 9.40966265 6.746025 8.98774699M21.217625 10.2687831C20.85785 10.3738554 18.486975 11.3347952 16.040375 10.9613494 15.209675 10.7951205 15.079675 10.5316265 14.54115 10.5459398 13.2977 10.5804217 12.90445 12.3305422 12.86935 12.6939036 12.834575 13.0579157 12.8167 13.3916747 12.8167 13.6968072L12.8167 24.2150964C12.8167 24.5202289 12.84595 24.8250361 12.90445 25.1301687 12.963275 25.4346506 13.056875 25.7163614 13.185575 25.9746506 13.3146 26.2326145 13.478725 26.4440602 13.677625 26.608012 13.87685 26.7719639 14.117025 26.8539398 14.39815 26.8539398 14.6562 26.8539398 14.878825 26.7719639 15.066025 26.608012 15.253225 26.4440602 15.4115 26.2205783 15.5402 25.9388675 15.66955 25.6584578 15.76315 25.3354337 15.82165 24.9720723 15.88015 24.6083855 15.9094 24.239494 15.9094 23.8631205L15.691975 19.9640602C15.691975 18.4393735 15.118025 15.3106265 16.951025 14.0774096 17.419675 13.6089759 18.54255 13.3162048 19.200025 13.1216747 19.960525 12.9356024 21.820175 12.4831084 22.253725 12.3074458 22.68695 12.1311325 22.90405 11.7615904 22.90405 11.1991446 22.90405 10.9180843 22.8826 10.6532892 22.62455 10.4535542 22.366825 10.2541446 22.07075 10.0196024 21.217625 10.2687831M79.0439 1.28396386C79.0582.862373494 78.891475.568626506 78.586625.405 78.2821.240072289 77.77835.158096386 77.075375.158096386 76.1384.158096386 75.324275.339939759 74.633325.703301205 73.941075 1.06698795 73.4175 1.39359036 72.97225 1.99181928 72.527325 2.58972289 72.3164 3.20486747 72.093125 3.96737349 71.870175 4.72922892 71.857825 6.07825301 71.857825 6.87589157 71.857825 7.97801205 72.012525 8.60291566 71.493825 9.46854217 70.73235 10.4034578 68.8415 10.9613494 68.815825 12.0839639 68.807375 12.4590361 68.9624 12.7696988 69.25555 13.0162771 69.548375 13.2628554 70.327725 13.5208193 70.679375 13.8841807 71.678425 14.3896988 71.920225 16.7149518 71.920225 17.8170723L71.66315 24.1162048C71.66315 24.8422771 71.7977 25.4346506 72.06745 25.8920241 72.33655 26.3493976 72.359625 26.5784096 72.82795 26.5784096 73.32 26.5784096 73.689525 26.3080843 73.9349 25.7690602 74.1819 25.2297108 74.304425 24.6197711 74.304425 23.9395663L74.0311 17.3317229C74.0311 16.2299277 74.238125 14.5279518 75.760425 13.523747 76.228425 13.2313012 77.057175 13.0644217 77.454975 12.9007952 77.85375 12.7358675 78.114075 12.4118675 78.099775 12.0839639 78.043225 10.7534819 75.794875 10.9040964 74.8956 9.62273494 74.148425 8.58404819 73.094775 5.19831325 75.96745 2.69316867 77.45205 1.62487952 79.01205 2.20098795 79.0439 1.28396386M114.783825 12.9284458C114.783825 12.6470602 114.76595 12.3243614 114.730525 11.9613253 114.6964 11.5973133 114.6197 11.2515181 114.5027 10.9236145 114.38505 10.5947349 114.227425 10.3195301 114.02885 10.0966988 113.828975 9.87354217 113.5654 9.76228916 113.236825 9.76228916 112.9323 9.76228916 112.68725 9.87354217 112.499075 10.0966988 112.312525 10.3195301 112.1653 10.5947349 112.05935 10.9236145 111.95405 11.2515181 111.8845 11.5973133 111.8494 11.9613253 111.81365 12.3243614 111.796425 12.6470602 111.796425 12.9284458L111.796425 23.7642289C111.796425 23.9984458 111.81365 24.2736506 111.8494 24.5911446 111.8845 24.907012 111.95405 25.2059639 112.05935 25.488 112.1653 25.7690602 112.312525 26.0094578 112.499075 26.2082169 112.68725 26.4079518 112.9323 26.5078193 113.236825 26.5078193 113.541675 26.5078193 113.79355 26.4134819 113.99245 26.2261084 114.192325 26.0393855 114.350275 25.8041928 114.467275 25.5221566 114.5846 25.2414217 114.666825 24.9421446 114.7133 24.6256265 114.759775 24.3094337 114.783825 24.0215422 114.783825 23.7642289L114.783825 12.9284458 114.783825 12.9284458zM113.236825 4.62578313C113.63625 4.62578313 113.963525 4.49696386 114.221575 4.239 114.47865 3.98168675 114.608 3.68793976 114.608 3.35938554 114.608 3.03148193 114.490025 2.73220482 114.256675 2.46187952 114.021375 2.19285542 113.6824 2.05753012 113.236825 2.05753012 112.7919 2.05753012 112.4578 2.19285542 112.235825 2.46187952 112.0132 2.73220482 111.90205 3.03148193 111.90205 3.35938554 111.90205 3.68793976 112.00735 3.98168675 112.21795 4.239 112.42855 4.49696386 112.768175 4.62578313 113.236825 4.62578313L113.236825 4.62578313 113.236825 4.62578313zM136.998875 9.37550602C136.295575 9.37550602 135.5692 9.46301205 134.81975 9.639 134.06965 9.81498795 133.379675 10.0966988 132.7469 10.4834819 132.113475 10.8702651 131.59835 11.3748072 131.199575 11.9958072 130.8008 12.6177831 130.60255 13.3620723 130.60255 14.2299759 130.60255 15.2146627 130.81315 15.9953855 131.235325 16.5695422 131.656525 17.1443494 132.189525 17.6134337 132.83465 17.9767952 133.4788 18.3401566 134.175925 18.6329277 134.92635 18.8564096 135.6745 19.0789157 136.37195 19.3372048 137.0161 19.6299759 137.66025 19.9233976 138.1939 20.2926145 138.6151 20.7379518 139.0376 21.1836145 139.2482 21.7938795 139.2482 22.5677711 139.2482 22.8257349 139.190025 23.1133012 139.07205 23.429494 138.9557 23.7463373 138.767525 24.0391084 138.5111 24.3094337 138.2524 24.5787831 137.930325 24.8081205 137.543575 24.9948434 137.15715 25.1825422 136.682975 25.2768795 136.1204 25.2768795 135.440825 25.2768795 134.825925 25.1591205 134.275375 24.9245783 133.72515 24.6900361 133.249675 24.5726024 132.851875 24.5726024 132.594475 24.5726024 132.359175 24.6197711 132.148575 24.7141084 131.93765 24.8081205 131.832675 25.0189157 131.832675 25.3474699 131.832675 25.6519518 131.9786 25.910241 132.2724 26.1210361 132.564575 26.331506 132.922725 26.5019639 133.3436 26.6307831 133.765775 26.7599277 134.2107 26.8539398 134.6787 26.9121687 135.148 26.9703976 135.5692 27 135.944575 27 137.116525 27 138.135725 26.8773614 139.002825 26.6307831 139.86895 26.3838795 140.595975 26.0566265 141.18195 25.6460964 141.766625 25.235241 142.200175 24.7603012 142.4826 24.2203012 142.763725 23.6812771 142.9038 23.1302169 142.9038 22.5677711 142.9038 21.4419036 142.6932 20.5505783 142.271675 19.8934699 141.8495 19.2366867 141.3282 18.7155542 140.70745 18.3287711 140.087025 17.9416627 139.4068 17.6365301 138.6684 17.4136988 137.930325 17.1908675 137.2514 16.9452651 136.63065 16.6749398 136.00925 16.4052651 135.487625 16.0594699 135.0661 15.6372289 134.643925 15.2146627 134.433325 14.6056988 134.433325 13.8083855 134.433325 13.3620723 134.538625 12.9990361 134.74955 12.7173253 134.959825 12.4359398 135.21235 12.2134337 135.50485 12.0491566 135.798325 11.8845542 136.08465 11.7677711 136.365775 11.6971807 136.647875 11.6269157 136.8588 11.5917831 136.998875 11.5917831 137.491575 11.5917831 137.895225 11.6327711 138.21145 11.7144217 138.52865 11.7963976 138.885175 11.8383614 139.28395 11.8383614 139.634625 11.8383614 139.93915 11.7853373 140.1972 11.6796145 140.454925 11.5742169 140.58395 11.3569157 140.58395 11.0286867 140.58395 10.7473012 140.45005 10.5069036 140.179975 10.307494 139.910875 10.1084096 139.58165 9.93795181 139.195875 9.79709639 138.80945 9.65689157 138.410675 9.55084337 138.00085 9.48057831 137.5907 9.41031325 137.2566 9.37550602 136.998875 9.37550602"/>
    <path d="M45.9303 14.7917711C45.9303 15.3587711 46.0837 15.8307831 46.390825 16.2094337 46.6973 16.5871084 47.075275 16.8828072 47.523775 17.0952289 47.972275 17.3079759 48.4562 17.4556627 48.975875 17.5382892 49.494575 17.6205904 49.978825 17.6622289 50.427325 17.6622289 50.9938 17.6622289 51.536875 17.6088795 52.056225 17.5028313 52.57525 17.3967831 53.029925 17.2305542 53.419275 17.0064217 53.80895 16.7819639 54.116075 16.4924458 54.34 16.1381928 54.564575 15.7836145 54.676375 15.3587711 54.676375 14.8626867 54.676375 14.2716145 54.535 13.7521084 54.2516 13.3028675 53.9682 12.8536265 53.608425 12.4697711 53.1713 12.1506506 52.734825 11.8321807 52.2392 11.5898313 51.684425 11.4249036 51.12965 11.259 50.569025 11.1760482 50.00255 11.1760482 49.459475 11.1760482 48.9398 11.2765663 48.444175 11.478253 47.94855 11.6786386 47.5176 11.943759 47.151975 12.2749157 46.786025 12.605747 46.49125 12.9896024 46.266675 13.4264819 46.042425 13.8643373 45.9303 14.3191084 45.9303 14.7917711L45.9303 14.7917711 45.9303 14.7917711zM58.051825 16.0614217C57.863325 19.156012 54.496325 18.9448916 53.389375 19.0626506 52.44395 19.1322651 49.88425 19.0873735 48.730825 18.8326627 47.590075 18.6768434 44.78435 17.5041325 44.57635 17.8170723 43.627675 19.2487229 44.9189 22.6578795 47.558875 24.147759 48.0077 24.4314217 48.4978 24.6493735 49.028525 24.8035663 52.351325 25.6526024 54.565875 24.1295422 54.565875 24.1295422 54.884375 24.0111325 55.360825 23.7144578 55.71475 23.7089277 56.57535 23.6936386 57.010525 24.6236747 56.2393 25.3360843 54.73715 26.3581807 53.6861 26.5969518 53.037075 26.7501687 52.387725 26.9040361 51.631125 26.9473012 50.710725 26.9473012 49.57745 26.9473012 48.479925 26.7358554 47.4175 26.3100361 46.355075 25.8845422 45.41095 25.305506 44.5848 24.5735783 43.75865 23.8403494 43.0976 22.9783012 42.601975 21.9854819 42.10635 20.9936386 41.858375 19.9305542 41.858375 18.7959036 41.858375 17.3548193 42.082625 16.078988 42.531125 14.9690602 42.979625 13.8581566 43.623125 12.919012 44.460975 12.1506506 45.298825 11.3829398 46.29625 10.8045542 47.452925 10.4138675 48.6096 10.0248072 49.646675 9.7463494 51.0601 9.82995181 52.236275 9.89891566 53.80635 10.266506 55.31825 11.3409759 57.174325 12.7723012 58.051825 15.021759 58.051825 16.0614217L58.051825 16.0614217 58.051825 16.0614217zM25.72505 10.1998193C25.326925 10.1998193 24.986975 10.3933735 24.70585 10.7801566 24.424725 11.1669398 24.284325 11.7706988 24.284325 12.5920843L24.6311 20.5186988C24.7702 23.5397711 26.118625 26.6125663 29.1512 26.9580361 29.8493 27.0419639 32.850675 26.7254458 33.89815 26.5185542 34.26605 26.446012 35.4432 26.2765301 36.0776 26.3113373 37.002225 26.3614337 37.84755 26.7257711 38.222275 26.7257711 38.878125 26.7257711 39.847275 26.2927952 39.7137 25.6080361 39.437125 24.188747 39.433225 22.9018554 39.433225 21.7050723L39.7137 13.8233494C39.7137 13.3308434 39.69615 12.861759 39.661375 12.416747 39.62595 11.9704337 39.555425 11.5833253 39.450125 11.2550964 39.3445 10.9265422 39.1924 10.6685783 38.993175 10.4812048 38.79395 10.2931807 38.518675 10.1998193 38.16735 10.1998193 37.839425 10.1998193 37.575525 10.2990361 37.376625 10.4987711 37.1774 10.6981807 37.019125 10.9561446 36.902125 11.2723373 36.7848 11.5898313 36.7029 11.9294458 36.6561 12.2928072 36.60865 12.6561687 36.585575 12.9909036 36.585575 13.2957108L36.585575 18.5021566C36.585575 19.2288795 36.564775 21.9773494 36.185175 22.7346506 35.49325 24.3618072 34.3863 24.880988 32.40315 24.9040843 29.539575 24.9395422 28.6247 23.4860964 28.2386 22.7590482 27.85185 22.0316747 27.582425 21.1351446 27.429675 20.067506 27.277575 19.0001928 27.201525 17.7396506 27.201525 16.2855542L27.201525 12.8731446C27.201525 12.0286627 27.078675 11.3722048 26.83265 10.9031205 26.586625 10.4343614 26.217425 10.1998193 25.72505 10.1998193M89.34965 10.307494C88.990525 10.4128916 86.61965 11.3738313 84.172075 11.0000602 83.34235 10.833506 83.21235 10.5693614 82.672525 10.5846506 81.43005 10.6194578 81.0368 12.3689277 81.002025 12.7329398 80.966275 13.0959759 80.949375 13.4303855 80.949375 13.7358434L80.949375 24.2544578C80.949375 24.5592651 80.9783 24.8643976 81.0368 25.1692048 81.0953 25.4733614 81.189875 25.754747 81.317925 26.0136867 81.44695 26.2713253 81.6114 26.4821205 81.809975 26.6460723 82.00855 26.8106747 82.249375 26.8926506 82.5305 26.8926506 82.788225 26.8926506 83.0115 26.8106747 83.198375 26.6460723 83.3859 26.4821205 83.544175 26.2592892 83.67255 25.9782289 83.8019 25.6961928 83.895175 25.3741446 83.954325 25.0107831 84.012175 24.6464458 84.04175 24.2778795 84.04175 23.9024819L83.82465 20.0024458C83.82465 18.4780843 83.250375 15.3486867 85.08305 14.1164458 85.552025 13.6476867 86.6749 13.3549157 87.331725 13.1607108 88.0932 12.9733373 89.9522 12.5221446 90.3864 12.345506 90.819625 12.1698434 91.0364 11.8003012 91.0364 11.2375301 91.0364 10.9561446 91.0143 10.6916747 90.756575 10.4919398 90.49885 10.2931807 90.203425 10.0586386 89.34965 10.307494M93.9445 10.1998193C93.545725 10.1998193 93.2061 10.3933735 92.92465 10.7801566 92.64385 11.1669398 92.5028 11.7706988 92.5028 12.5920843L92.850225 20.5186988C92.989325 23.5397711 94.33775 26.6125663 97.370325 26.9580361 98.067775 27.0419639 101.069475 26.7254458 102.11695 26.5185542 102.484525 26.446012 103.662325 26.2765301 104.296725 26.3113373 105.221025 26.3614337 106.06635 26.7260964 106.4414 26.7260964 107.096925 26.7260964 108.066075 26.2927952 107.932825 25.6080361 107.655925 24.188747 107.65235 22.9018554 107.65235 21.7050723L107.932825 13.8233494C107.932825 13.3308434 107.91495 12.861759 107.880175 12.416747 107.84475 11.9704337 107.7739 11.5833253 107.668925 11.2550964 107.562975 10.9265422 107.4112 10.6685783 107.2123 10.4812048 107.013725 10.2931807 106.738125 10.1998193 106.385825 10.1998193 106.0579 10.1998193 105.794975 10.2990361 105.59575 10.4987711 105.395875 10.6981807 105.23825 10.9561446 105.1206 11.2723373 105.003925 11.5898313 104.9217 11.9294458 104.875225 12.2928072 104.8281 12.6561687 104.80405 12.9909036 104.80405 13.2957108L104.80405 18.5021566C104.80405 19.2288795 104.7839 21.9773494 104.40495 22.7346506 103.712375 24.3618072 102.6051 24.880988 100.622925 24.9040843 97.7587 24.9395422 96.8435 23.4860964 96.4574 22.7590482 96.07065 22.0316747 95.801225 21.1351446 95.649125 20.067506 95.496375 19.0001928 95.420325 17.7396506 95.420325 16.2855542L95.420325 12.8731446C95.420325 12.0286627 95.29715 11.3722048 95.05145 10.9031205 94.8051 10.4343614 94.436875 10.1998193 93.9445 10.1998193M124.32875 9.09086747C124.0005 8.78671084 123.7899 8.27110843 123.637475 7.87261446 123.48505 7.47346988 123.325475 5.80174699 122.8409 5.42049398 122.630625 5.18627711 122.40865 5.0476988 122.00955 5.0476988 121.612075 5.0476988 121.312425 5.17098795 121.114175 5.41691566 120.59255 5.80174699 120.689725 6.75748193 120.59255 7.39474699 120.5282 7.81633735 120.51195 8.80395181 120.10895 9.22977108 119.704325 9.65754217 119.030275 9.67706024 118.27465 9.9909759 117.842075 10.3784096 117.68705 10.3706024 117.68705 10.8169157 117.68705 11.1692169 117.840125 11.3900964 118.121575 11.6604217 118.4014 11.9294458 119.3972 12.0751807 119.74885 12.4157711 120.09985 12.7553855 120.33385 13.0767831 120.468725 13.5923855 120.714425 14.2198916 120.6621 15.045506 120.6621 15.8434699 120.7063 16.2943373 120.4281 20.3511687 120.4281 20.3511687 120.4281 21.1953253 120.493425 22.0098795 120.62115 22.7951566 120.75115 23.580759 120.996525 24.2850361 121.360525 24.9066867 121.722575 25.5286627 122.220475 26.0208434 122.85325 26.3838795 123.486025 26.7478916 124.29495 26.9294096 125.2797 26.9294096 125.771425 26.9294096 126.233575 26.8471084 126.667125 26.6828313 127.100675 26.5185542 127.31745 26.2254578 127.31745 25.8035422 127.31745 25.5455783 127.24075 25.3351084 127.0893 25.1714819 126.936225 25.0059036 123.707025 25.5735542 123.512025 20.2060843L123.456775 15.912759C123.456775 14.9976867 123.639425 13.8643373 124.038525 13.3711807 124.577375 12.5823253 124.760025 12.4089398 125.228675 12.1034819 125.885825 11.7508554 126.3522 11.7954217 126.750975 11.5846265 127.148775 11.3725301 127.387975 11.2036988 127.387975 10.8523735 127.387975 10.570988 127.323625 10.3657229 127.194925 10.2365783 127.0659 10.107759 126.8839 9.97893976 126.6499 9.84946988 126.4146 9.7203253 124.74995 9.51310843 124.32875 9.09086747"/>
  </g>
</svg>
