<svg xmlns="http://www.w3.org/2000/svg" width="48" height="48" viewBox="0 0 48 48">
  <g fill="#E2353C" fill-rule="evenodd" transform="translate(-1477)">
    <text font-family="SourceSansPro-Semibold, Source Sans Pro" font-size="18" font-weight="500">
          <tspan x="1374.682" y="121">Impressum // AGB</tspan>
    </text>
    <path d="M1499.70759,20.5424107 C1499.57366,20.7834833 1497.8527,23.8370242 1494.54464,29.703125 C1494.18303,30.3191995 1493.74777,30.6272321 1493.23884,30.6272321 L1488.4375,30.6272321 C1488.15625,30.6272321 1487.94866,30.513394 1487.81473,30.2857143 C1487.6808,30.0580346 1487.6808,29.8169656 1487.81473,29.5625 L1492.89732,20.5625 C1492.91071,20.5625 1492.91071,20.5558036 1492.89732,20.5424107 L1489.66295,14.9375 C1489.50223,14.6428557 1489.49553,14.3950903 1489.64286,14.1941964 C1489.76339,13.9933026 1489.97768,13.8928571 1490.28571,13.8928571 L1495.08705,13.8928571 C1495.62277,13.8928571 1496.06473,14.1941934 1496.41295,14.796875 L1499.70759,20.5424107 Z M1515.89955,7.64508929 C1516.04688,7.85937607 1516.04688,8.10714145 1515.89955,8.38839286 L1505.29241,27.1517857 L1505.29241,27.171875 L1512.04241,39.5267857 C1512.18973,39.7946442 1512.19643,40.0424096 1512.0625,40.2700893 C1511.92857,40.4709831 1511.71429,40.5714286 1511.41964,40.5714286 L1506.6183,40.5714286 C1506.0558,40.5714286 1505.61384,40.2700923 1505.29241,39.6674107 L1498.48214,27.171875 C1498.72322,26.7433014 1502.27898,20.4353288 1509.14955,8.24776786 C1509.48438,7.64508627 1509.91294,7.34375 1510.43527,7.34375 L1515.27679,7.34375 C1515.57143,7.34375 1515.77902,7.44419542 1515.89955,7.64508929 L1515.89955,7.64508929 Z"/>
  </g>
</svg>
